<svg width="21" height="21" viewBox="0 0 21 21" fill="none" xmlns="http://www.w3.org/2000/svg">
<path d="M10.3667 18.928C5.52225 19.0526 1.48334 15.2163 1.35872 10.3719C1.2341 5.52747 5.07044 1.48855 9.91485 1.36394C14.7593 1.23932 18.7982 5.07565 18.9228 9.92007C19.0474 14.7645 15.2111 18.8034 10.3667 18.928ZM9.94638 2.58934C5.78001 2.69651 2.47695 6.174 2.58412 10.3404C2.6913 14.5067 6.16879 17.8098 10.3351 17.7026C14.5015 17.5954 17.8046 14.118 17.6974 9.95159C17.5902 5.78523 14.1127 2.48216 9.94638 2.58934Z" fill="#6200EE"/>
<path d="M13.4238 10.6743L6.88836 10.8425C6.55342 10.8511 6.26852 10.5805 6.2599 10.2455C6.25129 9.91057 6.5219 9.62567 6.85684 9.61705L13.3923 9.44893C13.7273 9.44032 14.0122 9.71093 14.0208 10.0459C14.0294 10.3808 13.7588 10.6657 13.4238 10.6743Z" fill="#6200EE"/>
<path d="M10.2401 14.0264C9.90513 14.035 9.62023 13.7644 9.61161 13.4294L9.4435 6.89395C9.43488 6.55901 9.70549 6.2741 10.0404 6.26549C10.3754 6.25687 10.6603 6.52749 10.6689 6.86243L10.837 13.3979C10.8456 13.7328 10.575 14.0177 10.2401 14.0264Z" fill="#6200EE"/>
</svg>
