<svg width="318" height="192" viewBox="0 0 318 192" fill="none" xmlns="http://www.w3.org/2000/svg">
<path d="M231.242 150.556L219.196 138.57C217.098 136.482 213.565 135.023 210.604 135.023H185.086V144.34H210.602C211.108 144.349 212.262 144.825 212.625 145.174L224.181 156.674C225.828 153.968 228.298 151.814 231.242 150.556Z" fill="#004777"/>
<path d="M226.323 105.465C226.323 103.841 226.582 102.276 227.059 100.807H185.086V110.123H227.058C226.582 108.654 226.323 107.089 226.323 105.465Z" fill="#004777"/>
<path d="M234.286 64.9453C234.286 63.3212 234.545 61.756 235.022 60.2871H185.086V69.6035H235.021C234.545 68.134 234.286 66.5695 234.286 64.9453Z" fill="#004777"/>
<path d="M198.75 21.7227C198.75 20.0979 199.01 18.5333 199.486 17.0645H185.086V26.3809H199.486C199.01 24.9114 198.75 23.3474 198.75 21.7227Z" fill="#004777"/>
<path d="M282.383 21.3563L245.258 -15.5864C243.159 -17.6745 239.626 -19.1328 236.665 -19.1328H185.086V-9.81641H236.663C237.168 -9.80771 238.323 -9.33133 238.686 -8.98228L275.787 27.9362C277.244 25.1183 279.556 22.8109 282.383 21.3563Z" fill="#004777"/>
<path d="M117.368 -99.4631C115.487 -99.7756 113.559 -99.9457 111.59 -99.9457C92.3072 -99.9457 76.6755 -84.3911 76.6755 -65.2036C76.6755 -63.5142 76.8028 -61.8553 77.037 -60.2305C73.685 -61.2951 70.1143 -61.8758 66.407 -61.8758C47.1245 -61.8758 31.4934 -46.3211 31.4934 -27.1337C31.4934 -21.4327 32.8822 -16.0577 35.3281 -11.3113C18.9995 -3.33398 7.75586 13.3685 7.75586 32.6901C7.75586 52.0862 19.0852 68.8483 35.5169 76.7871C32.9511 81.6229 31.4928 87.1296 31.4928 92.9778C31.4928 112.165 47.1239 127.719 66.4064 127.719C70.0988 127.719 73.6545 127.144 76.9941 126.088C76.791 127.609 76.6749 129.157 76.6749 130.733C76.6749 149.921 92.3066 165.476 111.589 165.476C113.575 165.476 115.52 165.302 117.415 164.984C121.859 177.812 134.089 187.031 148.489 187.031C166.643 187.031 181.36 172.388 181.36 154.323V-88.9443C181.36 -107.009 166.643 -121.652 148.489 -121.652C134.036 -121.652 121.771 -112.365 117.368 -99.4631Z" fill="#6200EE"/>
<g opacity="0.1">
<path d="M17.0719 43.8691C17.0719 26.2332 26.9697 10.4419 42.9014 2.65833C43.6523 2.29188 44.223 1.63849 44.4864 0.84597C44.7491 0.0534592 44.6814 -0.811722 44.2988 -1.55393C41.9834 -6.04755 40.8095 -10.8927 40.8095 -15.954C40.8095 -33.3987 55.0785 -47.5906 72.6176 -47.5906C75.9131 -47.5906 79.1739 -47.0857 82.3079 -46.0907C82.616 -45.9932 82.9333 -45.9454 83.2482 -45.9454C83.9737 -45.9454 84.6873 -46.1994 85.2562 -46.682C86.0717 -47.3726 86.4742 -48.4353 86.322 -49.493C86.1034 -51.0116 85.9922 -52.5358 85.9922 -54.0233C85.9922 -71.468 100.262 -85.6606 117.801 -85.6606C119.536 -85.6606 121.309 -85.5121 123.07 -85.2196C123.241 -85.191 123.412 -85.1774 123.58 -85.1774C124.889 -85.1774 126.083 -86.0072 126.518 -87.2804C130.617 -99.2948 141.943 -107.367 154.7 -107.367C166.187 -107.367 176.169 -100.858 181.129 -91.3566C179.737 -108.145 165.612 -121.342 148.38 -121.342C133.927 -121.342 121.661 -112.055 117.259 -99.1526C115.378 -99.465 113.45 -99.6352 111.481 -99.6352C92.1982 -99.6352 76.5665 -84.0805 76.5665 -64.8931C76.5665 -63.2037 76.6938 -61.5448 76.928 -59.92C73.5759 -60.9845 70.0053 -61.5652 66.298 -61.5652C47.0155 -61.5652 31.3844 -46.0106 31.3844 -26.8231C31.3844 -21.1221 32.7732 -15.7472 35.2191 -11.0008C18.8905 -3.02406 7.64746 13.679 7.64746 33C7.64746 48.4683 14.8577 62.2554 26.1107 71.2345C20.3296 63.4988 17.0719 53.9961 17.0719 43.8691Z" fill="#00003F"/>
</g>
<path d="M74.2464 49.273C76.8196 49.273 78.9046 47.188 78.9046 44.6148C78.9046 42.0416 76.8196 39.9566 74.2464 39.9566H60.8854C52.3609 39.9566 45.4258 33.0656 45.4258 24.5957C45.4258 22.0225 43.3408 19.9375 40.7676 19.9375C38.1944 19.9375 36.1094 22.0225 36.1094 24.5957C36.1094 38.2026 47.2238 49.273 60.8854 49.273H74.2464Z" fill="#4600A9"/>
<path d="M54.3867 98.1736C54.3867 100.747 56.4717 102.832 59.0449 102.832C61.6181 102.832 63.7031 100.747 63.7031 98.1736C63.7031 90.2192 70.2165 83.748 78.2237 83.748H118.018C120.592 83.748 122.677 81.663 122.677 79.0898C122.677 76.5167 120.592 74.4316 118.018 74.4316H78.2237C65.0801 74.4316 54.3867 85.0815 54.3867 98.1736Z" fill="#4600A9"/>
<path d="M136.652 83.748H155.974C158.547 83.748 160.632 81.663 160.632 79.0898C160.632 76.5167 158.547 74.4316 155.974 74.4316H136.652C134.079 74.4316 131.994 76.5167 131.994 79.0898C131.994 81.663 134.079 83.748 136.652 83.748Z" fill="#4600A9"/>
<path d="M94.2637 12.7343C91.6905 12.7343 89.6055 14.8193 89.6055 17.3925C89.6055 19.9657 91.6905 22.0507 94.2637 22.0507C112.799 22.0507 127.879 7.03517 127.879 -11.4219C127.879 -13.9944 125.793 -16.0801 123.22 -16.0801C120.647 -16.0801 118.562 -13.9944 118.562 -11.4219C118.562 1.8981 107.662 12.7343 94.2637 12.7343Z" fill="#4600A9"/>
<path d="M98.9678 95.1738C96.3946 95.1738 94.3096 97.2588 94.3096 99.832C94.3096 102.405 96.3946 104.49 98.9678 104.49C106.66 104.49 112.918 110.707 112.918 118.347C112.918 125.989 106.66 132.207 98.9678 132.207C96.3946 132.207 94.3096 134.292 94.3096 136.865C94.3096 139.438 96.3946 141.523 98.9678 141.523C111.797 141.523 122.235 131.127 122.235 118.347C122.235 105.57 111.797 95.1738 98.9678 95.1738Z" fill="#4600A9"/>
<path d="M146.641 17.0563C144.067 17.0563 141.982 19.1414 141.982 21.7145C141.982 24.2877 144.067 26.3727 146.641 26.3727C157.958 26.3727 167.164 17.2004 167.164 5.92697C167.164 -5.34588 157.958 -14.5176 146.641 -14.5176C144.067 -14.5176 141.982 -12.4326 141.982 -9.85938C141.982 -7.28618 144.067 -5.20117 146.641 -5.20117C152.82 -5.20117 157.848 -0.209436 157.848 5.92697C157.848 12.064 152.82 17.0563 146.641 17.0563Z" fill="#4600A9"/>
<path d="M64.582 12.7686C80.3355 12.7686 93.1523 0.00512314 93.1523 -15.6837C93.1523 -31.3719 80.3355 -44.1348 64.582 -44.1348C62.0088 -44.1348 59.9238 -42.0498 59.9238 -39.4766C59.9238 -36.9034 62.0088 -34.8184 64.582 -34.8184C75.199 -34.8184 83.8359 -26.2348 83.8359 -15.6837C83.8359 -5.13256 75.199 3.45219 64.582 3.45219C62.0088 3.45219 59.9238 5.5372 59.9238 8.1104C59.9238 10.683 62.0095 12.7686 64.582 12.7686Z" fill="#4600A9"/>
<path d="M148.38 -126C133.587 -126 120.317 -117.378 114.261 -104.194C113.33 -104.26 112.402 -104.294 111.481 -104.294C89.9734 -104.294 72.4182 -87.1233 71.9195 -65.826C70.0624 -66.0905 68.1842 -66.2241 66.298 -66.2241C44.4777 -66.2241 26.7262 -48.549 26.7262 -26.8238C26.7262 -22.055 27.5628 -17.4409 29.2174 -13.0516C12.9299 -3.3874 2.98926 13.8765 2.98926 33C2.98926 51.8955 13.2081 69.5396 29.369 79.1348C27.6318 83.6334 26.7268 88.4506 26.7268 93.2877C26.7268 115.013 44.4783 132.687 66.2986 132.687C68.1886 132.687 70.0692 132.554 71.9282 132.289C72.5903 153.441 90.079 170.444 111.481 170.444C112.424 170.444 113.375 170.408 114.329 170.339C120.417 183.436 133.661 192 148.38 192C169.073 192 185.909 175.238 185.909 154.634V-88.6338C185.909 -109.238 169.074 -126 148.38 -126ZM176.592 -88.1164H167.633C165.06 -88.1164 162.975 -86.0314 162.975 -83.4582C162.975 -80.885 165.06 -78.8 167.633 -78.8H176.592V-47.777H138.917C130.392 -47.777 123.457 -54.6674 123.457 -63.1366C123.457 -65.7098 121.372 -67.7948 118.799 -67.7948C116.226 -67.7948 114.141 -65.7098 114.141 -63.1366C114.141 -49.5303 125.255 -38.4606 138.917 -38.4606H176.592V39.9563H101.031C98.4582 39.9563 96.3732 42.0413 96.3732 44.6145C96.3732 47.1877 98.4582 49.2727 101.031 49.2727H176.592V113.23H162.198C149.054 113.23 138.362 123.88 138.362 136.972C138.362 139.545 140.447 141.63 143.02 141.63C145.593 141.63 147.678 139.545 147.678 136.972C147.678 129.018 154.191 122.547 162.198 122.547H176.592V154.634C176.592 155.365 176.555 156.088 176.5 156.806H167.633C165.06 156.806 162.975 158.891 162.975 161.464C162.975 164.037 165.06 166.122 167.633 166.122H174.107C169.685 175.875 159.82 182.684 148.38 182.684C138.105 182.684 128.792 177.14 123.849 168.477C129.475 166.639 134.653 163.55 139.016 159.342C140.867 157.555 140.92 154.606 139.134 152.756C137.347 150.903 134.398 150.851 132.548 152.637C128.156 156.873 122.681 159.63 116.766 160.663V160.681C116.689 160.69 113.142 161.128 111.481 161.128C94.7975 161.128 81.2247 147.632 81.2247 131.043C81.2247 130.619 81.2502 130.179 81.2707 129.743C85.0308 128.212 88.5629 126.118 91.7131 123.488C93.6882 121.84 93.9522 118.902 92.3032 116.927C90.6542 114.952 87.7158 114.688 85.7419 116.337C81.9557 119.498 77.4534 121.666 72.6673 122.692V122.694C70.5798 123.141 68.4476 123.371 66.2973 123.371C49.6148 123.371 36.042 109.875 36.042 93.2877C36.042 88.3457 37.2134 83.6328 39.5226 79.2796C39.5779 79.1752 39.694 78.9603 39.694 78.9603C42.4337 73.9301 46.6068 69.6861 51.8501 66.8465C54.1127 65.6211 54.9531 62.7945 53.7276 60.5325C52.5028 58.2692 49.675 57.4276 47.4136 58.6549C41.8492 61.6691 37.2109 65.8962 33.7415 70.8991C20.4227 62.8864 12.3057 48.7186 12.3057 33C12.3057 19.3086 18.4849 6.77121 28.8994 -1.52971C29.8118 -2.23216 30.7379 -2.90792 31.6763 -3.55013C38.8512 -8.46049 47.5366 -11.3374 56.8853 -11.3374C59.4585 -11.3374 61.5435 -13.4224 61.5435 -15.9956C61.5435 -18.5688 59.4585 -20.6538 56.8853 -20.6538C50.1178 -20.6538 43.6398 -19.4023 37.6674 -17.1247C36.5966 -20.2302 36.0439 -23.4754 36.0439 -26.8231C36.0439 -43.4119 49.616 -56.907 66.2992 -56.907C69.4351 -56.907 72.5375 -56.4269 75.52 -55.4798C77.0485 -54.9947 78.7186 -55.3295 79.9415 -56.3667C81.1651 -57.4039 81.7682 -58.9964 81.5396 -60.5839C81.3315 -62.0298 81.226 -63.4795 81.226 -64.8931C81.226 -81.4812 94.7987 -94.977 111.482 -94.977C113.12 -94.977 114.795 -94.8366 116.461 -94.5627C130.782 -92.1939 141.737 -79.795 141.737 -64.8931C141.737 -62.3199 143.822 -60.2349 146.395 -60.2349C148.969 -60.2349 151.054 -62.3199 151.054 -64.8931C151.054 -82.347 139.591 -97.1769 123.77 -102.336C128.688 -111.082 138.036 -116.684 148.38 -116.684C163.936 -116.684 176.592 -104.1 176.592 -88.6338V-88.1164Z" fill="#4600A9"/>
<path d="M299.133 106.521C290.377 106.521 283.254 99.4224 283.254 90.6973C283.254 81.9721 290.377 74.873 299.133 74.873C307.888 74.873 315.011 81.9715 315.011 90.6973C315.011 99.423 307.888 106.521 299.133 106.521Z" fill="#00DDD0"/>
<path d="M214.008 37.5463C205.252 37.5463 198.129 30.4478 198.129 21.7227C198.129 12.9969 205.252 5.89844 214.008 5.89844C222.764 5.89844 229.887 12.9969 229.887 21.7227C229.887 30.4484 222.764 37.5463 214.008 37.5463Z" fill="#00DDD0"/>
<path d="M241.581 121.287C232.825 121.287 225.702 114.189 225.702 105.463C225.702 96.7372 232.825 89.6387 241.581 89.6387C250.337 89.6387 257.46 96.7372 257.46 105.463C257.46 114.189 250.337 121.287 241.581 121.287Z" fill="#33C7CA"/>
<path d="M289.359 50.6927C280.603 50.6927 273.48 43.5943 273.48 34.8685C273.48 26.1434 280.604 19.0449 289.359 19.0449C298.116 19.0449 305.238 26.1434 305.238 34.8685C305.238 43.5949 298.115 50.6927 289.359 50.6927Z" fill="#33C7CA"/>
<path d="M278.863 155.145C270.107 155.145 262.984 148.046 262.984 139.32C262.984 130.595 270.108 123.496 278.863 123.496C287.619 123.496 294.742 130.595 294.742 139.32C294.742 148.046 287.619 155.145 278.863 155.145Z" fill="#FFC107"/>
<path d="M249.544 80.7676C240.788 80.7676 233.665 73.6691 233.665 64.9434C233.665 56.2176 240.788 49.1191 249.544 49.1191C258.3 49.1191 265.423 56.2176 265.423 64.9434C265.423 73.6691 258.3 80.7676 249.544 80.7676Z" fill="#FFC107"/>
<path d="M237.237 180.357C228.481 180.357 221.358 173.259 221.358 164.533C221.358 155.807 228.482 148.709 237.237 148.709C245.993 148.709 253.116 155.807 253.116 164.533C253.116 173.259 245.993 180.357 237.237 180.357Z" fill="#00DDD0"/>
</svg>
