<svg width="58" height="24" viewBox="0 0 58 24" fill="none" xmlns="http://www.w3.org/2000/svg">
<rect x="0.892578" y="0.935608" width="68.2289" height="22.9616" rx="3.82694" fill="white"/>
<path d="M15.5441 16.7905C17.9596 16.7905 19.9177 14.8324 19.9177 12.4169C19.9177 10.0014 17.9596 8.04321 15.5441 8.04321C13.1286 8.04321 11.1704 10.0014 11.1704 12.4169C11.1704 14.8324 13.1286 16.7905 15.5441 16.7905Z" stroke="#5B697C" stroke-width="0.98407" stroke-linecap="round" stroke-linejoin="round"/>
<path d="M13.7946 8.4801H14.2319C13.3791 11.0343 13.3791 13.7985 14.2319 16.3527H13.7946" stroke="#5B697C" stroke-width="0.98407" stroke-linecap="round" stroke-linejoin="round"/>
<path d="M16.8564 8.4801C17.7093 11.0343 17.7093 13.7985 16.8564 16.3527" stroke="#5B697C" stroke-width="0.98407" stroke-linecap="round" stroke-linejoin="round"/>
<path d="M11.6079 14.1659V13.7285C14.1621 14.5814 16.9263 14.5814 19.4805 13.7285V14.1659" stroke="#5B697C" stroke-width="0.98407" stroke-linecap="round" stroke-linejoin="round"/>
<path d="M11.6079 11.1046C14.1621 10.2517 16.9263 10.2517 19.4805 11.1046" stroke="#5B697C" stroke-width="0.98407" stroke-linecap="round" stroke-linejoin="round"/>
<rect x="24.6196" y="9.79224" width="23.6177" height="5.24837" fill="#E4E8ED"/>
<path d="M58.4173 11.4438L56.338 13.5231C56.0924 13.7687 55.6906 13.7687 55.445 13.5231L53.3657 11.4438" stroke="#8094AE" stroke-width="0.717551" stroke-miterlimit="10" stroke-linecap="round" stroke-linejoin="round"/>
</svg>
