<svg width="25" height="19" viewBox="0 0 25 19" fill="none" xmlns="http://www.w3.org/2000/svg">
<g clip-path="url(#clip0_1_14082)">
<g clip-path="url(#clip1_1_14082)">
<rect y="0.712891" width="24.75" height="18" rx="2.25" fill="#F93939"/>
<path d="M22.3929 0.712891H2.35714C1.05533 0.712891 0 1.78741 0 3.11289V16.3129C0 17.6384 1.05533 18.7129 2.35714 18.7129H22.3929C23.6947 18.7129 24.75 17.6384 24.75 16.3129V3.11289C24.75 1.78741 23.6947 0.712891 22.3929 0.712891Z" fill="#F93939"/>
<path fill-rule="evenodd" clip-rule="evenodd" d="M6.47989 9.3885L4.74739 10.3161L5.07739 8.3517L3.67725 6.9597L5.61364 6.6753L6.47989 4.8873L7.34496 6.6753L9.28135 6.9597L7.87885 8.3517L8.21121 10.3149L6.47989 9.3885ZM10.6072 4.3125H11.7858V5.5125H10.6072V4.3125ZM11.7858 6.7125H12.9644V7.9125H11.7858V6.7125ZM11.7858 9.1125H12.9644V10.3125H11.7858V9.1125ZM10.6072 11.5125H11.7858V12.7125H10.6072V11.5125Z" fill="#FFDA2C"/>
</g>
</g>
<defs>
<clipPath id="clip0_1_14082">
<rect width="24.75" height="18" fill="white" transform="translate(0 0.712891)"/>
</clipPath>
<clipPath id="clip1_1_14082">
<rect y="0.712891" width="24.75" height="18" rx="2.25" fill="white"/>
</clipPath>
</defs>
</svg>
