<svg width="376" height="524" viewBox="0 0 376 524" fill="none" xmlns="http://www.w3.org/2000/svg">
<circle cx="262" cy="262" r="262" fill="white"/>
<rect x="243.132" y="397.852" width="38.8148" height="38.8148" rx="8.62551" fill="#6200EE"/>
<path d="M269.188 415.104V419.416C269.188 420.312 268.467 421.034 267.571 421.034H257.508C256.612 421.034 255.891 420.312 255.891 419.416V415.104C255.891 414.208 256.612 413.486 257.508 413.486H267.571C268.467 413.486 269.188 414.208 269.188 415.104Z" fill="white" stroke="white" stroke-width="1.07819"/>
<path d="M258.401 423.189H266.677C266.595 423.474 266.472 423.607 266.319 423.694C266.081 423.829 265.673 423.908 264.933 423.908H260.145C259.401 423.908 258.993 423.828 258.757 423.695C258.605 423.608 258.483 423.476 258.401 423.189Z" fill="white" stroke="white" stroke-width="1.07819"/>
<path d="M266.321 410.825C266.473 410.912 266.595 411.044 266.677 411.33H258.401C258.483 411.044 258.605 410.912 258.757 410.825C258.993 410.691 259.401 410.611 260.145 410.611H264.933C265.677 410.611 266.085 410.691 266.321 410.825Z" fill="white" stroke="white" stroke-width="1.07819"/>
<path d="M242.395 459.382C241.8 459.382 241.265 459.278 240.79 459.071C240.325 458.855 239.958 458.562 239.691 458.191C239.423 457.812 239.285 457.376 239.277 456.884H240.532C240.575 457.307 240.747 457.665 241.049 457.958C241.36 458.243 241.808 458.385 242.395 458.385C242.955 458.385 243.395 458.247 243.714 457.971C244.042 457.687 244.206 457.324 244.206 456.884C244.206 456.539 244.111 456.259 243.921 456.044C243.732 455.828 243.494 455.664 243.21 455.552C242.925 455.44 242.541 455.319 242.058 455.19C241.463 455.034 240.984 454.879 240.622 454.724C240.268 454.569 239.962 454.327 239.704 453.999C239.453 453.663 239.328 453.214 239.328 452.654C239.328 452.162 239.453 451.726 239.704 451.347C239.954 450.967 240.303 450.674 240.752 450.467C241.209 450.26 241.731 450.157 242.317 450.157C243.162 450.157 243.852 450.368 244.387 450.791C244.931 451.213 245.237 451.774 245.306 452.473H244.012C243.969 452.128 243.788 451.826 243.469 451.567C243.149 451.299 242.727 451.166 242.201 451.166C241.709 451.166 241.308 451.295 240.997 451.554C240.687 451.804 240.532 452.158 240.532 452.615C240.532 452.943 240.622 453.21 240.803 453.417C240.993 453.624 241.222 453.784 241.489 453.896C241.765 453.999 242.149 454.12 242.64 454.258C243.236 454.422 243.714 454.586 244.077 454.75C244.439 454.905 244.749 455.151 245.008 455.487C245.267 455.815 245.396 456.263 245.396 456.833C245.396 457.273 245.28 457.687 245.047 458.075C244.814 458.463 244.469 458.778 244.012 459.019C243.555 459.261 243.016 459.382 242.395 459.382ZM253.598 455.474C253.598 455.698 253.585 455.936 253.559 456.186H247.892C247.935 456.884 248.173 457.432 248.604 457.829C249.044 458.217 249.574 458.411 250.195 458.411C250.704 458.411 251.127 458.295 251.463 458.062C251.808 457.82 252.05 457.501 252.188 457.104H253.456C253.266 457.786 252.886 458.342 252.317 458.773C251.748 459.196 251.041 459.407 250.195 459.407C249.523 459.407 248.919 459.257 248.384 458.955C247.858 458.653 247.444 458.226 247.142 457.674C246.84 457.113 246.689 456.466 246.689 455.733C246.689 455 246.836 454.357 247.129 453.805C247.422 453.253 247.832 452.831 248.358 452.537C248.893 452.235 249.505 452.084 250.195 452.084C250.868 452.084 251.463 452.231 251.981 452.524C252.498 452.818 252.895 453.223 253.171 453.74C253.456 454.249 253.598 454.827 253.598 455.474ZM252.382 455.228C252.382 454.78 252.283 454.396 252.084 454.077C251.886 453.749 251.614 453.503 251.269 453.339C250.933 453.167 250.558 453.081 250.144 453.081C249.548 453.081 249.04 453.27 248.617 453.65C248.203 454.029 247.966 454.556 247.905 455.228H252.382ZM254.712 455.733C254.712 455 254.859 454.362 255.152 453.818C255.445 453.266 255.851 452.839 256.368 452.537C256.895 452.235 257.494 452.084 258.167 452.084C259.038 452.084 259.754 452.296 260.315 452.718C260.884 453.141 261.259 453.728 261.44 454.478H260.172C260.051 454.047 259.814 453.706 259.461 453.456C259.116 453.206 258.684 453.081 258.167 453.081C257.494 453.081 256.951 453.314 256.537 453.779C256.123 454.236 255.916 454.888 255.916 455.733C255.916 456.587 256.123 457.247 256.537 457.713C256.951 458.178 257.494 458.411 258.167 458.411C258.684 458.411 259.116 458.29 259.461 458.049C259.806 457.807 260.043 457.462 260.172 457.014H261.44C261.25 457.738 260.871 458.321 260.302 458.761C259.732 459.192 259.021 459.407 258.167 459.407C257.494 459.407 256.895 459.257 256.368 458.955C255.851 458.653 255.445 458.226 255.152 457.674C254.859 457.122 254.712 456.475 254.712 455.733ZM264.447 453.171V457.35C264.447 457.695 264.521 457.941 264.667 458.088C264.814 458.226 265.068 458.295 265.431 458.295H266.298V459.291H265.237C264.581 459.291 264.089 459.14 263.762 458.838C263.434 458.536 263.27 458.04 263.27 457.35V453.171H262.351V452.201H263.27V450.415H264.447V452.201H266.298V453.171H264.447ZM268.332 451.049C268.108 451.049 267.918 450.972 267.763 450.816C267.608 450.661 267.53 450.471 267.53 450.247C267.53 450.023 267.608 449.833 267.763 449.678C267.918 449.523 268.108 449.445 268.332 449.445C268.548 449.445 268.729 449.523 268.876 449.678C269.031 449.833 269.108 450.023 269.108 450.247C269.108 450.471 269.031 450.661 268.876 450.816C268.729 450.972 268.548 451.049 268.332 451.049ZM268.901 452.201V459.291H267.724V452.201H268.901ZM274 459.407C273.336 459.407 272.732 459.257 272.189 458.955C271.654 458.653 271.232 458.226 270.921 457.674C270.619 457.113 270.468 456.466 270.468 455.733C270.468 455.008 270.623 454.37 270.934 453.818C271.253 453.257 271.684 452.831 272.228 452.537C272.771 452.235 273.379 452.084 274.052 452.084C274.725 452.084 275.333 452.235 275.876 452.537C276.42 452.831 276.847 453.253 277.157 453.805C277.476 454.357 277.636 455 277.636 455.733C277.636 456.466 277.472 457.113 277.144 457.674C276.825 458.226 276.39 458.653 275.838 458.955C275.286 459.257 274.673 459.407 274 459.407ZM274 458.372C274.423 458.372 274.82 458.273 275.191 458.075C275.562 457.876 275.859 457.579 276.083 457.182C276.316 456.785 276.433 456.302 276.433 455.733C276.433 455.164 276.321 454.681 276.096 454.284C275.872 453.887 275.579 453.594 275.217 453.404C274.854 453.206 274.462 453.107 274.039 453.107C273.608 453.107 273.211 453.206 272.849 453.404C272.495 453.594 272.211 453.887 271.995 454.284C271.779 454.681 271.671 455.164 271.671 455.733C271.671 456.311 271.775 456.798 271.982 457.195C272.198 457.592 272.482 457.889 272.836 458.088C273.19 458.278 273.578 458.372 274 458.372ZM282.639 452.071C283.501 452.071 284.2 452.335 284.735 452.861C285.269 453.378 285.537 454.129 285.537 455.112V459.291H284.372V455.28C284.372 454.573 284.195 454.034 283.842 453.663C283.488 453.283 283.005 453.094 282.393 453.094C281.772 453.094 281.276 453.288 280.905 453.676C280.543 454.064 280.361 454.629 280.361 455.371V459.291H279.184V452.201H280.361V453.21C280.594 452.848 280.909 452.567 281.306 452.369C281.711 452.171 282.156 452.071 282.639 452.071Z" fill="#363E49"/>
<rect x="236.124" y="236.123" width="51.7531" height="51.7531" rx="25.8765" fill="#F3EBFE"/>
<path d="M255.532 261.996H268.47" stroke="#11002A" stroke-width="1.61728" stroke-linecap="round" stroke-linejoin="round"/>
<line x1="122.293" y1="40.6861" x2="246.285" y2="240.151" stroke="#F2F4F7" stroke-width="1.07819"/>
<line y1="-0.539095" x2="234.862" y2="-0.539095" transform="matrix(0.527934 -0.849285 -0.849285 -0.527934 121.835 483.029)" stroke="#F2F4F7" stroke-width="1.07819"/>
<line x1="415.541" y1="55.3028" x2="280.767" y2="242.908" stroke="#F2F4F7" stroke-width="1.07819"/>
<line y1="-0.539095" x2="230.997" y2="-0.539095" transform="matrix(-0.583444 -0.812154 -0.812154 0.583444 415.103 469.012)" stroke="#F2F4F7" stroke-width="1.07819"/>
<line x1="-4.71292e-08" y1="261.461" x2="236.123" y2="261.461" stroke="#F2F4F7" stroke-width="1.07819"/>
<line x1="287.876" y1="261.461" x2="524" y2="261.461" stroke="#F2F4F7" stroke-width="1.07819"/>
<rect x="242.218" y="59.3008" width="39.5638" height="40.5638" rx="8.62551" fill="#F2F4F7"/>
<path d="M259.327 82.0766H255.394L254.669 84.082H253.427L256.687 75.1158H258.046L261.293 84.082H260.051L259.327 82.0766ZM258.99 81.1192L257.36 76.5649L255.73 81.1192H258.99ZM262.275 80.5111C262.275 79.7865 262.421 79.1526 262.714 78.6091C263.008 78.0571 263.409 77.6301 263.918 77.3283C264.435 77.0264 265.009 76.8754 265.638 76.8754C266.26 76.8754 266.799 77.0091 267.256 77.2765C267.713 77.5439 268.054 77.8803 268.278 78.2857V76.9919H269.468V84.082H268.278V82.7623C268.045 83.1764 267.696 83.5214 267.23 83.7974C266.773 84.0648 266.238 84.1985 265.626 84.1985C264.996 84.1985 264.427 84.0432 263.918 83.7327C263.409 83.4222 263.008 82.9866 262.714 82.4259C262.421 81.8653 262.275 81.227 262.275 80.5111ZM268.278 80.524C268.278 79.9892 268.17 79.5234 267.954 79.1267C267.739 78.7299 267.446 78.428 267.075 78.221C266.712 78.0054 266.311 77.8975 265.871 77.8975C265.431 77.8975 265.03 78.001 264.668 78.2081C264.306 78.4151 264.017 78.717 263.801 79.1137C263.586 79.5105 263.478 79.9763 263.478 80.5111C263.478 81.0545 263.586 81.5289 263.801 81.9343C264.017 82.3311 264.306 82.6373 264.668 82.8529C265.03 83.0599 265.431 83.1634 265.871 83.1634C266.311 83.1634 266.712 83.0599 267.075 82.8529C267.446 82.6373 267.739 82.3311 267.954 81.9343C268.17 81.5289 268.278 81.0588 268.278 80.524Z" fill="#8094AE"/>
<path d="M230.047 113.472V114.43H227.588V122.49H226.411V114.43H223.94V113.472H230.047ZM237.965 118.673C237.965 118.898 237.952 119.135 237.926 119.385H232.259C232.303 120.084 232.54 120.631 232.971 121.028C233.411 121.416 233.941 121.61 234.562 121.61C235.071 121.61 235.494 121.494 235.83 121.261C236.175 121.02 236.417 120.7 236.555 120.304H237.823C237.633 120.985 237.254 121.541 236.684 121.973C236.115 122.395 235.408 122.607 234.562 122.607C233.89 122.607 233.286 122.456 232.751 122.154C232.225 121.852 231.811 121.425 231.509 120.873C231.207 120.312 231.056 119.665 231.056 118.932C231.056 118.199 231.203 117.556 231.496 117.004C231.789 116.452 232.199 116.03 232.725 115.736C233.26 115.435 233.872 115.284 234.562 115.284C235.235 115.284 235.83 115.43 236.348 115.724C236.865 116.017 237.262 116.422 237.538 116.94C237.823 117.449 237.965 118.027 237.965 118.673ZM236.749 118.428C236.749 117.979 236.65 117.595 236.451 117.276C236.253 116.948 235.981 116.703 235.636 116.539C235.3 116.366 234.925 116.28 234.511 116.28C233.916 116.28 233.407 116.47 232.984 116.849C232.57 117.229 232.333 117.755 232.272 118.428H236.749ZM243.22 122.49L241.538 119.851L239.92 122.49H238.691L240.981 118.971L238.691 115.4H240.024L241.706 118.027L243.31 115.4H244.539L242.262 118.906L244.552 122.49H243.22ZM247.147 116.37V120.549C247.147 120.895 247.22 121.14 247.367 121.287C247.513 121.425 247.768 121.494 248.13 121.494H248.997V122.49H247.936C247.28 122.49 246.789 122.339 246.461 122.037C246.133 121.736 245.969 121.24 245.969 120.549V116.37H245.051V115.4H245.969V113.615H247.147V115.4H248.997V116.37H247.147ZM259.203 120.485H255.27L254.545 122.49H253.303L256.564 113.524H257.922L261.17 122.49H259.928L259.203 120.485ZM258.867 119.527L257.237 114.973L255.606 119.527H258.867ZM266.045 115.271C266.908 115.271 267.607 115.534 268.141 116.06C268.676 116.577 268.944 117.328 268.944 118.311V122.49H267.779V118.479C267.779 117.772 267.602 117.233 267.249 116.862C266.895 116.483 266.412 116.293 265.8 116.293C265.179 116.293 264.683 116.487 264.312 116.875C263.949 117.263 263.768 117.828 263.768 118.57V122.49H262.591V115.4H263.768V116.409C264.001 116.047 264.316 115.767 264.713 115.568C265.118 115.37 265.562 115.271 266.045 115.271ZM273.377 122.607C272.833 122.607 272.346 122.516 271.915 122.335C271.484 122.145 271.143 121.886 270.893 121.559C270.643 121.222 270.505 120.838 270.479 120.407H271.695C271.729 120.761 271.893 121.05 272.187 121.274C272.488 121.498 272.881 121.61 273.364 121.61C273.812 121.61 274.166 121.511 274.425 121.313C274.684 121.114 274.813 120.864 274.813 120.562C274.813 120.252 274.675 120.023 274.399 119.877C274.123 119.721 273.696 119.57 273.118 119.424C272.592 119.286 272.161 119.148 271.824 119.01C271.496 118.863 271.212 118.652 270.97 118.376C270.737 118.091 270.621 117.72 270.621 117.263C270.621 116.901 270.729 116.569 270.944 116.267C271.16 115.965 271.466 115.728 271.863 115.555C272.26 115.374 272.713 115.284 273.222 115.284C274.006 115.284 274.64 115.482 275.123 115.879C275.607 116.276 275.865 116.819 275.9 117.509H274.722C274.697 117.138 274.546 116.841 274.27 116.616C274.002 116.392 273.64 116.28 273.183 116.28C272.76 116.28 272.424 116.37 272.174 116.552C271.923 116.733 271.798 116.97 271.798 117.263C271.798 117.496 271.872 117.69 272.018 117.845C272.174 117.992 272.363 118.113 272.588 118.208C272.82 118.294 273.14 118.393 273.545 118.505C274.054 118.643 274.468 118.781 274.787 118.919C275.106 119.049 275.378 119.247 275.602 119.514C275.835 119.782 275.956 120.131 275.964 120.562C275.964 120.951 275.857 121.3 275.641 121.61C275.425 121.921 275.119 122.167 274.722 122.348C274.334 122.52 273.886 122.607 273.377 122.607ZM287.071 115.4L284.859 122.49H283.643L281.935 116.862L280.227 122.49H279.011L276.786 115.4H277.989L279.619 121.352L281.379 115.4H282.582L284.303 121.365L285.907 115.4H287.071ZM294.709 118.673C294.709 118.898 294.696 119.135 294.67 119.385H289.003C289.046 120.084 289.284 120.631 289.715 121.028C290.155 121.416 290.685 121.61 291.306 121.61C291.815 121.61 292.238 121.494 292.574 121.261C292.919 121.02 293.161 120.7 293.299 120.304H294.567C294.377 120.985 293.998 121.541 293.428 121.973C292.859 122.395 292.152 122.607 291.306 122.607C290.634 122.607 290.03 122.456 289.495 122.154C288.969 121.852 288.555 121.425 288.253 120.873C287.951 120.312 287.8 119.665 287.8 118.932C287.8 118.199 287.947 117.556 288.24 117.004C288.533 116.452 288.943 116.03 289.469 115.736C290.004 115.435 290.616 115.284 291.306 115.284C291.979 115.284 292.574 115.43 293.092 115.724C293.609 116.017 294.006 116.422 294.282 116.94C294.567 117.449 294.709 118.027 294.709 118.673ZM293.493 118.428C293.493 117.979 293.394 117.595 293.195 117.276C292.997 116.948 292.725 116.703 292.38 116.539C292.044 116.366 291.669 116.28 291.255 116.28C290.659 116.28 290.151 116.47 289.728 116.849C289.314 117.229 289.077 117.755 289.016 118.428H293.493ZM297.441 116.552C297.648 116.146 297.941 115.831 298.32 115.607C298.709 115.383 299.179 115.271 299.731 115.271V116.487H299.42C298.1 116.487 297.441 117.203 297.441 118.635V122.49H296.263V115.4H297.441V116.552Z" fill="#363E49"/>
<path d="M372.596 214.635C372.001 214.635 371.466 214.532 370.992 214.325C370.526 214.109 370.16 213.816 369.892 213.445C369.625 213.066 369.487 212.63 369.478 212.138H370.733C370.776 212.561 370.949 212.919 371.251 213.212C371.561 213.497 372.01 213.639 372.596 213.639C373.157 213.639 373.597 213.501 373.916 213.225C374.244 212.941 374.408 212.578 374.408 212.138C374.408 211.793 374.313 211.513 374.123 211.297C373.933 211.082 373.696 210.918 373.411 210.806C373.127 210.694 372.743 210.573 372.26 210.443C371.665 210.288 371.186 210.133 370.824 209.978C370.47 209.822 370.164 209.581 369.905 209.253C369.655 208.917 369.53 208.468 369.53 207.908C369.53 207.416 369.655 206.98 369.905 206.601C370.155 206.221 370.505 205.928 370.953 205.721C371.41 205.514 371.932 205.411 372.519 205.411C373.364 205.411 374.054 205.622 374.589 206.044C375.132 206.467 375.438 207.028 375.507 207.726H374.214C374.17 207.381 373.989 207.08 373.67 206.821C373.351 206.553 372.928 206.42 372.402 206.42C371.911 206.42 371.51 206.549 371.199 206.808C370.888 207.058 370.733 207.412 370.733 207.869C370.733 208.197 370.824 208.464 371.005 208.671C371.195 208.878 371.423 209.038 371.691 209.15C371.967 209.253 372.351 209.374 372.842 209.512C373.437 209.676 373.916 209.84 374.278 210.004C374.641 210.159 374.951 210.405 375.21 210.741C375.469 211.069 375.598 211.517 375.598 212.087C375.598 212.527 375.482 212.941 375.249 213.329C375.016 213.717 374.671 214.032 374.214 214.273C373.756 214.515 373.217 214.635 372.596 214.635ZM377.939 206.303C377.714 206.303 377.525 206.226 377.369 206.07C377.214 205.915 377.137 205.725 377.137 205.501C377.137 205.277 377.214 205.087 377.369 204.932C377.525 204.777 377.714 204.699 377.939 204.699C378.154 204.699 378.335 204.777 378.482 204.932C378.637 205.087 378.715 205.277 378.715 205.501C378.715 205.725 378.637 205.915 378.482 206.07C378.335 206.226 378.154 206.303 377.939 206.303ZM378.508 207.455V214.545H377.331V207.455H378.508ZM383.969 207.325C384.832 207.325 385.53 207.588 386.065 208.115C386.6 208.632 386.867 209.383 386.867 210.366V214.545H385.703V210.534C385.703 209.827 385.526 209.288 385.172 208.917C384.819 208.537 384.336 208.347 383.723 208.347C383.102 208.347 382.606 208.542 382.235 208.93C381.873 209.318 381.692 209.883 381.692 210.625V214.545H380.515V207.455H381.692V208.464C381.925 208.102 382.24 207.821 382.637 207.623C383.042 207.425 383.486 207.325 383.969 207.325ZM391.715 207.338C392.327 207.338 392.862 207.472 393.319 207.739C393.785 208.007 394.13 208.343 394.354 208.749V207.455H395.544V214.7C395.544 215.347 395.406 215.921 395.13 216.421C394.854 216.93 394.458 217.327 393.94 217.611C393.431 217.896 392.836 218.038 392.155 218.038C391.223 218.038 390.447 217.818 389.826 217.378C389.205 216.939 388.838 216.339 388.726 215.58H389.89C390.02 216.011 390.287 216.356 390.693 216.615C391.098 216.882 391.585 217.016 392.155 217.016C392.801 217.016 393.328 216.813 393.733 216.408C394.147 216.003 394.354 215.433 394.354 214.7V213.212C394.121 213.626 393.776 213.971 393.319 214.247C392.862 214.523 392.327 214.661 391.715 214.661C391.085 214.661 390.511 214.506 389.994 214.196C389.485 213.885 389.084 213.449 388.791 212.889C388.497 212.328 388.351 211.69 388.351 210.974C388.351 210.249 388.497 209.615 388.791 209.072C389.084 208.52 389.485 208.093 389.994 207.791C390.511 207.489 391.085 207.338 391.715 207.338ZM394.354 210.987C394.354 210.452 394.246 209.986 394.031 209.59C393.815 209.193 393.522 208.891 393.151 208.684C392.789 208.468 392.387 208.36 391.948 208.36C391.508 208.36 391.107 208.464 390.744 208.671C390.382 208.878 390.093 209.18 389.877 209.577C389.662 209.973 389.554 210.439 389.554 210.974C389.554 211.517 389.662 211.992 389.877 212.397C390.093 212.794 390.382 213.1 390.744 213.316C391.107 213.523 391.508 213.626 391.948 213.626C392.387 213.626 392.789 213.523 393.151 213.316C393.522 213.1 393.815 212.794 394.031 212.397C394.246 211.992 394.354 211.522 394.354 210.987ZM398.711 204.971V214.545H397.534V204.971H398.711ZM407.187 210.728C407.187 210.952 407.174 211.19 407.148 211.44H401.481C401.525 212.138 401.762 212.686 402.193 213.083C402.633 213.471 403.163 213.665 403.784 213.665C404.293 213.665 404.716 213.549 405.052 213.316C405.397 213.074 405.639 212.755 405.777 212.358H407.045C406.855 213.04 406.476 213.596 405.906 214.027C405.337 214.45 404.63 214.661 403.784 214.661C403.112 214.661 402.508 214.51 401.973 214.209C401.447 213.907 401.033 213.48 400.731 212.928C400.429 212.367 400.278 211.72 400.278 210.987C400.278 210.254 400.425 209.611 400.718 209.059C401.011 208.507 401.421 208.084 401.947 207.791C402.482 207.489 403.094 207.338 403.784 207.338C404.457 207.338 405.052 207.485 405.57 207.778C406.087 208.071 406.484 208.477 406.76 208.994C407.045 209.503 407.187 210.081 407.187 210.728ZM405.971 210.482C405.971 210.034 405.872 209.65 405.673 209.331C405.475 209.003 405.203 208.757 404.858 208.593C404.522 208.421 404.147 208.335 403.733 208.335C403.138 208.335 402.629 208.524 402.206 208.904C401.792 209.283 401.555 209.81 401.494 210.482H405.971ZM411.751 210.029C411.751 209.15 411.949 208.36 412.346 207.662C412.743 206.954 413.282 206.402 413.963 206.006C414.653 205.609 415.417 205.411 416.253 205.411C417.237 205.411 418.095 205.648 418.828 206.122C419.561 206.597 420.096 207.269 420.432 208.14H419.022C418.772 207.597 418.41 207.179 417.935 206.885C417.469 206.592 416.909 206.446 416.253 206.446C415.624 206.446 415.059 206.592 414.558 206.885C414.058 207.179 413.666 207.597 413.381 208.14C413.096 208.675 412.954 209.305 412.954 210.029C412.954 210.745 413.096 211.375 413.381 211.918C413.666 212.453 414.058 212.867 414.558 213.161C415.059 213.454 415.624 213.6 416.253 213.6C416.909 213.6 417.469 213.458 417.935 213.173C418.41 212.88 418.772 212.462 419.022 211.918H420.432C420.096 212.781 419.561 213.449 418.828 213.924C418.095 214.39 417.237 214.623 416.253 214.623C415.417 214.623 414.653 214.428 413.963 214.04C413.282 213.644 412.743 213.096 412.346 212.397C411.949 211.699 411.751 210.909 411.751 210.029ZM425.704 207.325C426.239 207.325 426.722 207.442 427.153 207.675C427.585 207.899 427.921 208.24 428.162 208.697C428.413 209.154 428.538 209.71 428.538 210.366V214.545H427.373V210.534C427.373 209.827 427.196 209.288 426.843 208.917C426.489 208.537 426.006 208.347 425.394 208.347C424.773 208.347 424.277 208.542 423.906 208.93C423.543 209.318 423.362 209.883 423.362 210.625V214.545H422.185V204.971H423.362V208.464C423.595 208.102 423.914 207.821 424.32 207.623C424.734 207.425 425.195 207.325 425.704 207.325ZM433.553 214.661C432.889 214.661 432.285 214.51 431.742 214.209C431.207 213.907 430.784 213.48 430.474 212.928C430.172 212.367 430.021 211.72 430.021 210.987C430.021 210.262 430.176 209.624 430.487 209.072C430.806 208.511 431.237 208.084 431.781 207.791C432.324 207.489 432.932 207.338 433.605 207.338C434.278 207.338 434.886 207.489 435.429 207.791C435.973 208.084 436.4 208.507 436.71 209.059C437.029 209.611 437.189 210.254 437.189 210.987C437.189 211.72 437.025 212.367 436.697 212.928C436.378 213.48 435.942 213.907 435.39 214.209C434.838 214.51 434.226 214.661 433.553 214.661ZM433.553 213.626C433.976 213.626 434.373 213.527 434.743 213.329C435.114 213.13 435.412 212.833 435.636 212.436C435.869 212.039 435.986 211.556 435.986 210.987C435.986 210.418 435.873 209.935 435.649 209.538C435.425 209.141 435.132 208.848 434.769 208.658C434.407 208.46 434.015 208.36 433.592 208.36C433.161 208.36 432.764 208.46 432.402 208.658C432.048 208.848 431.763 209.141 431.548 209.538C431.332 209.935 431.224 210.418 431.224 210.987C431.224 211.565 431.328 212.052 431.535 212.449C431.75 212.846 432.035 213.143 432.389 213.342C432.742 213.531 433.131 213.626 433.553 213.626ZM439.345 206.303C439.121 206.303 438.931 206.226 438.776 206.07C438.62 205.915 438.543 205.725 438.543 205.501C438.543 205.277 438.62 205.087 438.776 204.932C438.931 204.777 439.121 204.699 439.345 204.699C439.561 204.699 439.742 204.777 439.888 204.932C440.044 205.087 440.121 205.277 440.121 205.501C440.121 205.725 440.044 205.915 439.888 206.07C439.742 206.226 439.561 206.303 439.345 206.303ZM439.914 207.455V214.545H438.737V207.455H439.914ZM441.481 210.987C441.481 210.254 441.628 209.615 441.921 209.072C442.214 208.52 442.62 208.093 443.137 207.791C443.663 207.489 444.263 207.338 444.936 207.338C445.807 207.338 446.523 207.55 447.083 207.972C447.653 208.395 448.028 208.981 448.209 209.732H446.941C446.82 209.301 446.583 208.96 446.229 208.71C445.884 208.46 445.453 208.335 444.936 208.335C444.263 208.335 443.719 208.567 443.305 209.033C442.891 209.49 442.684 210.142 442.684 210.987C442.684 211.841 442.891 212.501 443.305 212.966C443.719 213.432 444.263 213.665 444.936 213.665C445.453 213.665 445.884 213.544 446.229 213.303C446.574 213.061 446.812 212.716 446.941 212.268H448.209C448.019 212.992 447.64 213.575 447.07 214.014C446.501 214.446 445.789 214.661 444.936 214.661C444.263 214.661 443.663 214.51 443.137 214.209C442.62 213.907 442.214 213.48 441.921 212.928C441.628 212.376 441.481 211.729 441.481 210.987ZM456.249 210.728C456.249 210.952 456.236 211.19 456.21 211.44H450.543C450.586 212.138 450.824 212.686 451.255 213.083C451.695 213.471 452.225 213.665 452.846 213.665C453.355 213.665 453.778 213.549 454.114 213.316C454.459 213.074 454.701 212.755 454.839 212.358H456.107C455.917 213.04 455.537 213.596 454.968 214.027C454.399 214.45 453.692 214.661 452.846 214.661C452.173 214.661 451.57 214.51 451.035 214.209C450.509 213.907 450.095 213.48 449.793 212.928C449.491 212.367 449.34 211.72 449.34 210.987C449.34 210.254 449.487 209.611 449.78 209.059C450.073 208.507 450.483 208.084 451.009 207.791C451.544 207.489 452.156 207.338 452.846 207.338C453.519 207.338 454.114 207.485 454.632 207.778C455.149 208.071 455.546 208.477 455.822 208.994C456.107 209.503 456.249 210.081 456.249 210.728ZM455.033 210.482C455.033 210.034 454.934 209.65 454.735 209.331C454.537 209.003 454.265 208.757 453.92 208.593C453.584 208.421 453.209 208.335 452.795 208.335C452.199 208.335 451.69 208.524 451.268 208.904C450.854 209.283 450.617 209.81 450.556 210.482H455.033Z" fill="#363E49"/>
<path d="M373.493 352.222V361.176H372.316V354.5L369.34 361.176H368.512L365.523 354.487V361.176H364.346V352.222H365.614L368.926 359.623L372.238 352.222H373.493ZM381.778 354.086V361.176H380.601V360.128C380.376 360.49 380.061 360.775 379.656 360.982C379.259 361.18 378.819 361.279 378.336 361.279C377.784 361.279 377.288 361.167 376.848 360.943C376.409 360.71 376.059 360.365 375.8 359.908C375.55 359.451 375.425 358.894 375.425 358.239V354.086H376.59V358.084C376.59 358.782 376.767 359.321 377.12 359.701C377.474 360.072 377.957 360.257 378.569 360.257C379.199 360.257 379.695 360.063 380.057 359.675C380.419 359.287 380.601 358.722 380.601 357.98V354.086H381.778ZM384.943 351.601V361.176H383.766V351.601H384.943ZM388.386 355.056V359.235C388.386 359.58 388.459 359.826 388.606 359.973C388.753 360.111 389.007 360.18 389.369 360.18H390.236V361.176H389.175C388.52 361.176 388.028 361.025 387.7 360.723C387.373 360.421 387.209 359.925 387.209 359.235V355.056H386.29V354.086H387.209V352.3H388.386V354.086H390.236V355.056H388.386ZM392.271 352.934C392.047 352.934 391.857 352.856 391.702 352.701C391.546 352.546 391.469 352.356 391.469 352.132C391.469 351.908 391.546 351.718 391.702 351.563C391.857 351.407 392.047 351.33 392.271 351.33C392.487 351.33 392.668 351.407 392.814 351.563C392.97 351.718 393.047 351.908 393.047 352.132C393.047 352.356 392.97 352.546 392.814 352.701C392.668 352.856 392.487 352.934 392.271 352.934ZM392.84 354.086V361.176H391.663V354.086H392.84ZM396.024 355.392C396.257 354.987 396.602 354.651 397.059 354.383C397.525 354.107 398.064 353.969 398.677 353.969C399.306 353.969 399.875 354.12 400.384 354.422C400.902 354.724 401.307 355.151 401.601 355.703C401.894 356.246 402.04 356.88 402.04 357.605C402.04 358.321 401.894 358.959 401.601 359.52C401.307 360.08 400.902 360.516 400.384 360.826C399.875 361.137 399.306 361.292 398.677 361.292C398.073 361.292 397.538 361.159 397.072 360.891C396.615 360.615 396.266 360.274 396.024 359.869V364.54H394.847V354.086H396.024V355.392ZM400.837 357.605C400.837 357.07 400.729 356.604 400.514 356.207C400.298 355.811 400.005 355.509 399.634 355.302C399.272 355.095 398.871 354.991 398.431 354.991C397.999 354.991 397.598 355.099 397.227 355.315C396.865 355.522 396.572 355.828 396.348 356.233C396.132 356.63 396.024 357.092 396.024 357.618C396.024 358.153 396.132 358.623 396.348 359.028C396.572 359.425 396.865 359.731 397.227 359.947C397.598 360.154 397.999 360.257 398.431 360.257C398.871 360.257 399.272 360.154 399.634 359.947C400.005 359.731 400.298 359.425 400.514 359.028C400.729 358.623 400.837 358.148 400.837 357.605ZM404.768 351.601V361.176H403.59V351.601H404.768ZM413.243 357.359C413.243 357.583 413.23 357.82 413.205 358.071H407.538C407.581 358.769 407.818 359.317 408.249 359.714C408.689 360.102 409.22 360.296 409.841 360.296C410.35 360.296 410.772 360.18 411.109 359.947C411.454 359.705 411.695 359.386 411.833 358.989H413.101C412.911 359.671 412.532 360.227 411.963 360.658C411.393 361.081 410.686 361.292 409.841 361.292C409.168 361.292 408.564 361.141 408.029 360.839C407.503 360.537 407.089 360.111 406.787 359.558C406.485 358.998 406.334 358.351 406.334 357.618C406.334 356.885 406.481 356.242 406.774 355.69C407.068 355.138 407.477 354.715 408.003 354.422C408.538 354.12 409.151 353.969 409.841 353.969C410.513 353.969 411.109 354.116 411.626 354.409C412.144 354.702 412.54 355.108 412.816 355.625C413.101 356.134 413.243 356.712 413.243 357.359ZM412.027 357.113C412.027 356.665 411.928 356.281 411.73 355.962C411.531 355.634 411.26 355.388 410.915 355.224C410.578 355.052 410.203 354.965 409.789 354.965C409.194 354.965 408.685 355.155 408.262 355.535C407.848 355.914 407.611 356.44 407.551 357.113H412.027ZM417.807 356.66C417.807 355.781 418.005 354.991 418.402 354.293C418.799 353.585 419.338 353.033 420.019 352.637C420.709 352.24 421.473 352.041 422.31 352.041C423.293 352.041 424.151 352.279 424.884 352.753C425.617 353.227 426.152 353.9 426.489 354.771H425.078C424.828 354.228 424.466 353.81 423.991 353.516C423.526 353.223 422.965 353.076 422.31 353.076C421.68 353.076 421.115 353.223 420.615 353.516C420.114 353.81 419.722 354.228 419.437 354.771C419.153 355.306 419.01 355.936 419.01 356.66C419.01 357.376 419.153 358.006 419.437 358.549C419.722 359.084 420.114 359.498 420.615 359.791C421.115 360.085 421.68 360.231 422.31 360.231C422.965 360.231 423.526 360.089 423.991 359.804C424.466 359.511 424.828 359.093 425.078 358.549H426.489C426.152 359.412 425.617 360.08 424.884 360.555C424.151 361.021 423.293 361.253 422.31 361.253C421.473 361.253 420.709 361.059 420.019 360.671C419.338 360.274 418.799 359.727 418.402 359.028C418.005 358.329 417.807 357.54 417.807 356.66ZM431.76 353.956C432.295 353.956 432.778 354.073 433.21 354.306C433.641 354.53 433.977 354.871 434.219 355.328C434.469 355.785 434.594 356.341 434.594 356.997V361.176H433.429V357.165C433.429 356.458 433.253 355.919 432.899 355.548C432.545 355.168 432.062 354.978 431.45 354.978C430.829 354.978 430.333 355.172 429.962 355.561C429.6 355.949 429.419 356.514 429.419 357.255V361.176H428.241V351.601H429.419V355.095C429.651 354.733 429.971 354.452 430.376 354.254C430.79 354.055 431.252 353.956 431.76 353.956ZM439.609 361.292C438.945 361.292 438.341 361.141 437.798 360.839C437.263 360.537 436.841 360.111 436.53 359.558C436.228 358.998 436.077 358.351 436.077 357.618C436.077 356.893 436.233 356.255 436.543 355.703C436.862 355.142 437.293 354.715 437.837 354.422C438.38 354.12 438.988 353.969 439.661 353.969C440.334 353.969 440.942 354.12 441.485 354.422C442.029 354.715 442.456 355.138 442.766 355.69C443.085 356.242 443.245 356.885 443.245 357.618C443.245 358.351 443.081 358.998 442.753 359.558C442.434 360.111 441.999 360.537 441.447 360.839C440.895 361.141 440.282 361.292 439.609 361.292ZM439.609 360.257C440.032 360.257 440.429 360.158 440.8 359.96C441.171 359.761 441.468 359.464 441.692 359.067C441.925 358.67 442.042 358.187 442.042 357.618C442.042 357.048 441.93 356.565 441.705 356.169C441.481 355.772 441.188 355.479 440.826 355.289C440.463 355.09 440.071 354.991 439.648 354.991C439.217 354.991 438.82 355.09 438.458 355.289C438.104 355.479 437.82 355.772 437.604 356.169C437.388 356.565 437.281 357.048 437.281 357.618C437.281 358.196 437.384 358.683 437.591 359.08C437.807 359.477 438.091 359.774 438.445 359.973C438.799 360.162 439.187 360.257 439.609 360.257ZM445.401 352.934C445.177 352.934 444.987 352.856 444.832 352.701C444.677 352.546 444.599 352.356 444.599 352.132C444.599 351.908 444.677 351.718 444.832 351.563C444.987 351.407 445.177 351.33 445.401 351.33C445.617 351.33 445.798 351.407 445.945 351.563C446.1 351.718 446.177 351.908 446.177 352.132C446.177 352.356 446.1 352.546 445.945 352.701C445.798 352.856 445.617 352.934 445.401 352.934ZM445.97 354.086V361.176H444.793V354.086H445.97ZM447.537 357.618C447.537 356.885 447.684 356.246 447.977 355.703C448.27 355.151 448.676 354.724 449.193 354.422C449.719 354.12 450.319 353.969 450.992 353.969C451.863 353.969 452.579 354.18 453.139 354.603C453.709 355.026 454.084 355.612 454.265 356.363H452.997C452.876 355.931 452.639 355.591 452.286 355.341C451.941 355.09 451.509 354.965 450.992 354.965C450.319 354.965 449.776 355.198 449.362 355.664C448.947 356.121 448.74 356.772 448.74 357.618C448.74 358.472 448.947 359.132 449.362 359.597C449.776 360.063 450.319 360.296 450.992 360.296C451.509 360.296 451.941 360.175 452.286 359.934C452.631 359.692 452.868 359.347 452.997 358.899H454.265C454.075 359.623 453.696 360.205 453.127 360.645C452.557 361.077 451.846 361.292 450.992 361.292C450.319 361.292 449.719 361.141 449.193 360.839C448.676 360.537 448.27 360.111 447.977 359.558C447.684 359.006 447.537 358.36 447.537 357.618ZM462.305 357.359C462.305 357.583 462.292 357.82 462.266 358.071H456.599C456.643 358.769 456.88 359.317 457.311 359.714C457.751 360.102 458.281 360.296 458.902 360.296C459.411 360.296 459.834 360.18 460.17 359.947C460.515 359.705 460.757 359.386 460.895 358.989H462.163C461.973 359.671 461.594 360.227 461.024 360.658C460.455 361.081 459.748 361.292 458.902 361.292C458.23 361.292 457.626 361.141 457.091 360.839C456.565 360.537 456.151 360.111 455.849 359.558C455.547 358.998 455.396 358.351 455.396 357.618C455.396 356.885 455.543 356.242 455.836 355.69C456.129 355.138 456.539 354.715 457.065 354.422C457.6 354.12 458.212 353.969 458.902 353.969C459.575 353.969 460.17 354.116 460.688 354.409C461.205 354.702 461.602 355.108 461.878 355.625C462.163 356.134 462.305 356.712 462.305 357.359ZM461.089 357.113C461.089 356.665 460.99 356.281 460.791 355.962C460.593 355.634 460.321 355.388 459.976 355.224C459.64 355.052 459.265 354.965 458.851 354.965C458.256 354.965 457.747 355.155 457.324 355.535C456.91 355.914 456.673 356.44 456.612 357.113H461.089Z" fill="#363E49"/>
<rect x="98.7222" y="152.025" width="38.8148" height="38.8148" rx="8.62551" fill="#F2F4F7"/>
<path d="M122.198 178.563C122.123 178.563 122.036 178.556 121.937 178.538C122.198 178.583 122.506 178.571 122.749 178.398C122.798 178.363 122.842 178.323 122.88 178.28C122.836 178.33 122.794 178.366 122.757 178.393C122.649 178.471 122.47 178.563 122.198 178.563ZM123.101 176.84C123.166 177.203 123.164 177.482 123.131 177.694C123.133 177.682 123.135 177.669 123.136 177.657C123.167 177.426 123.156 177.152 123.101 176.84ZM124.976 169.419C125.108 169.537 125.186 169.658 125.231 169.757C125.12 169.526 124.926 169.364 124.737 169.256C124.513 169.128 124.242 169.043 123.953 168.996C123.953 168.996 123.952 168.996 123.952 168.996L121.663 168.615C121.663 168.615 121.662 168.615 121.662 168.615C121.486 168.585 121.274 168.492 121.076 168.346C121.009 168.297 120.948 168.244 120.893 168.19C120.952 168.247 121.012 168.296 121.069 168.339C121.22 168.45 121.431 168.57 121.657 168.608L121.657 168.608L123.949 168.988C123.949 168.988 123.95 168.988 123.95 168.989C124.486 169.078 124.796 169.258 124.976 169.419ZM117.365 164.646C117.176 164.827 117.015 165.067 116.885 165.336L116.135 166.827L116.887 165.327L116.887 165.327L116.888 165.326C117.137 164.824 117.404 164.575 117.614 164.448C117.825 164.32 118.012 164.295 118.13 164.295C118.248 164.295 118.435 164.32 118.646 164.448C118.775 164.526 118.926 164.651 119.082 164.853C119.023 164.777 118.96 164.708 118.894 164.645C118.712 164.471 118.451 164.302 118.13 164.302C117.809 164.302 117.547 164.471 117.365 164.646ZM112.311 168.996L113.653 168.773L112.315 168.996C112.315 168.996 112.314 168.996 112.314 168.996C112.025 169.043 111.754 169.128 111.53 169.256C111.312 169.381 111.088 169.577 110.991 169.868C110.891 170.169 110.966 170.468 111.072 170.694C111.182 170.928 111.355 171.152 111.562 171.356L113.343 173.136C113.481 173.275 113.605 173.491 113.677 173.744C113.75 173.997 113.76 174.246 113.716 174.439C113.716 174.439 113.716 174.439 113.716 174.439L113.206 176.644C113.206 176.644 113.206 176.644 113.206 176.644C113.113 177.043 113.09 177.383 113.129 177.663C113.164 177.922 113.268 178.219 113.518 178.398C113.764 178.574 114.073 178.58 114.33 178.535C114.427 178.518 114.528 178.492 114.635 178.456C114.383 178.542 114.182 178.565 114.029 178.561C113.77 178.553 113.601 178.465 113.503 178.394C113.409 178.324 113.274 178.19 113.188 177.944C113.1 177.695 113.048 177.287 113.199 176.645L113.2 176.643L113.709 174.44C113.768 174.198 113.73 173.939 113.674 173.745C113.616 173.547 113.51 173.31 113.336 173.136L111.553 171.353C111.169 170.969 111.022 170.644 110.969 170.409C110.916 170.172 110.95 169.988 110.987 169.875C111.025 169.76 111.107 169.589 111.289 169.426C111.47 169.264 111.779 169.085 112.31 168.996C112.311 168.996 112.311 168.996 112.311 168.996ZM118.131 176.712C117.979 176.712 117.799 176.732 117.627 176.791C117.774 176.739 117.947 176.709 118.13 176.709C118.281 176.709 118.428 176.73 118.56 176.767C118.412 176.727 118.262 176.712 118.131 176.712Z" fill="#8094AE" stroke="#8094AE" stroke-width="1.07819"/>
<path d="M83.374 213.465L81.2262 209.777H79.803V213.465H78.6256V204.447H81.5368C82.2182 204.447 82.7918 204.563 83.2575 204.796C83.7319 205.029 84.0856 205.344 84.3185 205.741C84.5514 206.137 84.6678 206.59 84.6678 207.099C84.6678 207.72 84.4867 208.268 84.1244 208.742C83.7708 209.217 83.236 209.532 82.5201 209.687L84.7843 213.465H83.374ZM79.803 208.833H81.5368C82.175 208.833 82.6538 208.678 82.9729 208.367C83.292 208.048 83.4516 207.625 83.4516 207.099C83.4516 206.564 83.292 206.15 82.9729 205.857C82.6624 205.564 82.1837 205.417 81.5368 205.417H79.803V208.833ZM86.0574 209.894C86.0574 209.169 86.204 208.535 86.4973 207.992C86.7905 207.44 87.1916 207.013 87.7005 206.711C88.2181 206.409 88.7917 206.258 89.4213 206.258C90.0424 206.258 90.5814 206.392 91.0386 206.659C91.4958 206.927 91.8365 207.263 92.0607 207.668V206.375H93.251V213.465H92.0607V212.145C91.8278 212.559 91.4785 212.904 91.0127 213.18C90.5556 213.448 90.0208 213.581 89.4084 213.581C88.7787 213.581 88.2094 213.426 87.7005 213.116C87.1916 212.805 86.7905 212.369 86.4973 211.809C86.204 211.248 86.0574 210.61 86.0574 209.894ZM92.0607 209.907C92.0607 209.372 91.9529 208.906 91.7373 208.509C91.5216 208.113 91.2284 207.811 90.8575 207.604C90.4952 207.388 90.0941 207.28 89.6542 207.28C89.2143 207.28 88.8132 207.384 88.4509 207.591C88.0887 207.798 87.7997 208.1 87.5841 208.497C87.3684 208.893 87.2606 209.359 87.2606 209.894C87.2606 210.437 87.3684 210.912 87.5841 211.317C87.7997 211.714 88.0887 212.02 88.4509 212.236C88.8132 212.443 89.2143 212.546 89.6542 212.546C90.0941 212.546 90.4952 212.443 90.8575 212.236C91.2284 212.02 91.5216 211.714 91.7373 211.317C91.9529 210.912 92.0607 210.442 92.0607 209.907ZM96.6769 207.345V211.524C96.6769 211.869 96.7502 212.115 96.8968 212.262C97.0434 212.4 97.2979 212.469 97.6602 212.469H98.527V213.465H97.4661C96.8105 213.465 96.3189 213.314 95.9911 213.012C95.6634 212.71 95.4995 212.214 95.4995 211.524V207.345H94.5809V206.375H95.4995V204.589H96.6769V206.375H98.527V207.345H96.6769ZM100.562 205.223C100.337 205.223 100.148 205.146 99.9924 204.99C99.8371 204.835 99.7595 204.645 99.7595 204.421C99.7595 204.197 99.8371 204.007 99.9924 203.852C100.148 203.696 100.337 203.619 100.562 203.619C100.777 203.619 100.958 203.696 101.105 203.852C101.26 204.007 101.338 204.197 101.338 204.421C101.338 204.645 101.26 204.835 101.105 204.99C100.958 205.146 100.777 205.223 100.562 205.223ZM101.131 206.375V213.465H99.9536V206.375H101.131ZM106.592 206.245C107.455 206.245 108.153 206.508 108.688 207.035C109.223 207.552 109.49 208.302 109.49 209.286V213.465H108.326V209.454C108.326 208.747 108.149 208.208 107.795 207.837C107.442 207.457 106.959 207.267 106.346 207.267C105.725 207.267 105.229 207.461 104.858 207.85C104.496 208.238 104.315 208.803 104.315 209.545V213.465H103.138V206.375H104.315V207.384C104.548 207.022 104.863 206.741 105.259 206.543C105.665 206.344 106.109 206.245 106.592 206.245ZM114.338 206.258C114.95 206.258 115.485 206.392 115.942 206.659C116.408 206.927 116.753 207.263 116.977 207.668V206.375H118.167V213.62C118.167 214.267 118.029 214.841 117.753 215.341C117.477 215.85 117.081 216.247 116.563 216.531C116.054 216.816 115.459 216.958 114.777 216.958C113.846 216.958 113.07 216.738 112.449 216.298C111.828 215.858 111.461 215.259 111.349 214.5H112.513C112.643 214.931 112.91 215.276 113.315 215.535C113.721 215.802 114.208 215.936 114.777 215.936C115.424 215.936 115.951 215.733 116.356 215.328C116.77 214.923 116.977 214.353 116.977 213.62V212.132C116.744 212.546 116.399 212.891 115.942 213.167C115.485 213.443 114.95 213.581 114.338 213.581C113.708 213.581 113.134 213.426 112.617 213.116C112.108 212.805 111.707 212.369 111.414 211.809C111.12 211.248 110.974 210.61 110.974 209.894C110.974 209.169 111.12 208.535 111.414 207.992C111.707 207.44 112.108 207.013 112.617 206.711C113.134 206.409 113.708 206.258 114.338 206.258ZM116.977 209.907C116.977 209.372 116.869 208.906 116.654 208.509C116.438 208.113 116.145 207.811 115.774 207.604C115.411 207.388 115.01 207.28 114.57 207.28C114.131 207.28 113.729 207.384 113.367 207.591C113.005 207.798 112.716 208.1 112.5 208.497C112.285 208.893 112.177 209.359 112.177 209.894C112.177 210.437 112.285 210.912 112.5 211.317C112.716 211.714 113.005 212.02 113.367 212.236C113.729 212.443 114.131 212.546 114.57 212.546C115.01 212.546 115.411 212.443 115.774 212.236C116.145 212.02 116.438 211.714 116.654 211.317C116.869 210.912 116.977 210.442 116.977 209.907ZM126.466 213.555C125.871 213.555 125.336 213.452 124.861 213.245C124.396 213.029 124.029 212.736 123.762 212.365C123.494 211.986 123.356 211.55 123.348 211.058H124.603C124.646 211.481 124.818 211.839 125.12 212.132C125.431 212.417 125.879 212.559 126.466 212.559C127.026 212.559 127.466 212.421 127.785 212.145C128.113 211.86 128.277 211.498 128.277 211.058C128.277 210.713 128.182 210.433 127.992 210.217C127.803 210.002 127.565 209.838 127.281 209.726C126.996 209.614 126.612 209.493 126.129 209.363C125.534 209.208 125.055 209.053 124.693 208.898C124.34 208.742 124.033 208.501 123.775 208.173C123.524 207.837 123.399 207.388 123.399 206.828C123.399 206.336 123.524 205.9 123.775 205.521C124.025 205.141 124.374 204.848 124.823 204.641C125.28 204.434 125.802 204.33 126.388 204.33C127.233 204.33 127.923 204.542 128.458 204.964C129.002 205.387 129.308 205.948 129.377 206.646H128.083C128.04 206.301 127.859 205.999 127.54 205.741C127.22 205.473 126.798 205.34 126.272 205.34C125.78 205.34 125.379 205.469 125.068 205.728C124.758 205.978 124.603 206.332 124.603 206.789C124.603 207.116 124.693 207.384 124.874 207.591C125.064 207.798 125.293 207.957 125.56 208.07C125.836 208.173 126.22 208.294 126.712 208.432C127.307 208.596 127.785 208.76 128.148 208.924C128.51 209.079 128.82 209.325 129.079 209.661C129.338 209.989 129.467 210.437 129.467 211.007C129.467 211.446 129.351 211.86 129.118 212.249C128.885 212.637 128.54 212.952 128.083 213.193C127.626 213.435 127.087 213.555 126.466 213.555ZM130.76 209.907C130.76 209.174 130.907 208.535 131.2 207.992C131.493 207.44 131.899 207.013 132.416 206.711C132.942 206.409 133.542 206.258 134.215 206.258C135.086 206.258 135.802 206.47 136.362 206.892C136.932 207.315 137.307 207.901 137.488 208.652H136.22C136.099 208.221 135.862 207.88 135.508 207.63C135.163 207.38 134.732 207.254 134.215 207.254C133.542 207.254 132.998 207.487 132.584 207.953C132.17 208.41 131.963 209.062 131.963 209.907C131.963 210.761 132.17 211.421 132.584 211.886C132.998 212.352 133.542 212.585 134.215 212.585C134.732 212.585 135.163 212.464 135.508 212.223C135.853 211.981 136.091 211.636 136.22 211.188H137.488C137.298 211.912 136.919 212.494 136.349 212.934C135.78 213.366 135.069 213.581 134.215 213.581C133.542 213.581 132.942 213.43 132.416 213.128C131.899 212.827 131.493 212.4 131.2 211.848C130.907 211.296 130.76 210.649 130.76 209.907ZM138.619 209.894C138.619 209.169 138.766 208.535 139.059 207.992C139.352 207.44 139.753 207.013 140.262 206.711C140.78 206.409 141.353 206.258 141.983 206.258C142.604 206.258 143.143 206.392 143.6 206.659C144.057 206.927 144.398 207.263 144.622 207.668V206.375H145.813V213.465H144.622V212.145C144.39 212.559 144.04 212.904 143.574 213.18C143.117 213.448 142.583 213.581 141.97 213.581C141.34 213.581 140.771 213.426 140.262 213.116C139.753 212.805 139.352 212.369 139.059 211.809C138.766 211.248 138.619 210.61 138.619 209.894ZM144.622 209.907C144.622 209.372 144.515 208.906 144.299 208.509C144.083 208.113 143.79 207.811 143.419 207.604C143.057 207.388 142.656 207.28 142.216 207.28C141.776 207.28 141.375 207.384 141.013 207.591C140.65 207.798 140.361 208.1 140.146 208.497C139.93 208.893 139.822 209.359 139.822 209.894C139.822 210.437 139.93 210.912 140.146 211.317C140.361 211.714 140.65 212.02 141.013 212.236C141.375 212.443 141.776 212.546 142.216 212.546C142.656 212.546 143.057 212.443 143.419 212.236C143.79 212.02 144.083 211.714 144.299 211.317C144.515 210.912 144.622 210.442 144.622 209.907ZM148.98 203.891V213.465H147.802V203.891H148.98ZM157.456 209.648C157.456 209.872 157.443 210.11 157.417 210.36H151.75C151.793 211.058 152.03 211.606 152.461 212.003C152.901 212.391 153.432 212.585 154.053 212.585C154.562 212.585 154.984 212.469 155.321 212.236C155.666 211.994 155.907 211.675 156.045 211.278H157.313C157.124 211.96 156.744 212.516 156.175 212.947C155.605 213.37 154.898 213.581 154.053 213.581C153.38 213.581 152.776 213.43 152.241 213.128C151.715 212.827 151.301 212.4 150.999 211.848C150.698 211.287 150.547 210.64 150.547 209.907C150.547 209.174 150.693 208.531 150.986 207.979C151.28 207.427 151.689 207.004 152.216 206.711C152.75 206.409 153.363 206.258 154.053 206.258C154.726 206.258 155.321 206.405 155.838 206.698C156.356 206.991 156.753 207.397 157.029 207.914C157.313 208.423 157.456 209.001 157.456 209.648ZM156.239 209.402C156.239 208.954 156.14 208.57 155.942 208.251C155.743 207.923 155.472 207.677 155.127 207.513C154.79 207.341 154.415 207.254 154.001 207.254C153.406 207.254 152.897 207.444 152.474 207.824C152.06 208.203 151.823 208.729 151.763 209.402H156.239Z" fill="#363E49"/>
<rect x="93.1895" y="299.736" width="38.8148" height="38.8148" rx="8.62551" fill="#F2F4F7"/>
<path d="M112.596 322.379C114.383 322.379 115.831 320.931 115.831 319.145C115.831 317.358 114.383 315.91 112.596 315.91C110.81 315.91 109.362 317.358 109.362 319.145C109.362 320.931 110.81 322.379 112.596 322.379Z" stroke="#8094AE" stroke-width="1.07819" stroke-linecap="round" stroke-linejoin="round"/>
<path d="M105.409 319.145H109.003" stroke="#8094AE" stroke-width="1.07819" stroke-linecap="round" stroke-linejoin="round"/>
<path d="M116.19 319.145H119.784" stroke="#8094AE" stroke-width="1.07819" stroke-linecap="round" stroke-linejoin="round"/>
<path d="M57.6831 361.176H56.5057L51.7703 353.995V361.176H50.5929V352.145H51.7703L56.5057 359.313V352.145H57.6831V361.176ZM66.1593 357.359C66.1593 357.583 66.1463 357.82 66.1205 358.071H60.4535C60.4966 358.769 60.7338 359.317 61.1651 359.714C61.605 360.102 62.1355 360.296 62.7565 360.296C63.2654 360.296 63.6881 360.18 64.0245 359.947C64.3695 359.705 64.611 359.386 64.749 358.989H66.017C65.8272 359.671 65.4477 360.227 64.8784 360.658C64.3091 361.081 63.6018 361.292 62.7565 361.292C62.0837 361.292 61.4799 361.141 60.9452 360.839C60.419 360.537 60.005 360.111 59.7031 359.558C59.4012 358.998 59.2502 358.351 59.2502 357.618C59.2502 356.885 59.3969 356.242 59.6901 355.69C59.9834 355.138 60.3931 354.715 60.9193 354.422C61.4541 354.12 62.0665 353.969 62.7565 353.969C63.4293 353.969 64.0245 354.116 64.542 354.409C65.0595 354.702 65.4563 355.108 65.7323 355.625C66.017 356.134 66.1593 356.712 66.1593 357.359ZM64.9431 357.113C64.9431 356.665 64.8439 356.281 64.6455 355.962C64.4471 355.634 64.1754 355.388 63.8304 355.224C63.494 355.052 63.1188 354.965 62.7048 354.965C62.1096 354.965 61.6007 355.155 61.178 355.535C60.764 355.914 60.5268 356.44 60.4664 357.113H64.9431ZM69.1495 355.056V359.235C69.1495 359.58 69.2229 359.826 69.3695 359.973C69.5161 360.111 69.7706 360.18 70.1328 360.18H70.9997V361.176H69.9388C69.2832 361.176 68.7916 361.025 68.4638 360.723C68.136 360.421 67.9722 359.925 67.9722 359.235V355.056H67.0535V354.086H67.9722V352.3H69.1495V354.086H70.9997V355.056H69.1495ZM81.9049 354.797C81.9049 355.548 81.6461 356.173 81.1286 356.673C80.6197 357.165 79.839 357.411 78.7867 357.411H77.053V361.176H75.8756V352.158H78.7867C79.8045 352.158 80.5765 352.404 81.1027 352.895C81.6375 353.387 81.9049 354.021 81.9049 354.797ZM78.7867 356.44C79.4423 356.44 79.9253 356.298 80.2358 356.013C80.5463 355.729 80.7016 355.323 80.7016 354.797C80.7016 353.685 80.0633 353.128 78.7867 353.128H77.053V356.44H78.7867ZM84.5456 355.237C84.7526 354.832 85.0459 354.517 85.4254 354.293C85.8135 354.068 86.2836 353.956 86.8357 353.956V355.172H86.5251C85.2054 355.172 84.5456 355.888 84.5456 357.32V361.176H83.3682V354.086H84.5456V355.237ZM91.287 361.292C90.6229 361.292 90.0191 361.141 89.4757 360.839C88.9409 360.537 88.5182 360.111 88.2077 359.558C87.9058 358.998 87.7549 358.351 87.7549 357.618C87.7549 356.893 87.9101 356.255 88.2207 355.703C88.5398 355.142 88.9711 354.715 89.5145 354.422C90.0579 354.12 90.666 353.969 91.3388 353.969C92.0116 353.969 92.6197 354.12 93.1631 354.422C93.7065 354.715 94.1334 355.138 94.444 355.69C94.7631 356.242 94.9227 356.885 94.9227 357.618C94.9227 358.351 94.7588 358.998 94.431 359.558C94.1119 360.111 93.6763 360.537 93.1243 360.839C92.5722 361.141 91.9598 361.292 91.287 361.292ZM91.287 360.257C91.7097 360.257 92.1064 360.158 92.4773 359.96C92.8482 359.761 93.1458 359.464 93.3701 359.067C93.603 358.67 93.7194 358.187 93.7194 357.618C93.7194 357.048 93.6073 356.565 93.383 356.169C93.1588 355.772 92.8655 355.479 92.5032 355.289C92.1409 355.09 91.7485 354.991 91.3258 354.991C90.8946 354.991 90.4978 355.09 90.1355 355.289C89.7819 355.479 89.4972 355.772 89.2816 356.169C89.066 356.565 88.9581 357.048 88.9581 357.618C88.9581 358.196 89.0616 358.683 89.2687 359.08C89.4843 359.477 89.7689 359.774 90.1226 359.973C90.4762 360.162 90.8644 360.257 91.287 360.257ZM104.997 353.956C105.549 353.956 106.041 354.073 106.472 354.306C106.903 354.53 107.244 354.871 107.494 355.328C107.744 355.785 107.869 356.341 107.869 356.997V361.176H106.705V357.165C106.705 356.458 106.528 355.919 106.174 355.548C105.829 355.168 105.359 354.978 104.764 354.978C104.152 354.978 103.664 355.177 103.302 355.574C102.94 355.962 102.759 356.527 102.759 357.268V361.176H101.594V357.165C101.594 356.458 101.417 355.919 101.064 355.548C100.719 355.168 100.249 354.978 99.6535 354.978C99.0411 354.978 98.5538 355.177 98.1915 355.574C97.8292 355.962 97.6481 356.527 97.6481 357.268V361.176H96.4707V354.086H97.6481V355.108C97.881 354.737 98.1915 354.452 98.5797 354.254C98.9764 354.055 99.412 353.956 99.8864 353.956C100.482 353.956 101.008 354.09 101.465 354.357C101.922 354.625 102.263 355.017 102.487 355.535C102.685 355.034 103.013 354.646 103.47 354.37C103.927 354.094 104.436 353.956 104.997 353.956ZM112.893 361.292C112.229 361.292 111.625 361.141 111.082 360.839C110.547 360.537 110.124 360.111 109.814 359.558C109.512 358.998 109.361 358.351 109.361 357.618C109.361 356.893 109.516 356.255 109.827 355.703C110.146 355.142 110.577 354.715 111.12 354.422C111.664 354.12 112.272 353.969 112.945 353.969C113.617 353.969 114.226 354.12 114.769 354.422C115.312 354.715 115.739 355.138 116.05 355.69C116.369 356.242 116.529 356.885 116.529 357.618C116.529 358.351 116.365 358.998 116.037 359.558C115.718 360.111 115.282 360.537 114.73 360.839C114.178 361.141 113.566 361.292 112.893 361.292ZM112.893 360.257C113.316 360.257 113.712 360.158 114.083 359.96C114.454 359.761 114.752 359.464 114.976 359.067C115.209 358.67 115.325 358.187 115.325 357.618C115.325 357.048 115.213 356.565 114.989 356.169C114.765 355.772 114.471 355.479 114.109 355.289C113.747 355.09 113.354 354.991 112.932 354.991C112.5 354.991 112.104 355.09 111.741 355.289C111.388 355.479 111.103 355.772 110.887 356.169C110.672 356.565 110.564 357.048 110.564 357.618C110.564 358.196 110.668 358.683 110.875 359.08C111.09 359.477 111.375 359.774 111.728 359.973C112.082 360.162 112.47 360.257 112.893 360.257ZM119.513 355.056V359.235C119.513 359.58 119.586 359.826 119.733 359.973C119.879 360.111 120.134 360.18 120.496 360.18H121.363V361.176H120.302C119.646 361.176 119.155 361.025 118.827 360.723C118.499 360.421 118.335 359.925 118.335 359.235V355.056H117.417V354.086H118.335V352.3H119.513V354.086H121.363V355.056H119.513ZM129.259 357.359C129.259 357.583 129.246 357.82 129.22 358.071H123.553C123.596 358.769 123.833 359.317 124.264 359.714C124.704 360.102 125.235 360.296 125.856 360.296C126.365 360.296 126.787 360.18 127.124 359.947C127.469 359.705 127.71 359.386 127.848 358.989H129.116C128.927 359.671 128.547 360.227 127.978 360.658C127.408 361.081 126.701 361.292 125.856 361.292C125.183 361.292 124.579 361.141 124.045 360.839C123.518 360.537 123.104 360.111 122.802 359.558C122.501 358.998 122.35 358.351 122.35 357.618C122.35 356.885 122.496 356.242 122.789 355.69C123.083 355.138 123.492 354.715 124.019 354.422C124.553 354.12 125.166 353.969 125.856 353.969C126.529 353.969 127.124 354.116 127.641 354.409C128.159 354.702 128.556 355.108 128.832 355.625C129.116 356.134 129.259 356.712 129.259 357.359ZM128.042 357.113C128.042 356.665 127.943 356.281 127.745 355.962C127.546 355.634 127.275 355.388 126.93 355.224C126.593 355.052 126.218 354.965 125.804 354.965C125.209 354.965 124.7 355.155 124.277 355.535C123.863 355.914 123.626 356.44 123.566 357.113H128.042ZM131.99 355.237C132.197 354.832 132.49 354.517 132.87 354.293C133.258 354.068 133.728 353.956 134.28 353.956V355.172H133.97C132.65 355.172 131.99 355.888 131.99 357.32V361.176H130.813V354.086H131.99V355.237ZM141.948 361.266C141.353 361.266 140.818 361.163 140.344 360.956C139.878 360.74 139.511 360.447 139.244 360.076C138.977 359.697 138.839 359.261 138.83 358.769H140.085C140.128 359.192 140.301 359.55 140.602 359.843C140.913 360.128 141.361 360.27 141.948 360.27C142.509 360.27 142.949 360.132 143.268 359.856C143.596 359.571 143.759 359.209 143.759 358.769C143.759 358.424 143.665 358.144 143.475 357.928C143.285 357.713 143.048 357.549 142.763 357.437C142.479 357.324 142.095 357.204 141.612 357.074C141.016 356.919 140.538 356.764 140.175 356.609C139.822 356.453 139.516 356.212 139.257 355.884C139.007 355.548 138.882 355.099 138.882 354.538C138.882 354.047 139.007 353.611 139.257 353.232C139.507 352.852 139.856 352.559 140.305 352.352C140.762 352.145 141.284 352.041 141.87 352.041C142.716 352.041 143.406 352.253 143.941 352.675C144.484 353.098 144.79 353.659 144.859 354.357H143.565C143.522 354.012 143.341 353.71 143.022 353.452C142.703 353.184 142.28 353.051 141.754 353.051C141.262 353.051 140.861 353.18 140.551 353.439C140.24 353.689 140.085 354.042 140.085 354.5C140.085 354.827 140.175 355.095 140.357 355.302C140.546 355.509 140.775 355.668 141.042 355.781C141.318 355.884 141.702 356.005 142.194 356.143C142.789 356.307 143.268 356.471 143.63 356.634C143.992 356.79 144.303 357.036 144.562 357.372C144.82 357.7 144.95 358.148 144.95 358.718C144.95 359.157 144.833 359.571 144.6 359.96C144.367 360.348 144.022 360.663 143.565 360.904C143.108 361.146 142.569 361.266 141.948 361.266ZM146.242 357.618C146.242 356.885 146.389 356.246 146.682 355.703C146.976 355.151 147.381 354.724 147.899 354.422C148.425 354.12 149.024 353.969 149.697 353.969C150.568 353.969 151.284 354.18 151.845 354.603C152.414 355.026 152.789 355.612 152.97 356.363H151.702C151.582 355.931 151.344 355.591 150.991 355.341C150.646 355.09 150.214 354.965 149.697 354.965C149.024 354.965 148.481 355.198 148.067 355.664C147.653 356.121 147.446 356.772 147.446 357.618C147.446 358.472 147.653 359.132 148.067 359.597C148.481 360.063 149.024 360.296 149.697 360.296C150.214 360.296 150.646 360.175 150.991 359.934C151.336 359.692 151.573 359.347 151.702 358.899H152.97C152.781 359.623 152.401 360.205 151.832 360.645C151.262 361.077 150.551 361.292 149.697 361.292C149.024 361.292 148.425 361.141 147.899 360.839C147.381 360.537 146.976 360.111 146.682 359.558C146.389 359.006 146.242 358.36 146.242 357.618ZM157.634 361.292C156.969 361.292 156.366 361.141 155.822 360.839C155.287 360.537 154.865 360.111 154.554 359.558C154.252 358.998 154.101 358.351 154.101 357.618C154.101 356.893 154.257 356.255 154.567 355.703C154.886 355.142 155.318 354.715 155.861 354.422C156.404 354.12 157.013 353.969 157.685 353.969C158.358 353.969 158.966 354.12 159.51 354.422C160.053 354.715 160.48 355.138 160.791 355.69C161.11 356.242 161.269 356.885 161.269 357.618C161.269 358.351 161.105 358.998 160.778 359.558C160.458 360.111 160.023 360.537 159.471 360.839C158.919 361.141 158.306 361.292 157.634 361.292ZM157.634 360.257C158.056 360.257 158.453 360.158 158.824 359.96C159.195 359.761 159.492 359.464 159.717 359.067C159.95 358.67 160.066 358.187 160.066 357.618C160.066 357.048 159.954 356.565 159.73 356.169C159.505 355.772 159.212 355.479 158.85 355.289C158.487 355.09 158.095 354.991 157.672 354.991C157.241 354.991 156.844 355.09 156.482 355.289C156.128 355.479 155.844 355.772 155.628 356.169C155.412 356.565 155.305 357.048 155.305 357.618C155.305 358.196 155.408 358.683 155.615 359.08C155.831 359.477 156.115 359.774 156.469 359.973C156.823 360.162 157.211 360.257 157.634 360.257ZM163.995 355.237C164.202 354.832 164.495 354.517 164.874 354.293C165.263 354.068 165.733 353.956 166.285 353.956V355.172H165.974C164.654 355.172 163.995 355.888 163.995 357.32V361.176H162.817V354.086H163.995V355.237ZM174.113 357.359C174.113 357.583 174.1 357.82 174.074 358.071H168.407C168.45 358.769 168.688 359.317 169.119 359.714C169.559 360.102 170.089 360.296 170.71 360.296C171.219 360.296 171.642 360.18 171.978 359.947C172.323 359.705 172.565 359.386 172.703 358.989H173.971C173.781 359.671 173.401 360.227 172.832 360.658C172.263 361.081 171.556 361.292 170.71 361.292C170.037 361.292 169.434 361.141 168.899 360.839C168.373 360.537 167.959 360.111 167.657 359.558C167.355 358.998 167.204 358.351 167.204 357.618C167.204 356.885 167.351 356.242 167.644 355.69C167.937 355.138 168.347 354.715 168.873 354.422C169.408 354.12 170.02 353.969 170.71 353.969C171.383 353.969 171.978 354.116 172.496 354.409C173.013 354.702 173.41 355.108 173.686 355.625C173.971 356.134 174.113 356.712 174.113 357.359ZM172.897 357.113C172.897 356.665 172.798 356.281 172.599 355.962C172.401 355.634 172.129 355.388 171.784 355.224C171.448 355.052 171.072 354.965 170.658 354.965C170.063 354.965 169.554 355.155 169.132 355.535C168.718 355.914 168.481 356.44 168.42 357.113H172.897Z" fill="#363E49"/>
</svg>
