<svg width="716" height="563" viewBox="0 0 716 563" fill="none" xmlns="http://www.w3.org/2000/svg">
<g clip-path="url(#clip0_1_15602)">
<rect width="716" height="563" rx="16" fill="#F2F4F7"/>
<path opacity="0.07" d="M749.496 419.68C756.968 302.683 766.714 183.53 777.029 66.6137C777.922 57.7491 776.785 62.1415 777.273 63.3394C778.247 68.0512 783.608 69.0894 787.344 66.3741C738.613 123.794 645.863 232.325 596.483 289.266C565.54 325.284 534.433 361.221 503.084 396.839C497.886 403.148 398.638 516.072 397.583 517.509C356.081 573.811 268.61 549.613 263.737 480.534C263.006 472.867 261.463 457.613 260.732 449.707C247.981 320.013 242.62 187.523 237.747 57.1901C238.966 65.3359 249.443 80.829 265.605 79.9505C273.889 80.5095 285.747 73.1623 288.102 67.4922C285.503 71.4852 201.525 188.961 196.57 196.068C86.3587 350.52 -25.9645 503.613 -141.536 654.711C-143.486 657.266 -147.14 657.745 -149.658 655.829C-152.013 654.072 -152.663 650.957 -151.283 648.561C-36.3603 438.048 86.6023 226.895 209.484 20.6936C231.331 -18.9973 291.27 -23.7091 319.695 12.9471C329.848 25.1658 333.421 39.7804 334.558 54.7943C349.096 182.971 363.228 313.305 369.888 442.041C370.375 450.506 371.187 466.238 371.674 474.784C369.725 446.832 332.284 433.735 313.117 455.377C317.259 451.145 328.548 439.884 333.015 435.332C426.334 340.777 541.012 226.096 635.468 132.659L737.314 32.6728C743.974 25.9644 751.446 18.3776 760.867 14.7839C793.76 0.0894556 833.881 26.4436 831.932 61.7422C832.581 67.1727 817.8 135.933 816.825 143.44C798.633 236.079 780.278 328.718 760.136 421.117C758.593 427.426 749.171 426.148 749.496 419.68Z" fill="url(#paint0_linear_1_15602)"/>
<g filter="url(#filter0_f_1_15602)">
<circle cx="871.776" cy="264.672" r="113.645" transform="rotate(135 871.776 264.672)" fill="#180435" fill-opacity="0.2"/>
</g>
<circle cx="889.537" cy="282" r="148.872" transform="rotate(135 889.537 282)" fill="white"/>
</g>
<defs>
<filter id="filter0_f_1_15602" x="451.81" y="-155.294" width="839.933" height="839.932" filterUnits="userSpaceOnUse" color-interpolation-filters="sRGB">
<feFlood flood-opacity="0" result="BackgroundImageFix"/>
<feBlend mode="normal" in="SourceGraphic" in2="BackgroundImageFix" result="shape"/>
<feGaussianBlur stdDeviation="153.161" result="effect1_foregroundBlur_1_15602"/>
</filter>
<linearGradient id="paint0_linear_1_15602" x1="-117.467" y1="296.218" x2="937.081" y2="36.7383" gradientUnits="userSpaceOnUse">
<stop stop-color="#00DDD0"/>
<stop offset="1" stop-color="#6100DD"/>
</linearGradient>
<clipPath id="clip0_1_15602">
<rect width="716" height="563" rx="16" fill="white"/>
</clipPath>
</defs>
</svg>
