<svg width="372" height="273" viewBox="0 0 372 273" fill="none" xmlns="http://www.w3.org/2000/svg">
<g clip-path="url(#clip0_1_10348)">
<path d="M-5.38184 71.5898L124.828 -61.2692L105.786 -83.9366C97.9939 -83.386 90.1416 -82.0964 82.3157 -79.9994C16.2655 -62.3013 -22.9577 5.536 -5.38184 71.5898Z" fill="#077CCC"/>
<path d="M-4.84489 71.6725C-4.85313 71.6418 -4.86098 71.6104 -4.87001 71.5743L-4.89903 71.4609C-4.89908 71.4607 -4.89914 71.4605 -4.89919 71.4603C-18.8058 18.9843 22.989 -37.9217 88.8605 -55.5728C100.911 -58.8016 112.924 -60.4846 124.599 -60.7654L191.63 19.0263L168.322 150.783C161.394 154.137 154.056 156.897 146.346 158.963C80.4915 176.608 12.8008 137.527 -4.84489 71.6725Z" fill="#6200EE" stroke="#333333"/>
<path d="M109.412 -84.1316L185.167 20.7616L340.82 -20.9455C353.513 -46.8895 357.249 -77.3593 349.186 -107.45C335.013 -160.346 269.92 -188.866 203.799 -171.149C154.646 -157.979 118.77 -122.964 109.412 -84.1316Z" fill="#FF5178"/>
<path d="M109.74 -43.2909C117.803 -13.2014 136.273 11.3174 160.237 27.4399L217.22 -29.5344C193.422 -64.8706 152.558 -85.9068 109.412 -84.1315C106.181 -70.7256 106.103 -56.8658 109.74 -43.2909Z" fill="#FFC107"/>
<path d="M391.31 49.7597C383.244 19.6814 364.778 -4.82824 340.821 -20.9459L318.921 -15.0779L391.31 49.7597Z" fill="#FFB24A"/>
<path d="M186.529 21.948L170.329 150.748C198.808 192.616 251.617 213.982 303.286 200.137C368.607 182.634 407.371 115.493 389.868 50.1725L186.529 21.948ZM186.529 21.948L318.931 -13.5288C354.012 -4.56848 381.335 18.3666 389.868 50.1721L186.529 21.948Z" fill="#00DDD0" stroke="black" stroke-width="3"/>
<path d="M160.237 27.4393C147.544 53.3833 143.809 83.8539 151.871 113.943L184.627 20.904L160.237 27.4393Z" fill="#360083"/>
<path d="M151.871 113.942C155.521 127.565 161.309 140.043 168.77 151.121C208.858 131.608 235.051 91.9813 238.074 48.2899L171.006 33.9183C152.391 57.6349 144.486 86.3773 151.871 113.942Z" fill="#360083"/>
<path d="M217.219 -29.5347C221.681 -22.909 225.54 -15.7784 228.705 -8.20541L334.732 -9.95315C336.942 -13.513 338.977 -17.1808 340.819 -20.9455C312.122 -40.2517 275.544 -47.5138 239.513 -37.8591C231.687 -35.7622 224.243 -32.9531 217.219 -29.5347Z" fill="#FF7169"/>
<path d="M228.706 -8.20572C230.834 -3.11694 232.651 2.16948 234.118 7.644C237.768 21.2668 238.995 34.9667 238.073 48.2903C245.865 47.7397 253.717 46.4503 261.543 44.3531C293.208 35.8687 318.701 15.8577 334.732 -9.95325C309.018 -20.2751 277.594 -22.4003 245.93 -13.9159C239.986 -12.3222 234.239 -10.4052 228.706 -8.20572Z" fill="#FFC107"/>
<path d="M160.238 27.4384C163.716 29.7785 167.311 31.9411 171.006 33.9178L228.706 -8.20659C225.54 -15.7794 221.682 -22.9102 217.22 -29.5359C191.91 -17.2158 172.136 3.11966 160.238 27.4384Z" fill="#FFC107"/>
<path d="M238.074 48.2896C238.996 34.9661 237.769 21.2662 234.118 7.64336C232.652 2.16885 230.834 -3.11757 228.706 -8.20636C204.767 1.31184 184.902 16.2132 171.006 33.918C191.173 44.7099 214.342 49.9682 238.074 48.2896Z" fill="#FFC107"/>
</g>
<defs>
<clipPath id="clip0_1_10348">
<rect width="410.674" height="410.674" fill="white" transform="translate(37.2666 272.971) rotate(-105)"/>
</clipPath>
</defs>
</svg>
