<svg width="26" height="18" viewBox="0 0 26 18" fill="none" xmlns="http://www.w3.org/2000/svg">
<path d="M22.8133 11.0603L22.8133 11.0592C22.9833 8.35219 23.2015 5.59887 23.4342 2.88764C22.1877 4.37761 20.2928 6.63044 19.2262 7.88126C18.471 8.77518 17.7118 9.66723 16.9465 10.5514C16.8772 10.6366 16.2412 11.3749 15.6202 12.0954C15.5449 12.1829 15.4697 12.2701 15.3957 12.3559C15.1631 12.6258 14.9425 12.8817 14.7659 13.0867C14.6496 13.2219 14.5524 13.3349 14.4835 13.4152L14.4026 13.5097C14.3916 13.5226 14.3843 13.5312 14.38 13.5363C14.376 13.5411 14.3745 13.5428 14.375 13.5422L14.3749 13.5423C13.3169 15.0019 11.0813 14.3759 10.956 12.582C10.9486 12.5027 10.9377 12.39 10.9261 12.2714C10.9102 12.1071 10.8931 11.9314 10.8828 11.8177C10.6403 9.30957 10.5073 6.75965 10.4041 4.22691C10.3671 4.27965 10.3304 4.332 10.2941 4.38373C9.87659 4.97893 9.51697 5.49158 9.46945 5.56092L9.46893 5.56168C6.77824 9.39644 4.03589 13.1977 1.21411 16.9495M22.8133 11.0603L1.14702 16.899M22.8133 11.0603C22.8068 11.1909 22.9012 11.2711 22.9984 11.2844C23.0955 11.2978 23.208 11.2465 23.2385 11.1198L23.2389 11.1178C23.7308 8.82307 24.179 6.5226 24.623 4.2229L24.6232 4.22293L24.6239 4.21761C24.632 4.15422 24.682 3.90111 24.7431 3.59161C24.7683 3.4641 24.7954 3.32702 24.8223 3.1897C24.8679 2.9562 24.9123 2.7237 24.9445 2.54097C24.9605 2.44968 24.9736 2.3701 24.9822 2.30873C24.9865 2.2781 24.9898 2.25121 24.9917 2.22927C24.9932 2.21268 24.9944 2.19404 24.9935 2.17777C25.0401 1.24035 23.9986 0.548569 23.1421 0.935757C22.8983 1.03107 22.707 1.22714 22.5496 1.3884L22.5404 1.39783L22.5397 1.3986L20.0543 3.87993L20.0541 3.88016C18.0675 5.87871 15.7145 8.26871 13.6442 10.3934M22.8133 11.0603L13.6442 10.3934M1.21411 16.9495L1.14702 16.899M1.21411 16.9495C1.21414 16.9494 1.21416 16.9494 1.21418 16.9494L1.14702 16.899M1.21411 16.9495C1.13876 17.0498 0.996588 17.0696 0.897757 16.9934M1.14702 16.899C1.09944 16.9624 1.01022 16.9743 0.948765 16.9268M0.897757 16.9934C0.897846 16.9935 0.897934 16.9936 0.898022 16.9936L0.948765 16.9268M0.897757 16.9934C0.808338 16.9254 0.781207 16.8029 0.835539 16.7059C3.64115 11.4794 6.64286 6.23727 9.64227 1.11864C10.2052 0.0807013 11.7411 -0.0407371 12.4716 0.915542C12.7338 1.23712 12.8236 1.61862 12.8521 1.99861C13.1618 4.77541 13.4641 7.59472 13.6442 10.3934M0.897757 16.9934C0.897628 16.9933 0.897498 16.9932 0.897369 16.9931L0.948765 16.9268M0.948765 16.9268C0.891272 16.8831 0.875412 16.8058 0.909115 16.7463L13.6442 10.3934" fill="url(#paint0_linear_1647_5341)" stroke="url(#paint1_linear_1647_5341)" stroke-width="0.167915"/>
<defs>
<linearGradient id="paint0_linear_1647_5341" x1="1.73455" y1="7.99962" x2="27.5248" y2="1.75967" gradientUnits="userSpaceOnUse">
<stop stop-color="#00DDD0"/>
<stop offset="1" stop-color="#6100DD"/>
</linearGradient>
<linearGradient id="paint1_linear_1647_5341" x1="1.73455" y1="7.99962" x2="27.5248" y2="1.75967" gradientUnits="userSpaceOnUse">
<stop stop-color="#00DDD0"/>
<stop offset="1" stop-color="#6100DD"/>
</linearGradient>
</defs>
</svg>
