<svg width="38" height="39" viewBox="0 0 38 39" fill="none" xmlns="http://www.w3.org/2000/svg">
<rect x="0.374023" y="0.875" width="37.251" height="37.251" rx="8" fill="#6200EE"/>
<mask id="path-2-inside-1_1_10508" fill="white">
<path d="M15.1901 23.8115L11.1289 19.7503L12.1532 18.744L15.2081 21.7988L16.2144 22.8051L15.1901 23.8115ZM19.2513 23.8115L15.1901 19.7503L16.1964 18.726L19.2513 21.7809L25.8642 15.168L26.8705 16.1922L19.2513 23.8115ZM19.2513 19.7503L18.227 18.744L21.785 15.1859L22.8093 16.1922L19.2513 19.7503Z"/>
</mask>
<path d="M15.1901 23.8115L11.1289 19.7503L12.1532 18.744L15.2081 21.7988L16.2144 22.8051L15.1901 23.8115ZM19.2513 23.8115L15.1901 19.7503L16.1964 18.726L19.2513 21.7809L25.8642 15.168L26.8705 16.1922L19.2513 23.8115ZM19.2513 19.7503L18.227 18.744L21.785 15.1859L22.8093 16.1922L19.2513 19.7503Z" fill="white"/>
<path d="M15.1901 23.8115L-1.07434 40.0759L15.0468 56.197L31.3099 40.2192L15.1901 23.8115ZM11.1289 19.7503L-4.99096 3.34256L-21.5445 19.6057L-5.13552 36.0147L11.1289 19.7503ZM12.1532 18.744L28.4176 2.47954L12.2965 -13.6416L-3.96668 2.33625L12.1532 18.744ZM15.2081 21.7988L-1.05637 38.0633H-1.05637L15.2081 21.7988ZM16.2144 22.8051L32.3342 39.2129L48.8878 22.9497L32.4788 6.54072L16.2144 22.8051ZM19.2513 23.8115L2.98684 40.0759L19.2513 56.3403L35.5157 40.0759L19.2513 23.8115ZM15.1901 19.7503L-1.21763 3.63041L-17.1955 19.8936L-1.07434 36.0147L15.1901 19.7503ZM16.1964 18.726L32.4608 2.46157L16.0518 -13.9474L-0.211317 2.60613L16.1964 18.726ZM19.2513 21.7809L2.98684 38.0453L19.2513 54.3097L35.5157 38.0453L19.2513 21.7809ZM25.8642 15.168L42.2719 -0.9519L26.0087 -17.5054L9.59973 -1.09646L25.8642 15.168ZM26.8705 16.1922L43.1349 32.4567L59.256 16.3355L43.2782 0.0723782L26.8705 16.1922ZM19.2513 19.7503L3.1314 36.158L19.3946 52.1358L35.5157 36.0147L19.2513 19.7503ZM18.227 18.744L1.96256 2.47954L-14.4464 18.8885L2.10712 35.1517L18.227 18.744ZM21.785 15.1859L37.9049 -1.22178L21.6417 -17.1996L5.52059 -1.07849L21.785 15.1859ZM22.8093 16.1922L39.0737 32.4567L55.4827 16.0477L38.9291 -0.215468L22.8093 16.1922ZM31.4545 7.54702L27.3933 3.48585L-5.13552 36.0147L-1.07434 40.0759L31.4545 7.54702ZM27.2488 36.158L28.2731 35.1517L-3.96668 2.33625L-4.99096 3.34256L27.2488 36.158ZM-4.11124 35.0084L-1.05637 38.0633L31.4725 5.53441L28.4176 2.47954L-4.11124 35.0084ZM-1.05637 38.0633L-0.0500593 39.0696L32.4788 6.54072L31.4725 5.53441L-1.05637 38.0633ZM0.0945082 6.39742L-0.929771 7.40373L31.3099 40.2192L32.3342 39.2129L0.0945082 6.39742ZM35.5157 7.54702L31.4545 3.48584L-1.07434 36.0147L2.98684 40.0759L35.5157 7.54702ZM31.5978 35.8701L32.6041 34.8459L-0.211317 2.60613L-1.21763 3.63041L31.5978 35.8701ZM-0.0680304 34.9904L2.98684 38.0453L35.5157 5.51644L32.4608 2.46157L-0.0680304 34.9904ZM35.5157 38.0453L42.1286 31.4324L9.59973 -1.09646L2.98684 5.51644L35.5157 38.0453ZM9.45645 31.2878L10.4628 32.3121L43.2782 0.0723782L42.2719 -0.9519L9.45645 31.2878ZM10.606 -0.0721788L2.98684 7.54702L35.5157 40.0759L43.1349 32.4567L10.606 -0.0721788ZM35.3711 3.34256L34.3468 2.33625L2.10712 35.1517L3.1314 36.158L35.3711 3.34256ZM34.4914 35.0084L38.0494 31.4504L5.52059 -1.07849L1.96256 2.47954L34.4914 35.0084ZM5.66515 31.5937L6.68943 32.6L38.9291 -0.215468L37.9049 -1.22178L5.66515 31.5937ZM6.54486 -0.0721769L2.98684 3.48585L35.5157 36.0147L39.0737 32.4567L6.54486 -0.0721769Z" fill="white" mask="url(#path-2-inside-1_1_10508)"/>
</svg>
