<svg width="39" height="39" viewBox="0 0 39 39" fill="none" xmlns="http://www.w3.org/2000/svg">
<rect x="0.874023" y="0.875" width="37.251" height="37.251" rx="8" fill="#FFC107"/>
<mask id="path-2-inside-1_1_10483" fill="white">
<path d="M15.6901 23.8115L11.6289 19.7503L12.6532 18.744L15.7081 21.7988L16.7144 22.8051L15.6901 23.8115ZM19.7513 23.8115L15.6901 19.7503L16.6964 18.726L19.7513 21.7809L26.3642 15.168L27.3705 16.1922L19.7513 23.8115ZM19.7513 19.7503L18.727 18.744L22.285 15.1859L23.3093 16.1922L19.7513 19.7503Z"/>
</mask>
<path d="M15.6901 23.8115L11.6289 19.7503L12.6532 18.744L15.7081 21.7988L16.7144 22.8051L15.6901 23.8115ZM19.7513 23.8115L15.6901 19.7503L16.6964 18.726L19.7513 21.7809L26.3642 15.168L27.3705 16.1922L19.7513 23.8115ZM19.7513 19.7503L18.727 18.744L22.285 15.1859L23.3093 16.1922L19.7513 19.7503Z" fill="#363E49"/>
<path d="M15.6901 23.8115L-0.574339 40.0759L15.5468 56.197L31.8099 40.2192L15.6901 23.8115ZM11.6289 19.7503L-4.49096 3.34256L-21.0445 19.6057L-4.63552 36.0147L11.6289 19.7503ZM12.6532 18.744L28.9176 2.47954L12.7965 -13.6416L-3.46668 2.33625L12.6532 18.744ZM15.7081 21.7988L-0.55637 38.0633H-0.556369L15.7081 21.7988ZM16.7144 22.8051L32.8342 39.2129L49.3878 22.9497L32.9788 6.54072L16.7144 22.8051ZM19.7513 23.8115L3.48684 40.0759L19.7513 56.3403L36.0157 40.0759L19.7513 23.8115ZM15.6901 19.7503L-0.717628 3.63041L-16.6955 19.8936L-0.574337 36.0147L15.6901 19.7503ZM16.6964 18.726L32.9608 2.46157L16.5518 -13.9474L0.288683 2.60613L16.6964 18.726ZM19.7513 21.7809L3.48684 38.0453L19.7513 54.3097L36.0157 38.0453L19.7513 21.7809ZM26.3642 15.168L42.7719 -0.9519L26.5087 -17.5054L10.0997 -1.09646L26.3642 15.168ZM27.3705 16.1922L43.6349 32.4567L59.756 16.3355L43.7782 0.0723782L27.3705 16.1922ZM19.7513 19.7503L3.6314 36.158L19.8946 52.1358L36.0157 36.0147L19.7513 19.7503ZM18.727 18.744L2.46256 2.47954L-13.9464 18.8885L2.60712 35.1517L18.727 18.744ZM22.285 15.1859L38.4049 -1.22178L22.1417 -17.1996L6.02059 -1.07849L22.285 15.1859ZM23.3093 16.1922L39.5737 32.4567L55.9827 16.0477L39.4291 -0.215468L23.3093 16.1922ZM31.9545 7.54702L27.8933 3.48585L-4.63552 36.0147L-0.574339 40.0759L31.9545 7.54702ZM27.7488 36.158L28.7731 35.1517L-3.46668 2.33625L-4.49096 3.34256L27.7488 36.158ZM-3.61124 35.0084L-0.55637 38.0633L31.9725 5.53441L28.9176 2.47954L-3.61124 35.0084ZM-0.556369 38.0633L0.449941 39.0696L32.9788 6.54072L31.9725 5.53441L-0.556369 38.0633ZM0.594508 6.39742L-0.429771 7.40373L31.8099 40.2192L32.8342 39.2129L0.594508 6.39742ZM36.0157 7.54702L31.9545 3.48584L-0.574337 36.0147L3.48684 40.0759L36.0157 7.54702ZM32.0978 35.8701L33.1041 34.8459L0.288683 2.60613L-0.717628 3.63041L32.0978 35.8701ZM0.43197 34.9904L3.48684 38.0453L36.0157 5.51644L32.9608 2.46157L0.43197 34.9904ZM36.0157 38.0453L42.6286 31.4324L10.0997 -1.09646L3.48684 5.51644L36.0157 38.0453ZM9.95645 31.2878L10.9628 32.3121L43.7782 0.0723782L42.7719 -0.9519L9.95645 31.2878ZM11.106 -0.0721788L3.48684 7.54702L36.0157 40.0759L43.6349 32.4567L11.106 -0.0721788ZM35.8711 3.34256L34.8468 2.33625L2.60712 35.1517L3.6314 36.158L35.8711 3.34256ZM34.9914 35.0084L38.5494 31.4504L6.02059 -1.07849L2.46256 2.47954L34.9914 35.0084ZM6.16515 31.5937L7.18943 32.6L39.4291 -0.215468L38.4049 -1.22178L6.16515 31.5937ZM7.04486 -0.0721769L3.48684 3.48585L36.0157 36.0147L39.5737 32.4567L7.04486 -0.0721769Z" fill="#363E49" mask="url(#path-2-inside-1_1_10483)"/>
</svg>
