<svg width="157" height="34" viewBox="0 0 157 34" fill="none" xmlns="http://www.w3.org/2000/svg">
<path d="M1.60149 32.9682C7.12271 25.7395 12.4886 18.4154 17.7534 11.0267L17.7542 11.0256C17.8478 10.8911 18.5543 9.8994 19.3733 8.74971C19.4629 8.62389 19.5539 8.49619 19.6456 8.3675C19.848 13.2819 20.1086 18.2302 20.5864 23.0968C20.6066 23.3158 20.64 23.6539 20.6712 23.9703C20.6938 24.1991 20.7152 24.4166 20.7298 24.5697C20.9726 27.9975 25.3044 29.1874 27.3535 26.4037L27.3536 26.4035C27.3533 26.4039 27.3551 26.4018 27.3595 26.3967C27.3673 26.3875 27.3832 26.3689 27.4094 26.3387C27.4468 26.2955 27.5003 26.2339 27.5677 26.1565C27.7026 26.0017 27.8928 25.784 28.1205 25.5236C28.4651 25.1295 28.8954 24.6379 29.3492 24.1194C29.4951 23.9528 29.6434 23.7833 29.7921 23.6135C31.0088 22.2233 32.2539 20.8 32.387 20.6388C33.8844 18.9351 35.3701 17.2162 36.8479 15.4937C38.9562 13.059 42.7186 8.65399 45.1561 5.78448C44.6972 11.0443 44.2665 16.3875 43.9315 21.6402L43.9315 21.6419C43.9198 21.875 44.0896 22.0153 44.2627 22.0387C44.4355 22.0622 44.6367 21.973 44.6918 21.7475L44.6918 21.7475L44.6925 21.7443C45.6549 17.3232 46.5318 12.8909 47.4008 8.45973L47.401 8.45978L47.4021 8.45155C47.4181 8.32826 47.5164 7.83814 47.6363 7.24059C47.6855 6.99545 47.7383 6.73223 47.7906 6.46884C47.8798 6.01895 47.9668 5.57123 48.0296 5.21945C48.061 5.04369 48.0865 4.89078 48.1033 4.77306C48.1116 4.7143 48.118 4.66308 48.1217 4.62156C48.1247 4.58875 48.1269 4.55416 48.125 4.52527C48.1707 3.63183 47.6868 2.85803 46.9941 2.40068C46.3001 1.94242 45.3836 1.79289 44.5534 2.16287C44.0834 2.34349 43.7135 2.71679 43.4039 3.02915L43.3877 3.04556L43.3865 3.04672L38.5231 7.82815L38.5227 7.82849C34.617 11.6976 29.9875 16.3282 25.9225 20.4367C25.5708 15.0186 24.9765 9.55973 24.3675 4.18289C24.3121 3.45336 24.1373 2.72555 23.63 2.11324C22.2168 0.290698 19.2441 0.522034 18.1549 2.50023C12.2858 12.363 6.41233 22.4635 0.922614 32.5338M1.60149 32.9682L1.49978 32.8905L1.60159 32.968C1.60155 32.9681 1.60152 32.9681 1.60149 32.9682ZM1.60149 32.9682C1.46563 33.1464 1.21085 33.1804 1.03427 33.0457L1.11185 32.944L1.03527 33.0465C0.873443 32.9256 0.823998 32.7067 0.922614 32.5338M0.922614 32.5338C0.922379 32.5342 0.922141 32.5347 0.921905 32.5351L1.03427 32.5964L0.923349 32.5325C0.923103 32.5329 0.922858 32.5334 0.922614 32.5338Z" fill="url(#paint0_linear_1_10515)" stroke="url(#paint1_linear_1_10515)" stroke-width="0.25595"/>
<path d="M64.7617 24V9.99609H69.4004L72.877 18.4238L76.6367 9.99609H80.5234V24H76.7246V17.3398L73.9414 24H71.2168L68.5605 17.3398V24H64.7617ZM88.7461 14.1172H92.3496V24H88.7461V23.043C88.5378 23.3945 88.196 23.6745 87.7207 23.8828C87.2454 24.0911 86.7214 24.1953 86.1484 24.1953C84.9245 24.1953 83.8796 23.694 83.0137 22.6914C82.1543 21.6823 81.7246 20.4714 81.7246 19.0586C81.7246 17.6458 82.1543 16.4382 83.0137 15.4355C83.8796 14.4264 84.9245 13.9219 86.1484 13.9219C86.7083 13.9219 87.2259 14.0293 87.7012 14.2441C88.1764 14.4525 88.5247 14.7324 88.7461 15.084V14.1172ZM86.9688 20.7773C87.3594 20.7773 87.7077 20.6927 88.0137 20.5234C88.3197 20.3542 88.5638 20.1328 88.7461 19.8594V18.2773C88.5638 17.9974 88.3197 17.7728 88.0137 17.6035C87.7077 17.4277 87.3594 17.3398 86.9688 17.3398C86.487 17.3398 86.0801 17.5059 85.748 17.8379C85.416 18.1634 85.25 18.5703 85.25 19.0586C85.25 19.5469 85.416 19.957 85.748 20.2891C86.0801 20.6146 86.487 20.7773 86.9688 20.7773ZM98.2383 24.1953C96.8581 24.1953 95.7383 23.8698 94.8789 23.2188C94.0195 22.5612 93.541 21.6562 93.4434 20.5039H96.6855C96.7051 20.7318 96.8418 20.9271 97.0957 21.0898C97.3561 21.2461 97.6589 21.3242 98.0039 21.3242C98.6419 21.3242 98.9609 21.1777 98.9609 20.8848C98.9609 20.7285 98.8633 20.6081 98.668 20.5234C98.4727 20.4323 98.2155 20.3672 97.8965 20.3281C97.584 20.2826 97.2389 20.237 96.8613 20.1914C96.4837 20.1458 96.1029 20.0612 95.7188 19.9375C95.3411 19.8138 94.9928 19.6543 94.6738 19.459C94.3613 19.2572 94.1074 18.9642 93.9121 18.5801C93.7168 18.1895 93.6191 17.724 93.6191 17.1836C93.6191 16.2786 93.987 15.5137 94.7227 14.8887C95.4648 14.2572 96.4577 13.9414 97.7012 13.9414C98.4759 13.9414 99.1855 14.0684 99.8301 14.3223C100.475 14.5762 101.015 14.9701 101.451 15.5039C101.887 16.0378 102.145 16.6758 102.223 17.418H98.7852C98.7721 17.2357 98.6615 17.0794 98.4531 16.9492C98.2513 16.8125 98.0137 16.7441 97.7402 16.7441C97.1803 16.7441 96.9004 16.8906 96.9004 17.1836C96.9004 17.3203 96.9753 17.4245 97.125 17.4961C97.2812 17.5612 97.4863 17.6035 97.7402 17.623C97.9941 17.6361 98.2806 17.6589 98.5996 17.6914C98.9251 17.724 99.2539 17.7598 99.5859 17.7988C99.9245 17.8379 100.253 17.929 100.572 18.0723C100.898 18.209 101.188 18.3848 101.441 18.5996C101.695 18.8145 101.897 19.1204 102.047 19.5176C102.203 19.9082 102.281 20.3704 102.281 20.9043C102.281 21.8223 101.891 22.6003 101.109 23.2383C100.328 23.8763 99.3711 24.1953 98.2383 24.1953ZM109.469 13.9219C110.725 13.9219 111.705 14.3255 112.408 15.1328C113.111 15.9336 113.463 17.0501 113.463 18.4824V24H109.869V19.0977C109.869 18.5703 109.752 18.1764 109.518 17.916C109.283 17.6491 108.948 17.5156 108.512 17.5156C108.277 17.5156 108.04 17.584 107.799 17.7207C107.564 17.8574 107.372 18.0365 107.223 18.2578V24H103.629V9.99609H107.223V15.0645C107.47 14.7129 107.792 14.4362 108.189 14.2344C108.593 14.026 109.02 13.9219 109.469 13.9219ZM119.85 24.1953C118.378 24.1953 117.148 23.7103 116.158 22.7402C115.169 21.7637 114.674 20.543 114.674 19.0781C114.674 18.1081 114.898 17.2292 115.348 16.4414C115.803 15.6536 116.425 15.0384 117.213 14.5957C118.001 14.1465 118.88 13.9219 119.85 13.9219C121.314 13.9219 122.545 14.4134 123.541 15.3965C124.537 16.3796 125.035 17.6068 125.035 19.0781C125.035 20.0417 124.807 20.9173 124.352 21.7051C123.896 22.4863 123.271 23.0983 122.477 23.541C121.689 23.9772 120.813 24.1953 119.85 24.1953ZM119.85 20.7383C120.325 20.7383 120.732 20.582 121.07 20.2695C121.409 19.9505 121.578 19.5534 121.578 19.0781C121.578 18.5964 121.409 18.1927 121.07 17.8672C120.732 17.5417 120.325 17.3789 119.85 17.3789C119.368 17.3789 118.961 17.5417 118.629 17.8672C118.297 18.1927 118.131 18.5964 118.131 19.0781C118.131 19.5534 118.297 19.9505 118.629 20.2695C118.961 20.582 119.368 20.7383 119.85 20.7383ZM132.486 14.1172H136.08V24H132.486V23.0234C132.239 23.388 131.913 23.6745 131.51 23.8828C131.106 24.0911 130.676 24.1953 130.221 24.1953C128.964 24.1953 127.984 23.7949 127.281 22.9941C126.578 22.1934 126.227 21.0768 126.227 19.6445V14.1172H129.82V19.0195C129.82 19.5404 129.938 19.9342 130.172 20.2012C130.413 20.4681 130.751 20.6016 131.188 20.6016C131.428 20.6016 131.666 20.5332 131.9 20.3965C132.141 20.2533 132.337 20.0677 132.486 19.8398V14.1172ZM143.414 13.9219C143.954 13.9219 144.348 13.987 144.596 14.1172V17.4766C144.075 17.3333 143.58 17.2617 143.111 17.2617C142.805 17.2617 142.457 17.3724 142.066 17.5938C141.676 17.8151 141.389 18.1178 141.207 18.502V24H137.613V14.1172H141.207V15.1035C141.409 14.7585 141.728 14.4753 142.164 14.2539C142.607 14.0326 143.023 13.9219 143.414 13.9219ZM151.773 14.1172H155.377V24H151.773V23.043C151.565 23.3945 151.223 23.6745 150.748 23.8828C150.273 24.0911 149.749 24.1953 149.176 24.1953C147.952 24.1953 146.907 23.694 146.041 22.6914C145.182 21.6823 144.752 20.4714 144.752 19.0586C144.752 17.6458 145.182 16.4382 146.041 15.4355C146.907 14.4264 147.952 13.9219 149.176 13.9219C149.736 13.9219 150.253 14.0293 150.729 14.2441C151.204 14.4525 151.552 14.7324 151.773 15.084V14.1172ZM149.996 20.7773C150.387 20.7773 150.735 20.6927 151.041 20.5234C151.347 20.3542 151.591 20.1328 151.773 19.8594V18.2773C151.591 17.9974 151.347 17.7728 151.041 17.6035C150.735 17.4277 150.387 17.3398 149.996 17.3398C149.514 17.3398 149.107 17.5059 148.775 17.8379C148.443 18.1634 148.277 18.5703 148.277 19.0586C148.277 19.5469 148.443 19.957 148.775 20.2891C149.107 20.6146 149.514 20.7773 149.996 20.7773Z" fill="#11002A"/>
<defs>
<linearGradient id="paint0_linear_1_10515" x1="2.64944" y1="15.7429" x2="53.0273" y2="3.36471" gradientUnits="userSpaceOnUse">
<stop stop-color="#00DDD0"/>
<stop offset="1" stop-color="#6100DD"/>
</linearGradient>
<linearGradient id="paint1_linear_1_10515" x1="2.64944" y1="15.7429" x2="53.0273" y2="3.36471" gradientUnits="userSpaceOnUse">
<stop stop-color="#00DDD0"/>
<stop offset="1" stop-color="#6100DD"/>
</linearGradient>
</defs>
</svg>
