<svg width="20" height="20" viewBox="0 0 20 20" fill="none" xmlns="http://www.w3.org/2000/svg">
<path d="M7.40524 8.45133C8.28126 8.43604 8.97903 7.71349 8.96374 6.83746C8.94845 5.96143 8.22589 5.26366 7.34986 5.27895C6.47383 5.29424 5.77607 6.0168 5.79136 6.89283C5.80665 7.76886 6.52921 8.46662 7.40524 8.45133Z" stroke="#8094AE" stroke-width="1.18982" stroke-linecap="round" stroke-linejoin="round"/>
<path d="M10.4662 2.05085L7.29385 2.10622C3.32838 2.17544 1.76987 3.78931 1.83909 7.75479L1.92215 12.5134C1.99137 16.4788 3.60525 18.0373 7.57072 17.9681L12.3293 17.8851C16.2948 17.8158 17.8533 16.202 17.7841 12.2365L17.7148 8.27101" stroke="#8094AE" stroke-width="1.18982" stroke-linecap="round" stroke-linejoin="round"/>
<path d="M12.6895 4.39258L17.0515 4.31644" stroke="#8094AE" stroke-width="1.18982" stroke-linecap="round"/>
<path d="M14.9082 6.53585L14.832 2.17383" stroke="#8094AE" stroke-width="1.18982" stroke-linecap="round"/>
<path d="M2.50836 15.637L6.37249 12.9436C6.9917 12.5124 7.89666 12.5442 8.4682 13.0181L8.73394 13.2436C9.36183 13.7641 10.3611 13.7467 10.9705 13.2045L14.2203 10.3156C14.8297 9.77341 15.829 9.75597 16.4568 10.2765L17.769 11.3643" stroke="#8094AE" stroke-width="1.18982" stroke-linecap="round" stroke-linejoin="round"/>
</svg>
