<svg width="80" height="80" viewBox="0 0 80 80" fill="none" xmlns="http://www.w3.org/2000/svg">
<rect x="0.5" y="0.5" width="79" height="79" rx="7.5" fill="#F2F4F7" stroke="#F2F4F7"/>
<g clip-path="url(#clip0_752_5479)">
<path d="M56.4068 29.5167V59.7638C56.4068 61.3887 55.0855 62.71 53.4606 62.71H26.2489C24.624 62.71 23.3027 61.3887 23.3027 59.7638V19.9462C23.3027 18.3213 24.624 17 26.2489 17H43.8901L56.4068 29.5167Z" fill="#518FF5"/>
<path d="M31.3916 39.9531H48.3186V41.8369H31.3916V39.9531ZM31.3916 44.1492H48.3186V46.0329H31.3916V44.1492ZM31.3916 48.3541H48.3186V50.2379H31.3916V48.3541ZM31.3916 52.5502H43.4351V54.4339H31.3916V52.5502Z" fill="white"/>
<path d="M45.5957 29.0441L56.4072 37.8022V29.5708L50.2828 26.0176L45.5957 29.0441Z" fill="black" fill-opacity="0.098"/>
<path d="M56.4063 29.5167H46.8358C45.211 29.5167 43.8896 28.1954 43.8896 26.5705V17L56.4063 29.5167Z" fill="#A6C5FA"/>
</g>
<defs>
<clipPath id="clip0_752_5479">
<rect width="45.71" height="45.71" fill="white" transform="translate(17 17)"/>
</clipPath>
</defs>
</svg>
