<svg width="53" height="54" viewBox="0 0 53 54" fill="none" xmlns="http://www.w3.org/2000/svg">
<rect y="16.6816" width="40" height="40" rx="8" transform="rotate(-23.8628 0 16.6816)" fill="#005D57"/>
<path d="M29.6123 17.7067L18.5619 22.595C18.3256 22.6995 18.1475 22.9149 18.087 23.1695L17.6181 25.1994C17.4672 25.8676 18.1423 26.4255 18.7672 26.149L29.8176 21.2607C30.0539 21.1562 30.2319 20.9408 30.2924 20.6862L30.7613 18.6563C30.9123 17.9882 30.2372 17.4302 29.6123 17.7067Z" fill="white"/>
<path d="M19.6101 28.0538L30.6605 23.1655C30.8968 23.061 31.176 23.0742 31.405 23.2006L33.2224 24.2191C33.8184 24.5569 33.7771 25.4317 33.1522 25.7082L22.1018 30.5965C21.8655 30.701 21.5863 30.6878 21.3572 30.5613L19.5398 29.5428C18.9439 29.205 18.9852 28.3302 19.6101 28.0538Z" fill="white"/>
<path d="M33.9951 27.6129L22.9447 32.5012C22.7084 32.6057 22.5304 32.8212 22.4698 33.0757L22.0009 35.1056C21.85 35.7738 22.5251 36.3317 23.15 36.0553L34.2004 31.167C34.4367 31.0625 34.6147 30.847 34.6752 30.5925L35.1441 28.5626C35.2951 27.8944 34.62 27.3365 33.9951 27.6129Z" fill="white"/>
</svg>
