<svg width="47" height="47" viewBox="0 0 47 47" fill="none" xmlns="http://www.w3.org/2000/svg">
<rect x="7.10547" y="0.5" width="40" height="40" rx="8" transform="rotate(10.2327 7.10547 0.5)" fill="#00DDD0"/>
<path d="M31.0077 19.4225C30.327 19.2997 29.8767 18.651 29.9996 17.9704C30.1225 17.2897 30.7711 16.8394 31.4518 16.9623L31.46 16.9638C32.1406 17.0866 32.5909 17.7353 32.468 18.4159C32.3452 19.0966 31.6883 19.5454 31.0077 19.4225Z" fill="white"/>
<path d="M15.034 30.5104C14.3534 30.3875 13.9031 29.7389 14.026 29.0582C14.1489 28.3776 14.7975 27.9273 15.4782 28.0502L15.4863 28.0517C16.167 28.1745 16.6173 28.8232 16.4944 29.5038C16.3715 30.1845 15.7147 30.6333 15.034 30.5104Z" fill="white"/>
<path d="M17.6874 26.4599C17.4824 26.4229 17.2966 26.2793 17.2159 26.0699C16.7882 24.9681 16.6674 23.7607 16.8791 22.588C17.5112 19.0863 20.8802 16.7476 24.382 17.3797C25.5383 17.5885 26.6137 18.1044 27.4912 18.8725C27.7472 19.0965 27.7775 19.4915 27.552 19.7557C27.328 20.0116 26.933 20.0419 26.6688 19.8164C25.9592 19.1972 25.0948 18.7786 24.1681 18.6113C21.3389 18.1006 18.6281 19.9823 18.1174 22.8116C17.9471 23.7547 18.0423 24.7287 18.3892 25.6212C18.5178 25.9408 18.3595 26.3018 18.0317 26.4289C17.9133 26.4752 17.794 26.4791 17.6874 26.4599Z" fill="white"/>
<path d="M22.0875 30.0898C20.9066 29.8766 19.8177 29.3414 18.935 28.5554C18.6805 28.3231 18.6584 27.9296 18.8825 27.6737C19.1147 27.4192 19.5082 27.3971 19.7641 27.6211C20.479 28.2583 21.3583 28.688 22.3096 28.8597C25.1389 29.3704 27.8496 27.4887 28.3603 24.6595C28.5306 23.7164 28.4354 22.7423 28.0885 21.8498C27.9599 21.5302 28.1182 21.1693 28.446 21.0421C28.7641 20.9217 29.1265 21.0718 29.2536 21.3996C29.6799 22.5097 29.8021 23.7088 29.589 24.8897C28.9583 28.3833 25.5893 30.722 22.0875 30.0898Z" fill="white"/>
</svg>
