<svg width="41" height="41" viewBox="0 0 41 41" fill="none" xmlns="http://www.w3.org/2000/svg">
<rect x="0.5" y="0.5" width="40" height="40" rx="8" fill="#00C9BD"/>
<path d="M15.2831 23.8327C15.3748 23.4243 15.2081 22.841 14.9165 22.5493L12.8915 20.5243C12.2581 19.891 12.0081 19.216 12.1915 18.6327C12.3831 18.0493 12.9748 17.6493 13.8581 17.4993L16.4581 17.066C16.8331 16.9993 17.2915 16.666 17.4665 16.3243L18.8998 13.4493C19.3165 12.6243 19.8831 12.166 20.4998 12.166C21.1165 12.166 21.6831 12.6243 22.0998 13.4493L23.5331 16.3243C23.6415 16.541 23.8665 16.7493 24.1081 16.891L15.1331 25.866C15.0165 25.9827 14.8165 25.8743 14.8498 25.7077L15.2831 23.8327Z" fill="white"/>
<path d="M26.083 22.5496C25.783 22.8496 25.6163 23.4246 25.7163 23.8329L26.2913 26.3413C26.533 27.3829 26.383 28.1663 25.8663 28.5413C25.658 28.6913 25.408 28.7663 25.1163 28.7663C24.6913 28.7663 24.1913 28.6079 23.6413 28.2829L21.1997 26.8329C20.8163 26.6079 20.183 26.6079 19.7997 26.8329L17.358 28.2829C16.433 28.8246 15.6413 28.9163 15.133 28.5413C14.9413 28.3996 14.7997 28.2079 14.708 27.9579L24.8413 17.8246C25.2247 17.4413 25.7663 17.2663 26.2913 17.3579L27.133 17.4996C28.0163 17.6496 28.608 18.0496 28.7997 18.6329C28.983 19.2163 28.733 19.8913 28.0997 20.5246L26.083 22.5496Z" fill="white"/>
</svg>
