<svg width="47" height="47" viewBox="0 0 47 47" fill="none" xmlns="http://www.w3.org/2000/svg">
<rect x="0.879883" y="0.792969" width="45.24" height="45.24" rx="8.896" fill="#00DDD0"/>
<path d="M19.8463 27.2463H16.1722L15.6273 28.9121H12L16.0321 17.89H20.0175L24.0341 28.9121H20.3912L19.8463 27.2463ZM19.0056 24.6465L18.0092 21.5796L17.0129 24.6465H19.0056ZM24.3522 24.5219C24.3522 23.5982 24.5079 22.7991 24.8193 22.1245C25.141 21.4395 25.5769 20.9205 26.127 20.5677C26.6771 20.2044 27.2946 20.0228 27.9796 20.0228C28.5504 20.0228 29.0434 20.1421 29.4585 20.3808C29.8737 20.6092 30.1902 20.9257 30.4082 21.3305V20.1318H33.8487V28.9121H30.4082V27.7134C30.1902 28.1181 29.8737 28.4399 29.4585 28.6786C29.0434 28.9069 28.5504 29.0211 27.9796 29.0211C27.2946 29.0211 26.6771 28.8446 26.127 28.4918C25.5769 28.1285 25.141 27.6096 24.8193 26.935C24.5079 26.25 24.3522 25.4456 24.3522 24.5219ZM30.4082 24.5219C30.4082 24.0549 30.2888 23.6916 30.0501 23.4322C29.8114 23.1727 29.5052 23.043 29.1316 23.043C28.758 23.043 28.4518 23.1727 28.2131 23.4322C27.9744 23.6916 27.855 24.0549 27.855 24.5219C27.855 24.989 27.9744 25.3522 28.2131 25.6117C28.4518 25.8712 28.758 26.0009 29.1316 26.0009C29.5052 26.0009 29.8114 25.8712 30.0501 25.6117C30.2888 25.3522 30.4082 24.989 30.4082 24.5219Z" fill="#11002A"/>
</svg>
