<svg width="48" height="48" viewBox="0 0 48 48" fill="none" xmlns="http://www.w3.org/2000/svg">
<rect width="48" height="48" rx="8" fill="#00C9BD"/>
<path d="M25.6667 27.3333C25.6667 28.8083 25.0251 30.1416 24.0001 31.05C23.1167 31.85 21.9501 32.3333 20.6667 32.3333C17.9084 32.3333 15.6667 30.0916 15.6667 27.3333C15.6667 25.6803 16.4777 24.2119 17.7185 23.3035C17.9633 23.1243 18.2992 23.244 18.4373 23.5142C19.233 25.0703 20.6594 26.2333 22.3501 26.6916C22.8751 26.8416 23.4251 26.9166 24.0001 26.9166C24.3741 26.9166 24.7337 26.884 25.0834 26.8234C25.3725 26.7733 25.6598 26.9581 25.6659 27.2514C25.6665 27.2788 25.6667 27.3061 25.6667 27.3333Z" fill="white"/>
<path d="M29 20.6667C29 21.3167 28.875 21.9417 28.65 22.5084C28.075 23.9584 26.8417 25.075 25.3167 25.4917C24.9 25.6084 24.4583 25.6667 24 25.6667C23.5417 25.6667 23.1 25.6084 22.6833 25.4917C21.1583 25.075 19.925 23.9584 19.35 22.5084C19.125 21.9417 19 21.3167 19 20.6667C19 17.9084 21.2417 15.6667 24 15.6667C26.7583 15.6667 29 17.9084 29 20.6667Z" fill="white"/>
<path d="M32.3334 27.3333C32.3334 30.0916 30.0917 32.3333 27.3334 32.3333C26.7536 32.3333 26.1944 32.2345 25.676 32.0514C25.3546 31.9379 25.2948 31.5298 25.5117 31.2668C26.4165 30.1698 26.9167 28.7824 26.9167 27.3333C26.9167 27.05 26.8917 26.7666 26.8501 26.5C26.8253 26.3463 26.9037 26.1951 27.04 26.1197C28.1157 25.5242 28.9991 24.6197 29.563 23.515C29.7011 23.2446 30.0372 23.1245 30.2822 23.304C31.5227 24.2124 32.3334 25.6806 32.3334 27.3333Z" fill="white"/>
</svg>
