<svg width="1195" height="726" viewBox="0 0 1195 726" fill="none" xmlns="http://www.w3.org/2000/svg">
<path opacity="0.15" d="M1072.29 585.714L1072.29 585.744L1072.29 585.774C1071.94 592.793 1077.02 597.101 1082.24 597.82C1087.46 598.538 1093.51 595.779 1095.14 588.97L1095.16 588.915L1095.17 588.861C1121.61 465.521 1145.7 341.871 1169.57 218.262L1169.59 218.12L1169.61 217.978C1170.05 214.57 1172.73 200.968 1176.02 184.334C1177.37 177.479 1178.83 170.11 1180.27 162.727C1182.72 150.176 1185.12 137.68 1186.84 127.858C1187.7 122.951 1188.41 118.674 1188.87 115.375C1189.1 113.729 1189.28 112.283 1189.38 111.104C1189.46 110.212 1189.53 109.21 1189.48 108.336C1191.98 57.95 1136 20.7665 1089.96 41.5774C1076.86 46.7003 1066.58 57.2395 1058.12 65.9072L1057.62 66.4141L1057.58 66.4553L923.998 199.827L923.992 199.833L923.986 199.839C817.206 307.262 690.731 435.724 579.45 549.929C569.772 399.497 553.522 247.959 536.876 98.7057C535.346 78.2813 530.519 57.7757 516.425 40.4911C477.163 -10.9089 394.609 -4.38168 364.349 51.4073C203.13 326.534 41.7885 608.296 -109.013 889.223C-111.933 894.435 -110.476 901.02 -105.671 904.677C-100.359 908.773 -92.7156 907.71 -88.6649 902.315C63.0054 700.656 210.407 496.34 355.031 290.221L355.046 290.201L355.06 290.18C357.614 286.453 376.944 258.897 399.386 226.905C401.336 224.125 403.31 221.312 405.298 218.477C410.842 354.61 417.994 491.667 431.026 626.479C431.582 632.592 432.499 642.037 433.358 650.875C433.976 657.246 434.565 663.302 434.964 667.564C441.699 763.989 561.862 797.634 618.727 719.181L618.731 719.176C618.682 719.243 619.082 718.759 620.216 717.427C621.242 716.222 622.711 714.506 624.564 712.347C628.267 708.03 633.492 701.957 639.746 694.694C649.201 683.713 661.005 670.019 673.457 655.573C677.477 650.908 681.566 646.166 685.664 641.41C719.046 602.679 753.232 562.992 756.953 558.42C798.084 510.895 838.892 462.949 879.481 414.902C936.811 347.671 1038.66 226.579 1105.66 146.492C1093.16 292.22 1081.43 440.211 1072.29 585.714Z" fill="url(#paint0_linear_1_13868)" stroke="url(#paint1_linear_1_13868)" stroke-width="9.02546"/>
<defs>
<linearGradient id="paint0_linear_1_13868" x1="-60.6915" y1="421.26" x2="1325.54" y2="85.8632" gradientUnits="userSpaceOnUse">
<stop stop-color="#00DDD0"/>
<stop offset="1" stop-color="#6100DD"/>
</linearGradient>
<linearGradient id="paint1_linear_1_13868" x1="-60.6915" y1="421.26" x2="1325.54" y2="85.8632" gradientUnits="userSpaceOnUse">
<stop stop-color="#00DDD0"/>
<stop offset="1" stop-color="#6100DD"/>
</linearGradient>
</defs>
</svg>
