<svg width="48" height="48" viewBox="0 0 48 48" fill="none" xmlns="http://www.w3.org/2000/svg">
<rect width="48" height="48" rx="8" fill="#4600A9"/>
<path d="M32.3001 23.7166C31.3084 23.0916 30.1584 22.75 28.9751 22.75C25.5251 22.75 22.7251 25.55 22.7251 29C22.7251 30.1833 23.0584 31.325 23.6834 32.3166C23.3001 32.3083 22.9084 32.2666 22.5084 32.2083C19.0834 31.625 16.3251 28.85 15.7584 25.4166C14.8167 19.7083 19.6834 14.8416 25.3917 15.7833C28.8251 16.35 31.6001 19.1083 32.1834 22.5333C32.2501 22.9333 32.2917 23.3333 32.3001 23.7166Z" fill="white"/>
<path d="M25.1501 32.2167C24.4168 31.35 23.9751 30.225 23.9751 29C23.9751 26.2417 26.2168 24 28.9751 24C30.2001 24 31.3251 24.4417 32.1918 25.175" fill="white"/>
</svg>
