<svg width="48" height="48" viewBox="0 0 48 48" fill="none" xmlns="http://www.w3.org/2000/svg">
<rect width="48" height="48" rx="8" fill="#C63996"/>
<path d="M20.9082 19.242C20.5582 19.242 20.2832 18.9587 20.2832 18.617V16.292C20.2832 15.9503 20.5582 15.667 20.9082 15.667C21.2582 15.667 21.5332 15.9503 21.5332 16.292V18.6087C21.5332 18.9587 21.2582 19.242 20.9082 19.242Z" fill="white"/>
<path d="M27.0918 19.242C26.7418 19.242 26.4668 18.9587 26.4668 18.617V16.292C26.4668 15.942 26.7501 15.667 27.0918 15.667C27.4418 15.667 27.7168 15.9503 27.7168 16.292V18.6087C27.7168 18.9587 27.4418 19.242 27.0918 19.242Z" fill="white"/>
<path d="M31.9167 27.1837C31.9167 27.3087 31.875 27.4337 31.7667 27.5421C30.5584 28.7587 28.4084 30.9254 27.175 32.1671C27.0667 32.2837 26.925 32.3337 26.7834 32.3337C26.5084 32.3337 26.2417 32.1171 26.2417 31.8004V28.8837C26.2417 27.6671 27.275 26.6587 28.5417 26.6587C29.3334 26.6504 30.4334 26.6504 31.375 26.6504C31.7 26.6504 31.9167 26.9087 31.9167 27.1837Z" fill="white"/>
<path d="M31.9167 27.1837C31.9167 27.3087 31.875 27.4337 31.7667 27.5421C30.5584 28.7587 28.4084 30.9254 27.175 32.1671C27.0667 32.2837 26.925 32.3337 26.7834 32.3337C26.5084 32.3337 26.2417 32.1171 26.2417 31.8004V28.8837C26.2417 27.6671 27.275 26.6587 28.5417 26.6587C29.3334 26.6504 30.4334 26.6504 31.375 26.6504C31.7 26.6504 31.9167 26.9087 31.9167 27.1837Z" fill="white"/>
<path d="M30.3085 17.7503C29.7585 17.342 28.9668 17.7337 28.9668 18.4253V18.5087C28.9668 19.4837 28.2668 20.3837 27.2918 20.4837C26.1668 20.6003 25.2168 19.717 25.2168 18.617V17.7503C25.2168 17.292 24.8418 16.917 24.3835 16.917H23.6168C23.1585 16.917 22.7835 17.292 22.7835 17.7503V18.5087C22.7835 19.242 22.3918 19.9253 21.7835 20.2587C21.7502 20.2837 21.7168 20.3003 21.6835 20.317C21.6752 20.317 21.6752 20.3253 21.6668 20.3253C21.6085 20.3503 21.5502 20.3753 21.4835 20.4003C21.4668 20.4087 21.4502 20.4087 21.4335 20.417C21.3335 20.4503 21.2252 20.4753 21.1085 20.4837H21.1002C20.9752 20.5003 20.8418 20.5003 20.7168 20.4837H20.7085C20.5918 20.4753 20.4835 20.4503 20.3835 20.417C20.3002 20.392 20.2168 20.3587 20.1335 20.317C19.4835 20.0253 19.0335 19.3753 19.0335 18.617V18.4253C19.0335 17.7837 18.3502 17.4003 17.8085 17.6753C17.8002 17.6837 17.7918 17.6837 17.7835 17.692H17.7752C17.7168 17.7337 17.6668 17.7753 17.6085 17.817C17.5168 17.892 17.4252 17.967 17.3418 18.0503C17.2835 18.1087 17.2252 18.167 17.1752 18.2253C17.1085 18.292 17.0502 18.3587 16.9918 18.4337C16.9502 18.4837 16.9002 18.5337 16.8668 18.592C16.8252 18.642 16.7918 18.7003 16.7585 18.7503C16.7502 18.7587 16.7418 18.767 16.7335 18.7837C16.6585 18.892 16.5918 19.017 16.5335 19.1337C16.5168 19.1503 16.5085 19.1587 16.5085 19.1753C16.4585 19.2753 16.4085 19.3753 16.3752 19.4837C16.3502 19.5253 16.3418 19.5587 16.3252 19.6003C16.3085 19.6337 16.3002 19.6753 16.2835 19.7087C16.2585 19.792 16.2335 19.8837 16.2085 19.9753C16.1752 20.092 16.1502 20.217 16.1335 20.342C16.1168 20.4337 16.1085 20.5253 16.1002 20.6253C16.0918 20.742 16.0835 20.8587 16.0835 20.9753V28.2753C16.0835 30.517 17.9002 32.3337 20.1418 32.3337H24.1585C24.6168 32.3337 24.9918 31.9587 24.9918 31.5003V28.8837C24.9918 26.967 26.5835 25.4087 28.5418 25.4087C28.9835 25.4003 30.0585 25.4003 31.0835 25.4003C31.5418 25.4003 31.9168 25.0253 31.9168 24.567V20.9753C31.9168 19.6503 31.2835 18.492 30.3085 17.7503ZM23.2752 27.2587C23.2002 27.5087 22.9668 27.6837 22.6918 27.6837H19.6585C19.6168 27.6837 19.5835 27.6837 19.5502 27.667C19.2502 27.6253 19.0335 27.367 19.0335 27.0587C19.0335 26.7087 19.3085 26.4253 19.6585 26.4253H22.6918C23.0335 26.4253 23.3168 26.7087 23.3168 27.0587C23.3168 27.1253 23.3085 27.2003 23.2752 27.2587ZM25.5918 24.167C25.5168 24.417 25.2835 24.592 25.0085 24.592H19.6585C19.6168 24.592 19.5835 24.592 19.5502 24.5753C19.2502 24.5337 19.0335 24.2753 19.0335 23.967C19.0335 23.617 19.3085 23.3337 19.6585 23.3337H25.0085C25.3585 23.3337 25.6335 23.617 25.6335 23.967C25.6335 24.0337 25.6252 24.1087 25.5918 24.167Z" fill="white"/>
</svg>
