<svg width="48" height="48" viewBox="0 0 48 48" fill="none" xmlns="http://www.w3.org/2000/svg">
<rect width="48" height="48" rx="8" fill="#4600A9"/>
<path d="M28.9 19.0997L17.2667 30.733C16.9083 31.0913 16.3083 31.058 16.0167 30.6497C15.6 30.0747 15.5167 29.2747 15.95 28.583L18.25 24.8913C18.5583 24.3997 18.5583 23.5997 18.25 23.108L15.95 19.4163C15.175 18.183 16.0667 16.583 17.5167 16.583H27.0583C27.625 16.583 28.325 16.9747 28.625 17.4497L29.0167 18.0663C29.2167 18.3997 29.175 18.8247 28.9 19.0997Z" fill="white"/>
<path d="M32.0252 24.925L27.7086 30.675C27.4086 31.0833 26.7419 31.4167 26.2252 31.4167H20.2586C19.5169 31.4167 19.1419 30.5167 19.6669 29.9917L29.2669 20.4C29.6419 20.025 30.2836 20.0917 30.5669 20.55L32.1086 23.025C32.4419 23.5583 32.4085 24.4167 32.0252 24.925Z" fill="white"/>
</svg>
