<svg width="13" height="12" viewBox="0 0 13 12" fill="none" xmlns="http://www.w3.org/2000/svg">
<path d="M12.4004 7.59513V12.0077H9.81743V7.86418C9.81743 6.84176 9.44075 6.14221 8.52595 6.14221C7.8264 6.14221 7.39591 6.62652 7.23447 7.05701C7.18066 7.21844 7.12685 7.43369 7.12685 7.70275V12.0077H4.54389C4.54389 12.0077 4.5977 5.01217 4.54389 4.31262H7.12685V5.38885C7.44972 4.85073 8.09546 4.09737 9.44075 4.09737C11.1089 4.09737 12.4004 5.22741 12.4004 7.59513ZM1.8533 0.599609C0.992317 0.599609 0.400391 1.19154 0.400391 1.9449C0.400391 2.69826 0.938506 3.29019 1.79949 3.29019C2.71429 3.29019 3.25241 2.69826 3.25241 1.9449C3.30622 1.13773 2.7681 0.599609 1.8533 0.599609ZM0.561825 12.0077H3.14478V4.31262H0.561825V12.0077Z" fill="#6200EE"/>
</svg>
