<svg width="236" height="50" viewBox="0 0 236 50" fill="none" xmlns="http://www.w3.org/2000/svg">
<path d="M65.9631 32.1178C66.5099 23.5485 67.223 14.8214 67.9777 6.25796C68.0431 5.60868 67.9599 5.93039 67.9956 6.01813C68.0669 6.36324 68.4591 6.43928 68.7325 6.24041C65.1668 10.4461 58.3802 18.3953 54.7671 22.5658C52.5029 25.2039 50.2268 27.8361 47.933 30.4449C47.5526 30.907 40.2906 39.1779 40.2134 39.2832C37.1766 43.407 30.7763 41.6346 30.4198 36.575C30.3663 36.0134 30.2534 34.8962 30.1999 34.3171C29.2669 24.8178 28.8747 15.1138 28.5181 5.56774C28.6072 6.16437 29.3739 7.29913 30.5565 7.23479C31.1626 7.27574 32.0302 6.7376 32.2026 6.3223C32.0124 6.61476 25.8677 15.2191 25.5051 15.7397C17.4409 27.0523 9.22211 38.2654 0.765624 49.3323C0.622999 49.5195 0.355576 49.5546 0.171352 49.4142C-0.000986474 49.2855 -0.0485282 49.0574 0.052498 48.8819C8.46144 33.4631 17.4587 17.9975 26.45 2.8946C28.0486 -0.0125105 32.4344 -0.35762 34.5143 2.32722C35.2571 3.22216 35.5186 4.29259 35.6018 5.39226C36.6656 14.7804 37.6996 24.3265 38.1869 33.7556C38.2226 34.3756 38.282 35.5279 38.3176 36.1538C38.175 34.1065 35.4354 33.1473 34.0329 34.7324C34.336 34.4224 35.1621 33.5977 35.4889 33.2642C42.3171 26.3387 50.7082 17.939 57.6196 11.0953L65.0717 3.772C65.559 3.28065 66.1058 2.72497 66.7951 2.46175C69.2019 1.38548 72.1376 3.31575 71.995 5.90115C72.0425 6.2989 70.961 11.3352 70.8897 11.885C69.5585 18.6702 68.2154 25.4554 66.7416 32.2231C66.6287 32.6852 65.9394 32.5916 65.9631 32.1178Z" fill="white"/>
<path d="M89.2188 30.5V8.09375H96.6406L102.203 21.5781L108.219 8.09375H114.438V30.5H108.359V19.8438L103.906 30.5H99.5469L95.2969 19.8438V30.5H89.2188ZM127.594 14.6875H133.359V30.5H127.594V28.9688C127.26 29.5312 126.714 29.9792 125.953 30.3125C125.193 30.6458 124.354 30.8125 123.438 30.8125C121.479 30.8125 119.807 30.0104 118.422 28.4062C117.047 26.7917 116.359 24.8542 116.359 22.5938C116.359 20.3333 117.047 18.401 118.422 16.7969C119.807 15.1823 121.479 14.375 123.438 14.375C124.333 14.375 125.161 14.5469 125.922 14.8906C126.682 15.224 127.24 15.6719 127.594 16.2344V14.6875ZM124.75 25.3438C125.375 25.3438 125.932 25.2083 126.422 24.9375C126.911 24.6667 127.302 24.3125 127.594 23.875V21.3438C127.302 20.8958 126.911 20.5365 126.422 20.2656C125.932 19.9844 125.375 19.8438 124.75 19.8438C123.979 19.8438 123.328 20.1094 122.797 20.6406C122.266 21.1615 122 21.8125 122 22.5938C122 23.375 122.266 24.0312 122.797 24.5625C123.328 25.0833 123.979 25.3438 124.75 25.3438ZM142.781 30.8125C140.573 30.8125 138.781 30.2917 137.406 29.25C136.031 28.1979 135.266 26.75 135.109 24.9062H140.297C140.328 25.2708 140.547 25.5833 140.953 25.8438C141.37 26.0938 141.854 26.2188 142.406 26.2188C143.427 26.2188 143.938 25.9844 143.938 25.5156C143.938 25.2656 143.781 25.0729 143.469 24.9375C143.156 24.7917 142.745 24.6875 142.234 24.625C141.734 24.5521 141.182 24.4792 140.578 24.4062C139.974 24.3333 139.365 24.1979 138.75 24C138.146 23.8021 137.589 23.5469 137.078 23.2344C136.578 22.9115 136.172 22.4427 135.859 21.8281C135.547 21.2031 135.391 20.4583 135.391 19.5938C135.391 18.1458 135.979 16.9219 137.156 15.9219C138.344 14.9115 139.932 14.4062 141.922 14.4062C143.161 14.4062 144.297 14.6094 145.328 15.0156C146.359 15.4219 147.224 16.0521 147.922 16.9062C148.62 17.7604 149.031 18.7812 149.156 19.9688H143.656C143.635 19.6771 143.458 19.4271 143.125 19.2188C142.802 19 142.422 18.8906 141.984 18.8906C141.089 18.8906 140.641 19.125 140.641 19.5938C140.641 19.8125 140.76 19.9792 141 20.0938C141.25 20.1979 141.578 20.2656 141.984 20.2969C142.391 20.3177 142.849 20.3542 143.359 20.4062C143.88 20.4583 144.406 20.5156 144.938 20.5781C145.479 20.6406 146.005 20.7865 146.516 21.0156C147.036 21.2344 147.5 21.5156 147.906 21.8594C148.312 22.2031 148.635 22.6927 148.875 23.3281C149.125 23.9531 149.25 24.6927 149.25 25.5469C149.25 27.0156 148.625 28.2604 147.375 29.2812C146.125 30.3021 144.594 30.8125 142.781 30.8125ZM160.75 14.375C162.76 14.375 164.328 15.0208 165.453 16.3125C166.578 17.5938 167.141 19.3802 167.141 21.6719V30.5H161.391V22.6562C161.391 21.8125 161.203 21.1823 160.828 20.7656C160.453 20.3385 159.917 20.125 159.219 20.125C158.844 20.125 158.464 20.2344 158.078 20.4531C157.703 20.6719 157.396 20.9583 157.156 21.3125V30.5H151.406V8.09375H157.156V16.2031C157.552 15.6406 158.068 15.1979 158.703 14.875C159.349 14.5417 160.031 14.375 160.75 14.375ZM177.359 30.8125C175.005 30.8125 173.036 30.0365 171.453 28.4844C169.87 26.9219 169.078 24.9688 169.078 22.625C169.078 21.0729 169.438 19.6667 170.156 18.4062C170.885 17.1458 171.88 16.1615 173.141 15.4531C174.401 14.7344 175.807 14.375 177.359 14.375C179.703 14.375 181.672 15.1615 183.266 16.7344C184.859 18.3073 185.656 20.2708 185.656 22.625C185.656 24.1667 185.292 25.5677 184.562 26.8281C183.833 28.0781 182.833 29.0573 181.562 29.7656C180.302 30.4635 178.901 30.8125 177.359 30.8125ZM177.359 25.2812C178.12 25.2812 178.771 25.0312 179.312 24.5312C179.854 24.0208 180.125 23.3854 180.125 22.625C180.125 21.8542 179.854 21.2083 179.312 20.6875C178.771 20.1667 178.12 19.9062 177.359 19.9062C176.589 19.9062 175.938 20.1667 175.406 20.6875C174.875 21.2083 174.609 21.8542 174.609 22.625C174.609 23.3854 174.875 24.0208 175.406 24.5312C175.938 25.0312 176.589 25.2812 177.359 25.2812ZM197.578 14.6875H203.328V30.5H197.578V28.9375C197.182 29.5208 196.661 29.9792 196.016 30.3125C195.37 30.6458 194.682 30.8125 193.953 30.8125C191.943 30.8125 190.375 30.1719 189.25 28.8906C188.125 27.6094 187.562 25.8229 187.562 23.5312V14.6875H193.312V22.5312C193.312 23.3646 193.5 23.9948 193.875 24.4219C194.26 24.849 194.802 25.0625 195.5 25.0625C195.885 25.0625 196.266 24.9531 196.641 24.7344C197.026 24.5052 197.339 24.2083 197.578 23.8438V14.6875ZM215.062 14.375C215.927 14.375 216.557 14.4792 216.953 14.6875V20.0625C216.12 19.8333 215.328 19.7188 214.578 19.7188C214.089 19.7188 213.531 19.8958 212.906 20.25C212.281 20.6042 211.823 21.0885 211.531 21.7031V30.5H205.781V14.6875H211.531V16.2656C211.854 15.7135 212.365 15.2604 213.062 14.9062C213.771 14.5521 214.438 14.375 215.062 14.375ZM228.438 14.6875H234.203V30.5H228.438V28.9688C228.104 29.5312 227.557 29.9792 226.797 30.3125C226.036 30.6458 225.198 30.8125 224.281 30.8125C222.323 30.8125 220.651 30.0104 219.266 28.4062C217.891 26.7917 217.203 24.8542 217.203 22.5938C217.203 20.3333 217.891 18.401 219.266 16.7969C220.651 15.1823 222.323 14.375 224.281 14.375C225.177 14.375 226.005 14.5469 226.766 14.8906C227.526 15.224 228.083 15.6719 228.438 16.2344V14.6875ZM225.594 25.3438C226.219 25.3438 226.776 25.2083 227.266 24.9375C227.755 24.6667 228.146 24.3125 228.438 23.875V21.3438C228.146 20.8958 227.755 20.5365 227.266 20.2656C226.776 19.9844 226.219 19.8438 225.594 19.8438C224.823 19.8438 224.172 20.1094 223.641 20.6406C223.109 21.1615 222.844 21.8125 222.844 22.5938C222.844 23.375 223.109 24.0312 223.641 24.5625C224.172 25.0833 224.823 25.3438 225.594 25.3438Z" fill="white"/>
</svg>
