<svg width="299" height="192" viewBox="0 0 299 192" fill="none" xmlns="http://www.w3.org/2000/svg">
<g clip-path="url(#clip0_1_10402)">
<path d="M155.723 -107C152.286 -107 149.5 -104.214 149.5 -100.777V36.118C149.5 39.5546 152.286 42.3408 155.723 42.3408H292.618C296.055 42.3408 298.841 39.5546 298.841 36.118C298.751 -42.887 234.727 -106.911 155.723 -107Z" fill="#FFC107"/>
<path d="M222.864 156.747L137.055 46.4353V-88.332C137.055 -91.7686 134.269 -94.5547 130.833 -94.5547C58.7762 -94.5547 0.160156 -30.3507 0.160156 48.5628C0.24941 127.568 64.2732 191.592 143.278 191.681C171.963 193.91 200.327 184.418 221.893 165.372C224.499 163.234 224.929 159.411 222.864 156.747Z" fill="#6200EE"/>
<path d="M292.617 54.7852H168.167C164.731 54.7857 161.945 57.5725 161.946 61.009C161.946 62.4307 162.433 63.8091 163.327 64.9152L244.219 165.06C245.304 166.406 246.9 167.24 248.625 167.363H249.061C250.635 167.364 252.152 166.768 253.305 165.695C282.292 138.587 298.773 100.695 298.841 61.0073C298.84 57.5713 296.054 54.7852 292.617 54.7852Z" fill="#00DDD0"/>
</g>
<defs>
<clipPath id="clip0_1_10402">
<rect width="299" height="299" fill="white" transform="translate(0 -107)"/>
</clipPath>
</defs>
</svg>
