<svg width="41" height="40" viewBox="0 0 41 40" fill="none" xmlns="http://www.w3.org/2000/svg">
<rect x="0.5" width="40" height="40" rx="8" fill="#6200EE"/>
<path d="M20.5 23.75C22.5711 23.75 24.25 22.0711 24.25 20C24.25 17.9289 22.5711 16.25 20.5 16.25C18.4289 16.25 16.75 17.9289 16.75 20C16.75 22.0711 18.4289 23.75 20.5 23.75Z" fill="white"/>
<path d="M18.8337 20.625H12.167C11.8253 20.625 11.542 20.3417 11.542 20C11.542 19.6583 11.8253 19.375 12.167 19.375H18.8337C19.1753 19.375 19.4587 19.6583 19.4587 20C19.4587 20.3417 19.1753 20.625 18.8337 20.625Z" fill="white"/>
<path d="M28.8337 20.625H22.167C21.8253 20.625 21.542 20.3417 21.542 20C21.542 19.6583 21.8253 19.375 22.167 19.375H28.8337C29.1753 19.375 29.4587 19.6583 29.4587 20C29.4587 20.3417 29.1753 20.625 28.8337 20.625Z" fill="white"/>
</svg>
