<svg width="48" height="48" viewBox="0 0 48 48" fill="none" xmlns="http://www.w3.org/2000/svg">
<rect width="48" height="48" rx="8" fill="#C63996"/>
<path d="M20.9083 19.2417C20.5583 19.2417 20.2833 18.9584 20.2833 18.6167V16.2917C20.2833 15.95 20.5583 15.6667 20.9083 15.6667C21.2583 15.6667 21.5333 15.95 21.5333 16.2917V18.6084C21.5333 18.9584 21.2583 19.2417 20.9083 19.2417Z" fill="white"/>
<path d="M27.0917 19.2417C26.7417 19.2417 26.4667 18.9584 26.4667 18.6167V16.2917C26.4667 15.9417 26.75 15.6667 27.0917 15.6667C27.4417 15.6667 27.7167 15.95 27.7167 16.2917V18.6084C27.7167 18.9584 27.4417 19.2417 27.0917 19.2417Z" fill="white"/>
<path d="M31.9167 27.1834C31.9167 27.3084 31.875 27.4334 31.7667 27.5417C30.5584 28.7584 28.4084 30.925 27.175 32.1667C27.0667 32.2834 26.925 32.3334 26.7834 32.3334C26.5084 32.3334 26.2417 32.1167 26.2417 31.8V28.8834C26.2417 27.6667 27.275 26.6584 28.5417 26.6584C29.3334 26.65 30.4334 26.65 31.375 26.65C31.7 26.65 31.9167 26.9084 31.9167 27.1834Z" fill="white"/>
<path d="M31.9167 27.1834C31.9167 27.3084 31.875 27.4334 31.7667 27.5417C30.5584 28.7584 28.4084 30.925 27.175 32.1667C27.0667 32.2834 26.925 32.3334 26.7834 32.3334C26.5084 32.3334 26.2417 32.1167 26.2417 31.8V28.8834C26.2417 27.6667 27.275 26.6584 28.5417 26.6584C29.3334 26.65 30.4334 26.65 31.375 26.65C31.7 26.65 31.9167 26.9084 31.9167 27.1834Z" fill="white"/>
<path d="M30.3084 17.75C29.7584 17.3417 28.9667 17.7334 28.9667 18.425V18.5084C28.9667 19.4834 28.2667 20.3834 27.2917 20.4834C26.1667 20.6 25.2167 19.7167 25.2167 18.6167V17.75C25.2167 17.2917 24.8417 16.9167 24.3834 16.9167H23.6167C23.1584 16.9167 22.7834 17.2917 22.7834 17.75V18.5084C22.7834 19.2417 22.3917 19.925 21.7834 20.2584C21.75 20.2834 21.7167 20.3 21.6834 20.3167C21.675 20.3167 21.675 20.325 21.6667 20.325C21.6084 20.35 21.55 20.375 21.4834 20.4C21.4667 20.4084 21.45 20.4084 21.4334 20.4167C21.3334 20.45 21.225 20.475 21.1084 20.4834H21.1C20.975 20.5 20.8417 20.5 20.7167 20.4834H20.7084C20.5917 20.475 20.4834 20.45 20.3834 20.4167C20.3 20.3917 20.2167 20.3584 20.1334 20.3167C19.4834 20.025 19.0334 19.375 19.0334 18.6167V18.425C19.0334 17.7834 18.35 17.4 17.8084 17.675C17.8 17.6834 17.7917 17.6834 17.7834 17.6917H17.775C17.7167 17.7334 17.6667 17.775 17.6084 17.8167C17.5167 17.8917 17.425 17.9667 17.3417 18.05C17.2834 18.1084 17.225 18.1667 17.175 18.225C17.1084 18.2917 17.05 18.3584 16.9917 18.4334C16.95 18.4834 16.9 18.5334 16.8667 18.5917C16.825 18.6417 16.7917 18.7 16.7584 18.75C16.75 18.7584 16.7417 18.7667 16.7334 18.7834C16.6584 18.8917 16.5917 19.0167 16.5334 19.1334C16.5167 19.15 16.5084 19.1584 16.5084 19.175C16.4584 19.275 16.4084 19.375 16.375 19.4834C16.35 19.525 16.3417 19.5584 16.325 19.6C16.3084 19.6334 16.3 19.675 16.2834 19.7084C16.2584 19.7917 16.2334 19.8834 16.2084 19.975C16.175 20.0917 16.15 20.2167 16.1334 20.3417C16.1167 20.4334 16.1084 20.525 16.1 20.625C16.0917 20.7417 16.0834 20.8584 16.0834 20.975V28.275C16.0834 30.5167 17.9 32.3334 20.1417 32.3334H24.1584C24.6167 32.3334 24.9917 31.9584 24.9917 31.5V28.8834C24.9917 26.9667 26.5834 25.4084 28.5417 25.4084C28.9834 25.4 30.0584 25.4 31.0834 25.4C31.5417 25.4 31.9167 25.025 31.9167 24.5667V20.975C31.9167 19.65 31.2834 18.4917 30.3084 17.75ZM23.275 27.2584C23.2 27.5084 22.9667 27.6834 22.6917 27.6834H19.6584C19.6167 27.6834 19.5834 27.6834 19.55 27.6667C19.25 27.625 19.0334 27.3667 19.0334 27.0584C19.0334 26.7084 19.3084 26.425 19.6584 26.425H22.6917C23.0334 26.425 23.3167 26.7084 23.3167 27.0584C23.3167 27.125 23.3084 27.2 23.275 27.2584ZM25.5917 24.1667C25.5167 24.4167 25.2834 24.5917 25.0084 24.5917H19.6584C19.6167 24.5917 19.5834 24.5917 19.55 24.575C19.25 24.5334 19.0334 24.275 19.0334 23.9667C19.0334 23.6167 19.3084 23.3334 19.6584 23.3334H25.0084C25.3584 23.3334 25.6334 23.6167 25.6334 23.9667C25.6334 24.0334 25.625 24.1084 25.5917 24.1667Z" fill="white"/>
</svg>
