<svg width="70" height="70" viewBox="0 0 70 70" fill="none" xmlns="http://www.w3.org/2000/svg">
<rect x="0.5" y="0.5" width="69" height="69" rx="34.5" fill="white" fill-opacity="0.5" stroke="url(#paint0_linear_1_14339)"/>
<g clip-path="url(#clip0_1_14339)">
<path d="M26.7166 40.7206H51.9898C51.9898 39.6995 51.9306 38.6916 51.7219 37.7258C50.5862 32.4712 47.3647 27.9431 42.476 25.5915C40.7629 24.7686 38.9221 24.2436 37.0327 24.0391H33.3969C26.0656 24.8298 20.1491 30.3453 18.7542 37.4822L26.7166 40.7206Z" fill="#D2DCFD"/>
<path d="M16.6463 22.1462C17.5076 21.2846 18.907 21.2846 19.7683 22.1462C20.6319 23.0079 20.6319 24.4078 19.7683 25.2695C18.907 26.1333 17.5076 26.1333 16.6463 25.2695C15.7849 24.4078 15.7849 23.0079 16.6463 22.1462ZM53.7856 22.1462C52.9221 21.2846 51.5249 21.2846 50.6613 22.1462C49.7999 23.0079 49.7999 24.4078 50.6613 25.2695C51.5248 26.1333 52.922 26.1333 53.7856 25.2695C54.647 24.4078 54.647 23.0079 53.7856 22.1462Z" fill="#6200EE"/>
<path d="M34.1676 22.1523H36.2622C36.6873 22.1523 37.0328 22.4979 37.0328 22.9232V25.6566C37.0328 26.0796 36.6874 26.4252 36.2622 26.4252H34.1676C33.7447 26.4252 33.397 26.0796 33.397 25.6566V22.9232C33.3971 22.4978 33.7447 22.1523 34.1676 22.1523Z" fill="#6200EE"/>
<path d="M29.1145 37.1035H41.3172V40.7207H29.1145V37.1035Z" fill="white"/>
<path d="M33.1821 37.1035H37.2497V40.7207H33.1821V37.1035Z" fill="#D2DCFD"/>
<path d="M29.5086 33.0117C30.5471 33.0117 31.3907 32.1656 31.3907 31.1289C31.3907 30.0922 30.5471 29.2461 29.5086 29.2461C28.4723 29.2461 27.6265 30.0922 27.6265 31.1289C27.6265 32.1656 28.4723 33.0117 29.5086 33.0117ZM41.016 33.0117C42.0522 33.0117 42.8981 32.1656 42.8981 31.1289C42.8981 30.0922 42.0523 29.2461 41.016 29.2461C39.9796 29.2461 39.1338 30.0922 39.1338 31.1289C39.1338 32.1656 39.9797 33.0117 41.016 33.0117Z" fill="#6200EE"/>
<path opacity="0.45" d="M25.2867 33.9746H19.8538C19.3587 35.1003 18.9899 36.2774 18.7542 37.4844L26.7165 40.7228H29.9196V38.6091C29.9196 36.0609 27.8342 33.9746 25.2867 33.9746Z" fill="#93B2F4"/>
<path d="M23.3554 28.8578L19.7683 25.2695M19.7683 25.2695C20.6319 24.4078 20.6319 23.0079 19.7683 22.1462C18.907 21.2846 17.5076 21.2846 16.6463 22.1462C15.7849 23.0079 15.7849 24.4078 16.6463 25.2695C17.5076 26.1333 18.907 26.1333 19.7683 25.2695ZM47.0765 28.8578L50.6614 25.2695M50.6614 25.2695C49.8 24.4078 49.8 23.0079 50.6613 22.1462C51.5249 21.2846 52.9221 21.2846 53.7856 22.1462C54.647 23.0079 54.647 24.4078 53.7856 25.2695C52.922 26.1333 51.5249 26.1333 50.6614 25.2695ZM41.3173 40.7217V37.1044H29.1146V40.7217M29.5087 33.011C30.5472 33.011 31.3909 32.1649 31.3909 31.1282C31.3909 30.0915 30.5472 29.2454 29.5087 29.2454C28.4725 29.2454 27.6266 30.0915 27.6266 31.1282C27.6266 32.1649 28.4725 33.011 29.5087 33.011ZM41.0161 33.011C42.0523 33.011 42.8982 32.1649 42.8982 31.1282C42.8982 30.0915 42.0524 29.2454 41.0161 29.2454C39.9798 29.2454 39.134 30.0915 39.134 31.1282C39.134 32.1649 39.9799 33.011 41.0161 33.011Z" stroke="#290064" stroke-width="1.56863" stroke-miterlimit="10" stroke-linecap="round" stroke-linejoin="round"/>
<path d="M33.3969 24.0391C26.0656 24.8298 20.1491 30.3453 18.7542 37.4822M26.7165 40.7206H51.9898C51.9898 39.6995 51.9305 38.6916 51.7218 37.7258C50.5861 32.4712 47.3647 27.9431 42.4759 25.5915C40.7628 24.7686 38.922 24.2436 37.0326 24.0391" stroke="#290064" stroke-width="1.56863" stroke-miterlimit="10" stroke-linecap="round" stroke-linejoin="round"/>
<path d="M41.6299 45.2155H34.2366L31.8031 48.1771L28.7121 43.2773L25.621 48.1771L23.1875 45.2155H20.2161" stroke="#6200EE" stroke-width="1.56863" stroke-miterlimit="10" stroke-linecap="round" stroke-linejoin="round"/>
</g>
<defs>
<linearGradient id="paint0_linear_1_14339" x1="-49" y1="-46.5" x2="68" y2="70" gradientUnits="userSpaceOnUse">
<stop stop-color="#6100DD"/>
<stop offset="1" stop-color="#6100DD" stop-opacity="0"/>
</linearGradient>
<clipPath id="clip0_1_14339">
<rect width="40" height="40" fill="white" transform="translate(15 15)"/>
</clipPath>
</defs>
</svg>
