<svg width="46" height="47" viewBox="0 0 46 47" fill="none" xmlns="http://www.w3.org/2000/svg">
<rect x="6.29297" y="0.744141" width="40" height="40" rx="8" transform="rotate(8.7941 6.29297 0.744141)" fill="#6200EE"/>
<path d="M22.4265 27.2742C24.4732 27.5908 26.3891 26.1883 26.7057 24.1416C27.0223 22.0949 25.6198 20.179 23.5731 19.8624C21.5264 19.5457 19.6105 20.9483 19.2939 22.995C18.9772 25.0417 20.3798 26.9576 22.4265 27.2742Z" fill="white"/>
<path d="M21.257 23.9302L14.6687 22.9109C14.3311 22.8587 14.0944 22.5354 14.1466 22.1977C14.1989 21.8601 14.5222 21.6234 14.8598 21.6756L21.4481 22.6949C21.7858 22.7471 22.0225 23.0704 21.9702 23.4081C21.918 23.7457 21.5947 23.9824 21.257 23.9302Z" fill="white"/>
<path d="M31.1398 25.4595L24.5515 24.4402C24.2139 24.388 23.9772 24.0647 24.0294 23.727C24.0817 23.3894 24.405 23.1527 24.7427 23.2049L31.3309 24.2242C31.6686 24.2764 31.9053 24.5997 31.853 24.9374C31.8008 25.275 31.4775 25.5117 31.1398 25.4595Z" fill="white"/>
</svg>
