<svg width="30" height="23" viewBox="0 0 30 23" fill="none" xmlns="http://www.w3.org/2000/svg">
<g clip-path="url(#clip0_1_15530)">
<rect y="0.519531" width="30" height="21.8182" rx="2.72727" fill="#249F58"/>
<path fill-rule="evenodd" clip-rule="evenodd" d="M22.8572 15.0652V13.6106H7.14294L10.0001 15.0652H18.5715C18.5715 15.8681 19.5315 16.5197 20.7144 16.5197C21.8972 16.5197 22.8572 15.8681 22.8572 15.0652ZM12.4715 6.20117C12.4544 6.20117 12.4287 6.2099 12.3958 6.23026C12.3187 6.28263 12.1672 6.44408 12.1615 6.63026C12.1572 6.73645 12.1372 6.73644 12.2044 6.80481C12.2529 6.87463 12.3044 6.86881 12.4015 6.81499C12.4587 6.77135 12.4772 6.74663 12.4972 6.67535C12.5201 6.55899 12.3729 6.73354 12.3544 6.59972C12.3215 6.47754 12.4158 6.42517 12.5044 6.30881C12.5072 6.25063 12.5072 6.20699 12.4715 6.20408V6.20117ZM13.9044 6.20844C13.8758 6.21426 13.8429 6.25208 13.7958 6.33644C13.7629 6.42663 13.6187 6.56335 13.7244 6.84554C13.8072 7.02444 13.8429 7.3139 13.8044 7.63826C13.7444 7.7299 13.7329 7.7619 13.6544 7.85354C13.5458 7.97426 13.4258 7.94372 13.3372 7.89717C13.2515 7.83899 13.1858 7.8099 13.1472 7.62663C13.1544 7.33572 13.1715 6.85281 13.1187 6.75099C13.0415 6.5939 12.9129 6.64917 12.8587 6.69717C12.5972 6.94445 12.4672 7.35608 12.3872 7.68626C12.3158 7.92481 12.2372 7.85499 12.1829 7.75899C12.0501 7.63099 12.0401 6.63899 11.8801 6.80335C11.6229 7.55099 12.0272 8.3699 12.3087 8.2899C12.5087 8.37717 12.6372 7.98444 12.7201 7.55535C12.7772 7.43463 12.8201 7.42008 12.8487 7.48263C12.8415 8.05281 12.8915 8.18081 13.0344 8.35244C13.3544 8.60554 13.6201 8.38444 13.6415 8.36408L13.8915 8.11099C13.9487 8.05281 14.0201 8.04699 14.0987 8.09935C14.1758 8.17208 14.1658 8.29281 14.3272 8.37572C14.4672 8.4339 14.7601 8.39026 14.8272 8.26954C14.9201 8.10954 14.9415 8.05426 14.9844 7.99317C15.0501 7.9059 15.1629 7.94517 15.1629 7.97281C15.1529 8.02372 15.0872 8.07463 15.1315 8.1619C15.2101 8.22008 15.2287 8.18226 15.2744 8.16917C15.4372 8.09063 15.5601 7.7299 15.5601 7.7299C15.5672 7.59608 15.4929 7.60626 15.4458 7.6339C15.3815 7.67317 15.3787 7.68626 15.3172 7.72554C15.2358 7.73717 15.0815 7.79099 15.0058 7.67026C14.9272 7.52481 14.9272 7.32408 14.8672 7.17572C14.8672 7.16699 14.7629 6.94735 14.8587 6.93426C14.9058 6.94299 15.0115 6.97063 15.0272 6.8819C15.0787 6.79463 14.9172 6.54735 14.8072 6.42517C14.7129 6.31899 14.5815 6.3059 14.4544 6.41354C14.3644 6.4979 14.3787 6.59099 14.3601 6.67972C14.3387 6.78154 14.3429 6.90808 14.4458 7.04335C14.5344 7.22081 14.6958 7.45063 14.6415 7.77354C14.6415 7.77354 14.5487 7.92772 14.3844 7.90735C14.3129 7.89281 14.2015 7.86372 14.1415 7.41281C14.0987 7.0739 14.1529 6.59826 14.0129 6.37572C13.9801 6.29281 13.9529 6.21135 13.9072 6.21572L13.9044 6.20844ZM13.4501 6.24626C13.4072 6.25063 13.3601 6.30154 13.3215 6.39899C13.2887 6.47463 13.2472 6.86444 13.2544 6.86444C13.2258 6.98081 13.3729 7.03026 13.4401 6.8819C13.5401 6.60554 13.5401 6.48917 13.5458 6.37572C13.5315 6.28844 13.4929 6.24481 13.4501 6.24772V6.24626ZM15.1258 6.27535C15.0829 6.28117 15.0472 6.30735 15.0344 6.37426C15.0158 6.52844 15.0258 6.61426 15.0515 6.74372C15.0701 6.83099 15.1944 6.97354 15.2544 7.0579C15.5444 7.45499 15.8258 7.85354 16.0944 8.26517C16.1372 8.57354 16.1658 8.87317 16.1872 9.17281C16.2329 9.82735 16.2444 10.6419 16.2058 11.3328C16.3258 11.3372 16.5201 11.1335 16.5872 10.8383C16.6301 10.4252 16.5729 9.58735 16.5672 9.34299L16.5529 8.99681C16.8672 9.52044 17.1701 10.0732 17.4672 10.6783C17.5772 10.6259 17.5529 10.0019 17.4901 9.91463C17.2501 9.39099 16.9187 8.87317 16.8144 8.6739C16.7758 8.60117 16.6458 8.4019 16.4929 8.17063C16.4644 7.83899 16.4329 7.55972 16.4129 7.47535C16.3629 7.12626 16.5529 7.51463 16.5272 7.31244C16.4644 6.96335 16.2758 6.72772 16.0529 6.40772C15.9815 6.3059 15.9815 6.28263 15.8715 6.4339C15.8072 6.58663 15.8072 6.71463 15.8287 6.8339C15.7972 6.79026 15.7615 6.74081 15.7101 6.67681L15.3458 6.36263C15.2958 6.32626 15.1987 6.27099 15.1258 6.27535ZM20.0915 6.32917C20.0701 6.32626 20.0487 6.33644 20.0201 6.37572C19.9701 6.41935 19.9172 6.50226 19.9201 6.60844C19.9301 6.79026 19.9629 6.9779 19.9744 7.16117L19.9887 7.2339C19.9687 7.21063 19.9515 7.19026 19.9415 7.18154C19.5887 6.80335 20.1029 7.11754 19.8729 6.82808C19.6801 6.6099 19.6229 6.54299 19.4587 6.41208C19.3729 6.35972 19.3244 6.25499 19.2972 6.43244C19.2858 6.58808 19.2744 6.7699 19.2829 6.90081C19.2829 6.97354 19.3587 7.11172 19.4229 7.19172C19.6572 7.48699 19.8972 7.79972 20.1372 8.12554C20.1887 8.79026 20.2015 9.39972 20.2515 10.0659C20.2458 10.351 20.1601 10.7292 20.0801 10.7641C20.0801 10.7641 19.9544 10.8368 19.8715 10.7568C19.8101 10.7321 19.5687 10.3452 19.5687 10.3452C19.4444 10.2288 19.3615 10.2623 19.2744 10.3452C19.0315 10.5837 18.9201 11.0317 18.7558 11.3401C18.7129 11.4084 18.5944 11.4681 18.4615 11.3343C18.1229 10.863 18.3187 10.1924 18.2787 10.3655C17.9787 10.7117 18.1101 11.2848 18.1787 11.4084C18.2787 11.6121 18.3587 11.743 18.5501 11.8404C18.7287 11.9714 18.8644 11.8914 18.9415 11.7968C19.1187 11.6106 19.1215 11.1321 19.2044 11.0375C19.2615 10.863 19.4087 10.8921 19.4801 10.9706C19.5515 11.0724 19.6315 11.1379 19.7329 11.1932C19.8987 11.3415 20.0958 11.3677 20.2901 11.2324C20.4229 11.1568 20.5101 11.0579 20.5872 10.863C20.6729 10.6361 20.6301 9.44335 20.6115 8.78008L20.9829 9.32699C21.0344 9.90881 21.0587 10.4834 21.0401 11.0332C21.0287 11.1423 21.4158 10.7074 21.4115 10.5008C21.4115 10.3219 21.4144 10.1575 21.4115 10.0063C21.6015 10.3117 21.7829 10.6215 21.9544 10.9372C22.0615 10.879 22.0258 10.2637 21.9587 10.1808C21.7787 9.87244 21.5472 9.54081 21.3687 9.2819C21.3329 8.95754 21.2858 8.57499 21.2629 8.45717C21.2301 8.2739 21.1958 7.99899 21.1444 7.78226C21.1301 7.69935 21.0872 7.42881 21.1015 7.40408C21.1215 7.34154 21.2015 7.40408 21.2401 7.33426C21.2972 7.26881 21.0372 6.5779 20.9044 6.38299C20.8572 6.29572 20.7701 6.32481 20.6644 6.47026C20.5644 6.56335 20.6015 6.77863 20.6387 6.98372C20.7358 7.50735 20.8244 8.03681 20.8929 8.56917C20.7644 8.37281 20.6072 8.13717 20.4529 7.91172L20.4329 7.8099C20.4329 7.79826 20.4129 7.38081 20.3944 7.2819C20.3901 7.24117 20.3801 7.22954 20.4229 7.23535C20.4658 7.27317 20.4715 7.27463 20.4987 7.28772C20.5444 7.29354 20.5844 7.2179 20.5558 7.14663L20.1415 6.3699C20.1272 6.35099 20.1072 6.33354 20.0844 6.33063L20.0915 6.32917ZM7.27722 6.34372C7.19865 6.34081 7.11579 6.38735 7.14865 6.4819C7.12865 6.53281 7.29722 6.70444 7.32722 6.79899C7.35151 6.86735 7.29865 7.08263 7.35579 7.10444C7.40579 7.12626 7.47579 6.95317 7.50151 6.79463C7.51579 6.70735 7.50579 6.40772 7.30579 6.34663C7.29579 6.34372 7.28579 6.34372 7.27437 6.34226L7.27722 6.34372ZM21.8772 6.34372C21.8587 6.34663 21.8372 6.37281 21.8058 6.44554C21.7272 6.57644 21.7001 6.80917 21.7315 7.01281C21.9172 8.30735 22.0601 9.56117 22.0887 10.7074C22.0715 10.8179 22.0658 10.8761 22.0172 11.0128C21.9058 11.1583 21.7829 11.3386 21.6672 11.4259C21.5529 11.5132 21.3072 11.5975 21.2272 11.6615C20.9701 11.8099 20.9701 11.9815 21.1758 11.9888C21.5301 11.9452 21.9501 11.9161 22.2387 11.4724C22.3158 11.3488 22.4072 11.0114 22.4101 10.8034C22.4387 9.59608 22.3958 8.41063 22.2172 7.53644C22.2058 7.44917 22.1687 7.25572 22.1829 7.23099C22.2044 7.1699 22.3201 7.23535 22.3615 7.16699C22.4229 7.10299 22.0615 6.63317 21.9358 6.43244C21.9101 6.38299 21.8929 6.34081 21.8729 6.34517L21.8772 6.34372ZM18.1587 6.36408C18.1444 6.36699 18.1244 6.39026 18.0844 6.44408C17.9844 6.77281 17.9501 7.04044 17.9887 7.24699C18.2458 8.59972 18.5029 9.82881 18.4629 11.1161C18.5829 11.1161 18.7229 10.8354 18.7829 10.5561C18.8158 10.1706 18.7601 9.93644 18.7515 9.71244C18.7415 9.48554 18.5001 7.65281 18.4515 7.48263C18.3915 7.15972 18.6858 7.43899 18.6544 7.25281C18.5515 7.01426 18.2972 6.67099 18.2201 6.46299C18.1915 6.40772 18.1858 6.35681 18.1629 6.36117L18.1587 6.36408ZM9.11008 6.39026C9.08151 6.39608 9.04865 6.42226 9.03865 6.46299C9.03151 6.49208 9.05008 6.54008 9.02437 6.55463C9.01008 6.56917 8.95579 6.55899 8.95865 6.4819C8.95865 6.45572 8.94008 6.42954 8.93008 6.41354C8.91865 6.40772 8.91151 6.40626 8.89151 6.40626C8.86722 6.40626 8.86722 6.41354 8.85437 6.43535C8.84865 6.45572 8.84008 6.47608 8.84008 6.49935C8.83722 6.52844 8.82579 6.53572 8.80722 6.54008C8.78437 6.54008 8.78865 6.54299 8.77151 6.5299C8.75722 6.51972 8.74579 6.51535 8.74579 6.49499C8.74579 6.47317 8.74008 6.43681 8.73437 6.42517C8.72437 6.41063 8.70865 6.40481 8.69151 6.40045C8.59722 6.40045 8.59151 6.5139 8.59579 6.55463C8.58865 6.56335 8.58579 6.75826 8.71437 6.81354C8.88579 6.8979 9.21151 6.86154 9.20008 6.5779C9.20008 6.55317 9.19294 6.46881 9.19008 6.44699C9.17294 6.40335 9.14008 6.38881 9.10865 6.39317L9.11008 6.39026ZM11.4329 6.39317C11.3729 6.39608 11.3187 6.41354 11.2758 6.43681C11.1615 6.54881 11.1329 6.72772 11.2244 6.83972C11.3101 6.88335 11.4001 6.97063 11.3415 7.02154C11.0929 7.29063 10.4458 7.74299 10.4129 7.8259V7.83463H10.4187V7.83754C10.4515 7.85935 10.8572 7.85935 10.9015 7.83754H10.9044C11.0444 7.78372 11.7044 7.01572 11.7044 7.01572C11.6701 6.98663 11.6387 6.96335 11.6044 6.93281C11.5672 6.90081 11.5715 6.86881 11.6044 6.83681C11.7672 6.74081 11.7158 6.52699 11.6301 6.42954C11.5587 6.39754 11.4929 6.3859 11.4329 6.39026V6.39317ZM17.5044 6.39317C17.4872 6.39754 17.4658 6.42226 17.4329 6.49499C17.3544 6.6259 17.3015 6.85135 17.3087 7.06226C17.4772 8.25499 17.5287 9.2979 17.6401 10.4906C17.6487 10.607 17.6315 10.7728 17.5572 10.8397C17.2772 11.1364 16.8758 11.5001 16.4387 11.6688C16.3915 11.7226 16.5558 11.951 16.7672 11.951C17.1215 11.9074 17.4329 11.7066 17.7244 11.1728C17.8001 11.0492 17.9358 10.783 17.9387 10.5764C17.9672 9.36626 17.8815 8.42372 17.7015 7.55099C17.6915 7.46372 17.6987 7.3619 17.7129 7.33863C17.7358 7.30954 17.8129 7.33863 17.8558 7.27026C17.9158 7.20626 17.6929 6.68408 17.5672 6.48481C17.5415 6.4339 17.5272 6.39317 17.5044 6.39463V6.39317ZM8.09865 6.43244C8.05008 6.43826 8.00437 6.47608 7.98151 6.53426C7.97437 6.72335 7.97294 6.91245 7.99579 7.0899C8.08151 7.39972 8.10579 7.67172 8.14722 7.98735C8.16151 8.41208 7.90722 8.17063 7.91865 7.96117C7.97579 7.68772 7.96151 7.25863 7.91008 7.14954C7.86722 7.04044 7.82151 7.01426 7.72151 7.03317C7.64294 7.02735 7.43865 7.25135 7.38151 7.62954C7.38151 7.62954 7.33294 7.82154 7.31294 7.99317C7.28437 8.18663 7.15865 8.32481 7.07008 7.96699C6.99437 7.70517 6.94865 7.06517 6.82151 7.21354C6.78437 7.7139 6.74151 8.59535 7.15865 8.68554C7.66437 8.73499 7.38437 7.81572 7.56722 7.64844C7.60294 7.56844 7.66722 7.56699 7.67151 7.67026V8.45135C7.66579 8.70444 7.82865 8.78008 7.95722 8.83244C8.09008 8.82226 8.17722 8.82663 8.22865 8.95754L8.29294 10.3103C8.29294 10.3103 8.59865 10.3975 8.61294 9.54954C8.62722 9.05063 8.51294 8.63317 8.58008 8.53572C8.58294 8.43972 8.70294 8.4339 8.78579 8.4819C8.91865 8.57644 8.97722 8.69281 9.18294 8.64626C9.49722 8.55899 9.68294 8.40481 9.68722 8.16044C9.67294 7.92772 9.64437 7.69499 9.54437 7.46226C9.55865 7.42154 9.48722 7.31244 9.50151 7.27026C9.55579 7.35754 9.64151 7.35172 9.65865 7.27026C9.60722 7.09135 9.52437 6.92117 9.39008 6.84844C9.28008 6.74663 9.11865 6.76845 9.05865 6.97499C9.03008 7.21354 9.14437 7.49572 9.31579 7.72699C9.35008 7.81717 9.40151 7.96699 9.37865 8.10226C9.28865 8.15463 9.19865 8.13135 9.12151 8.05135C9.12151 8.05135 8.87437 7.86226 8.87437 7.81863C8.94151 7.38954 8.88865 7.33863 8.85294 7.22226C8.82722 7.05644 8.75008 7.00408 8.68865 6.89063C8.62579 6.82226 8.54151 6.82226 8.50294 6.89063C8.39151 7.08408 8.44294 7.50154 8.52294 7.68626C8.58008 7.8579 8.66865 7.96554 8.62722 7.96554C8.59294 8.06008 8.52151 8.03826 8.47008 7.92626C8.39865 7.69354 8.38151 7.35026 8.38151 7.19463C8.36008 7.00263 8.33579 6.59099 8.21008 6.48626C8.17722 6.43972 8.13865 6.42372 8.10008 6.42808L8.09865 6.43244ZM9.87294 6.43244C9.84865 6.43826 9.82008 6.45281 9.78722 6.46154C9.68008 6.49499 9.58008 6.58954 9.61151 6.77281C9.74008 7.55826 9.82151 8.15899 9.94865 8.94444C9.96722 9.03754 9.89151 9.15826 9.79437 9.14808C9.62865 9.03172 9.58722 8.79899 9.30437 8.81063C9.09865 8.81063 8.86437 9.04044 8.83579 9.25863C8.80151 9.43317 8.79008 9.62226 8.83579 9.77354C8.97865 9.94808 9.15294 9.93063 9.30437 9.8899C9.42865 9.83899 9.53294 9.71535 9.57579 9.74444C9.60437 9.79244 9.57294 10.2012 8.99008 10.5154C8.63008 10.6812 8.34437 10.719 8.19008 10.4223C8.09579 10.2361 8.19865 9.52626 7.96437 9.68917C7.27008 11.5103 9.58865 11.7634 9.84722 9.76481C9.86437 9.70663 9.91437 9.65135 9.95151 9.6659C9.96579 9.67317 9.98008 9.69499 9.98579 9.73572C9.93151 11.5452 8.19151 11.6703 7.89722 11.1001C7.82294 10.9663 7.80151 10.6666 7.79437 10.4892C7.78008 10.3801 7.75437 10.3175 7.72294 10.2928C7.65151 10.239 7.55722 10.3801 7.53722 10.623C7.50865 10.8194 7.51579 10.8732 7.51579 11.0623C7.61008 12.4921 9.84865 11.8768 10.2129 10.6986C10.3929 10.0877 10.2087 9.62663 10.2701 9.5699L10.2744 9.56699H10.2787L10.2858 9.56408C10.5087 9.80844 10.8201 9.59317 10.8887 9.51026C10.9172 9.46663 10.9915 9.43754 11.0429 9.49572C11.2144 9.62081 11.5201 9.56117 11.5829 9.33572C11.6201 9.11754 11.6515 8.89354 11.6587 8.65935C11.5444 8.69572 11.4529 8.7219 11.4158 8.76117C11.4072 8.77135 11.4015 8.78299 11.3987 8.79463L11.3701 8.98808C11.3701 8.99535 11.3672 8.99972 11.3644 9.00263C11.3601 9.01281 11.3501 9.02008 11.3444 9.02444C11.3044 9.04626 11.2344 9.03463 11.2301 8.97499C11.1772 8.72772 10.9558 8.69572 10.8215 9.08117C10.7315 9.1539 10.5644 9.16844 10.5501 9.0579C10.5715 8.79899 10.4687 8.76408 10.2644 8.88626L10.0672 7.37354C10.1529 7.36917 10.2301 7.43172 10.3101 7.33281C10.2244 7.06517 10.0458 6.52117 9.94437 6.46881H9.94151L9.92722 6.45426C9.92722 6.45135 9.92294 6.4499 9.92008 6.44845L9.91437 6.43972C9.90865 6.43972 9.90294 6.43681 9.90008 6.43535C9.89008 6.43244 9.88151 6.43244 9.87151 6.43244H9.87294ZM16.7901 6.43826C16.7015 6.43535 16.6044 6.49208 16.6415 6.60554C16.6187 6.66808 16.8315 6.87754 16.8658 6.99099C16.9272 7.16554 16.8187 7.33572 16.8829 7.36044C16.9429 7.38663 17.0258 7.17863 17.0544 6.98517C17.0915 6.82808 16.9829 6.50808 16.8258 6.44263L16.7901 6.43972V6.43826ZM11.4001 6.62881C11.4401 6.6259 11.4887 6.66372 11.5144 6.71608C11.5387 6.77426 11.5258 6.82808 11.4858 6.83826C11.4429 6.84844 11.3887 6.81208 11.3629 6.7539C11.3372 6.69572 11.3487 6.6419 11.3915 6.63172H11.4001V6.62881ZM21.3958 6.89354C21.3144 6.89063 21.2244 6.95172 21.2615 7.07535C21.2415 7.14226 21.4329 7.36917 21.4658 7.49426C21.4944 7.58154 21.4229 7.86663 21.4801 7.89281C21.5344 7.9219 21.6087 7.69499 21.6372 7.48554C21.6544 7.36917 21.5715 6.96917 21.4301 6.8979C21.4201 6.89499 21.4087 6.89208 21.3972 6.89208L21.3958 6.89354ZM15.8672 7.03317C15.8772 7.06663 15.8844 7.10008 15.8887 7.13499C15.9058 7.20772 15.9201 7.28044 15.9344 7.35608C15.8715 7.2659 15.8201 7.19317 15.7958 7.16699C15.6529 6.99244 15.7987 7.05354 15.8672 7.03317ZM17.1429 7.67026C17.1115 7.67608 17.0815 7.70372 17.0715 7.74735C17.0629 7.77354 17.0829 7.82008 17.0572 7.83463C17.0429 7.84917 16.9858 7.84044 16.9901 7.7619C16.9901 7.73572 16.9715 7.70808 16.9615 7.69354C16.9501 7.68626 16.9429 7.68335 16.9229 7.68335C16.8987 7.68335 16.8987 7.69063 16.8858 7.71244C16.8801 7.73281 16.8715 7.75317 16.8715 7.7779C16.8715 7.80699 16.8601 7.81572 16.8401 7.82154C16.8172 7.82154 16.8215 7.82154 16.8029 7.81135C16.7915 7.79681 16.7787 7.7939 16.7787 7.77354C16.7787 7.75172 16.7744 7.71826 16.7672 7.70372C16.7572 7.68917 16.7429 7.68481 16.7244 7.67899C16.6315 7.67899 16.6244 7.78954 16.6301 7.83026C16.6244 7.83899 16.6201 8.03681 16.7487 8.09208C16.9229 8.17499 17.2487 8.13572 17.2344 7.85354C17.2344 7.82881 17.2272 7.74444 17.2258 7.72263C17.2072 7.67899 17.1744 7.66444 17.1444 7.66881L17.1429 7.67026ZM11.3287 7.72844C11.3087 7.72844 11.2801 7.73426 11.2472 7.75463C11.0944 7.83899 11.0358 8.08917 11.1329 8.23463C11.2187 8.36554 11.3615 8.31754 11.3801 8.31754C11.5301 8.3379 11.6187 8.03244 11.6187 8.03244C11.6187 8.03244 11.6229 7.94517 11.4472 8.10808C11.3701 8.12263 11.3615 8.09354 11.3415 8.0499C11.3244 7.97281 11.3272 7.8899 11.3629 7.81281C11.3801 7.76481 11.3629 7.73426 11.3287 7.73135V7.72844ZM19.5472 7.76772C19.4615 7.76335 19.3715 7.82008 19.3472 7.9379C19.3472 8.00772 19.3787 8.04554 19.3729 8.10954C19.3658 8.1459 19.3301 8.16772 19.2415 8.12699C19.2558 8.11244 19.1844 8.01354 19.1844 8.01354C19.1172 7.9699 19.0272 8.01354 18.9672 8.05426C18.9344 8.11535 18.9101 8.21863 18.9472 8.32335C19.0444 8.50808 19.3801 8.82226 19.5401 8.82517C19.5429 8.65935 19.5587 8.43826 19.5687 8.30154C19.5715 8.24917 19.5829 8.19244 19.6329 8.17935C19.6815 8.16481 19.7658 8.22881 19.7658 8.17499C19.7572 8.07026 19.7372 7.91317 19.6801 7.84044C19.6487 7.79681 19.5987 7.77063 19.5487 7.76772H19.5472ZM12.7429 8.34517L12.7387 8.34954C12.7387 8.34954 12.7358 8.34954 12.7344 8.35244C12.7172 8.36699 12.6972 8.39608 12.6529 8.42517C12.5772 8.51244 12.5644 8.57499 12.5672 8.74954C12.5729 8.76844 12.7101 9.16117 12.8287 9.43608C12.9087 9.72263 12.9815 10.0514 12.9287 10.3612C12.7429 10.7714 12.3715 11.1394 12.0101 11.3401C11.8244 11.3983 11.6672 11.3779 11.6244 11.3372C11.5187 11.2644 11.5172 11.1335 11.5244 11.1132V11.1088C11.8272 10.8935 12.1744 10.719 12.4458 10.1386C12.5258 9.91608 12.5515 9.78226 12.4715 9.44044C12.4401 9.30954 12.4001 9.20772 12.3144 9.11463H12.3172C12.3687 9.0899 12.5029 9.19026 12.5244 9.12917C12.4915 8.96335 12.3815 8.74372 12.2601 8.63026C12.1515 8.52845 12.0315 8.51826 11.9344 8.6099C11.8229 8.6739 11.8001 8.90081 11.8529 9.09863C11.9129 9.24699 12.0744 9.27317 12.1887 9.57426C12.1915 9.59463 12.2272 9.79972 12.1701 9.88408C12.1215 10.0324 11.5201 10.5154 11.4772 10.5444L11.4729 10.5474L11.4701 10.5503H11.4672H11.4644V10.5459C11.4615 10.5343 11.4644 10.5023 11.4644 10.4543C11.4601 10.3641 11.4972 10.159 11.4929 10.1226V10.1197C11.2929 10.2506 11.2258 10.6506 11.1901 10.7699C10.6858 11.1234 10.1144 11.3866 9.78437 11.7444C9.61294 12.0208 10.9672 11.4332 11.1244 11.3619L11.1287 11.3663C11.1601 11.3997 11.1615 11.5161 11.2515 11.6223C11.3944 11.8157 11.6915 11.935 11.9829 11.8608C12.4715 11.6819 12.7544 11.343 13.0401 10.9663C13.0801 10.9081 13.1444 10.8586 13.2044 10.9052C13.4001 11.3532 13.9687 11.6732 14.7015 11.7052C14.8729 11.4957 14.7915 11.3924 14.7229 11.3488C14.7015 11.3343 14.3587 11.1975 14.3044 11.0623C14.2715 10.9372 14.3529 10.8252 14.5158 10.7423C14.9872 10.6841 15.4501 10.6186 15.8987 10.4717C15.9029 10.3175 15.9915 10.0892 16.0515 9.98881C16.0944 9.92044 16.1187 9.91317 16.1287 9.90444V9.90154H16.1315V9.89717V9.88263L16.0544 9.83608L14.5501 9.83026C14.5315 9.82299 14.5187 9.81572 14.5101 9.80844L14.5072 9.80408C14.5072 9.80408 14.5044 9.80408 14.5044 9.80117C14.5044 9.79826 14.5015 9.79826 14.5015 9.79826V9.79972V9.79681V9.7939V9.79099L14.5044 9.78663C14.5115 9.7779 14.5301 9.76772 14.5515 9.75754C14.9115 9.70954 15.5487 9.60335 15.5915 8.97935C15.5844 8.65354 15.4544 8.44117 15.0629 8.38299C14.7744 8.40481 14.5687 8.68844 14.6015 8.99972C14.5872 9.08263 14.6301 9.24699 14.5444 9.2659C13.9929 9.31826 13.3901 9.67026 13.3701 9.92335H13.3672H13.3644H13.3615C13.3615 9.92626 13.3587 9.92626 13.3572 9.92626H13.3515H13.3487H13.3429C13.3072 9.91463 13.2615 9.85354 13.2687 9.77063C13.2472 9.33426 13.1072 8.83972 12.8901 8.46154C12.8115 8.38154 12.7758 8.34954 12.7558 8.34517H12.7515H12.7472H12.7444H12.7429ZM14.1829 8.57499C14.1544 8.58081 14.1215 8.60699 14.1115 8.65063C14.1044 8.67972 14.1258 8.72626 14.1001 8.74081C14.0858 8.75535 14.0287 8.74663 14.0315 8.66808C14.0315 8.64335 14.0129 8.61572 14.0029 8.59972C13.9915 8.59244 13.9844 8.59099 13.9658 8.59099C13.9415 8.59099 13.9401 8.59681 13.9272 8.61717C13.9201 8.63754 13.9129 8.66081 13.9129 8.68263C13.9101 8.71172 13.8987 8.72044 13.8801 8.72335C13.8572 8.72335 13.8629 8.72772 13.8444 8.71608C13.8329 8.70444 13.8187 8.69863 13.8187 8.67826C13.8187 8.65645 13.8144 8.62008 13.8087 8.60554C13.7987 8.59535 13.7829 8.59099 13.7658 8.58517C13.6701 8.58517 13.6658 8.69426 13.6701 8.73644C13.6629 8.74372 13.6587 8.94008 13.7872 8.99535C13.9587 9.07972 14.3729 9.03026 14.2729 8.75826C14.2729 8.73354 14.2658 8.64917 14.2644 8.62735C14.2458 8.58372 14.2129 8.56917 14.1815 8.57354L14.1829 8.57499ZM19.9901 8.8179H19.9758C19.9758 8.8179 19.1729 9.39972 19.1544 9.42008C19.0744 9.49281 19.1144 9.74444 19.1544 9.71535C19.2115 9.73717 20.0187 9.18008 20.0029 9.11463C20.0387 9.11754 20.0558 8.82808 19.9887 8.81644L19.9901 8.8179ZM14.9415 8.90517C14.9729 8.90081 15.0158 8.91244 15.0558 8.93426C15.1172 8.97208 15.1558 9.02444 15.1487 9.06517V9.07099C15.1458 9.07099 15.1458 9.07099 15.1458 9.0739V9.07681C15.1458 9.07681 15.1429 9.07681 15.1429 9.07972C15.1429 9.08263 15.1387 9.08554 15.1358 9.08844C15.1072 9.11754 15.0415 9.11172 14.9787 9.0739C14.9187 9.04044 14.8829 8.98663 14.8858 8.94881V8.94444L14.8929 8.9299C14.8929 8.9299 14.8929 8.92699 14.8958 8.92554L14.9029 8.91681C14.9129 8.90954 14.9258 8.90226 14.9415 8.90226V8.90517ZM7.91579 9.05063C7.50151 9.05935 6.89151 9.60626 6.87579 9.90881L8.19008 9.26881C8.11865 9.15826 8.18579 9.05935 7.91579 9.05063ZM9.26294 9.23972C9.30294 9.24263 9.34579 9.26299 9.36865 9.32117C9.38865 9.37499 9.36865 9.43026 9.34437 9.4579V9.46226C9.32437 9.48554 9.26437 9.47681 9.22008 9.47681C9.16722 9.4739 9.14151 9.46517 9.11008 9.42154C9.09294 9.37063 9.13865 9.32263 9.16008 9.28772L9.17008 9.27317C9.18437 9.25863 9.21294 9.24699 9.24151 9.24408L9.26008 9.24117L9.26294 9.23972ZM19.8344 9.4099C19.7587 9.41863 19.6887 9.4899 19.7201 9.60335C19.7001 9.67026 19.8201 9.90444 19.8529 10.0281C19.8815 10.1154 19.8158 10.367 19.8744 10.3917C19.9287 10.4208 20.0701 10.2463 20.0658 10.0223C20.0801 9.9059 20.0258 9.48408 19.8844 9.41426C19.8672 9.4099 19.8501 9.40844 19.8329 9.4099H19.8344ZM10.8572 9.82299C10.7915 9.82735 10.7329 9.86226 10.7601 9.95681C10.7558 10.0237 10.9458 10.1066 10.9558 10.2623C10.9815 10.3292 10.9129 10.5386 10.9701 10.5561C11.0215 10.5779 11.0929 10.4106 11.1201 10.2594C11.1344 10.175 11.0544 9.88117 10.9201 9.82735C10.8987 9.82154 10.8772 9.82008 10.8558 9.82154L10.8572 9.82299ZM13.5429 10.1954H13.5601C13.7287 10.2419 13.9744 10.2477 14.1887 10.2681C14.3644 10.2826 14.4501 10.4194 14.2887 10.479C14.1258 10.5343 13.9701 10.5808 13.9701 10.8164C13.9901 10.9328 13.9844 10.9939 13.9672 11.0201C13.9672 11.0244 13.9629 11.0274 13.9615 11.0288C13.9615 11.0288 13.9615 11.0317 13.9587 11.0317V11.0346H13.9544L13.9444 11.039H13.9372C13.8987 11.0463 13.8429 11.0099 13.8015 10.9866C13.7015 10.9139 13.4229 10.7394 13.3829 10.3612C13.3772 10.2739 13.4401 10.2012 13.5401 10.1939L13.5429 10.1954ZM6.98008 10.4863C6.97008 10.4863 6.95151 10.5183 6.92294 10.5546C6.67437 10.9546 6.65151 11.5524 6.78865 11.7328C6.86008 11.8157 6.98008 11.8535 7.06865 11.8274C7.22579 11.759 7.29294 11.4375 7.25437 11.3212C7.20437 11.2383 7.16294 11.2252 7.11151 11.295C7.00151 11.5204 6.95437 11.3648 6.94722 11.2368C6.93008 10.9997 6.95294 10.7786 6.97865 10.6041C6.99294 10.5168 6.99294 10.4834 6.97865 10.4834L6.98008 10.4863ZM15.4044 11.0128C15.3858 11.0128 15.3672 11.0157 15.3472 11.0274C15.3429 11.0274 15.1701 11.1437 15.1144 11.2281C15.0801 11.2543 15.0858 11.2761 15.0944 11.3226C15.1201 11.3852 15.1658 11.3663 15.2201 11.3372C15.2915 11.3255 15.3244 11.3735 15.3201 11.4594C15.2872 11.5684 15.3344 11.6077 15.3344 11.615C15.3344 11.6208 15.4015 11.6804 15.4815 11.6339C15.6487 11.5684 15.7529 11.503 15.9887 11.4521C16.0501 11.4521 16.0458 11.2834 15.9487 11.2775C15.8201 11.2834 15.7058 11.2921 15.5772 11.3939C15.4987 11.4114 15.4858 11.3619 15.4672 11.3183C15.4472 11.2106 15.5129 11.135 15.4987 11.0535C15.5015 11.0579 15.4587 11.0186 15.4029 11.0157L15.4044 11.0128ZM20.7987 11.2164L20.6844 11.2281C20.6329 11.2383 20.6158 11.2615 20.6058 11.3255C20.6101 11.4201 20.6672 11.4157 20.7272 11.4535C20.7615 11.4972 20.7844 11.5379 20.7244 11.6135C20.6672 11.6644 20.6287 11.6935 20.5715 11.7444C20.5472 11.791 20.5287 11.8608 20.6115 11.8841C20.7615 11.9277 21.1087 11.6979 21.1087 11.695C21.1658 11.6514 21.1458 11.5684 21.1415 11.5684C21.1072 11.5306 21.0329 11.5539 20.9844 11.5466C20.9601 11.5466 20.8844 11.535 20.9187 11.4652C20.9501 11.4215 20.9615 11.3968 20.9829 11.343C21.0044 11.2906 20.9829 11.2557 20.9001 11.2266C20.8572 11.2179 20.8287 11.215 20.7958 11.2164H20.7987ZM18.7229 16.831C19.1087 16.8499 19.4687 16.8354 19.8515 16.8543C19.9144 16.9066 19.8844 17.0288 19.8444 17.0492L19.8372 17.0521H19.8329H19.8272L19.5044 17.0434V17.0244C19.4729 16.9343 19.2587 16.9401 19.2072 17.0099V17.0143C19.2044 17.0143 19.2029 17.0186 19.2029 17.0201L19.2001 17.0274V17.0448C19.0287 17.0666 18.8787 17.039 18.7101 17.0332C18.6601 16.9706 18.6672 16.8586 18.7244 16.8295L18.7229 16.831Z" fill="white"/>
</g>
<defs>
<clipPath id="clip0_1_15530">
<rect width="30" height="21.8182" fill="white" transform="translate(0 0.519531)"/>
</clipPath>
</defs>
</svg>
