<svg width="396" height="145" viewBox="0 0 396 145" fill="none" xmlns="http://www.w3.org/2000/svg">
<g clip-path="url(#clip0_1_16611)">
<rect x="-143.462" y="26.5371" width="192.147" height="119.493" rx="8.16824" transform="rotate(-7.65078 -143.462 26.5371)" fill="white"/>
<path d="M-114.434 111.671L-114.851 108.567L-118.338 109.036L-117.921 112.139L-118.815 112.259L-119.734 105.414L-118.841 105.294L-118.437 108.299L-114.95 107.831L-115.354 104.825L-114.46 104.705L-113.541 111.551L-114.434 111.671ZM-112.722 108.681C-112.948 107.002 -111.983 105.772 -110.539 105.578C-109.538 105.444 -108.781 105.862 -108.392 106.38L-108.524 105.398L-107.62 105.276L-106.897 110.659L-107.801 110.78L-107.935 109.778C-108.182 110.401 -108.81 111.006 -109.802 111.139C-111.236 111.331 -112.498 110.351 -112.722 108.681ZM-108.164 108.079C-108.331 106.832 -109.276 106.199 -110.258 106.331C-111.24 106.463 -111.979 107.292 -111.809 108.559C-111.639 109.826 -110.703 110.46 -109.721 110.328C-108.739 110.196 -107.993 109.346 -108.164 108.079ZM-106.748 105.159L-105.786 105.03L-103.494 109.362L-102.437 104.58L-101.484 104.452L-102.872 110.118L-103.914 110.258L-106.748 105.159ZM-98.2262 104.694C-99.1003 104.812 -99.7493 105.489 -99.7063 106.553L-96.308 106.096C-96.4394 105.044 -97.3029 104.57 -98.2262 104.694ZM-95.3015 107.411C-95.4446 108.43 -96.206 109.312 -97.5417 109.492C-99.0739 109.698 -100.349 108.769 -100.578 107.06C-100.806 105.361 -99.8599 104.144 -98.2885 103.933C-96.7268 103.723 -95.5576 104.686 -95.3597 106.159C-95.3333 106.355 -95.322 106.514 -95.3166 106.703L-99.6185 107.281C-99.4033 108.362 -98.5567 108.858 -97.6433 108.736C-96.8379 108.627 -96.3826 108.146 -96.264 107.54L-95.3015 107.411ZM-91.0053 108.524L-91.6294 103.878L-92.3267 103.972L-92.4257 103.235L-91.7283 103.142L-91.7798 102.758C-91.9407 101.56 -91.424 100.941 -90.049 100.756L-89.9487 101.503C-90.7541 101.611 -90.9797 101.941 -90.886 102.638L-90.8345 103.021L-89.7051 102.87L-89.6061 103.606L-90.7356 103.758L-90.1115 108.404L-91.0053 108.524ZM-83.8896 102.089L-83.1666 107.471L-84.0604 107.591L-84.1673 106.795C-84.4358 107.401 -85.0517 107.804 -85.7686 107.9C-87.0062 108.067 -88.0814 107.431 -88.2886 105.889L-88.7121 102.736L-87.8281 102.618L-87.4204 105.653C-87.274 106.743 -86.5997 107.222 -85.6961 107.101C-84.7728 106.977 -84.2306 106.324 -84.3863 105.165L-84.7834 102.209L-83.8896 102.089ZM-81.6575 107.268L-82.6339 100L-81.7401 99.88L-80.7638 107.148L-81.6575 107.268ZM-79.2405 106.943L-80.2168 99.6754L-79.323 99.5553L-78.3467 106.823L-79.2405 106.943ZM-74.9017 103.611C-75.1287 101.922 -74.1836 100.695 -72.6514 100.489C-71.3157 100.309 -70.3492 100.88 -69.9224 101.972L-70.885 102.101C-71.1587 101.478 -71.7543 101.138 -72.5498 101.245C-73.532 101.377 -74.1651 102.172 -73.9883 103.488C-73.8089 104.824 -72.9884 105.424 -72.0062 105.292C-71.2107 105.185 -70.7318 104.731 -70.6264 104.026L-69.6639 103.897C-69.7951 105.005 -70.5689 105.869 -71.9047 106.048C-73.4368 106.254 -74.6722 105.32 -74.9017 103.611ZM-63.4946 102.079C-63.2651 103.788 -64.3477 105.033 -65.8798 105.239C-67.4022 105.443 -68.7063 104.518 -68.9358 102.809C-69.1641 101.11 -68.1097 99.8788 -66.5873 99.6743C-65.0551 99.4685 -63.7229 100.379 -63.4946 102.079ZM-68.0224 102.687C-67.839 104.052 -66.9184 104.578 -65.9854 104.453C-65.0523 104.328 -64.2247 103.566 -64.4081 102.201C-64.5901 100.846 -65.5697 100.328 -66.4929 100.452C-67.4358 100.578 -68.2045 101.331 -68.0224 102.687ZM-58.0182 104.093L-58.4272 101.048C-58.575 99.9479 -59.2493 99.4685 -60.1529 99.5899C-61.0663 99.7126 -61.6183 100.367 -61.4627 101.526L-61.0629 104.502L-61.9567 104.622L-62.6797 99.2394L-61.7859 99.1193L-61.683 99.8854C-61.4046 99.2781 -60.7973 98.8865 -60.0705 98.7889C-58.8231 98.6214 -57.7675 99.2595 -57.5604 100.801L-57.1342 103.974L-58.0182 104.093ZM-55.6757 102.278L-56.1019 99.1057L-56.7992 99.1994L-56.8982 98.4628L-56.2008 98.3691L-56.3829 97.0137L-55.4891 96.8936L-55.3071 98.249L-53.9026 98.0604L-53.8036 98.797L-55.2081 98.9857L-54.782 102.158C-54.7107 102.688 -54.4892 102.849 -53.9392 102.775L-53.2811 102.686L-53.1796 103.443L-53.9849 103.551C-54.9376 103.679 -55.5306 103.358 -55.6757 102.278ZM-51.596 100.25L-51.2029 103.177L-52.0966 103.297L-52.8196 97.9149L-51.9259 97.7948L-51.8084 98.669C-51.5845 98.0289 -51.0551 97.5779 -50.2006 97.4631L-50.0766 98.3863L-50.3123 98.418C-51.1668 98.5328 -51.7636 99.0029 -51.596 100.25ZM-43.6883 99.418C-43.4587 101.127 -44.5413 102.372 -46.0735 102.578C-47.5958 102.783 -48.8999 101.858 -49.1295 100.149C-49.3577 98.4497 -48.3033 97.2182 -46.7809 97.0137C-45.2487 96.8079 -43.9165 97.7188 -43.6883 99.418ZM-48.216 100.026C-48.0327 101.391 -47.1121 101.918 -46.179 101.792C-45.2459 101.667 -44.4183 100.906 -44.6017 99.5407C-44.7837 98.1853 -45.7633 97.6669 -46.6865 97.791C-47.6294 97.9176 -48.3981 98.6708 -48.216 100.026ZM-42.1503 101.961L-43.1266 94.693L-42.2328 94.573L-41.2565 101.841L-42.1503 101.961ZM-36.0638 101.143L-38.4762 95.9881L-37.5628 95.8654L-35.7183 100.217L-34.9895 95.5198L-34.0761 95.3971L-32.1616 99.7494L-31.5519 95.058L-30.668 94.9392L-31.6245 100.547L-32.5477 100.671L-34.4181 96.5729L-35.1406 101.019L-36.0638 101.143ZM-29.0579 100.202L-30.0343 92.9343L-29.1405 92.8143L-28.7829 95.4759C-28.5059 94.8588 -27.8789 94.4646 -27.1226 94.363C-25.9244 94.2021 -24.8688 94.8402 -24.6617 96.3822L-24.2355 99.5546L-25.1195 99.6733L-25.5284 96.6286C-25.6762 95.5286 -26.3505 95.0492 -27.2541 95.1706C-28.1675 95.2933 -28.7196 95.9474 -28.5639 97.1063L-28.1642 100.082L-29.0579 100.202ZM-21.1204 94.3366C-21.9945 94.4541 -22.6435 95.1312 -22.6005 96.1953L-19.2022 95.7388C-19.3336 94.6865 -20.1971 94.2126 -21.1204 94.3366ZM-18.1957 97.0534C-18.3388 98.0725 -19.1002 98.9547 -20.4359 99.1342C-21.9681 99.34 -23.2427 98.4113 -23.4723 96.7023C-23.7005 95.0032 -22.7541 93.7862 -21.1827 93.5751C-19.621 93.3653 -18.4518 94.3281 -18.2539 95.8014C-18.2275 95.9978 -18.2162 96.1563 -18.2108 96.3455L-22.5127 96.9234C-22.2975 98.0044 -21.4509 98.5006 -20.5375 98.3779C-19.7321 98.2697 -19.2768 97.7886 -19.1582 97.1827L-18.1957 97.0534ZM-12.7465 98.0112L-13.1555 94.9665C-13.3032 93.8665 -13.9775 93.3871 -14.8811 93.5085C-15.7946 93.6312 -16.3466 94.2853 -16.1909 95.4443L-15.7912 98.4202L-16.6849 98.5403L-17.4079 93.158L-16.5142 93.038L-16.4113 93.804C-16.1329 93.1967 -15.5256 92.8052 -14.7988 92.7075C-13.5514 92.54 -12.4958 93.1781 -12.2887 94.7201L-11.8625 97.8925L-12.7465 98.0112ZM-8.48082 94.6885C-8.70775 92.9992 -7.76267 91.7724 -6.23049 91.5666C-4.89475 91.3871 -3.92826 91.9572 -3.50153 93.0498L-4.46405 93.1791C-4.73774 92.5559 -5.33335 92.216 -6.1289 92.3228C-7.11107 92.4548 -7.7442 93.2497 -7.5674 94.5658C-7.38797 95.9016 -6.5675 96.5013 -5.58533 96.3693C-4.78978 96.2625 -4.31086 95.8082 -4.20546 95.1041L-3.24294 94.9748C-3.37414 96.0823 -4.14799 96.9462 -5.48374 97.1256C-7.01592 97.3314 -8.25125 96.3975 -8.48082 94.6885ZM-1.31756 93.4963L-0.924398 96.4232L-1.81817 96.5432L-2.54117 91.161L-1.6474 91.0409L-1.52998 91.915C-1.30599 91.275 -0.776646 90.8239 0.0778388 90.7092L0.201858 91.6324L-0.0338624 91.6641C-0.888347 91.7788 -1.48512 92.249 -1.31756 93.4963ZM3.50093 91.0292C2.62681 91.1467 1.97784 91.8238 2.0208 92.8879L5.41909 92.4314C5.28774 91.3792 4.42417 90.9052 3.50093 91.0292ZM6.4256 93.746C6.28253 94.7651 5.52113 95.6473 4.18538 95.8268C2.6532 96.0326 1.37858 95.1039 1.14902 93.395C0.920769 91.6958 1.86716 90.4788 3.43863 90.2677C5.00027 90.0579 6.1695 91.0207 6.3674 92.494C6.39378 92.6904 6.40507 92.8489 6.4105 93.0381L2.10861 93.616C2.32381 94.697 3.17038 95.1932 4.08379 95.0705C4.88917 94.9623 5.34448 94.4812 5.46307 93.8753L6.4256 93.746ZM7.23828 92.567C7.01267 90.8875 7.97739 89.658 9.42117 89.4641C10.423 89.3295 11.1791 89.7479 11.5686 90.2655L11.4367 89.2833L12.3403 89.1619L13.0633 94.5442L12.1597 94.6656L12.0251 93.6638C11.7788 94.2868 11.1501 94.8912 10.1581 95.0244C8.72414 95.2171 7.46257 94.2367 7.23828 92.567ZM11.7968 91.9646C11.6293 90.7173 10.6844 90.0843 9.70219 90.2162C8.72003 90.3482 7.9815 91.1773 8.15169 92.4443C8.32189 93.7113 9.257 94.3456 10.2392 94.2136C11.2213 94.0817 11.967 93.2316 11.7968 91.9646ZM14.5722 92.8417L14.146 89.6693L13.4487 89.7629L13.3497 89.0263L14.0471 88.9326L13.865 87.5773L14.7588 87.4572L14.9408 88.8126L16.3453 88.6239L16.4443 89.3605L15.0398 89.5492L15.4659 92.7216C15.5372 93.252 15.7587 93.4122 16.3087 93.3383L16.9668 93.2499L17.0683 94.0062L16.263 94.1144C15.3103 94.2424 14.7173 93.9221 14.5722 92.8417ZM18.1513 93.8607L17.4283 88.4785L18.322 88.3584L19.045 93.7407L18.1513 93.8607ZM17.7725 87.5423C17.4287 87.5885 17.1279 87.3589 17.0817 87.0152C17.0355 86.6714 17.2651 86.3706 17.6089 86.3244C17.933 86.2809 18.2338 86.5105 18.28 86.8542C18.3261 87.198 18.0966 87.4988 17.7725 87.5423ZM24.5068 93.007L24.0978 89.9623C23.95 88.8622 23.2757 88.3829 22.3721 88.5043C21.4587 88.627 20.9066 89.2811 21.0623 90.44L21.4621 93.416L20.5683 93.536L19.8453 88.1538L20.7391 88.0337L20.842 88.7998C21.1204 88.1925 21.7277 87.8009 22.4545 87.7033C23.7019 87.5357 24.7575 88.1738 24.9646 89.7158L25.3908 92.8882L24.5068 93.007ZM26.1527 90.0262C25.927 88.3467 26.8918 87.1172 28.3355 86.9233C29.3177 86.7913 30.0908 87.1874 30.483 87.7247L30.351 86.7425L31.2546 86.6211L31.9935 92.1213C32.1927 93.6043 31.3419 94.7885 29.7606 95.0009C28.3463 95.1909 27.2383 94.6098 26.9072 93.4844L27.7911 93.3657C28.0746 93.9875 28.7724 94.3438 29.6564 94.225C30.6091 94.097 31.2442 93.3918 31.0899 92.2427L30.9382 91.1132C30.6919 91.7362 30.0645 92.3504 29.0823 92.4823C27.6385 92.6763 26.3769 91.6959 26.1527 90.0262ZM30.7112 89.4238C30.5437 88.1765 29.5987 87.5435 28.6166 87.6754C27.6344 87.8074 26.8959 88.6365 27.0661 89.9035C27.2363 91.1705 28.1714 91.8048 29.1535 91.6729C30.1357 91.5409 30.8814 90.6908 30.7112 89.4238ZM-114.912 125.83L-113.828 121.245L-112.905 121.121L-115.083 129.473L-116.006 129.597L-115.294 126.861L-118.179 121.829L-117.187 121.696L-114.912 125.83ZM-106.539 122.995C-106.31 124.704 -107.392 125.95 -108.924 126.156C-110.447 126.36 -111.751 125.435 -111.98 123.726C-112.209 122.027 -111.154 120.796 -109.632 120.591C-108.1 120.385 -106.767 121.296 -106.539 122.995ZM-111.067 123.604C-110.884 124.969 -109.963 125.495 -109.03 125.37C-108.097 125.245 -107.269 124.483 -107.453 123.118C-107.635 121.763 -108.614 121.244 -109.537 121.368C-110.48 121.495 -111.249 122.248 -111.067 123.604ZM-100.951 119.515L-100.228 124.897L-101.122 125.017L-101.228 124.222C-101.497 124.828 -102.113 125.231 -102.83 125.327C-104.067 125.493 -105.143 124.858 -105.35 123.316L-105.773 120.163L-104.889 120.044L-104.482 123.079C-104.335 124.169 -103.661 124.649 -102.757 124.527C-101.834 124.403 -101.292 123.75 -101.448 122.592L-101.845 119.635L-100.951 119.515ZM-98.2182 121.648L-97.825 124.575L-98.7188 124.695L-99.4418 119.312L-98.548 119.192L-98.4306 120.066C-98.2066 119.426 -97.6772 118.975 -96.8228 118.861L-96.6987 119.784L-96.9345 119.816C-97.7889 119.93 -98.3857 120.4 -98.2182 121.648ZM-88.7632 121.868C-88.6445 122.751 -89.3307 123.524 -90.5191 123.683C-91.7763 123.852 -92.7526 123.283 -92.9434 122.309L-92.0202 122.185C-91.9012 122.699 -91.3868 123.03 -90.6305 122.928C-89.9233 122.833 -89.578 122.427 -89.6373 121.985C-89.7983 120.787 -92.8868 121.911 -93.156 119.908C-93.2668 119.083 -92.5819 118.301 -91.3837 118.14C-90.1953 117.98 -89.3238 118.513 -89.1237 119.556L-90.0175 119.676C-90.1293 119.141 -90.5946 118.804 -91.3116 118.9C-91.9696 118.989 -92.3203 119.356 -92.2622 119.788C-92.0907 121.065 -89.0611 119.948 -88.7632 121.868ZM-83.2546 117.138L-82.5316 122.52L-83.4254 122.64L-83.5322 121.845C-83.8008 122.451 -84.4166 122.853 -85.1336 122.95C-86.3711 123.116 -87.4464 122.481 -87.6535 120.939L-88.077 117.786L-87.1931 117.667L-86.7854 120.702C-86.639 121.792 -85.9646 122.271 -85.061 122.15C-84.1378 122.026 -83.5956 121.373 -83.7512 120.214L-84.1484 117.258L-83.2546 117.138ZM-80.5219 119.271L-80.1287 122.197L-81.0225 122.318L-81.7455 116.935L-80.8517 116.815L-80.7343 117.689C-80.5103 117.049 -79.981 116.598 -79.1265 116.483L-79.0025 117.407L-79.2382 117.438C-80.0927 117.553 -80.6895 118.023 -80.5219 119.271ZM-78.72 116.529L-77.7575 116.4L-75.4658 120.731L-74.4083 115.95L-73.4556 115.822L-74.8442 121.488L-75.8853 121.627L-78.72 116.529ZM-70.1979 116.064C-71.072 116.181 -71.721 116.859 -71.678 117.923L-68.2798 117.466C-68.4111 116.414 -69.2747 115.94 -70.1979 116.064ZM-67.2732 118.781C-67.4163 119.8 -68.1777 120.682 -69.5135 120.862C-71.0456 121.067 -72.3203 120.139 -72.5498 118.43C-72.7781 116.731 -71.8317 115.514 -70.2602 115.302C-68.6986 115.093 -67.5294 116.055 -67.3314 117.529C-67.3051 117.725 -67.2938 117.884 -67.2883 118.073L-71.5902 118.651C-71.375 119.732 -70.5285 120.228 -69.6151 120.105C-68.8097 119.997 -68.3544 119.516 -68.2358 118.91L-67.2732 118.781ZM-63.8568 118.972L-62.7729 114.387L-61.8497 114.263L-64.0274 122.614L-64.9507 122.738L-64.2382 120.003L-67.1239 114.971L-66.1319 114.838L-63.8568 118.972Z" fill="#11002A"/>
<rect x="86.8613" y="2.69727" width="200.405" height="119.493" rx="8.16824" transform="rotate(6.55235 86.8613 2.69727)" fill="white"/>
<rect x="97.8602" y="16.5503" width="35.2255" height="35.2255" rx="17.6128" transform="rotate(6.55235 97.8602 16.5503)" fill="#EFE6FD" fill-opacity="0.6" stroke="url(#paint0_linear_1_16611)" stroke-width="0.510515"/>
<path d="M120.132 28.7624L118.218 45.4268C118.126 46.2274 117.403 46.8014 116.602 46.7094L105.01 45.3779C104.209 45.2859 103.635 44.563 103.727 43.7624L105.641 27.098C105.733 26.2974 106.456 25.7234 107.257 25.8154L118.849 27.1469C119.65 27.2389 120.224 27.9618 120.132 28.7624Z" fill="#290064"/>
<path d="M119.283 29.7631L117.453 45.703C117.43 45.9022 117.248 46.0465 117.049 46.0236L106.181 44.7753C105.981 44.7524 105.837 44.5707 105.86 44.3714L105.902 44.0091L116.407 45.2159C116.607 45.2387 116.788 45.0944 116.811 44.8952L118.6 29.3177L118.963 29.3593C119.162 29.3822 119.306 29.5639 119.283 29.7631Z" fill="#00325A"/>
<path d="M118.641 28.9585L116.81 44.8983C116.788 45.0975 116.606 45.2418 116.407 45.2189L105.539 43.9706C105.339 43.9477 105.195 43.766 105.218 43.5667L107.049 27.6269C107.072 27.4277 107.253 27.2834 107.453 27.3063L118.321 28.5546C118.52 28.5775 118.664 28.7592 118.641 28.9585Z" fill="#F0F0F0"/>
<path d="M109.431 26.0615L110.155 26.1447L109.989 27.5938L109.264 27.5106L109.431 26.0615Z" fill="#00325A"/>
<path d="M117.401 26.9795L118.125 27.0627L117.959 28.5118L117.234 28.4286L117.401 26.9795Z" fill="#00325A"/>
<path d="M117.959 28.5123L117.709 30.6859C117.664 31.0844 117.3 31.373 116.902 31.3273L109.656 30.495C109.258 30.4493 108.969 30.0858 109.015 29.6873L109.265 27.5137L109.989 27.5969L109.864 28.6837C109.841 28.8829 109.986 29.0647 110.185 29.0876L116.706 29.8366C116.905 29.8595 117.087 29.7152 117.11 29.5159L117.235 28.4291L117.959 28.5123Z" fill="#D2D2D2"/>
<path d="M119.144 37.3642L118.792 40.4362L117.176 41.7189L117.529 38.6468L119.144 37.3642Z" fill="#00325A"/>
<path d="M117.528 38.6503L117.175 41.7223L114.578 43.7878C113.164 44.0842 114.315 43.842 112.896 44.1416C112.603 44.2033 112.366 43.9008 112.493 43.629C113.268 41.9636 112.569 43.4727 113.218 42.0753L117.528 38.6503Z" fill="#D2D2D2"/>
<path d="M120.728 38.2419C115.462 42.4189 116.844 41.3221 114.662 43.0546L113.303 41.3422C116.5 38.8035 115.155 39.8723 119.365 36.5255L120.728 38.2419Z" fill="#00DDD0"/>
<path d="M114.661 43.0589L112.98 43.4127C112.687 43.4744 112.449 43.1755 112.576 42.9038C113.142 41.6919 112.982 42.0361 113.302 41.3464L114.661 43.0589Z" fill="#F2C8A0"/>
<path d="M113.863 43.2301L112.981 43.4159C112.687 43.4779 112.449 43.1774 112.575 42.9049L112.956 42.088L113.863 43.2301Z" fill="#00143C"/>
<path d="M121.987 36.3124L121.533 35.7413C121.283 35.4259 120.824 35.3732 120.509 35.6236L119.937 36.077L121.298 37.7906L121.869 37.3372C122.184 37.0864 122.237 36.6278 121.987 36.3124Z" fill="#6200EE"/>
<path d="M113.751 41.9141L119.815 37.0998L120.269 37.6708L114.205 42.4851L113.751 41.9141Z" fill="#00325A"/>
<path d="M119.936 36.0771L121.296 37.7907L120.725 38.2441L119.364 36.5306L119.936 36.0771Z" fill="#F2C8A0"/>
<path d="M117.122 26.2124C116.922 26.1894 116.741 26.3331 116.718 26.5331L116.469 28.7067C116.446 28.9067 116.265 29.0503 116.065 29.0273L109.544 28.2784C109.344 28.2554 109.2 28.0744 109.223 27.8745L109.473 25.7009C109.496 25.5009 109.352 25.32 109.152 25.297C108.952 25.274 108.771 25.4177 108.748 25.6176L108.374 28.8781C108.328 29.2784 108.615 29.6398 109.015 29.6858L116.261 30.518C116.661 30.564 117.022 30.277 117.068 29.8767L117.443 26.6163C117.466 26.4163 117.322 26.2354 117.122 26.2124Z" fill="#00DDD0"/>
<path d="M109.573 31.2143L108.848 31.1311C108.448 31.0851 108.086 31.3721 108.04 31.7724L107.957 32.4969C107.911 32.8972 108.198 33.2587 108.598 33.3047L109.323 33.3879C109.723 33.4339 110.085 33.1469 110.131 32.7466L110.214 32.0221C110.26 31.6217 109.973 31.2603 109.573 31.2143ZM109.768 32.705C109.745 32.905 109.565 33.0486 109.365 33.0256L108.64 32.9424C108.44 32.9194 108.296 32.7385 108.319 32.5385L108.403 31.814C108.426 31.614 108.606 31.4704 108.806 31.4933L109.531 31.5766C109.731 31.5995 109.875 31.7805 109.852 31.9804L109.768 32.705Z" fill="#6200EE"/>
<path d="M109.262 32.7803L108.781 32.1745C108.719 32.0957 108.732 31.9809 108.811 31.9184C108.889 31.8558 109.004 31.869 109.067 31.9478L109.435 32.4107L110.907 31.2415C110.986 31.179 111.101 31.1922 111.163 31.271C111.226 31.3497 111.213 31.4646 111.134 31.5271L109.518 32.8097C109.439 32.8722 109.325 32.8591 109.262 32.7803Z" fill="#00143C"/>
<path d="M115.245 32.9725L111.622 32.5564C111.522 32.5449 111.45 32.4545 111.462 32.3545C111.473 32.2545 111.564 32.1827 111.664 32.1941L115.286 32.6103C115.386 32.6217 115.458 32.7122 115.447 32.8122C115.435 32.9122 115.345 32.984 115.245 32.9725Z" fill="#6200EE"/>
<path d="M115.886 33.7804L111.538 33.281C111.438 33.2695 111.367 33.1791 111.378 33.0791C111.39 32.9791 111.48 32.9073 111.58 32.9188L115.927 33.4181C116.027 33.4296 116.099 33.52 116.088 33.62C116.076 33.72 115.986 33.7918 115.886 33.7804Z" fill="#6200EE"/>
<path d="M109.157 34.8373L108.433 34.7541C108.032 34.7081 107.671 34.9951 107.625 35.3954L107.542 36.12C107.496 36.5203 107.783 36.8818 108.183 36.9277L108.907 37.011C109.308 37.0569 109.669 36.7699 109.715 36.3696L109.798 35.6451C109.844 35.2448 109.557 34.8833 109.157 34.8373ZM109.353 36.328C109.33 36.528 109.149 36.6717 108.949 36.6487L108.224 36.5655C108.025 36.5425 107.881 36.3616 107.904 36.1616L107.987 35.437C108.01 35.2371 108.191 35.0934 108.391 35.1164L109.115 35.1996C109.315 35.2226 109.459 35.4035 109.436 35.6035L109.353 36.328Z" fill="#6200EE"/>
<path d="M108.847 36.4063L108.366 35.8005C108.303 35.7217 108.316 35.6069 108.395 35.5443C108.474 35.4818 108.589 35.495 108.651 35.5737L109.019 36.0366L110.492 34.8675C110.57 34.805 110.685 34.8182 110.748 34.8969C110.81 34.9757 110.797 35.0905 110.718 35.1531L109.103 36.4357C109.024 36.4982 108.909 36.4851 108.847 36.4063Z" fill="#00143C"/>
<path d="M114.829 36.5931L111.206 36.177C111.106 36.1655 111.034 36.0751 111.046 35.9751C111.057 35.8751 111.148 35.8033 111.248 35.8148L114.87 36.2309C114.97 36.2423 115.042 36.3328 115.031 36.4328C115.019 36.5328 114.929 36.6046 114.829 36.5931Z" fill="#6200EE"/>
<path d="M115.47 37.4014L111.123 36.9021C111.023 36.8906 110.951 36.8002 110.963 36.7002C110.974 36.6002 111.065 36.5284 111.165 36.5398L115.512 37.0392C115.612 37.0507 115.684 37.1411 115.672 37.2411C115.661 37.3411 115.57 37.4129 115.47 37.4014Z" fill="#6200EE"/>
<path d="M108.741 38.4658L108.017 38.3825C107.616 38.3366 107.255 38.6235 107.209 39.0239L107.126 39.7484C107.08 40.1487 107.367 40.5102 107.767 40.5561L108.491 40.6394C108.892 40.6853 109.253 40.3984 109.299 39.9981L109.382 39.2735C109.428 38.8732 109.141 38.5117 108.741 38.4658ZM108.937 39.9564C108.914 40.1564 108.733 40.3001 108.533 40.2771L107.808 40.1939C107.609 40.1709 107.465 39.99 107.488 39.79L107.571 39.0655C107.594 38.8655 107.775 38.7218 107.975 38.7448L108.699 38.828C108.899 38.851 109.043 39.0319 109.02 39.2319L108.937 39.9564Z" fill="#6200EE"/>
<path d="M108.432 40.0249L107.951 39.4191C107.889 39.3403 107.902 39.2255 107.98 39.163C108.059 39.1005 108.174 39.1136 108.237 39.1924L108.604 39.6553L110.077 38.4862C110.156 38.4236 110.271 38.4368 110.333 38.5156C110.396 38.5943 110.382 38.7092 110.304 38.7717L108.688 40.0543C108.609 40.1169 108.495 40.1037 108.432 40.0249Z" fill="#00143C"/>
<path d="M113.506 40.1107L110.789 39.7986C110.689 39.7871 110.617 39.6966 110.629 39.5967C110.64 39.4967 110.731 39.4248 110.831 39.4363L113.548 39.7484C113.648 39.7599 113.719 39.8504 113.708 39.9504C113.696 40.0503 113.606 40.1222 113.506 40.1107Z" fill="#6200EE"/>
<path d="M112.699 40.757L110.706 40.5281C110.606 40.5166 110.535 40.4261 110.546 40.3262C110.558 40.2262 110.648 40.1543 110.748 40.1658L112.741 40.3947C112.84 40.4062 112.912 40.4966 112.901 40.5966C112.889 40.6966 112.799 40.7684 112.699 40.757Z" fill="#6200EE"/>
<path d="M92.2639 69.822L92.8325 64.8715L94.4405 65.0562L93.8706 70.0182C93.7439 71.1208 94.2752 71.7637 95.2975 71.8811C96.3312 71.9999 96.9945 71.4942 97.1211 70.3915L97.6911 65.4296L99.3106 65.6156L98.742 70.5661C98.4992 72.6795 96.8643 73.5391 95.107 73.3372C93.3496 73.1354 92.0211 71.9354 92.2639 69.822ZM105.091 72.5638C104.965 73.6549 103.917 74.3724 102.367 74.1943C100.77 74.011 99.7627 72.9526 99.8297 71.7616L101.449 71.9477C101.451 72.4367 101.857 72.8557 102.5 72.9296C103.132 73.0021 103.509 72.7545 103.552 72.387C103.682 71.2499 100.004 71.5606 100.272 69.2289C100.393 68.1722 101.433 67.4304 103.006 67.6111C104.545 67.7879 105.38 68.7333 105.326 70.0073L103.787 69.8305C103.798 69.3313 103.446 68.9534 102.814 68.8808C102.217 68.8122 101.879 69.0178 101.837 69.3853C101.703 70.5454 105.313 70.2268 105.091 72.5638ZM109.527 69.6984C108.758 69.6101 108.092 70.034 107.865 70.8925L110.886 71.2394C110.96 70.3983 110.354 69.7934 109.527 69.6984ZM112.186 73.1926C111.707 74.3246 110.544 75.1336 108.97 74.9528C107.121 74.7404 105.925 73.2996 106.154 71.3011C106.385 69.291 107.841 68.1665 109.725 68.3828C111.562 68.5939 112.717 69.995 112.499 71.8902C112.475 72.0969 112.44 72.3023 112.382 72.5051L107.73 71.9708C107.702 72.9219 108.285 73.5241 109.089 73.6165C109.778 73.6957 110.196 73.3946 110.452 72.9934L112.186 73.1926ZM115.983 72.4067C116.211 70.4196 117.644 69.2924 119.264 69.4785C120.286 69.5959 120.931 70.1588 121.249 70.7307L121.354 69.8233L122.973 70.0093L122.242 76.3725L120.623 76.1865L120.73 75.2562C120.287 75.7639 119.508 76.1632 118.497 76.0471C116.889 75.8624 115.755 74.3938 115.983 72.4067ZM120.988 73.0049C121.127 71.7989 120.399 71.0403 119.515 70.9387C118.653 70.8398 117.764 71.3893 117.625 72.5954C117.487 73.8014 118.223 74.5842 119.085 74.6832C119.969 74.7848 120.85 74.2109 120.988 73.0049ZM126.896 70.0992L127.046 68.8012L132.926 69.4767L132.777 70.7746L130.641 70.5293L129.869 77.2486L128.261 77.0639L129.033 70.3446L126.896 70.0992ZM136.503 72.797C135.734 72.7086 135.068 73.1326 134.842 73.991L137.863 74.338C137.936 73.4969 137.33 72.892 136.503 72.797ZM139.163 76.2911C138.684 77.4231 137.52 78.2321 135.947 78.0514C134.097 77.839 132.901 76.3982 133.131 74.3996C133.362 72.3896 134.817 71.265 136.701 71.4814C138.539 71.6925 139.693 73.0935 139.475 74.9887C139.452 75.1955 139.416 75.4009 139.358 75.6037L134.706 75.0694C134.679 76.0204 135.261 76.6227 136.065 76.715C136.754 76.7942 137.173 76.4932 137.428 76.0919L139.163 76.2911ZM149.169 79.4654L149.573 75.9507C149.689 74.9399 149.187 74.3469 148.337 74.2493C147.476 74.1504 146.852 74.6141 146.736 75.6249L146.332 79.1396L144.724 78.9549L145.128 75.4401C145.244 74.4294 144.742 73.8364 143.892 73.7388C143.019 73.6385 142.396 74.1022 142.28 75.113L141.876 78.6277L140.268 78.443L140.999 72.0797L142.607 72.2644L142.518 73.034C142.981 72.5518 143.697 72.2966 144.49 72.3876C145.477 72.501 146.244 73.0197 146.589 73.8624C147.086 73.1862 147.981 72.7887 148.912 72.8955C150.439 73.071 151.408 74.1598 151.206 75.9172L150.777 79.6501L149.169 79.4654ZM154.537 74.5657C154.978 74.0694 155.768 73.6715 156.756 73.7849C158.387 73.9723 159.516 75.3936 159.287 77.3807C159.059 79.3678 157.633 80.5423 156.002 80.3549C155.002 80.2401 154.347 79.6644 154.016 79.1027L153.563 83.0424L151.955 82.8577L153.034 73.4622L154.642 73.6469L154.537 74.5657ZM157.645 77.1921C157.783 75.986 157.042 75.2491 156.169 75.1489C155.307 75.0499 154.415 75.6225 154.277 76.8285C154.138 78.0345 154.877 78.7944 155.739 78.8933C156.612 78.9936 157.506 78.3981 157.645 77.1921ZM160.088 80.7195L161.064 72.2199L162.672 72.4046L161.696 80.9042L160.088 80.7195ZM163.239 77.8346C163.468 75.8476 164.9 74.7204 166.52 74.9064C167.542 75.0238 168.187 75.5867 168.506 76.1586L168.61 75.2512L170.23 75.4372L169.499 81.8005L167.879 81.6144L167.986 80.6841C167.544 81.1919 166.765 81.5912 165.754 81.4751C164.146 81.2904 163.011 79.8217 163.239 77.8346ZM168.245 78.4328C168.383 77.2268 167.656 76.4683 166.771 76.3667C165.91 76.2677 165.02 76.8173 164.882 78.0233C164.743 79.2293 165.48 80.0122 166.341 80.1111C167.225 80.2127 168.106 79.6389 168.245 78.4328ZM171.549 80.0343L171.901 76.9675L171.143 76.8805L171.295 75.5596L172.053 75.6466L172.233 74.0731L173.853 74.2591L173.672 75.8327L175.097 75.9962L174.945 77.3171L173.521 77.1535L173.167 80.2318C173.118 80.6568 173.269 80.8603 173.775 80.9184L174.521 81.0041L174.366 82.3595L173.355 82.2434C172.137 82.1036 171.381 81.493 171.549 80.0343ZM178.847 77.6606C178.077 77.5722 177.412 77.9962 177.185 78.8546L180.206 79.2016C180.279 78.3605 179.674 77.7556 178.847 77.6606ZM181.506 81.1547C181.027 82.2867 179.864 83.0957 178.29 82.915C176.441 82.7026 175.245 81.2618 175.474 79.2632C175.705 77.2532 177.161 76.1286 179.045 76.345C180.882 76.5561 182.036 77.9571 181.819 79.8523C181.795 80.0591 181.76 80.2645 181.702 80.4673L177.05 79.933C177.022 80.8841 177.605 81.4863 178.409 81.5787C179.098 81.6578 179.516 81.3568 179.772 80.9555L181.506 81.1547Z" fill="#11002A"/>
<path d="M94.1135 92.3511L94.4709 89.24L90.9758 88.8386L90.6185 91.9497L89.7226 91.8468L90.5108 84.9847L91.4067 85.0876L91.0606 88.1002L94.5557 88.5017L94.9017 85.489L95.7976 85.5919L95.0094 92.454L94.1135 92.3511ZM96.507 89.8729C96.7003 88.1894 97.9372 87.2342 99.3845 87.4004C100.389 87.5158 101.019 88.1069 101.27 88.7043L101.383 87.7197L102.288 87.8238L101.669 93.2189L100.763 93.1149L100.878 92.1107C100.487 92.6542 99.7289 93.0859 98.7346 92.9717C97.2972 92.8066 96.3147 91.5466 96.507 89.8729ZM101.074 90.4075C101.218 89.1571 100.457 88.3116 99.4723 88.1986C98.4878 88.0855 97.5684 88.7081 97.4226 89.9781C97.2767 91.2481 98.0276 92.0925 99.0121 92.2055C99.9966 92.3186 100.928 91.6775 101.074 90.4075ZM103.163 87.9242L104.127 88.035L105.286 92.7965L107.485 88.4206L108.44 88.5303L105.703 93.6823L104.66 93.5624L103.163 87.9242ZM111.538 89.5645C110.662 89.4639 109.867 89.961 109.647 91.0032L113.054 91.3944C113.184 90.3421 112.464 89.6708 111.538 89.5645ZM113.707 92.9158C113.318 93.8687 112.363 94.5371 111.025 94.3833C109.489 94.2069 108.481 92.9939 108.678 91.2808C108.873 89.5776 110.089 88.63 111.665 88.811C113.23 88.9908 114.127 90.211 113.958 91.6878C113.935 91.8847 113.907 92.0411 113.866 92.2259L109.554 91.7306C109.497 92.8313 110.196 93.5201 111.112 93.6252C111.919 93.718 112.478 93.3633 112.742 92.805L113.707 92.9158ZM117.599 95.0486L118.134 90.3919L117.435 90.3116L117.519 89.5732L118.218 89.6535L118.262 89.2695C118.4 88.0684 119.053 87.5948 120.432 87.7531L120.346 88.5013C119.538 88.4086 119.239 88.6734 119.158 89.3724L119.114 89.7564L120.246 89.8865L120.162 90.6248L119.029 90.4948L118.495 95.1516L117.599 95.0486ZM126.076 90.556L125.456 95.9512L124.56 95.8483L124.652 95.0508C124.243 95.5724 123.547 95.8117 122.828 95.7291C121.588 95.5866 120.701 94.7068 120.879 93.1611L121.242 90.0008L122.128 90.1026L121.778 93.1447C121.653 94.2375 122.189 94.8677 123.095 94.9717C124.02 95.078 124.706 94.5782 124.84 93.4165L125.18 90.4531L126.076 90.556ZM126.969 96.1249L127.806 88.8395L128.702 88.9424L127.865 96.2278L126.969 96.1249ZM129.392 96.4032L130.228 89.1178L131.124 89.2207L130.288 96.5061L129.392 96.4032ZM134.415 94.2371C134.61 92.5437 135.827 91.5863 137.363 91.7627C138.702 91.9165 139.499 92.7063 139.645 93.8702L138.68 93.7593C138.567 93.0881 138.073 92.6124 137.276 92.5208C136.291 92.4077 135.483 93.023 135.331 94.3423C135.177 95.6812 135.825 96.4639 136.81 96.577C137.607 96.6686 138.183 96.3457 138.458 95.689L139.423 95.7998C139.024 96.8413 138.062 97.4888 136.723 97.3351C135.187 97.1586 134.219 95.9502 134.415 94.2371ZM145.85 95.5505C145.653 97.2635 144.298 98.2051 142.762 98.0287C141.236 97.8535 140.199 96.637 140.396 94.924C140.591 93.2208 141.916 92.2856 143.442 92.4609C144.977 92.6373 146.045 93.8473 145.85 95.5505ZM141.311 95.0292C141.154 96.3976 141.917 97.1337 142.853 97.2411C143.788 97.3485 144.777 96.8138 144.934 95.4453C145.09 94.0867 144.268 93.3438 143.342 93.2375C142.397 93.129 141.467 93.6705 141.311 95.0292ZM150.665 98.8466L151.015 95.7947C151.142 94.692 150.606 94.0618 149.7 93.9578C148.784 93.8526 148.089 94.3513 147.955 95.513L147.613 98.4961L146.717 98.3932L147.336 92.998L148.232 93.1009L148.144 93.8689C148.563 93.3484 149.248 93.1178 149.976 93.2015C151.227 93.3451 152.094 94.2227 151.916 95.7684L151.551 98.9484L150.665 98.8466ZM153.381 97.6624L153.746 94.4824L153.047 94.4021L153.132 93.6637L153.831 93.744L153.987 92.3854L154.883 92.4883L154.727 93.8469L156.135 94.0086L156.05 94.747L154.642 94.5853L154.277 97.7653C154.216 98.2969 154.391 98.5066 154.942 98.5699L155.602 98.6457L155.515 99.4037L154.708 99.311C153.753 99.2013 153.256 98.7453 153.381 97.6624ZM157.833 96.6975L157.496 99.6313L156.6 99.5284L157.22 94.1333L158.116 94.2362L158.015 95.1124C158.39 94.5469 159.013 94.2395 159.87 94.3379L159.764 95.2633L159.527 95.2362C158.671 95.1378 157.977 95.4471 157.833 96.6975ZM165.704 97.8309C165.507 99.5439 164.152 100.486 162.616 100.309C161.09 100.134 160.053 98.9175 160.249 97.2044C160.445 95.5012 161.769 94.566 163.295 94.7413C164.831 94.9177 165.899 96.1277 165.704 97.8309ZM161.165 97.3096C161.008 98.6781 161.771 99.4141 162.706 99.5215C163.642 99.629 164.631 99.0942 164.788 97.7257C164.944 96.3671 164.122 95.6243 163.196 95.518C162.251 95.4094 161.321 95.951 161.165 97.3096ZM166.571 100.674L167.407 93.3882L168.303 93.4911L167.466 100.777L166.571 100.674ZM172.672 101.374L171.598 95.7847L172.513 95.8899L173.234 100.561L175.093 96.1862L176.008 96.2913L176.797 100.98L178.539 96.582L179.425 96.6837L177.122 101.886L176.196 101.779L175.388 97.3473L173.597 101.481L172.672 101.374ZM179.694 102.181L180.531 94.8956L181.427 94.9985L181.12 97.6665C181.54 97.1362 182.245 96.9079 183.003 96.995C184.204 97.133 185.071 98.0106 184.893 99.5563L184.528 102.736L183.642 102.634L183.993 99.5825C184.119 98.4798 183.583 97.8497 182.677 97.7456C181.762 97.6405 181.066 98.1391 180.933 99.3008L180.59 102.284L179.694 102.181ZM188.828 98.4422C187.952 98.3415 187.157 98.8387 186.937 99.8808L190.344 100.272C190.475 99.2198 189.754 98.5484 188.828 98.4422ZM190.997 101.793C190.608 102.746 189.654 103.415 188.315 103.261C186.779 103.085 185.771 101.872 185.968 100.158C186.163 98.4553 187.38 97.5077 188.955 97.6886C190.52 97.8684 191.417 99.0887 191.248 100.565C191.225 100.762 191.197 100.919 191.156 101.104L186.844 100.608C186.787 101.709 187.486 102.398 188.402 102.503C189.209 102.596 189.769 102.241 190.032 101.683L190.997 101.793ZM196.045 104.059L196.395 101.007C196.522 99.9044 195.986 99.2742 195.08 99.1702C194.164 99.065 193.469 99.5637 193.335 100.725L192.993 103.708L192.097 103.606L192.716 98.2104L193.612 98.3133L193.524 99.0813C193.943 98.5608 194.628 98.3302 195.356 98.4139C196.607 98.5575 197.474 99.4351 197.296 100.981L196.931 104.161L196.045 104.059ZM200.995 101.885C201.19 100.191 202.407 99.2337 203.943 99.4101C205.282 99.5639 206.079 100.354 206.224 101.518L205.26 101.407C205.147 100.735 204.653 100.26 203.856 100.168C202.871 100.055 202.062 100.67 201.911 101.99C201.757 103.329 202.405 104.111 203.39 104.224C204.187 104.316 204.763 103.993 205.038 103.336L206.003 103.447C205.604 104.489 204.642 105.136 203.303 104.982C201.767 104.806 200.798 103.598 200.995 101.885ZM208.232 102.486L207.895 105.42L206.999 105.317L207.619 99.9221L208.515 100.025L208.414 100.901C208.788 100.336 209.412 100.028 210.269 100.127L210.162 101.052L209.926 101.025C209.069 100.927 208.376 101.236 208.232 102.486ZM213.509 101.277C212.632 101.176 211.837 101.673 211.618 102.716L215.024 103.107C215.155 102.055 214.434 101.383 213.509 101.277ZM215.677 104.628C215.288 105.581 214.334 106.25 212.995 106.096C211.459 105.919 210.451 104.706 210.648 102.993C210.844 101.29 212.06 100.342 213.635 100.523C215.2 100.703 216.098 101.923 215.928 103.4C215.905 103.597 215.877 103.754 215.836 103.938L211.524 103.443C211.467 104.544 212.166 105.233 213.082 105.338C213.889 105.43 214.449 105.076 214.712 104.517L215.677 104.628ZM216.754 103.685C216.948 102.001 218.185 101.046 219.632 101.212C220.636 101.328 221.266 101.919 221.517 102.516L221.63 101.531L222.536 101.636L221.916 107.031L221.01 106.927L221.126 105.922C220.734 106.466 219.976 106.898 218.982 106.783C217.545 106.618 216.562 105.358 216.754 103.685ZM221.321 104.219C221.465 102.969 220.704 102.123 219.72 102.01C218.735 101.897 217.816 102.52 217.67 103.79C217.524 105.06 218.275 105.904 219.259 106.017C220.244 106.13 221.175 105.489 221.321 104.219ZM223.797 105.75L224.162 102.57L223.463 102.49L223.548 101.752L224.247 101.832L224.403 100.473L225.299 100.576L225.143 101.935L226.55 102.097L226.466 102.835L225.058 102.673L224.693 105.853C224.631 106.385 224.807 106.595 225.358 106.658L226.018 106.734L225.931 107.492L225.123 107.399C224.168 107.289 223.672 106.833 223.797 105.75ZM227.016 107.616L227.636 102.221L228.532 102.324L227.912 107.719L227.016 107.616ZM228.199 101.398C227.855 101.359 227.619 101.062 227.659 100.718C227.699 100.373 227.995 100.138 228.34 100.177C228.664 100.215 228.9 100.511 228.86 100.856C228.821 101.2 228.524 101.436 228.199 101.398ZM233.387 108.348L233.738 105.296C233.864 104.194 233.328 103.563 232.422 103.459C231.507 103.354 230.811 103.853 230.678 105.015L230.335 107.998L229.439 107.895L230.059 102.5L230.955 102.603L230.867 103.37C231.285 102.85 231.97 102.619 232.699 102.703C233.949 102.847 234.816 103.724 234.638 105.27L234.273 108.45L233.387 108.348ZM235.714 105.862C235.907 104.179 237.144 103.224 238.591 103.39C239.576 103.503 240.228 104.077 240.477 104.694L240.59 103.709L241.495 103.813L240.862 109.327C240.691 110.813 239.576 111.752 237.991 111.57C236.573 111.407 235.642 110.572 235.597 109.4L236.483 109.502C236.605 110.174 237.194 110.691 238.08 110.793C239.035 110.902 239.824 110.374 239.956 109.223L240.086 108.09C239.695 108.634 238.936 109.075 237.951 108.962C236.504 108.796 235.522 107.536 235.714 105.862ZM240.281 106.397C240.425 105.147 239.664 104.301 238.679 104.188C237.695 104.075 236.775 104.698 236.63 105.968C236.484 107.238 237.235 108.082 238.219 108.195C239.204 108.308 240.135 107.667 240.281 106.397ZM90.1763 105.96L92.3521 101.781L93.2775 101.887L89.1172 109.449L88.1917 109.343L89.5535 106.866L87.9907 101.28L88.985 101.394L90.1763 105.96ZM98.9889 105.267C98.7921 106.98 97.4371 107.921 95.9012 107.745C94.3752 107.57 93.3379 106.353 93.5347 104.64C93.7303 102.937 95.0547 102.002 96.5807 102.177C98.1165 102.353 99.1845 103.563 98.9889 105.267ZM94.4503 104.745C94.2931 106.114 95.0564 106.85 95.9917 106.957C96.927 107.065 97.9161 106.53 98.0733 105.161C98.2293 103.803 97.4069 103.06 96.4815 102.954C95.5364 102.845 94.6063 103.387 94.4503 104.745ZM105.26 103.264L104.641 108.659L103.745 108.556L103.836 107.759C103.427 108.28 102.731 108.519 102.013 108.437C100.772 108.294 99.8858 107.414 100.063 105.869L100.426 102.709L101.312 102.81L100.963 105.852C100.837 106.945 101.374 107.575 102.279 107.679C103.205 107.786 103.891 107.286 104.024 106.124L104.364 103.161L105.26 103.264ZM107.386 106.002L107.049 108.936L106.153 108.833L106.773 103.437L107.669 103.54L107.568 104.417C107.942 103.851 108.566 103.544 109.423 103.642L109.317 104.568L109.08 104.54C108.224 104.442 107.53 104.751 107.386 106.002ZM116.498 108.535C116.396 109.421 115.542 110.001 114.351 109.864C113.09 109.719 112.283 108.928 112.337 107.937L113.263 108.043C113.252 108.571 113.67 109.018 114.428 109.105C115.137 109.186 115.571 108.877 115.622 108.434C115.76 107.233 112.49 107.565 112.721 105.557C112.816 104.73 113.671 104.14 114.872 104.278C116.064 104.415 116.778 105.145 116.716 106.205L115.82 106.103C115.843 105.557 115.475 105.115 114.756 105.033C114.096 104.957 113.666 105.227 113.616 105.66C113.469 106.94 116.68 106.6 116.498 108.535ZM122.999 105.301L122.379 110.696L121.483 110.593L121.575 109.796C121.166 110.318 120.47 110.557 119.751 110.474C118.511 110.332 117.624 109.452 117.802 107.906L118.165 104.746L119.051 104.848L118.702 107.89C118.576 108.983 119.112 109.613 120.018 109.717C120.943 109.823 121.629 109.323 121.763 108.162L122.103 105.198L122.999 105.301ZM125.125 108.039L124.788 110.973L123.892 110.87L124.512 105.475L125.407 105.578L125.307 106.454C125.681 105.889 126.305 105.581 127.161 105.68L127.055 106.605L126.819 106.578C125.962 106.48 125.268 106.789 125.125 108.039ZM127.544 105.823L128.509 105.934L129.668 110.696L131.866 106.32L132.821 106.429L130.085 111.581L129.041 111.462L127.544 105.823ZM135.92 107.464C135.044 107.363 134.248 107.86 134.029 108.902L137.435 109.294C137.566 108.241 136.845 107.57 135.92 107.464ZM138.089 110.815C137.7 111.768 136.745 112.436 135.406 112.282C133.871 112.106 132.863 110.893 133.059 109.18C133.255 107.477 134.471 106.529 136.046 106.71C137.612 106.89 138.509 108.11 138.339 109.587C138.317 109.784 138.289 109.94 138.248 110.125L133.936 109.63C133.879 110.73 134.578 111.419 135.493 111.524C136.301 111.617 136.86 111.262 137.124 110.704L138.089 110.815ZM141.354 111.838L143.53 107.659L144.455 107.766L140.295 115.328L139.369 115.221L140.731 112.744L139.168 107.158L140.163 107.273L141.354 111.838Z" fill="#11002A"/>
<rect x="295.754" y="25.9336" width="182.237" height="119.493" rx="8.16824" transform="rotate(-8.10464 295.754 25.9336)" fill="white"/>
<rect x="309.901" y="36.5531" width="35.2255" height="35.2255" rx="17.6128" transform="rotate(-8.10464 309.901 36.5531)" fill="#EFE6FD" fill-opacity="0.6" stroke="url(#paint1_linear_1_16611)" stroke-width="0.510515"/>
<g clip-path="url(#clip1_1_16611)">
<path d="M326.046 54.9987L338.819 53.1797C338.746 52.6636 338.643 52.1584 338.468 51.6853C337.516 49.1113 335.562 47.0546 332.922 46.2179C331.997 45.9253 331.029 45.7924 330.059 45.8251L328.221 46.0867C324.573 47.0141 321.98 50.2275 321.788 53.935L326.046 54.9987Z" fill="#D2DCFD"/>
<path d="M319.619 46.3348C319.992 45.8373 320.7 45.7366 321.197 46.1101C321.696 46.4834 321.796 47.191 321.422 47.6886C321.049 48.1872 320.341 48.2879 319.844 47.9133C319.347 47.5398 319.246 46.8323 319.619 46.3348ZM338.39 43.6618C337.891 43.2884 337.185 43.389 336.811 43.8866C336.438 44.3841 336.538 45.0917 337.036 45.4652C337.534 45.8396 338.24 45.7391 338.615 45.2403C338.988 44.7428 338.887 44.0353 338.39 43.6618Z" fill="#6200EE"/>
<path d="M328.475 45.0793L329.534 44.9285C329.748 44.8979 329.948 45.0477 329.979 45.2627L330.175 46.6442C330.206 46.858 330.056 47.0575 329.841 47.0881L328.782 47.2389C328.569 47.2693 328.368 47.1197 328.338 46.9059L328.141 45.5244C328.11 45.3094 328.261 45.1097 328.475 45.0793Z" fill="#007A72"/>
<path d="M326.998 52.9961L333.165 52.1178L333.425 53.946L327.258 54.8243L326.998 52.9961Z" fill="white"/>
<path d="M329.053 52.7051L331.109 52.4123L331.369 54.2405L329.314 54.5333L329.053 52.7051Z" fill="#D2DCFD"/>
<path d="M326.902 50.9025C327.427 50.8278 327.792 50.3394 327.718 49.8155C327.643 49.2915 327.156 48.9246 326.631 48.9993C326.107 49.0739 325.741 49.5624 325.815 50.0864C325.89 50.6103 326.378 50.9771 326.902 50.9025ZM332.718 50.0743C333.242 49.9997 333.608 49.5112 333.534 48.9872C333.459 48.4633 332.971 48.0965 332.447 48.1711C331.923 48.2457 331.557 48.7342 331.631 49.2582C331.706 49.7821 332.194 50.1489 332.718 50.0743Z" fill="#6200EE"/>
<path opacity="0.45" d="M324.837 51.69L322.091 52.081C321.922 52.6856 321.821 53.3071 321.788 53.9341L326.046 54.9977L327.665 54.7672L327.512 53.6989C327.329 52.411 326.125 51.5066 324.837 51.69Z" fill="#93B2F4"/>
<path d="M323.493 49.2441L321.422 47.6886M321.422 47.6886C321.796 47.191 321.696 46.4834 321.197 46.1101C320.7 45.7366 319.992 45.8373 319.619 46.3348C319.246 46.8323 319.347 47.5398 319.844 47.9133C320.341 48.2879 321.049 48.1872 321.422 47.6886ZM335.482 47.5368L337.036 45.4652M337.036 45.4652C336.538 45.0917 336.438 44.3841 336.811 43.8866C337.185 43.389 337.891 43.2884 338.39 43.6618C338.887 44.0353 338.988 44.7428 338.615 45.2403C338.24 45.7391 337.534 45.8396 337.036 45.4652ZM333.425 53.9475L333.165 52.1193L326.997 52.9975L327.258 54.8258M326.902 50.9003C327.427 50.8255 327.792 50.3372 327.718 49.8132C327.643 49.2893 327.156 48.9223 326.631 48.9971C326.107 49.0717 325.741 49.5602 325.815 50.0841C325.89 50.6081 326.378 50.9749 326.902 50.9003ZM332.718 50.0721C333.242 49.9975 333.608 49.509 333.534 48.985C333.459 48.461 332.971 48.0943 332.447 48.1689C331.923 48.2434 331.557 48.732 331.631 49.2559C331.706 49.7799 332.194 50.1467 332.718 50.0721Z" stroke="#290064" stroke-width="0.800808" stroke-miterlimit="10" stroke-linecap="round" stroke-linejoin="round"/>
<path d="M328.221 46.0867C324.573 47.0141 321.98 50.2275 321.788 53.935M326.046 54.9987L338.819 53.1797C338.746 52.6636 338.643 52.1585 338.468 51.6853C337.516 49.1113 335.562 47.0546 332.922 46.2179C331.997 45.9253 331.029 45.7924 330.059 45.8251" stroke="#290064" stroke-width="0.800808" stroke-miterlimit="10" stroke-linecap="round" stroke-linejoin="round"/>
<path d="M333.907 56.1923L330.17 56.7244L329.153 58.3964L327.238 56.1424L326.029 58.8413L324.586 57.5196L323.084 57.7335" stroke="#007A72" stroke-width="0.800808" stroke-miterlimit="10" stroke-linecap="round" stroke-linejoin="round"/>
</g>
<path d="M320.957 83.9427C322.743 83.6885 324.291 84.3906 325.034 85.9197L323.191 86.1821C322.729 85.5589 322.014 85.2987 321.167 85.4193C319.737 85.623 318.886 86.7835 319.112 88.3745C319.344 89.9999 320.495 90.8637 321.983 90.6518C323.219 90.4757 323.907 89.6536 323.986 88.4862L321.239 88.8774L321.065 87.6527L325.392 87.0366L325.59 88.433C325.501 90.104 324.26 91.799 322.131 92.1021C319.807 92.433 317.805 91.0015 317.464 88.6092C317.123 86.217 318.645 84.272 320.957 83.9427ZM329.203 85.7931C328.437 85.9023 327.9 86.4808 327.898 87.3687L330.908 86.94C330.766 86.1077 330.028 85.6757 329.203 85.7931ZM332.66 88.5006C332.483 89.717 331.562 90.7941 329.994 91.0174C328.151 91.2798 326.63 90.1885 326.346 88.1969C326.061 86.1939 327.185 84.7375 329.062 84.4702C330.893 84.2094 332.364 85.2729 332.633 87.1615C332.663 87.3675 332.68 87.5752 332.675 87.7861L328.04 88.4462C328.254 89.3734 328.97 89.8086 329.771 89.6945C330.458 89.5967 330.786 89.1996 330.932 88.7467L332.66 88.5006ZM338.715 89.6704L338.216 86.1679C338.071 85.1492 337.432 84.6797 336.585 84.8003C335.715 84.9242 335.233 85.5534 335.378 86.5721L335.876 90.0746L334.274 90.3028L333.371 83.9617L334.973 83.7335L335.086 84.5233C335.421 83.9266 336.059 83.4855 336.872 83.3697C338.348 83.1595 339.538 83.971 339.788 85.7222L340.317 89.4422L338.715 89.6704ZM343.835 83.7094C343.068 83.8186 342.532 84.3972 342.53 85.285L345.54 84.8564C345.398 84.0241 344.659 83.5921 343.835 83.7094ZM347.292 86.417C347.115 87.6334 346.194 88.7105 344.626 88.9338C342.783 89.1962 341.261 88.1049 340.978 86.1133C340.692 84.1103 341.816 82.6539 343.694 82.3866C345.525 82.1258 346.996 83.1893 347.265 85.0779C347.294 85.2839 347.312 85.4916 347.307 85.7025L342.672 86.3626C342.885 87.2898 343.601 87.725 344.402 87.6109C345.089 87.5131 345.418 87.1159 345.564 86.6631L347.292 86.417ZM350.058 84.8319L350.508 87.991L348.906 88.2192L348.003 81.8781L349.605 81.6499L349.745 82.6343C350.053 81.9248 350.657 81.4067 351.538 81.2812L351.777 82.9638L351.354 83.0241C350.404 83.1594 349.884 83.6072 350.058 84.8319ZM352.666 84.4255C352.384 82.4453 353.485 80.9922 355.099 80.7624C356.118 80.6173 356.885 80.9986 357.337 81.4714L357.209 80.5671L358.823 80.3373L359.726 86.6784L358.112 86.9082L357.98 85.9811C357.68 86.5843 357.028 87.1677 356.02 87.3112C354.418 87.5394 352.948 86.4056 352.666 84.4255ZM357.66 83.7377C357.489 82.5358 356.593 81.9861 355.712 82.1116C354.853 82.2338 354.132 82.9905 354.303 84.1924C354.474 85.3942 355.385 85.9652 356.243 85.843C357.125 85.7175 357.831 84.9395 357.66 83.7377ZM361.262 84.451L360.827 81.3949L360.071 81.5024L359.884 80.1861L360.639 80.0786L360.416 78.5105L362.03 78.2806L362.253 79.8487L363.673 79.6466L363.86 80.9629L362.441 81.165L362.878 84.2326C362.938 84.6561 363.136 84.8148 363.639 84.7431L364.383 84.6371L364.576 85.9877L363.568 86.1312C362.355 86.304 361.469 85.9046 361.262 84.451ZM367.722 80.3078C366.955 80.4171 366.419 80.9956 366.417 81.8835L369.427 81.4548C369.285 80.6225 368.546 80.1905 367.722 80.3078ZM371.179 83.0154C371.002 84.2318 370.081 85.3089 368.513 85.5322C366.67 85.7946 365.148 84.7033 364.865 82.7117C364.579 80.7087 365.703 79.2523 367.58 78.985C369.412 78.7242 370.883 79.7877 371.152 81.6763C371.181 81.8823 371.199 82.09 371.194 82.3009L366.558 82.961C366.772 83.8882 367.488 84.3234 368.289 84.2093C368.976 84.1115 369.305 83.7144 369.451 83.2615L371.179 83.0154ZM376.351 78.7871C376.657 78.1479 377.338 77.5955 378.299 77.4586C379.925 77.2272 381.376 78.3168 381.658 80.2969C381.94 82.2771 380.857 83.7743 379.232 84.0058C378.236 84.1476 377.461 83.7908 376.994 83.2968L377.122 84.201L375.52 84.4292L374.314 75.9592L375.916 75.731L376.351 78.7871ZM380.021 80.53C379.85 79.3282 378.946 78.8029 378.076 78.9268C377.218 79.049 376.5 79.8286 376.671 81.0305C376.842 82.2323 377.749 82.7805 378.608 82.6582C379.478 82.5343 380.192 81.7318 380.021 80.53ZM385.706 81.0284L386.735 76.3624L388.441 76.1196L385.845 86.0186L384.139 86.2615L385.063 82.9068L381.642 77.0878L383.439 76.8319L385.706 81.0284ZM398.36 81.1767L397.617 79.7293L394.435 80.1825L394.125 81.7798L392.443 82.0194L394.176 73.6094L396.042 73.3438L400.054 80.9354L398.36 81.1767ZM397 78.5093L395.368 75.3317L394.687 78.8386L397 78.5093ZM401.128 80.7825L399.991 72.7932L401.593 72.565L402.731 80.5543L401.128 80.7825Z" fill="#11002A"/>
<path d="M325.456 110.835L325.014 107.735L321.531 108.231L321.973 111.331L321.08 111.458L320.106 104.62L320.999 104.493L321.427 107.495L324.91 106.999L324.482 103.997L325.375 103.87L326.349 110.708L325.456 110.835ZM327.144 107.832C326.905 106.154 327.86 104.917 329.303 104.712C330.303 104.569 331.063 104.982 331.456 105.496L331.317 104.515L332.219 104.387L332.985 109.763L332.082 109.892L331.94 108.891C331.698 109.516 331.074 110.125 330.084 110.266C328.651 110.47 327.382 109.5 327.144 107.832ZM331.698 107.194C331.521 105.948 330.571 105.322 329.59 105.462C328.608 105.602 327.876 106.437 328.057 107.702C328.237 108.968 329.177 109.595 330.158 109.455C331.139 109.315 331.878 108.459 331.698 107.194ZM333.09 104.263L334.052 104.126L336.378 108.439L337.397 103.649L338.349 103.514L337.005 109.191L335.965 109.339L333.09 104.263ZM341.608 103.73C340.735 103.855 340.092 104.537 340.143 105.601L343.538 105.117C343.398 104.066 342.531 103.599 341.608 103.73ZM344.554 106.424C344.419 107.444 343.665 108.332 342.331 108.522C340.8 108.74 339.518 107.822 339.275 106.115C339.034 104.417 339.97 103.193 341.54 102.969C343.1 102.747 344.277 103.701 344.486 105.172C344.514 105.369 344.527 105.527 344.534 105.716L340.237 106.328C340.46 107.407 341.311 107.897 342.223 107.767C343.028 107.652 343.479 107.168 343.593 106.561L344.554 106.424ZM348.859 107.502L348.198 102.862L347.502 102.961L347.397 102.225L348.094 102.126L348.039 101.743C347.869 100.547 348.381 99.9231 349.754 99.7275L349.86 100.473C349.056 100.588 348.833 100.92 348.932 101.616L348.986 101.999L350.115 101.838L350.219 102.574L349.091 102.735L349.752 107.375L348.859 107.502ZM355.924 101.011L356.689 106.387L355.797 106.515L355.683 105.72C355.42 106.328 354.807 106.736 354.091 106.838C352.855 107.014 351.774 106.387 351.555 104.846L351.107 101.697L351.99 101.571L352.421 104.603C352.576 105.692 353.254 106.166 354.157 106.037C355.079 105.906 355.616 105.249 355.451 104.091L355.031 101.138L355.924 101.011ZM358.197 106.173L357.163 98.9127L358.056 98.7856L359.09 106.046L358.197 106.173ZM360.611 105.829L359.577 98.5689L360.47 98.4418L361.504 105.702L360.611 105.829ZM364.923 102.462C364.683 100.775 365.618 99.5404 367.149 99.3225C368.483 99.1325 369.454 99.6949 369.89 100.784L368.928 100.921C368.65 100.3 368.051 99.9647 367.257 100.078C366.275 100.218 365.649 101.018 365.836 102.332C366.026 103.667 366.851 104.26 367.832 104.12C368.627 104.007 369.102 103.549 369.202 102.844L370.163 102.707C370.041 103.815 369.274 104.685 367.94 104.875C366.409 105.093 365.167 104.169 364.923 102.462ZM376.318 100.84C376.561 102.547 375.488 103.8 373.958 104.018C372.437 104.235 371.126 103.321 370.883 101.614C370.641 99.9163 371.686 98.6764 373.206 98.4599C374.737 98.2419 376.076 99.1423 376.318 100.84ZM371.795 101.484C371.989 102.847 372.914 103.366 373.846 103.234C374.778 103.101 375.6 102.333 375.406 100.969C375.213 99.6156 374.229 99.105 373.307 99.2363C372.365 99.3705 371.602 100.13 371.795 101.484ZM381.81 102.81L381.377 99.7688C381.221 98.6699 380.543 98.1959 379.64 98.3245C378.728 98.4544 378.181 99.1129 378.346 100.271L378.769 103.243L377.876 103.37L377.11 97.994L378.003 97.8669L378.112 98.6321C378.386 98.0226 378.99 97.6263 379.716 97.5229C380.962 97.3454 382.023 97.9752 382.242 99.5155L382.693 102.684L381.81 102.81ZM384.138 100.977L383.687 97.8082L382.99 97.9074L382.886 97.1716L383.582 97.0724L383.389 95.7185L384.282 95.5914L384.475 96.9453L385.878 96.7455L385.983 97.4813L384.58 97.6811L385.031 100.85C385.107 101.38 385.329 101.538 385.879 101.46L386.536 101.366L386.644 102.122L385.839 102.236C384.887 102.372 384.292 102.056 384.138 100.977ZM388.202 98.917L388.618 101.841L387.725 101.968L386.96 96.5914L387.853 96.4643L387.977 97.3375C388.196 96.6957 388.722 96.2405 389.575 96.1189L389.706 97.0411L389.471 97.0747C388.617 97.1962 388.024 97.671 388.202 98.917ZM396.103 98.0221C396.346 99.7292 395.273 100.983 393.743 101.201C392.222 101.418 390.911 100.503 390.667 98.7961C390.426 97.0988 391.47 95.859 392.991 95.6425C394.522 95.4245 395.861 96.3248 396.103 98.0221ZM391.58 98.6662C391.774 100.03 392.699 100.549 393.631 100.416C394.563 100.283 395.385 99.5158 395.19 98.1521C394.998 96.7982 394.014 96.2876 393.092 96.4189C392.15 96.553 391.387 97.3123 391.58 98.6662ZM397.661 100.553L396.627 93.2929L397.52 93.1658L398.554 100.426L397.661 100.553ZM403.741 99.6872L401.287 94.5511L402.2 94.4212L404.079 98.7582L404.77 94.0551L405.683 93.9252L407.632 98.2622L408.204 93.5662L409.087 93.4404L408.175 99.0557L407.253 99.187L405.35 95.1037L404.663 99.5559L403.741 99.6872ZM410.739 98.6906L409.705 91.4305L410.598 91.3034L410.976 93.9622C411.249 93.3428 411.872 92.9437 412.628 92.8361C413.825 92.6657 414.885 93.2954 415.105 94.8357L415.556 98.0046L414.673 98.1304L414.24 95.089C414.083 93.9902 413.405 93.5162 412.503 93.6447C411.59 93.7746 411.043 94.4331 411.208 95.5908L411.632 98.5635L410.739 98.6906ZM418.63 92.7622C417.756 92.8865 417.113 93.5688 417.164 94.6325L420.559 94.1491C420.419 93.0979 419.552 92.6309 418.63 92.7622ZM421.576 95.4557C421.441 96.4759 420.686 97.3641 419.352 97.5541C417.822 97.7721 416.54 96.8536 416.297 95.1465C416.055 93.4492 416.992 92.2247 418.561 92.0012C420.121 91.779 421.298 92.7325 421.508 94.2042C421.536 94.4004 421.548 94.5588 421.555 94.748L417.258 95.3599C417.482 96.4391 418.332 96.9286 419.245 96.7987C420.049 96.6841 420.5 96.1994 420.614 95.5926L421.576 95.4557ZM427.032 96.3703L426.599 93.329C426.443 92.2301 425.765 91.7561 424.862 91.8847C423.95 92.0146 423.403 92.6731 423.568 93.8307L423.991 96.8034L423.098 96.9306L422.333 91.5542L423.225 91.4271L423.334 92.1923C423.608 91.5828 424.212 91.1865 424.938 91.0831C426.184 90.9056 427.245 91.5354 427.464 93.0757L427.915 96.2446L427.032 96.3703ZM431.272 93.014C431.031 91.3265 431.967 90.0922 433.497 89.8742C434.831 89.6842 435.802 90.2467 436.238 91.3358L435.276 91.4727C434.998 90.8517 434.399 90.5165 433.605 90.6297C432.624 90.7694 431.997 91.5694 432.184 92.884C432.374 94.2183 433.199 94.8115 434.18 94.6718C434.975 94.5586 435.45 94.1005 435.55 93.3957L436.512 93.2587C436.389 94.3672 435.622 95.2372 434.288 95.4272C432.757 95.6452 431.515 94.721 431.272 93.014ZM438.425 91.765L438.842 94.6887L437.949 94.8158L437.183 89.4394L438.076 89.3123L438.2 90.1855C438.419 89.5437 438.945 89.0885 439.798 88.9669L439.93 89.8891L439.694 89.9227C438.841 90.0442 438.248 90.519 438.425 91.765ZM443.224 89.2599C442.351 89.3842 441.707 90.0664 441.759 91.1302L445.153 90.6468C445.014 89.5956 444.146 89.1285 443.224 89.2599ZM446.17 91.9534C446.035 92.9736 445.281 93.8618 443.946 94.0518C442.416 94.2698 441.134 93.3512 440.891 91.6441C440.649 89.9468 441.586 88.7224 443.156 88.4988C444.716 88.2767 445.892 89.2302 446.102 90.7019C446.13 90.8981 446.142 91.0564 446.149 91.2456L441.852 91.8576C442.076 92.9368 442.926 93.4263 443.839 93.2964C444.643 93.1818 445.095 92.6971 445.209 92.0903L446.17 91.9534ZM446.973 90.7679C446.734 89.0903 447.689 87.8532 449.132 87.6478C450.132 87.5053 450.892 87.9177 451.285 88.4322L451.146 87.4511L452.048 87.3226L452.814 92.699L451.911 92.8275L451.769 91.8268C451.527 92.4517 450.903 93.0611 449.913 93.2022C448.48 93.4062 447.211 92.4358 446.973 90.7679ZM451.527 90.1295C451.35 88.8835 450.4 88.258 449.419 88.3977C448.438 88.5375 447.706 89.3724 447.886 90.638C448.066 91.9036 449.006 92.5305 449.987 92.3908C450.968 92.2511 451.707 91.3951 451.527 90.1295ZM454.309 90.9845L453.858 87.8156L453.161 87.9148L453.057 87.179L453.753 87.0798L453.56 85.7259L454.453 85.5988L454.646 86.9527L456.049 86.7529L456.154 87.4887L454.751 87.6885L455.202 90.8574C455.277 91.3872 455.5 91.5457 456.05 91.4674L456.707 91.3738L456.815 92.1292L456.01 92.2438C455.058 92.3793 454.463 92.0637 454.309 90.9845ZM457.896 91.9752L457.131 86.5988L458.023 86.4717L458.789 91.8481L457.896 91.9752ZM457.467 85.66C457.124 85.7089 456.821 85.4817 456.773 85.1383C456.724 84.795 456.951 84.4923 457.294 84.4434C457.618 84.3973 457.921 84.6245 457.969 84.9679C458.018 85.3113 457.791 85.6139 457.467 85.66ZM464.245 91.0711L463.812 88.0298C463.655 86.9309 462.977 86.4569 462.075 86.5855C461.162 86.7154 460.615 87.3739 460.78 88.5315L461.203 91.5042L460.311 91.6314L459.545 86.255L460.438 86.1279L460.547 86.8931C460.82 86.2836 461.425 85.8873 462.151 85.7839C463.397 85.6064 464.457 86.2362 464.677 87.7765L465.128 90.9454L464.245 91.0711ZM465.867 88.0774C465.628 86.3998 466.583 85.1627 468.025 84.9573C469.006 84.8176 469.783 85.2075 470.179 85.7417L470.039 84.7606L470.942 84.6321L471.724 90.1262C471.935 91.6076 471.094 92.7985 469.514 93.0234C468.102 93.2246 466.989 92.6523 466.649 91.5296L467.532 91.4038C467.82 92.0234 468.521 92.3741 469.404 92.2484C470.356 92.1128 470.985 91.4026 470.822 90.2547L470.661 89.1264C470.42 89.7514 469.797 90.3706 468.816 90.5103C467.374 90.7157 466.105 89.7453 465.867 88.0774ZM470.421 87.439C470.243 86.193 469.293 85.5675 468.312 85.7072C467.331 85.8469 466.599 86.6819 466.779 87.9475C466.96 89.2131 467.9 89.84 468.881 89.7003C469.862 89.5605 470.601 88.7046 470.421 87.439ZM325.09 124.998L326.138 120.404L327.06 120.273L324.948 128.641L324.026 128.773L324.717 126.032L321.792 121.023L322.782 120.882L325.09 124.998ZM333.441 122.097C333.684 123.804 332.611 125.058 331.08 125.276C329.56 125.492 328.248 124.578 328.005 122.871C327.764 121.173 328.808 119.934 330.329 119.717C331.859 119.499 333.199 120.4 333.441 122.097ZM328.918 122.741C329.112 124.105 330.037 124.624 330.969 124.491C331.901 124.358 332.722 123.59 332.528 122.227C332.335 120.873 331.352 120.362 330.43 120.494C329.488 120.628 328.725 121.387 328.918 122.741ZM339.001 118.572L339.767 123.949L338.874 124.076L338.761 123.281C338.497 123.889 337.884 124.297 337.168 124.399C335.932 124.575 334.852 123.948 334.632 122.408L334.184 119.258L335.067 119.132L335.499 122.164C335.654 123.253 336.332 123.727 337.234 123.599C338.157 123.467 338.694 122.81 338.529 121.652L338.108 118.699L339.001 118.572ZM341.751 120.683L342.167 123.607L341.274 123.734L340.509 118.358L341.401 118.23L341.526 119.104C341.745 118.462 342.27 118.007 343.124 117.885L343.255 118.807L343.02 118.841C342.166 118.962 341.573 119.437 341.751 120.683ZM351.207 120.828C351.333 121.711 350.653 122.489 349.466 122.658C348.21 122.836 347.229 122.275 347.03 121.303L347.953 121.171C348.076 121.684 348.593 122.011 349.348 121.904C350.055 121.803 350.397 121.394 350.334 120.952C350.163 119.755 347.084 120.905 346.799 118.903C346.681 118.079 347.36 117.292 348.557 117.121C349.744 116.952 350.62 117.478 350.828 118.52L349.935 118.647C349.819 118.113 349.351 117.779 348.635 117.881C347.978 117.975 347.63 118.344 347.692 118.776C347.873 120.052 350.894 118.911 351.207 120.828ZM356.678 116.055L357.444 121.431L356.551 121.559L356.438 120.764C356.174 121.372 355.561 121.78 354.845 121.881C353.609 122.058 352.529 121.431 352.309 119.89L351.861 116.741L352.744 116.615L353.176 119.647C353.331 120.736 354.009 121.21 354.911 121.081C355.834 120.95 356.371 120.293 356.206 119.135L355.785 116.182L356.678 116.055ZM359.427 118.166L359.844 121.09L358.951 121.217L358.185 115.84L359.078 115.713L359.203 116.586C359.421 115.945 359.947 115.489 360.801 115.368L360.932 116.29L360.697 116.324C359.843 116.445 359.25 116.92 359.427 118.166ZM361.208 115.41L362.169 115.273L364.495 119.586L365.515 114.797L366.466 114.661L365.123 120.338L364.083 120.486L361.208 115.41ZM369.726 114.878C368.853 115.002 368.209 115.684 368.26 116.748L371.655 116.265C371.515 115.213 370.648 114.746 369.726 114.878ZM372.672 117.571C372.537 118.591 371.782 119.48 370.448 119.67C368.918 119.888 367.636 118.969 367.393 117.262C367.151 115.565 368.088 114.34 369.657 114.117C371.217 113.894 372.394 114.848 372.604 116.32C372.632 116.516 372.644 116.674 372.651 116.863L368.354 117.475C368.578 118.555 369.428 119.044 370.341 118.914C371.145 118.8 371.597 118.315 371.71 117.708L372.672 117.571ZM376.09 117.735L377.137 113.142L378.059 113.01L375.948 121.379L375.026 121.51L375.716 118.769L372.791 113.76L373.782 113.619L376.09 117.735Z" fill="#11002A"/>
</g>
<defs>
<linearGradient id="paint0_linear_1_16611" x1="72.6205" y1="-7.47137" x2="132.351" y2="52.0036" gradientUnits="userSpaceOnUse">
<stop stop-color="#6100DD"/>
<stop offset="1" stop-color="#6100DD" stop-opacity="0"/>
</linearGradient>
<linearGradient id="paint1_linear_1_16611" x1="284.597" y1="12.5975" x2="344.327" y2="72.0725" gradientUnits="userSpaceOnUse">
<stop stop-color="#6100DD"/>
<stop offset="1" stop-color="#6100DD" stop-opacity="0"/>
</linearGradient>
<clipPath id="clip0_1_16611">
<rect width="396" height="145" fill="white"/>
</clipPath>
<clipPath id="clip1_1_16611">
<rect width="20.4206" height="20.4206" fill="white" transform="translate(318.272 42.8379) rotate(-8.10464)"/>
</clipPath>
</defs>
</svg>
