<svg width="1920" height="847" viewBox="0 0 1920 847" fill="none" xmlns="http://www.w3.org/2000/svg">
<g clip-path="url(#clip0_1_14312)">
<rect width="1920" height="847" fill="#11002A"/>
<path d="M1303.74 890.991C1310.02 792.882 1318.2 692.965 1326.86 594.923C1327.61 587.489 1326.65 591.172 1327.06 592.177C1327.88 596.128 1332.38 596.999 1335.51 594.722C1294.61 642.872 1216.75 733.883 1175.3 781.631C1149.32 811.834 1123.21 841.97 1096.9 871.838C1092.53 877.129 1009.22 971.823 1008.34 973.028C973.499 1020.24 900.073 999.949 895.982 942.021C895.369 935.592 894.073 922.801 893.46 916.172C882.756 807.414 878.257 696.313 874.166 587.02C875.189 593.851 883.983 606.843 897.55 606.106C904.504 606.575 914.458 600.414 916.435 595.659C914.254 599.008 843.759 697.519 839.601 703.479C747.086 832.996 652.798 961.375 555.783 1088.08C554.147 1090.22 551.079 1090.62 548.966 1089.02C546.989 1087.54 546.443 1084.93 547.602 1082.92C644.072 906.394 747.29 729.329 850.441 556.416C868.78 523.132 919.094 519.181 942.956 549.92C951.478 560.166 954.477 572.421 955.432 585.011C967.635 692.496 979.498 801.789 985.089 909.743C985.498 916.841 986.179 930.034 986.588 937.2C984.952 913.761 953.523 902.778 937.433 920.926C940.91 917.377 950.387 907.934 954.137 904.117C1032.47 824.826 1128.74 728.659 1208.02 650.306L1293.52 566.461C1299.11 560.836 1305.38 554.474 1313.29 551.46C1340.9 539.138 1374.58 561.237 1372.94 590.838C1373.49 595.391 1361.08 653.052 1360.26 659.347C1344.99 737.03 1329.58 814.714 1312.67 892.197C1311.38 897.487 1303.47 896.416 1303.74 890.991Z" fill="url(#paint0_linear_1_14312)"/>
</g>
<defs>
<linearGradient id="paint0_linear_1_14312" x1="575.988" y1="787.461" x2="1461.1" y2="569.446" gradientUnits="userSpaceOnUse">
<stop stop-color="#00DDD0"/>
<stop offset="1" stop-color="#6100DD"/>
</linearGradient>
<clipPath id="clip0_1_14312">
<rect width="1920" height="847" fill="white"/>
</clipPath>
</defs>
</svg>
