<svg width="880" height="290" viewBox="0 0 880 290" fill="none" xmlns="http://www.w3.org/2000/svg">
<rect width="880" height="290" rx="16" fill="#FBFBFB"/>
<path d="M52.63 46.75V45.294H55.542V55.5H53.932V46.75H52.63ZM64.7873 55.598C64.1339 55.598 63.5459 55.486 63.0233 55.262C62.5006 55.0287 62.0899 54.702 61.7913 54.282C61.4926 53.862 61.3433 53.372 61.3433 52.812H63.0513C63.0886 53.232 63.2519 53.5773 63.5413 53.848C63.8399 54.1187 64.2553 54.254 64.7873 54.254C65.3379 54.254 65.7673 54.1233 66.0753 53.862C66.3833 53.5913 66.5373 53.246 66.5373 52.826C66.5373 52.4993 66.4393 52.2333 66.2433 52.028C66.0566 51.8227 65.8186 51.664 65.5293 51.552C65.2493 51.44 64.8573 51.3187 64.3533 51.188C63.7186 51.02 63.2006 50.852 62.7993 50.684C62.4073 50.5067 62.0713 50.236 61.7913 49.872C61.5113 49.508 61.3713 49.0227 61.3713 48.416C61.3713 47.856 61.5113 47.366 61.7913 46.946C62.0713 46.526 62.4633 46.204 62.9673 45.98C63.4713 45.756 64.0546 45.644 64.7173 45.644C65.6599 45.644 66.4299 45.882 67.0273 46.358C67.6339 46.8247 67.9699 47.4687 68.0353 48.29H66.2713C66.2433 47.9353 66.0753 47.632 65.7673 47.38C65.4593 47.128 65.0533 47.002 64.5493 47.002C64.0919 47.002 63.7186 47.1187 63.4293 47.352C63.1399 47.5853 62.9953 47.9213 62.9953 48.36C62.9953 48.6587 63.0839 48.906 63.2613 49.102C63.4479 49.2887 63.6813 49.438 63.9613 49.55C64.2413 49.662 64.6239 49.7833 65.1093 49.914C65.7533 50.0913 66.2759 50.2687 66.6773 50.446C67.0879 50.6233 67.4333 50.8987 67.7133 51.272C68.0026 51.636 68.1473 52.126 68.1473 52.742C68.1473 53.2367 68.0119 53.7033 67.7413 54.142C67.4799 54.5807 67.0926 54.9353 66.5793 55.206C66.0753 55.4673 65.4779 55.598 64.7873 55.598ZM71.8925 49.088V53.358C71.8925 53.6473 71.9578 53.8573 72.0885 53.988C72.2285 54.1093 72.4618 54.17 72.7885 54.17H73.7685V55.5H72.5085C71.7898 55.5 71.2391 55.332 70.8565 54.996C70.4738 54.66 70.2825 54.114 70.2825 53.358V49.088H69.3725V47.786H70.2825V45.868H71.8925V47.786H73.7685V49.088H71.8925ZM74.7075 51.608C74.7075 50.8333 74.8661 50.1473 75.1835 49.55C75.5101 48.9527 75.9488 48.4907 76.4995 48.164C77.0595 47.828 77.6755 47.66 78.3475 47.66C78.9541 47.66 79.4815 47.7813 79.9295 48.024C80.3868 48.2573 80.7508 48.5513 81.0215 48.906V47.786H82.6315V55.5H81.0215V54.352C80.7508 54.716 80.3821 55.0193 79.9155 55.262C79.4488 55.5047 78.9168 55.626 78.3195 55.626C77.6568 55.626 77.0501 55.458 76.4995 55.122C75.9488 54.7767 75.5101 54.3007 75.1835 53.694C74.8661 53.078 74.7075 52.3827 74.7075 51.608ZM81.0215 51.636C81.0215 51.104 80.9095 50.642 80.6855 50.25C80.4708 49.858 80.1861 49.5593 79.8315 49.354C79.4768 49.1487 79.0941 49.046 78.6835 49.046C78.2728 49.046 77.8901 49.1487 77.5355 49.354C77.1808 49.55 76.8915 49.844 76.6675 50.236C76.4528 50.6187 76.3455 51.076 76.3455 51.608C76.3455 52.14 76.4528 52.6067 76.6675 53.008C76.8915 53.4093 77.1808 53.7173 77.5355 53.932C77.8995 54.1373 78.2821 54.24 78.6835 54.24C79.0941 54.24 79.4768 54.1373 79.8315 53.932C80.1861 53.7267 80.4708 53.428 80.6855 53.036C80.9095 52.6347 81.0215 52.168 81.0215 51.636ZM86.3237 48.906C86.5571 48.514 86.8651 48.2107 87.2477 47.996C87.6397 47.772 88.1017 47.66 88.6337 47.66V49.312H88.2277C87.6024 49.312 87.1264 49.4707 86.7997 49.788C86.4824 50.1053 86.3237 50.656 86.3237 51.44V55.5H84.7277V47.786H86.3237V48.906ZM92.9008 55.626C92.2941 55.626 91.7481 55.5187 91.2628 55.304C90.7868 55.08 90.4088 54.7813 90.1288 54.408C89.8488 54.0253 89.6994 53.6007 89.6808 53.134H91.3328C91.3608 53.4607 91.5148 53.736 91.7948 53.96C92.0841 54.1747 92.4434 54.282 92.8728 54.282C93.3208 54.282 93.6661 54.198 93.9088 54.03C94.1608 53.8527 94.2868 53.6287 94.2868 53.358C94.2868 53.0687 94.1468 52.854 93.8668 52.714C93.5961 52.574 93.1621 52.42 92.5648 52.252C91.9861 52.0933 91.5148 51.9393 91.1508 51.79C90.7868 51.6407 90.4694 51.412 90.1988 51.104C89.9374 50.796 89.8068 50.39 89.8068 49.886C89.8068 49.4753 89.9281 49.102 90.1708 48.766C90.4134 48.4207 90.7588 48.15 91.2068 47.954C91.6641 47.758 92.1868 47.66 92.7748 47.66C93.6521 47.66 94.3568 47.884 94.8888 48.332C95.4301 48.7707 95.7194 49.3727 95.7568 50.138H94.1608C94.1328 49.7927 93.9928 49.5173 93.7408 49.312C93.4888 49.1067 93.1481 49.004 92.7188 49.004C92.2988 49.004 91.9768 49.0833 91.7528 49.242C91.5288 49.4007 91.4168 49.6107 91.4168 49.872C91.4168 50.0773 91.4914 50.25 91.6408 50.39C91.7901 50.53 91.9721 50.642 92.1868 50.726C92.4014 50.8007 92.7188 50.8987 93.1388 51.02C93.6988 51.1693 94.1561 51.3233 94.5108 51.482C94.8748 51.6313 95.1874 51.8553 95.4488 52.154C95.7101 52.4527 95.8454 52.8493 95.8548 53.344C95.8548 53.7827 95.7334 54.1747 95.4908 54.52C95.2481 54.8653 94.9028 55.136 94.4548 55.332C94.0161 55.528 93.4981 55.626 92.9008 55.626Z" fill="#11002A"/>
<rect x="148" y="40" width="524" height="22" rx="4" fill="#F4F4F4"/>
<path d="M688.812 47.814C688.868 46.946 689.199 46.2693 689.806 45.784C690.422 45.2987 691.206 45.056 692.158 45.056C692.811 45.056 693.376 45.1727 693.852 45.406C694.328 45.6393 694.687 45.9567 694.93 46.358C695.173 46.7593 695.294 47.212 695.294 47.716C695.294 48.2947 695.14 48.7893 694.832 49.2C694.524 49.6107 694.155 49.886 693.726 50.026V50.082C694.277 50.25 694.706 50.558 695.014 51.006C695.322 51.4447 695.476 52.0093 695.476 52.7C695.476 53.2507 695.35 53.7407 695.098 54.17C694.846 54.5993 694.473 54.94 693.978 55.192C693.483 55.4347 692.891 55.556 692.2 55.556C691.192 55.556 690.361 55.2993 689.708 54.786C689.064 54.2633 688.719 53.5167 688.672 52.546H690.212C690.249 53.0407 690.441 53.4467 690.786 53.764C691.131 54.072 691.598 54.226 692.186 54.226C692.755 54.226 693.194 54.072 693.502 53.764C693.81 53.4467 693.964 53.0407 693.964 52.546C693.964 51.8927 693.754 51.4307 693.334 51.16C692.923 50.88 692.289 50.74 691.43 50.74H691.066V49.424H691.444C692.2 49.4147 692.774 49.2887 693.166 49.046C693.567 48.8033 693.768 48.4207 693.768 47.898C693.768 47.45 693.623 47.0953 693.334 46.834C693.045 46.5633 692.634 46.428 692.102 46.428C691.579 46.428 691.173 46.5633 690.884 46.834C690.595 47.0953 690.422 47.422 690.366 47.814H688.812ZM697.153 50.264C697.153 48.6493 697.423 47.3893 697.965 46.484C698.515 45.5693 699.458 45.112 700.793 45.112C702.127 45.112 703.065 45.5693 703.607 46.484C704.157 47.3893 704.433 48.6493 704.433 50.264C704.433 51.8973 704.157 53.176 703.607 54.1C703.065 55.0147 702.127 55.472 700.793 55.472C699.458 55.472 698.515 55.0147 697.965 54.1C697.423 53.176 697.153 51.8973 697.153 50.264ZM702.865 50.264C702.865 49.508 702.813 48.8687 702.711 48.346C702.617 47.8233 702.421 47.3987 702.123 47.072C701.824 46.736 701.381 46.568 700.793 46.568C700.205 46.568 699.761 46.736 699.463 47.072C699.164 47.3987 698.963 47.8233 698.861 48.346C698.767 48.8687 698.721 49.508 698.721 50.264C698.721 51.048 698.767 51.706 698.861 52.238C698.954 52.77 699.15 53.1993 699.449 53.526C699.757 53.8527 700.205 54.016 700.793 54.016C701.381 54.016 701.824 53.8527 702.123 53.526C702.431 53.1993 702.631 52.77 702.725 52.238C702.818 51.706 702.865 51.048 702.865 50.264ZM705.869 47.758C705.869 47.0767 706.065 46.5447 706.457 46.162C706.859 45.77 707.372 45.574 707.997 45.574C708.623 45.574 709.131 45.77 709.523 46.162C709.925 46.5447 710.125 47.0767 710.125 47.758C710.125 48.4393 709.925 48.976 709.523 49.368C709.131 49.76 708.623 49.956 707.997 49.956C707.372 49.956 706.859 49.76 706.457 49.368C706.065 48.976 705.869 48.4393 705.869 47.758ZM714.409 45.756L708.823 55.5H707.255L712.841 45.756H714.409ZM707.997 46.54C707.409 46.54 707.115 46.946 707.115 47.758C707.115 48.5793 707.409 48.99 707.997 48.99C708.277 48.99 708.492 48.892 708.641 48.696C708.8 48.4907 708.879 48.178 708.879 47.758C708.879 46.946 708.585 46.54 707.997 46.54ZM711.567 53.484C711.567 52.8027 711.763 52.2707 712.155 51.888C712.557 51.496 713.07 51.3 713.695 51.3C714.311 51.3 714.815 51.496 715.207 51.888C715.609 52.2707 715.809 52.8027 715.809 53.484C715.809 54.1653 715.609 54.702 715.207 55.094C714.815 55.486 714.311 55.682 713.695 55.682C713.07 55.682 712.557 55.486 712.155 55.094C711.763 54.702 711.567 54.1653 711.567 53.484ZM713.681 52.266C713.093 52.266 712.799 52.672 712.799 53.484C712.799 54.296 713.093 54.702 713.681 54.702C714.269 54.702 714.563 54.296 714.563 53.484C714.563 52.672 714.269 52.266 713.681 52.266ZM727.005 49.76V51.104H721.251V49.76H727.005ZM732.489 46.75V45.294H735.401V55.5H733.791V46.75H732.489ZM737.398 53.372V52.168L742.102 45.42H744.034V51.986H745.336V53.372H744.034V55.5H742.466V53.372H737.398ZM742.536 47.044L739.232 51.986H742.536V47.044ZM746.462 53.372V52.168L751.166 45.42H753.098V51.986H754.4V53.372H753.098V55.5H751.53V53.372H746.462ZM751.6 47.044L748.296 51.986H751.6V47.044ZM761.166 48.906C761.399 48.514 761.707 48.2107 762.09 47.996C762.482 47.772 762.944 47.66 763.476 47.66V49.312H763.07C762.444 49.312 761.968 49.4707 761.642 49.788C761.324 50.1053 761.166 50.656 761.166 51.44V55.5H759.57V47.786H761.166V48.906ZM772.013 51.454C772.013 51.7433 771.994 52.0047 771.957 52.238H766.063C766.109 52.854 766.338 53.3487 766.749 53.722C767.159 54.0953 767.663 54.282 768.261 54.282C769.119 54.282 769.726 53.9227 770.081 53.204H771.803C771.569 53.9133 771.145 54.4967 770.529 54.954C769.922 55.402 769.166 55.626 768.261 55.626C767.523 55.626 766.861 55.4627 766.273 55.136C765.694 54.8 765.237 54.3333 764.901 53.736C764.574 53.1293 764.411 52.4293 764.411 51.636C764.411 50.8427 764.569 50.1473 764.887 49.55C765.213 48.9433 765.666 48.4767 766.245 48.15C766.833 47.8233 767.505 47.66 768.261 47.66C768.989 47.66 769.637 47.8187 770.207 48.136C770.776 48.4533 771.219 48.9013 771.537 49.48C771.854 50.0493 772.013 50.7073 772.013 51.454ZM770.347 50.95C770.337 50.362 770.127 49.8907 769.717 49.536C769.306 49.1813 768.797 49.004 768.191 49.004C767.64 49.004 767.169 49.1813 766.777 49.536C766.385 49.8813 766.151 50.3527 766.077 50.95H770.347ZM776.383 55.626C775.777 55.626 775.231 55.5187 774.745 55.304C774.269 55.08 773.891 54.7813 773.611 54.408C773.331 54.0253 773.182 53.6007 773.163 53.134H774.815C774.843 53.4607 774.997 53.736 775.277 53.96C775.567 54.1747 775.926 54.282 776.355 54.282C776.803 54.282 777.149 54.198 777.391 54.03C777.643 53.8527 777.769 53.6287 777.769 53.358C777.769 53.0687 777.629 52.854 777.349 52.714C777.079 52.574 776.645 52.42 776.047 52.252C775.469 52.0933 774.997 51.9393 774.633 51.79C774.269 51.6407 773.952 51.412 773.681 51.104C773.42 50.796 773.289 50.39 773.289 49.886C773.289 49.4753 773.411 49.102 773.653 48.766C773.896 48.4207 774.241 48.15 774.689 47.954C775.147 47.758 775.669 47.66 776.257 47.66C777.135 47.66 777.839 47.884 778.371 48.332C778.913 48.7707 779.202 49.3727 779.239 50.138H777.643C777.615 49.7927 777.475 49.5173 777.223 49.312C776.971 49.1067 776.631 49.004 776.201 49.004C775.781 49.004 775.459 49.0833 775.235 49.242C775.011 49.4007 774.899 49.6107 774.899 49.872C774.899 50.0773 774.974 50.25 775.123 50.39C775.273 50.53 775.455 50.642 775.669 50.726C775.884 50.8007 776.201 50.8987 776.621 51.02C777.181 51.1693 777.639 51.3233 777.993 51.482C778.357 51.6313 778.67 51.8553 778.931 52.154C779.193 52.4527 779.328 52.8493 779.337 53.344C779.337 53.7827 779.216 54.1747 778.973 54.52C778.731 54.8653 778.385 55.136 777.937 55.332C777.499 55.528 776.981 55.626 776.383 55.626ZM782.658 48.92C782.928 48.5653 783.297 48.2667 783.764 48.024C784.23 47.7813 784.758 47.66 785.346 47.66C786.018 47.66 786.629 47.828 787.18 48.164C787.74 48.4907 788.178 48.9527 788.496 49.55C788.813 50.1473 788.972 50.8333 788.972 51.608C788.972 52.3827 788.813 53.078 788.496 53.694C788.178 54.3007 787.74 54.7767 787.18 55.122C786.629 55.458 786.018 55.626 785.346 55.626C784.758 55.626 784.235 55.5093 783.778 55.276C783.32 55.0333 782.947 54.7347 782.658 54.38V59.168H781.062V47.786H782.658V48.92ZM787.348 51.608C787.348 51.076 787.236 50.6187 787.012 50.236C786.797 49.844 786.508 49.55 786.144 49.354C785.789 49.1487 785.406 49.046 784.996 49.046C784.594 49.046 784.212 49.1487 783.848 49.354C783.493 49.5593 783.204 49.858 782.98 50.25C782.765 50.642 782.658 51.104 782.658 51.636C782.658 52.168 782.765 52.6347 782.98 53.036C783.204 53.428 783.493 53.7267 783.848 53.932C784.212 54.1373 784.594 54.24 784.996 54.24C785.406 54.24 785.789 54.1373 786.144 53.932C786.508 53.7173 786.797 53.4093 787.012 53.008C787.236 52.6067 787.348 52.14 787.348 51.608ZM793.896 55.626C793.168 55.626 792.51 55.4627 791.922 55.136C791.334 54.8 790.872 54.3333 790.536 53.736C790.2 53.1293 790.032 52.4293 790.032 51.636C790.032 50.852 790.205 50.1567 790.55 49.55C790.895 48.9433 791.367 48.4767 791.964 48.15C792.561 47.8233 793.229 47.66 793.966 47.66C794.703 47.66 795.371 47.8233 795.968 48.15C796.565 48.4767 797.037 48.9433 797.382 49.55C797.727 50.1567 797.9 50.852 797.9 51.636C797.9 52.42 797.723 53.1153 797.368 53.722C797.013 54.3287 796.528 54.8 795.912 55.136C795.305 55.4627 794.633 55.626 793.896 55.626ZM793.896 54.24C794.307 54.24 794.689 54.142 795.044 53.946C795.408 53.75 795.702 53.456 795.926 53.064C796.15 52.672 796.262 52.196 796.262 51.636C796.262 51.076 796.155 50.6047 795.94 50.222C795.725 49.83 795.441 49.536 795.086 49.34C794.731 49.144 794.349 49.046 793.938 49.046C793.527 49.046 793.145 49.144 792.79 49.34C792.445 49.536 792.169 49.83 791.964 50.222C791.759 50.6047 791.656 51.076 791.656 51.636C791.656 52.4667 791.866 53.1107 792.286 53.568C792.715 54.016 793.252 54.24 793.896 54.24ZM803.37 47.66C803.976 47.66 804.518 47.786 804.994 48.038C805.479 48.29 805.857 48.6633 806.128 49.158C806.398 49.6527 806.534 50.25 806.534 50.95V55.5H804.952V51.188C804.952 50.4973 804.779 49.97 804.434 49.606C804.088 49.2327 803.617 49.046 803.02 49.046C802.422 49.046 801.946 49.2327 801.592 49.606C801.246 49.97 801.074 50.4973 801.074 51.188V55.5H799.478V47.786H801.074V48.668C801.335 48.3507 801.666 48.1033 802.068 47.926C802.478 47.7487 802.912 47.66 803.37 47.66ZM811.37 55.626C810.763 55.626 810.217 55.5187 809.732 55.304C809.256 55.08 808.878 54.7813 808.598 54.408C808.318 54.0253 808.168 53.6007 808.15 53.134H809.802C809.83 53.4607 809.984 53.736 810.264 53.96C810.553 54.1747 810.912 54.282 811.342 54.282C811.79 54.282 812.135 54.198 812.378 54.03C812.63 53.8527 812.756 53.6287 812.756 53.358C812.756 53.0687 812.616 52.854 812.336 52.714C812.065 52.574 811.631 52.42 811.034 52.252C810.455 52.0933 809.984 51.9393 809.62 51.79C809.256 51.6407 808.938 51.412 808.668 51.104C808.406 50.796 808.276 50.39 808.276 49.886C808.276 49.4753 808.397 49.102 808.64 48.766C808.882 48.4207 809.228 48.15 809.676 47.954C810.133 47.758 810.656 47.66 811.244 47.66C812.121 47.66 812.826 47.884 813.358 48.332C813.899 48.7707 814.188 49.3727 814.226 50.138H812.63C812.602 49.7927 812.462 49.5173 812.21 49.312C811.958 49.1067 811.617 49.004 811.188 49.004C810.768 49.004 810.446 49.0833 810.222 49.242C809.998 49.4007 809.886 49.6107 809.886 49.872C809.886 50.0773 809.96 50.25 810.11 50.39C810.259 50.53 810.441 50.642 810.656 50.726C810.87 50.8007 811.188 50.8987 811.608 51.02C812.168 51.1693 812.625 51.3233 812.98 51.482C813.344 51.6313 813.656 51.8553 813.918 52.154C814.179 52.4527 814.314 52.8493 814.324 53.344C814.324 53.7827 814.202 54.1747 813.96 54.52C813.717 54.8653 813.372 55.136 812.924 55.332C812.485 55.528 811.967 55.626 811.37 55.626ZM823.118 51.454C823.118 51.7433 823.099 52.0047 823.062 52.238H817.168C817.215 52.854 817.443 53.3487 817.854 53.722C818.265 54.0953 818.769 54.282 819.366 54.282C820.225 54.282 820.831 53.9227 821.186 53.204H822.908C822.675 53.9133 822.25 54.4967 821.634 54.954C821.027 55.402 820.271 55.626 819.366 55.626C818.629 55.626 817.966 55.4627 817.378 55.136C816.799 54.8 816.342 54.3333 816.006 53.736C815.679 53.1293 815.516 52.4293 815.516 51.636C815.516 50.8427 815.675 50.1473 815.992 49.55C816.319 48.9433 816.771 48.4767 817.35 48.15C817.938 47.8233 818.61 47.66 819.366 47.66C820.094 47.66 820.743 47.8187 821.312 48.136C821.881 48.4533 822.325 48.9013 822.642 49.48C822.959 50.0493 823.118 50.7073 823.118 51.454ZM821.452 50.95C821.443 50.362 821.233 49.8907 820.822 49.536C820.411 49.1813 819.903 49.004 819.296 49.004C818.745 49.004 818.274 49.1813 817.882 49.536C817.49 49.8813 817.257 50.3527 817.182 50.95H821.452ZM827.489 55.626C826.882 55.626 826.336 55.5187 825.851 55.304C825.375 55.08 824.997 54.7813 824.717 54.408C824.437 54.0253 824.287 53.6007 824.269 53.134H825.921C825.949 53.4607 826.103 53.736 826.383 53.96C826.672 54.1747 827.031 54.282 827.461 54.282C827.909 54.282 828.254 54.198 828.497 54.03C828.749 53.8527 828.875 53.6287 828.875 53.358C828.875 53.0687 828.735 52.854 828.455 52.714C828.184 52.574 827.75 52.42 827.153 52.252C826.574 52.0933 826.103 51.9393 825.739 51.79C825.375 51.6407 825.057 51.412 824.787 51.104C824.525 50.796 824.395 50.39 824.395 49.886C824.395 49.4753 824.516 49.102 824.759 48.766C825.001 48.4207 825.347 48.15 825.795 47.954C826.252 47.758 826.775 47.66 827.363 47.66C828.24 47.66 828.945 47.884 829.477 48.332C830.018 48.7707 830.307 49.3727 830.345 50.138H828.749C828.721 49.7927 828.581 49.5173 828.329 49.312C828.077 49.1067 827.736 49.004 827.307 49.004C826.887 49.004 826.565 49.0833 826.341 49.242C826.117 49.4007 826.005 49.6107 826.005 49.872C826.005 50.0773 826.079 50.25 826.229 50.39C826.378 50.53 826.56 50.642 826.775 50.726C826.989 50.8007 827.307 50.8987 827.727 51.02C828.287 51.1693 828.744 51.3233 829.099 51.482C829.463 51.6313 829.775 51.8553 830.037 52.154C830.298 52.4527 830.433 52.8493 830.443 53.344C830.443 53.7827 830.321 54.1747 830.079 54.52C829.836 54.8653 829.491 55.136 829.043 55.332C828.604 55.528 828.086 55.626 827.489 55.626Z" fill="#11002A"/>
<path d="M53.722 99.33C54.618 98.5553 55.3227 97.9207 55.836 97.426C56.3587 96.922 56.7927 96.3993 57.138 95.858C57.4833 95.3167 57.656 94.7753 57.656 94.234C57.656 93.674 57.5207 93.2353 57.25 92.918C56.9887 92.6007 56.5733 92.442 56.004 92.442C55.4533 92.442 55.024 92.6193 54.716 92.974C54.4173 93.3193 54.2587 93.786 54.24 94.374H52.7C52.728 93.31 53.0453 92.498 53.652 91.938C54.268 91.3687 55.0473 91.084 55.99 91.084C57.0073 91.084 57.8007 91.364 58.37 91.924C58.9487 92.484 59.238 93.2307 59.238 94.164C59.238 94.836 59.0653 95.4847 58.72 96.11C58.384 96.726 57.978 97.2813 57.502 97.776C57.0353 98.2613 56.438 98.826 55.71 99.47L55.08 100.03H59.518V101.36H52.714V100.198L53.722 99.33ZM67.9728 101.598C67.3195 101.598 66.7315 101.486 66.2088 101.262C65.6861 101.029 65.2755 100.702 64.9768 100.282C64.6781 99.862 64.5288 99.372 64.5288 98.812H66.2368C66.2741 99.232 66.4375 99.5773 66.7268 99.848C67.0255 100.119 67.4408 100.254 67.9728 100.254C68.5235 100.254 68.9528 100.123 69.2608 99.862C69.5688 99.5913 69.7228 99.246 69.7228 98.826C69.7228 98.4993 69.6248 98.2333 69.4288 98.028C69.2421 97.8227 69.0041 97.664 68.7148 97.552C68.4348 97.44 68.0428 97.3187 67.5388 97.188C66.9041 97.02 66.3861 96.852 65.9848 96.684C65.5928 96.5067 65.2568 96.236 64.9768 95.872C64.6968 95.508 64.5568 95.0227 64.5568 94.416C64.5568 93.856 64.6968 93.366 64.9768 92.946C65.2568 92.526 65.6488 92.204 66.1528 91.98C66.6568 91.756 67.2401 91.644 67.9028 91.644C68.8455 91.644 69.6155 91.882 70.2128 92.358C70.8195 92.8247 71.1555 93.4687 71.2208 94.29H69.4568C69.4288 93.9353 69.2608 93.632 68.9528 93.38C68.6448 93.128 68.2388 93.002 67.7348 93.002C67.2775 93.002 66.9041 93.1187 66.6148 93.352C66.3255 93.5853 66.1808 93.9213 66.1808 94.36C66.1808 94.6587 66.2695 94.906 66.4468 95.102C66.6335 95.2887 66.8668 95.438 67.1468 95.55C67.4268 95.662 67.8095 95.7833 68.2948 95.914C68.9388 96.0913 69.4615 96.2687 69.8628 96.446C70.2735 96.6233 70.6188 96.8987 70.8988 97.272C71.1881 97.636 71.3328 98.126 71.3328 98.742C71.3328 99.2367 71.1975 99.7033 70.9268 100.142C70.6655 100.581 70.2781 100.935 69.7648 101.206C69.2608 101.467 68.6635 101.598 67.9728 101.598ZM75.078 95.088V99.358C75.078 99.6473 75.1433 99.8573 75.274 99.988C75.414 100.109 75.6473 100.17 75.974 100.17H76.954V101.5H75.694C74.9753 101.5 74.4247 101.332 74.042 100.996C73.6593 100.66 73.468 100.114 73.468 99.358V95.088H72.558V93.786H73.468V91.868H75.078V93.786H76.954V95.088H75.078ZM77.893 97.608C77.893 96.8333 78.0517 96.1473 78.369 95.55C78.6957 94.9527 79.1343 94.4907 79.685 94.164C80.245 93.828 80.861 93.66 81.533 93.66C82.1397 93.66 82.667 93.7813 83.115 94.024C83.5723 94.2573 83.9363 94.5513 84.207 94.906V93.786H85.817V101.5H84.207V100.352C83.9363 100.716 83.5677 101.019 83.101 101.262C82.6343 101.505 82.1023 101.626 81.505 101.626C80.8423 101.626 80.2357 101.458 79.685 101.122C79.1343 100.777 78.6957 100.301 78.369 99.694C78.0517 99.078 77.893 98.3827 77.893 97.608ZM84.207 97.636C84.207 97.104 84.095 96.642 83.871 96.25C83.6563 95.858 83.3717 95.5593 83.017 95.354C82.6623 95.1487 82.2797 95.046 81.869 95.046C81.4583 95.046 81.0757 95.1487 80.721 95.354C80.3663 95.55 80.077 95.844 79.853 96.236C79.6383 96.6187 79.531 97.076 79.531 97.608C79.531 98.14 79.6383 98.6067 79.853 99.008C80.077 99.4093 80.3663 99.7173 80.721 99.932C81.085 100.137 81.4677 100.24 81.869 100.24C82.2797 100.24 82.6623 100.137 83.017 99.932C83.3717 99.7267 83.6563 99.428 83.871 99.036C84.095 98.6347 84.207 98.168 84.207 97.636ZM89.5093 94.906C89.7426 94.514 90.0506 94.2107 90.4333 93.996C90.8253 93.772 91.2873 93.66 91.8193 93.66V95.312H91.4133C90.7879 95.312 90.3119 95.4707 89.9853 95.788C89.6679 96.1053 89.5093 96.656 89.5093 97.44V101.5H87.9133V93.786H89.5093V94.906ZM96.0863 101.626C95.4797 101.626 94.9337 101.519 94.4483 101.304C93.9723 101.08 93.5943 100.781 93.3143 100.408C93.0343 100.025 92.885 99.6007 92.8663 99.134H94.5183C94.5463 99.4607 94.7003 99.736 94.9803 99.96C95.2697 100.175 95.629 100.282 96.0583 100.282C96.5063 100.282 96.8517 100.198 97.0943 100.03C97.3463 99.8527 97.4723 99.6287 97.4723 99.358C97.4723 99.0687 97.3323 98.854 97.0523 98.714C96.7817 98.574 96.3477 98.42 95.7503 98.252C95.1717 98.0933 94.7003 97.9393 94.3363 97.79C93.9723 97.6407 93.655 97.412 93.3843 97.104C93.123 96.796 92.9923 96.39 92.9923 95.886C92.9923 95.4753 93.1137 95.102 93.3563 94.766C93.599 94.4207 93.9443 94.15 94.3923 93.954C94.8497 93.758 95.3723 93.66 95.9603 93.66C96.8377 93.66 97.5423 93.884 98.0743 94.332C98.6157 94.7707 98.905 95.3727 98.9423 96.138H97.3463C97.3183 95.7927 97.1783 95.5173 96.9263 95.312C96.6743 95.1067 96.3337 95.004 95.9043 95.004C95.4843 95.004 95.1623 95.0833 94.9383 95.242C94.7143 95.4007 94.6023 95.6107 94.6023 95.872C94.6023 96.0773 94.677 96.25 94.8263 96.39C94.9757 96.53 95.1577 96.642 95.3723 96.726C95.587 96.8007 95.9043 96.8987 96.3243 97.02C96.8843 97.1693 97.3417 97.3233 97.6963 97.482C98.0603 97.6313 98.373 97.8553 98.6343 98.154C98.8957 98.4527 99.031 98.8493 99.0403 99.344C99.0403 99.7827 98.919 100.175 98.6763 100.52C98.4337 100.865 98.0883 101.136 97.6403 101.332C97.2017 101.528 96.6837 101.626 96.0863 101.626Z" fill="#11002A"/>
<rect x="148" y="86" width="524" height="22" rx="4" fill="#F4F4F4"/>
<path d="M688.812 93.814C688.868 92.946 689.199 92.2693 689.806 91.784C690.422 91.2987 691.206 91.056 692.158 91.056C692.811 91.056 693.376 91.1727 693.852 91.406C694.328 91.6393 694.687 91.9567 694.93 92.358C695.173 92.7593 695.294 93.212 695.294 93.716C695.294 94.2947 695.14 94.7893 694.832 95.2C694.524 95.6107 694.155 95.886 693.726 96.026V96.082C694.277 96.25 694.706 96.558 695.014 97.006C695.322 97.4447 695.476 98.0093 695.476 98.7C695.476 99.2507 695.35 99.7407 695.098 100.17C694.846 100.599 694.473 100.94 693.978 101.192C693.483 101.435 692.891 101.556 692.2 101.556C691.192 101.556 690.361 101.299 689.708 100.786C689.064 100.263 688.719 99.5167 688.672 98.546H690.212C690.249 99.0407 690.441 99.4467 690.786 99.764C691.131 100.072 691.598 100.226 692.186 100.226C692.755 100.226 693.194 100.072 693.502 99.764C693.81 99.4467 693.964 99.0407 693.964 98.546C693.964 97.8927 693.754 97.4307 693.334 97.16C692.923 96.88 692.289 96.74 691.43 96.74H691.066V95.424H691.444C692.2 95.4147 692.774 95.2887 693.166 95.046C693.567 94.8033 693.768 94.4207 693.768 93.898C693.768 93.45 693.623 93.0953 693.334 92.834C693.045 92.5633 692.634 92.428 692.102 92.428C691.579 92.428 691.173 92.5633 690.884 92.834C690.595 93.0953 690.422 93.422 690.366 93.814H688.812ZM697.153 96.264C697.153 94.6493 697.423 93.3893 697.965 92.484C698.515 91.5693 699.458 91.112 700.793 91.112C702.127 91.112 703.065 91.5693 703.607 92.484C704.157 93.3893 704.433 94.6493 704.433 96.264C704.433 97.8973 704.157 99.176 703.607 100.1C703.065 101.015 702.127 101.472 700.793 101.472C699.458 101.472 698.515 101.015 697.965 100.1C697.423 99.176 697.153 97.8973 697.153 96.264ZM702.865 96.264C702.865 95.508 702.813 94.8687 702.711 94.346C702.617 93.8233 702.421 93.3987 702.123 93.072C701.824 92.736 701.381 92.568 700.793 92.568C700.205 92.568 699.761 92.736 699.463 93.072C699.164 93.3987 698.963 93.8233 698.861 94.346C698.767 94.8687 698.721 95.508 698.721 96.264C698.721 97.048 698.767 97.706 698.861 98.238C698.954 98.77 699.15 99.1993 699.449 99.526C699.757 99.8527 700.205 100.016 700.793 100.016C701.381 100.016 701.824 99.8527 702.123 99.526C702.431 99.1993 702.631 98.77 702.725 98.238C702.818 97.706 702.865 97.048 702.865 96.264ZM705.869 93.758C705.869 93.0767 706.065 92.5447 706.457 92.162C706.859 91.77 707.372 91.574 707.997 91.574C708.623 91.574 709.131 91.77 709.523 92.162C709.925 92.5447 710.125 93.0767 710.125 93.758C710.125 94.4393 709.925 94.976 709.523 95.368C709.131 95.76 708.623 95.956 707.997 95.956C707.372 95.956 706.859 95.76 706.457 95.368C706.065 94.976 705.869 94.4393 705.869 93.758ZM714.409 91.756L708.823 101.5H707.255L712.841 91.756H714.409ZM707.997 92.54C707.409 92.54 707.115 92.946 707.115 93.758C707.115 94.5793 707.409 94.99 707.997 94.99C708.277 94.99 708.492 94.892 708.641 94.696C708.8 94.4907 708.879 94.178 708.879 93.758C708.879 92.946 708.585 92.54 707.997 92.54ZM711.567 99.484C711.567 98.8027 711.763 98.2707 712.155 97.888C712.557 97.496 713.07 97.3 713.695 97.3C714.311 97.3 714.815 97.496 715.207 97.888C715.609 98.2707 715.809 98.8027 715.809 99.484C715.809 100.165 715.609 100.702 715.207 101.094C714.815 101.486 714.311 101.682 713.695 101.682C713.07 101.682 712.557 101.486 712.155 101.094C711.763 100.702 711.567 100.165 711.567 99.484ZM713.681 98.266C713.093 98.266 712.799 98.672 712.799 99.484C712.799 100.296 713.093 100.702 713.681 100.702C714.269 100.702 714.563 100.296 714.563 99.484C714.563 98.672 714.269 98.266 713.681 98.266ZM727.005 95.76V97.104H721.251V95.76H727.005ZM732.489 92.75V91.294H735.401V101.5H733.791V92.75H732.489ZM737.398 99.372V98.168L742.102 91.42H744.034V97.986H745.336V99.372H744.034V101.5H742.466V99.372H737.398ZM742.536 93.044L739.232 97.986H742.536V93.044ZM746.462 99.372V98.168L751.166 91.42H753.098V97.986H754.4V99.372H753.098V101.5H751.53V99.372H746.462ZM751.6 93.044L748.296 97.986H751.6V93.044ZM761.166 94.906C761.399 94.514 761.707 94.2107 762.09 93.996C762.482 93.772 762.944 93.66 763.476 93.66V95.312H763.07C762.444 95.312 761.968 95.4707 761.642 95.788C761.324 96.1053 761.166 96.656 761.166 97.44V101.5H759.57V93.786H761.166V94.906ZM772.013 97.454C772.013 97.7433 771.994 98.0047 771.957 98.238H766.063C766.109 98.854 766.338 99.3487 766.749 99.722C767.159 100.095 767.663 100.282 768.261 100.282C769.119 100.282 769.726 99.9227 770.081 99.204H771.803C771.569 99.9133 771.145 100.497 770.529 100.954C769.922 101.402 769.166 101.626 768.261 101.626C767.523 101.626 766.861 101.463 766.273 101.136C765.694 100.8 765.237 100.333 764.901 99.736C764.574 99.1293 764.411 98.4293 764.411 97.636C764.411 96.8427 764.569 96.1473 764.887 95.55C765.213 94.9433 765.666 94.4767 766.245 94.15C766.833 93.8233 767.505 93.66 768.261 93.66C768.989 93.66 769.637 93.8187 770.207 94.136C770.776 94.4533 771.219 94.9013 771.537 95.48C771.854 96.0493 772.013 96.7073 772.013 97.454ZM770.347 96.95C770.337 96.362 770.127 95.8907 769.717 95.536C769.306 95.1813 768.797 95.004 768.191 95.004C767.64 95.004 767.169 95.1813 766.777 95.536C766.385 95.8813 766.151 96.3527 766.077 96.95H770.347ZM776.383 101.626C775.777 101.626 775.231 101.519 774.745 101.304C774.269 101.08 773.891 100.781 773.611 100.408C773.331 100.025 773.182 99.6007 773.163 99.134H774.815C774.843 99.4607 774.997 99.736 775.277 99.96C775.567 100.175 775.926 100.282 776.355 100.282C776.803 100.282 777.149 100.198 777.391 100.03C777.643 99.8527 777.769 99.6287 777.769 99.358C777.769 99.0687 777.629 98.854 777.349 98.714C777.079 98.574 776.645 98.42 776.047 98.252C775.469 98.0933 774.997 97.9393 774.633 97.79C774.269 97.6407 773.952 97.412 773.681 97.104C773.42 96.796 773.289 96.39 773.289 95.886C773.289 95.4753 773.411 95.102 773.653 94.766C773.896 94.4207 774.241 94.15 774.689 93.954C775.147 93.758 775.669 93.66 776.257 93.66C777.135 93.66 777.839 93.884 778.371 94.332C778.913 94.7707 779.202 95.3727 779.239 96.138H777.643C777.615 95.7927 777.475 95.5173 777.223 95.312C776.971 95.1067 776.631 95.004 776.201 95.004C775.781 95.004 775.459 95.0833 775.235 95.242C775.011 95.4007 774.899 95.6107 774.899 95.872C774.899 96.0773 774.974 96.25 775.123 96.39C775.273 96.53 775.455 96.642 775.669 96.726C775.884 96.8007 776.201 96.8987 776.621 97.02C777.181 97.1693 777.639 97.3233 777.993 97.482C778.357 97.6313 778.67 97.8553 778.931 98.154C779.193 98.4527 779.328 98.8493 779.337 99.344C779.337 99.7827 779.216 100.175 778.973 100.52C778.731 100.865 778.385 101.136 777.937 101.332C777.499 101.528 776.981 101.626 776.383 101.626ZM782.658 94.92C782.928 94.5653 783.297 94.2667 783.764 94.024C784.23 93.7813 784.758 93.66 785.346 93.66C786.018 93.66 786.629 93.828 787.18 94.164C787.74 94.4907 788.178 94.9527 788.496 95.55C788.813 96.1473 788.972 96.8333 788.972 97.608C788.972 98.3827 788.813 99.078 788.496 99.694C788.178 100.301 787.74 100.777 787.18 101.122C786.629 101.458 786.018 101.626 785.346 101.626C784.758 101.626 784.235 101.509 783.778 101.276C783.32 101.033 782.947 100.735 782.658 100.38V105.168H781.062V93.786H782.658V94.92ZM787.348 97.608C787.348 97.076 787.236 96.6187 787.012 96.236C786.797 95.844 786.508 95.55 786.144 95.354C785.789 95.1487 785.406 95.046 784.996 95.046C784.594 95.046 784.212 95.1487 783.848 95.354C783.493 95.5593 783.204 95.858 782.98 96.25C782.765 96.642 782.658 97.104 782.658 97.636C782.658 98.168 782.765 98.6347 782.98 99.036C783.204 99.428 783.493 99.7267 783.848 99.932C784.212 100.137 784.594 100.24 784.996 100.24C785.406 100.24 785.789 100.137 786.144 99.932C786.508 99.7173 786.797 99.4093 787.012 99.008C787.236 98.6067 787.348 98.14 787.348 97.608ZM793.896 101.626C793.168 101.626 792.51 101.463 791.922 101.136C791.334 100.8 790.872 100.333 790.536 99.736C790.2 99.1293 790.032 98.4293 790.032 97.636C790.032 96.852 790.205 96.1567 790.55 95.55C790.895 94.9433 791.367 94.4767 791.964 94.15C792.561 93.8233 793.229 93.66 793.966 93.66C794.703 93.66 795.371 93.8233 795.968 94.15C796.565 94.4767 797.037 94.9433 797.382 95.55C797.727 96.1567 797.9 96.852 797.9 97.636C797.9 98.42 797.723 99.1153 797.368 99.722C797.013 100.329 796.528 100.8 795.912 101.136C795.305 101.463 794.633 101.626 793.896 101.626ZM793.896 100.24C794.307 100.24 794.689 100.142 795.044 99.946C795.408 99.75 795.702 99.456 795.926 99.064C796.15 98.672 796.262 98.196 796.262 97.636C796.262 97.076 796.155 96.6047 795.94 96.222C795.725 95.83 795.441 95.536 795.086 95.34C794.731 95.144 794.349 95.046 793.938 95.046C793.527 95.046 793.145 95.144 792.79 95.34C792.445 95.536 792.169 95.83 791.964 96.222C791.759 96.6047 791.656 97.076 791.656 97.636C791.656 98.4667 791.866 99.1107 792.286 99.568C792.715 100.016 793.252 100.24 793.896 100.24ZM803.37 93.66C803.976 93.66 804.518 93.786 804.994 94.038C805.479 94.29 805.857 94.6633 806.128 95.158C806.398 95.6527 806.534 96.25 806.534 96.95V101.5H804.952V97.188C804.952 96.4973 804.779 95.97 804.434 95.606C804.088 95.2327 803.617 95.046 803.02 95.046C802.422 95.046 801.946 95.2327 801.592 95.606C801.246 95.97 801.074 96.4973 801.074 97.188V101.5H799.478V93.786H801.074V94.668C801.335 94.3507 801.666 94.1033 802.068 93.926C802.478 93.7487 802.912 93.66 803.37 93.66ZM811.37 101.626C810.763 101.626 810.217 101.519 809.732 101.304C809.256 101.08 808.878 100.781 808.598 100.408C808.318 100.025 808.168 99.6007 808.15 99.134H809.802C809.83 99.4607 809.984 99.736 810.264 99.96C810.553 100.175 810.912 100.282 811.342 100.282C811.79 100.282 812.135 100.198 812.378 100.03C812.63 99.8527 812.756 99.6287 812.756 99.358C812.756 99.0687 812.616 98.854 812.336 98.714C812.065 98.574 811.631 98.42 811.034 98.252C810.455 98.0933 809.984 97.9393 809.62 97.79C809.256 97.6407 808.938 97.412 808.668 97.104C808.406 96.796 808.276 96.39 808.276 95.886C808.276 95.4753 808.397 95.102 808.64 94.766C808.882 94.4207 809.228 94.15 809.676 93.954C810.133 93.758 810.656 93.66 811.244 93.66C812.121 93.66 812.826 93.884 813.358 94.332C813.899 94.7707 814.188 95.3727 814.226 96.138H812.63C812.602 95.7927 812.462 95.5173 812.21 95.312C811.958 95.1067 811.617 95.004 811.188 95.004C810.768 95.004 810.446 95.0833 810.222 95.242C809.998 95.4007 809.886 95.6107 809.886 95.872C809.886 96.0773 809.96 96.25 810.11 96.39C810.259 96.53 810.441 96.642 810.656 96.726C810.87 96.8007 811.188 96.8987 811.608 97.02C812.168 97.1693 812.625 97.3233 812.98 97.482C813.344 97.6313 813.656 97.8553 813.918 98.154C814.179 98.4527 814.314 98.8493 814.324 99.344C814.324 99.7827 814.202 100.175 813.96 100.52C813.717 100.865 813.372 101.136 812.924 101.332C812.485 101.528 811.967 101.626 811.37 101.626ZM823.118 97.454C823.118 97.7433 823.099 98.0047 823.062 98.238H817.168C817.215 98.854 817.443 99.3487 817.854 99.722C818.265 100.095 818.769 100.282 819.366 100.282C820.225 100.282 820.831 99.9227 821.186 99.204H822.908C822.675 99.9133 822.25 100.497 821.634 100.954C821.027 101.402 820.271 101.626 819.366 101.626C818.629 101.626 817.966 101.463 817.378 101.136C816.799 100.8 816.342 100.333 816.006 99.736C815.679 99.1293 815.516 98.4293 815.516 97.636C815.516 96.8427 815.675 96.1473 815.992 95.55C816.319 94.9433 816.771 94.4767 817.35 94.15C817.938 93.8233 818.61 93.66 819.366 93.66C820.094 93.66 820.743 93.8187 821.312 94.136C821.881 94.4533 822.325 94.9013 822.642 95.48C822.959 96.0493 823.118 96.7073 823.118 97.454ZM821.452 96.95C821.443 96.362 821.233 95.8907 820.822 95.536C820.411 95.1813 819.903 95.004 819.296 95.004C818.745 95.004 818.274 95.1813 817.882 95.536C817.49 95.8813 817.257 96.3527 817.182 96.95H821.452ZM827.489 101.626C826.882 101.626 826.336 101.519 825.851 101.304C825.375 101.08 824.997 100.781 824.717 100.408C824.437 100.025 824.287 99.6007 824.269 99.134H825.921C825.949 99.4607 826.103 99.736 826.383 99.96C826.672 100.175 827.031 100.282 827.461 100.282C827.909 100.282 828.254 100.198 828.497 100.03C828.749 99.8527 828.875 99.6287 828.875 99.358C828.875 99.0687 828.735 98.854 828.455 98.714C828.184 98.574 827.75 98.42 827.153 98.252C826.574 98.0933 826.103 97.9393 825.739 97.79C825.375 97.6407 825.057 97.412 824.787 97.104C824.525 96.796 824.395 96.39 824.395 95.886C824.395 95.4753 824.516 95.102 824.759 94.766C825.001 94.4207 825.347 94.15 825.795 93.954C826.252 93.758 826.775 93.66 827.363 93.66C828.24 93.66 828.945 93.884 829.477 94.332C830.018 94.7707 830.307 95.3727 830.345 96.138H828.749C828.721 95.7927 828.581 95.5173 828.329 95.312C828.077 95.1067 827.736 95.004 827.307 95.004C826.887 95.004 826.565 95.0833 826.341 95.242C826.117 95.4007 826.005 95.6107 826.005 95.872C826.005 96.0773 826.079 96.25 826.229 96.39C826.378 96.53 826.56 96.642 826.775 96.726C826.989 96.8007 827.307 96.8987 827.727 97.02C828.287 97.1693 828.744 97.3233 829.099 97.482C829.463 97.6313 829.775 97.8553 830.037 98.154C830.298 98.4527 830.433 98.8493 830.443 99.344C830.443 99.7827 830.321 100.175 830.079 100.52C829.836 100.865 829.491 101.136 829.043 101.332C828.604 101.528 828.086 101.626 827.489 101.626Z" fill="#11002A"/>
<path d="M52.812 139.814C52.868 138.946 53.1993 138.269 53.806 137.784C54.422 137.299 55.206 137.056 56.158 137.056C56.8113 137.056 57.376 137.173 57.852 137.406C58.328 137.639 58.6873 137.957 58.93 138.358C59.1727 138.759 59.294 139.212 59.294 139.716C59.294 140.295 59.14 140.789 58.832 141.2C58.524 141.611 58.1553 141.886 57.726 142.026V142.082C58.2767 142.25 58.706 142.558 59.014 143.006C59.322 143.445 59.476 144.009 59.476 144.7C59.476 145.251 59.35 145.741 59.098 146.17C58.846 146.599 58.4727 146.94 57.978 147.192C57.4833 147.435 56.8907 147.556 56.2 147.556C55.192 147.556 54.3613 147.299 53.708 146.786C53.064 146.263 52.7187 145.517 52.672 144.546H54.212C54.2493 145.041 54.4407 145.447 54.786 145.764C55.1313 146.072 55.598 146.226 56.186 146.226C56.7553 146.226 57.194 146.072 57.502 145.764C57.81 145.447 57.964 145.041 57.964 144.546C57.964 143.893 57.754 143.431 57.334 143.16C56.9233 142.88 56.2887 142.74 55.43 142.74H55.066V141.424H55.444C56.2 141.415 56.774 141.289 57.166 141.046C57.5673 140.803 57.768 140.421 57.768 139.898C57.768 139.45 57.6233 139.095 57.334 138.834C57.0447 138.563 56.634 138.428 56.102 138.428C55.5793 138.428 55.1733 138.563 54.884 138.834C54.5947 139.095 54.422 139.422 54.366 139.814H52.812ZM68.2052 147.598C67.5519 147.598 66.9639 147.486 66.4412 147.262C65.9186 147.029 65.5079 146.702 65.2092 146.282C64.9106 145.862 64.7612 145.372 64.7612 144.812H66.4692C66.5066 145.232 66.6699 145.577 66.9592 145.848C67.2579 146.119 67.6732 146.254 68.2052 146.254C68.7559 146.254 69.1852 146.123 69.4932 145.862C69.8012 145.591 69.9552 145.246 69.9552 144.826C69.9552 144.499 69.8572 144.233 69.6612 144.028C69.4746 143.823 69.2366 143.664 68.9472 143.552C68.6672 143.44 68.2752 143.319 67.7712 143.188C67.1366 143.02 66.6186 142.852 66.2172 142.684C65.8252 142.507 65.4892 142.236 65.2092 141.872C64.9292 141.508 64.7892 141.023 64.7892 140.416C64.7892 139.856 64.9292 139.366 65.2092 138.946C65.4892 138.526 65.8812 138.204 66.3852 137.98C66.8892 137.756 67.4726 137.644 68.1352 137.644C69.0779 137.644 69.8479 137.882 70.4452 138.358C71.0519 138.825 71.3879 139.469 71.4532 140.29H69.6892C69.6612 139.935 69.4932 139.632 69.1852 139.38C68.8772 139.128 68.4712 139.002 67.9672 139.002C67.5099 139.002 67.1366 139.119 66.8472 139.352C66.5579 139.585 66.4132 139.921 66.4132 140.36C66.4132 140.659 66.5019 140.906 66.6792 141.102C66.8659 141.289 67.0992 141.438 67.3792 141.55C67.6592 141.662 68.0419 141.783 68.5272 141.914C69.1712 142.091 69.6939 142.269 70.0952 142.446C70.5059 142.623 70.8512 142.899 71.1312 143.272C71.4206 143.636 71.5652 144.126 71.5652 144.742C71.5652 145.237 71.4299 145.703 71.1592 146.142C70.8979 146.581 70.5106 146.935 69.9972 147.206C69.4932 147.467 68.8959 147.598 68.2052 147.598ZM75.3104 141.088V145.358C75.3104 145.647 75.3758 145.857 75.5064 145.988C75.6464 146.109 75.8798 146.17 76.2064 146.17H77.1864V147.5H75.9264C75.2078 147.5 74.6571 147.332 74.2744 146.996C73.8918 146.66 73.7004 146.114 73.7004 145.358V141.088H72.7904V139.786H73.7004V137.868H75.3104V139.786H77.1864V141.088H75.3104ZM78.1254 143.608C78.1254 142.833 78.2841 142.147 78.6014 141.55C78.9281 140.953 79.3668 140.491 79.9174 140.164C80.4774 139.828 81.0934 139.66 81.7654 139.66C82.3721 139.66 82.8994 139.781 83.3474 140.024C83.8048 140.257 84.1688 140.551 84.4394 140.906V139.786H86.0494V147.5H84.4394V146.352C84.1688 146.716 83.8001 147.019 83.3334 147.262C82.8668 147.505 82.3348 147.626 81.7374 147.626C81.0748 147.626 80.4681 147.458 79.9174 147.122C79.3668 146.777 78.9281 146.301 78.6014 145.694C78.2841 145.078 78.1254 144.383 78.1254 143.608ZM84.4394 143.636C84.4394 143.104 84.3274 142.642 84.1034 142.25C83.8888 141.858 83.6041 141.559 83.2494 141.354C82.8948 141.149 82.5121 141.046 82.1014 141.046C81.6908 141.046 81.3081 141.149 80.9534 141.354C80.5988 141.55 80.3094 141.844 80.0854 142.236C79.8708 142.619 79.7634 143.076 79.7634 143.608C79.7634 144.14 79.8708 144.607 80.0854 145.008C80.3094 145.409 80.5988 145.717 80.9534 145.932C81.3174 146.137 81.7001 146.24 82.1014 146.24C82.5121 146.24 82.8948 146.137 83.2494 145.932C83.6041 145.727 83.8888 145.428 84.1034 145.036C84.3274 144.635 84.4394 144.168 84.4394 143.636ZM89.7417 140.906C89.975 140.514 90.283 140.211 90.6657 139.996C91.0577 139.772 91.5197 139.66 92.0517 139.66V141.312H91.6457C91.0204 141.312 90.5444 141.471 90.2177 141.788C89.9004 142.105 89.7417 142.656 89.7417 143.44V147.5H88.1457V139.786H89.7417V140.906ZM96.3188 147.626C95.7121 147.626 95.1661 147.519 94.6808 147.304C94.2048 147.08 93.8268 146.781 93.5468 146.408C93.2668 146.025 93.1174 145.601 93.0988 145.134H94.7508C94.7788 145.461 94.9328 145.736 95.2128 145.96C95.5021 146.175 95.8614 146.282 96.2908 146.282C96.7388 146.282 97.0841 146.198 97.3268 146.03C97.5788 145.853 97.7048 145.629 97.7048 145.358C97.7048 145.069 97.5648 144.854 97.2848 144.714C97.0141 144.574 96.5801 144.42 95.9828 144.252C95.4041 144.093 94.9328 143.939 94.5688 143.79C94.2048 143.641 93.8874 143.412 93.6168 143.104C93.3554 142.796 93.2248 142.39 93.2248 141.886C93.2248 141.475 93.3461 141.102 93.5888 140.766C93.8314 140.421 94.1768 140.15 94.6248 139.954C95.0821 139.758 95.6048 139.66 96.1928 139.66C97.0701 139.66 97.7748 139.884 98.3068 140.332C98.8481 140.771 99.1374 141.373 99.1748 142.138H97.5788C97.5508 141.793 97.4108 141.517 97.1588 141.312C96.9068 141.107 96.5661 141.004 96.1368 141.004C95.7168 141.004 95.3948 141.083 95.1708 141.242C94.9468 141.401 94.8348 141.611 94.8348 141.872C94.8348 142.077 94.9094 142.25 95.0588 142.39C95.2081 142.53 95.3901 142.642 95.6048 142.726C95.8194 142.801 96.1368 142.899 96.5568 143.02C97.1168 143.169 97.5741 143.323 97.9288 143.482C98.2928 143.631 98.6054 143.855 98.8668 144.154C99.1281 144.453 99.2634 144.849 99.2728 145.344C99.2728 145.783 99.1514 146.175 98.9088 146.52C98.6661 146.865 98.3208 147.136 97.8728 147.332C97.4341 147.528 96.9161 147.626 96.3188 147.626Z" fill="#11002A"/>
<rect x="148" y="132" width="524" height="22" rx="4" fill="#F4F4F4"/>
<path d="M688.812 139.814C688.868 138.946 689.199 138.269 689.806 137.784C690.422 137.299 691.206 137.056 692.158 137.056C692.811 137.056 693.376 137.173 693.852 137.406C694.328 137.639 694.687 137.957 694.93 138.358C695.173 138.759 695.294 139.212 695.294 139.716C695.294 140.295 695.14 140.789 694.832 141.2C694.524 141.611 694.155 141.886 693.726 142.026V142.082C694.277 142.25 694.706 142.558 695.014 143.006C695.322 143.445 695.476 144.009 695.476 144.7C695.476 145.251 695.35 145.741 695.098 146.17C694.846 146.599 694.473 146.94 693.978 147.192C693.483 147.435 692.891 147.556 692.2 147.556C691.192 147.556 690.361 147.299 689.708 146.786C689.064 146.263 688.719 145.517 688.672 144.546H690.212C690.249 145.041 690.441 145.447 690.786 145.764C691.131 146.072 691.598 146.226 692.186 146.226C692.755 146.226 693.194 146.072 693.502 145.764C693.81 145.447 693.964 145.041 693.964 144.546C693.964 143.893 693.754 143.431 693.334 143.16C692.923 142.88 692.289 142.74 691.43 142.74H691.066V141.424H691.444C692.2 141.415 692.774 141.289 693.166 141.046C693.567 140.803 693.768 140.421 693.768 139.898C693.768 139.45 693.623 139.095 693.334 138.834C693.045 138.563 692.634 138.428 692.102 138.428C691.579 138.428 691.173 138.563 690.884 138.834C690.595 139.095 690.422 139.422 690.366 139.814H688.812ZM697.153 142.264C697.153 140.649 697.423 139.389 697.965 138.484C698.515 137.569 699.458 137.112 700.793 137.112C702.127 137.112 703.065 137.569 703.607 138.484C704.157 139.389 704.433 140.649 704.433 142.264C704.433 143.897 704.157 145.176 703.607 146.1C703.065 147.015 702.127 147.472 700.793 147.472C699.458 147.472 698.515 147.015 697.965 146.1C697.423 145.176 697.153 143.897 697.153 142.264ZM702.865 142.264C702.865 141.508 702.813 140.869 702.711 140.346C702.617 139.823 702.421 139.399 702.123 139.072C701.824 138.736 701.381 138.568 700.793 138.568C700.205 138.568 699.761 138.736 699.463 139.072C699.164 139.399 698.963 139.823 698.861 140.346C698.767 140.869 698.721 141.508 698.721 142.264C698.721 143.048 698.767 143.706 698.861 144.238C698.954 144.77 699.15 145.199 699.449 145.526C699.757 145.853 700.205 146.016 700.793 146.016C701.381 146.016 701.824 145.853 702.123 145.526C702.431 145.199 702.631 144.77 702.725 144.238C702.818 143.706 702.865 143.048 702.865 142.264ZM705.869 139.758C705.869 139.077 706.065 138.545 706.457 138.162C706.859 137.77 707.372 137.574 707.997 137.574C708.623 137.574 709.131 137.77 709.523 138.162C709.925 138.545 710.125 139.077 710.125 139.758C710.125 140.439 709.925 140.976 709.523 141.368C709.131 141.76 708.623 141.956 707.997 141.956C707.372 141.956 706.859 141.76 706.457 141.368C706.065 140.976 705.869 140.439 705.869 139.758ZM714.409 137.756L708.823 147.5H707.255L712.841 137.756H714.409ZM707.997 138.54C707.409 138.54 707.115 138.946 707.115 139.758C707.115 140.579 707.409 140.99 707.997 140.99C708.277 140.99 708.492 140.892 708.641 140.696C708.8 140.491 708.879 140.178 708.879 139.758C708.879 138.946 708.585 138.54 707.997 138.54ZM711.567 145.484C711.567 144.803 711.763 144.271 712.155 143.888C712.557 143.496 713.07 143.3 713.695 143.3C714.311 143.3 714.815 143.496 715.207 143.888C715.609 144.271 715.809 144.803 715.809 145.484C715.809 146.165 715.609 146.702 715.207 147.094C714.815 147.486 714.311 147.682 713.695 147.682C713.07 147.682 712.557 147.486 712.155 147.094C711.763 146.702 711.567 146.165 711.567 145.484ZM713.681 144.266C713.093 144.266 712.799 144.672 712.799 145.484C712.799 146.296 713.093 146.702 713.681 146.702C714.269 146.702 714.563 146.296 714.563 145.484C714.563 144.672 714.269 144.266 713.681 144.266ZM727.005 141.76V143.104H721.251V141.76H727.005ZM732.489 138.75V137.294H735.401V147.5H733.791V138.75H732.489ZM737.398 145.372V144.168L742.102 137.42H744.034V143.986H745.336V145.372H744.034V147.5H742.466V145.372H737.398ZM742.536 139.044L739.232 143.986H742.536V139.044ZM746.462 145.372V144.168L751.166 137.42H753.098V143.986H754.4V145.372H753.098V147.5H751.53V145.372H746.462ZM751.6 139.044L748.296 143.986H751.6V139.044ZM761.166 140.906C761.399 140.514 761.707 140.211 762.09 139.996C762.482 139.772 762.944 139.66 763.476 139.66V141.312H763.07C762.444 141.312 761.968 141.471 761.642 141.788C761.324 142.105 761.166 142.656 761.166 143.44V147.5H759.57V139.786H761.166V140.906ZM772.013 143.454C772.013 143.743 771.994 144.005 771.957 144.238H766.063C766.109 144.854 766.338 145.349 766.749 145.722C767.159 146.095 767.663 146.282 768.261 146.282C769.119 146.282 769.726 145.923 770.081 145.204H771.803C771.569 145.913 771.145 146.497 770.529 146.954C769.922 147.402 769.166 147.626 768.261 147.626C767.523 147.626 766.861 147.463 766.273 147.136C765.694 146.8 765.237 146.333 764.901 145.736C764.574 145.129 764.411 144.429 764.411 143.636C764.411 142.843 764.569 142.147 764.887 141.55C765.213 140.943 765.666 140.477 766.245 140.15C766.833 139.823 767.505 139.66 768.261 139.66C768.989 139.66 769.637 139.819 770.207 140.136C770.776 140.453 771.219 140.901 771.537 141.48C771.854 142.049 772.013 142.707 772.013 143.454ZM770.347 142.95C770.337 142.362 770.127 141.891 769.717 141.536C769.306 141.181 768.797 141.004 768.191 141.004C767.64 141.004 767.169 141.181 766.777 141.536C766.385 141.881 766.151 142.353 766.077 142.95H770.347ZM776.383 147.626C775.777 147.626 775.231 147.519 774.745 147.304C774.269 147.08 773.891 146.781 773.611 146.408C773.331 146.025 773.182 145.601 773.163 145.134H774.815C774.843 145.461 774.997 145.736 775.277 145.96C775.567 146.175 775.926 146.282 776.355 146.282C776.803 146.282 777.149 146.198 777.391 146.03C777.643 145.853 777.769 145.629 777.769 145.358C777.769 145.069 777.629 144.854 777.349 144.714C777.079 144.574 776.645 144.42 776.047 144.252C775.469 144.093 774.997 143.939 774.633 143.79C774.269 143.641 773.952 143.412 773.681 143.104C773.42 142.796 773.289 142.39 773.289 141.886C773.289 141.475 773.411 141.102 773.653 140.766C773.896 140.421 774.241 140.15 774.689 139.954C775.147 139.758 775.669 139.66 776.257 139.66C777.135 139.66 777.839 139.884 778.371 140.332C778.913 140.771 779.202 141.373 779.239 142.138H777.643C777.615 141.793 777.475 141.517 777.223 141.312C776.971 141.107 776.631 141.004 776.201 141.004C775.781 141.004 775.459 141.083 775.235 141.242C775.011 141.401 774.899 141.611 774.899 141.872C774.899 142.077 774.974 142.25 775.123 142.39C775.273 142.53 775.455 142.642 775.669 142.726C775.884 142.801 776.201 142.899 776.621 143.02C777.181 143.169 777.639 143.323 777.993 143.482C778.357 143.631 778.67 143.855 778.931 144.154C779.193 144.453 779.328 144.849 779.337 145.344C779.337 145.783 779.216 146.175 778.973 146.52C778.731 146.865 778.385 147.136 777.937 147.332C777.499 147.528 776.981 147.626 776.383 147.626ZM782.658 140.92C782.928 140.565 783.297 140.267 783.764 140.024C784.23 139.781 784.758 139.66 785.346 139.66C786.018 139.66 786.629 139.828 787.18 140.164C787.74 140.491 788.178 140.953 788.496 141.55C788.813 142.147 788.972 142.833 788.972 143.608C788.972 144.383 788.813 145.078 788.496 145.694C788.178 146.301 787.74 146.777 787.18 147.122C786.629 147.458 786.018 147.626 785.346 147.626C784.758 147.626 784.235 147.509 783.778 147.276C783.32 147.033 782.947 146.735 782.658 146.38V151.168H781.062V139.786H782.658V140.92ZM787.348 143.608C787.348 143.076 787.236 142.619 787.012 142.236C786.797 141.844 786.508 141.55 786.144 141.354C785.789 141.149 785.406 141.046 784.996 141.046C784.594 141.046 784.212 141.149 783.848 141.354C783.493 141.559 783.204 141.858 782.98 142.25C782.765 142.642 782.658 143.104 782.658 143.636C782.658 144.168 782.765 144.635 782.98 145.036C783.204 145.428 783.493 145.727 783.848 145.932C784.212 146.137 784.594 146.24 784.996 146.24C785.406 146.24 785.789 146.137 786.144 145.932C786.508 145.717 786.797 145.409 787.012 145.008C787.236 144.607 787.348 144.14 787.348 143.608ZM793.896 147.626C793.168 147.626 792.51 147.463 791.922 147.136C791.334 146.8 790.872 146.333 790.536 145.736C790.2 145.129 790.032 144.429 790.032 143.636C790.032 142.852 790.205 142.157 790.55 141.55C790.895 140.943 791.367 140.477 791.964 140.15C792.561 139.823 793.229 139.66 793.966 139.66C794.703 139.66 795.371 139.823 795.968 140.15C796.565 140.477 797.037 140.943 797.382 141.55C797.727 142.157 797.9 142.852 797.9 143.636C797.9 144.42 797.723 145.115 797.368 145.722C797.013 146.329 796.528 146.8 795.912 147.136C795.305 147.463 794.633 147.626 793.896 147.626ZM793.896 146.24C794.307 146.24 794.689 146.142 795.044 145.946C795.408 145.75 795.702 145.456 795.926 145.064C796.15 144.672 796.262 144.196 796.262 143.636C796.262 143.076 796.155 142.605 795.94 142.222C795.725 141.83 795.441 141.536 795.086 141.34C794.731 141.144 794.349 141.046 793.938 141.046C793.527 141.046 793.145 141.144 792.79 141.34C792.445 141.536 792.169 141.83 791.964 142.222C791.759 142.605 791.656 143.076 791.656 143.636C791.656 144.467 791.866 145.111 792.286 145.568C792.715 146.016 793.252 146.24 793.896 146.24ZM803.37 139.66C803.976 139.66 804.518 139.786 804.994 140.038C805.479 140.29 805.857 140.663 806.128 141.158C806.398 141.653 806.534 142.25 806.534 142.95V147.5H804.952V143.188C804.952 142.497 804.779 141.97 804.434 141.606C804.088 141.233 803.617 141.046 803.02 141.046C802.422 141.046 801.946 141.233 801.592 141.606C801.246 141.97 801.074 142.497 801.074 143.188V147.5H799.478V139.786H801.074V140.668C801.335 140.351 801.666 140.103 802.068 139.926C802.478 139.749 802.912 139.66 803.37 139.66ZM811.37 147.626C810.763 147.626 810.217 147.519 809.732 147.304C809.256 147.08 808.878 146.781 808.598 146.408C808.318 146.025 808.168 145.601 808.15 145.134H809.802C809.83 145.461 809.984 145.736 810.264 145.96C810.553 146.175 810.912 146.282 811.342 146.282C811.79 146.282 812.135 146.198 812.378 146.03C812.63 145.853 812.756 145.629 812.756 145.358C812.756 145.069 812.616 144.854 812.336 144.714C812.065 144.574 811.631 144.42 811.034 144.252C810.455 144.093 809.984 143.939 809.62 143.79C809.256 143.641 808.938 143.412 808.668 143.104C808.406 142.796 808.276 142.39 808.276 141.886C808.276 141.475 808.397 141.102 808.64 140.766C808.882 140.421 809.228 140.15 809.676 139.954C810.133 139.758 810.656 139.66 811.244 139.66C812.121 139.66 812.826 139.884 813.358 140.332C813.899 140.771 814.188 141.373 814.226 142.138H812.63C812.602 141.793 812.462 141.517 812.21 141.312C811.958 141.107 811.617 141.004 811.188 141.004C810.768 141.004 810.446 141.083 810.222 141.242C809.998 141.401 809.886 141.611 809.886 141.872C809.886 142.077 809.96 142.25 810.11 142.39C810.259 142.53 810.441 142.642 810.656 142.726C810.87 142.801 811.188 142.899 811.608 143.02C812.168 143.169 812.625 143.323 812.98 143.482C813.344 143.631 813.656 143.855 813.918 144.154C814.179 144.453 814.314 144.849 814.324 145.344C814.324 145.783 814.202 146.175 813.96 146.52C813.717 146.865 813.372 147.136 812.924 147.332C812.485 147.528 811.967 147.626 811.37 147.626ZM823.118 143.454C823.118 143.743 823.099 144.005 823.062 144.238H817.168C817.215 144.854 817.443 145.349 817.854 145.722C818.265 146.095 818.769 146.282 819.366 146.282C820.225 146.282 820.831 145.923 821.186 145.204H822.908C822.675 145.913 822.25 146.497 821.634 146.954C821.027 147.402 820.271 147.626 819.366 147.626C818.629 147.626 817.966 147.463 817.378 147.136C816.799 146.8 816.342 146.333 816.006 145.736C815.679 145.129 815.516 144.429 815.516 143.636C815.516 142.843 815.675 142.147 815.992 141.55C816.319 140.943 816.771 140.477 817.35 140.15C817.938 139.823 818.61 139.66 819.366 139.66C820.094 139.66 820.743 139.819 821.312 140.136C821.881 140.453 822.325 140.901 822.642 141.48C822.959 142.049 823.118 142.707 823.118 143.454ZM821.452 142.95C821.443 142.362 821.233 141.891 820.822 141.536C820.411 141.181 819.903 141.004 819.296 141.004C818.745 141.004 818.274 141.181 817.882 141.536C817.49 141.881 817.257 142.353 817.182 142.95H821.452ZM827.489 147.626C826.882 147.626 826.336 147.519 825.851 147.304C825.375 147.08 824.997 146.781 824.717 146.408C824.437 146.025 824.287 145.601 824.269 145.134H825.921C825.949 145.461 826.103 145.736 826.383 145.96C826.672 146.175 827.031 146.282 827.461 146.282C827.909 146.282 828.254 146.198 828.497 146.03C828.749 145.853 828.875 145.629 828.875 145.358C828.875 145.069 828.735 144.854 828.455 144.714C828.184 144.574 827.75 144.42 827.153 144.252C826.574 144.093 826.103 143.939 825.739 143.79C825.375 143.641 825.057 143.412 824.787 143.104C824.525 142.796 824.395 142.39 824.395 141.886C824.395 141.475 824.516 141.102 824.759 140.766C825.001 140.421 825.347 140.15 825.795 139.954C826.252 139.758 826.775 139.66 827.363 139.66C828.24 139.66 828.945 139.884 829.477 140.332C830.018 140.771 830.307 141.373 830.345 142.138H828.749C828.721 141.793 828.581 141.517 828.329 141.312C828.077 141.107 827.736 141.004 827.307 141.004C826.887 141.004 826.565 141.083 826.341 141.242C826.117 141.401 826.005 141.611 826.005 141.872C826.005 142.077 826.079 142.25 826.229 142.39C826.378 142.53 826.56 142.642 826.775 142.726C826.989 142.801 827.307 142.899 827.727 143.02C828.287 143.169 828.744 143.323 829.099 143.482C829.463 143.631 829.775 143.855 830.037 144.154C830.298 144.453 830.433 144.849 830.443 145.344C830.443 145.783 830.321 146.175 830.079 146.52C829.836 146.865 829.491 147.136 829.043 147.332C828.604 147.528 828.086 147.626 827.489 147.626Z" fill="#11002A"/>
<path d="M52.644 191.372V190.168L57.348 183.42H59.28V189.986H60.582V191.372H59.28V193.5H57.712V191.372H52.644ZM57.782 185.044L54.478 189.986H57.782V185.044ZM68.9572 193.598C68.3038 193.598 67.7158 193.486 67.1932 193.262C66.6705 193.029 66.2598 192.702 65.9612 192.282C65.6625 191.862 65.5132 191.372 65.5132 190.812H67.2212C67.2585 191.232 67.4218 191.577 67.7112 191.848C68.0098 192.119 68.4252 192.254 68.9572 192.254C69.5078 192.254 69.9372 192.123 70.2452 191.862C70.5532 191.591 70.7072 191.246 70.7072 190.826C70.7072 190.499 70.6092 190.233 70.4132 190.028C70.2265 189.823 69.9885 189.664 69.6992 189.552C69.4192 189.44 69.0272 189.319 68.5232 189.188C67.8885 189.02 67.3705 188.852 66.9692 188.684C66.5772 188.507 66.2412 188.236 65.9612 187.872C65.6812 187.508 65.5412 187.023 65.5412 186.416C65.5412 185.856 65.6812 185.366 65.9612 184.946C66.2412 184.526 66.6332 184.204 67.1372 183.98C67.6412 183.756 68.2245 183.644 68.8872 183.644C69.8298 183.644 70.5998 183.882 71.1972 184.358C71.8038 184.825 72.1398 185.469 72.2052 186.29H70.4412C70.4132 185.935 70.2452 185.632 69.9372 185.38C69.6292 185.128 69.2232 185.002 68.7192 185.002C68.2618 185.002 67.8885 185.119 67.5992 185.352C67.3098 185.585 67.1652 185.921 67.1652 186.36C67.1652 186.659 67.2538 186.906 67.4312 187.102C67.6178 187.289 67.8512 187.438 68.1312 187.55C68.4112 187.662 68.7938 187.783 69.2792 187.914C69.9232 188.091 70.4458 188.269 70.8472 188.446C71.2578 188.623 71.6032 188.899 71.8832 189.272C72.1725 189.636 72.3172 190.126 72.3172 190.742C72.3172 191.237 72.1818 191.703 71.9112 192.142C71.6498 192.581 71.2625 192.935 70.7492 193.206C70.2452 193.467 69.6478 193.598 68.9572 193.598ZM76.0624 187.088V191.358C76.0624 191.647 76.1277 191.857 76.2584 191.988C76.3984 192.109 76.6317 192.17 76.9584 192.17H77.9384V193.5H76.6784C75.9597 193.5 75.4091 193.332 75.0264 192.996C74.6437 192.66 74.4524 192.114 74.4524 191.358V187.088H73.5424V185.786H74.4524V183.868H76.0624V185.786H77.9384V187.088H76.0624ZM78.8774 189.608C78.8774 188.833 79.036 188.147 79.3534 187.55C79.68 186.953 80.1187 186.491 80.6694 186.164C81.2294 185.828 81.8454 185.66 82.5174 185.66C83.124 185.66 83.6514 185.781 84.0994 186.024C84.5567 186.257 84.9207 186.551 85.1914 186.906V185.786H86.8014V193.5H85.1914V192.352C84.9207 192.716 84.552 193.019 84.0854 193.262C83.6187 193.505 83.0867 193.626 82.4894 193.626C81.8267 193.626 81.22 193.458 80.6694 193.122C80.1187 192.777 79.68 192.301 79.3534 191.694C79.036 191.078 78.8774 190.383 78.8774 189.608ZM85.1914 189.636C85.1914 189.104 85.0794 188.642 84.8554 188.25C84.6407 187.858 84.356 187.559 84.0014 187.354C83.6467 187.149 83.264 187.046 82.8534 187.046C82.4427 187.046 82.06 187.149 81.7054 187.354C81.3507 187.55 81.0614 187.844 80.8374 188.236C80.6227 188.619 80.5154 189.076 80.5154 189.608C80.5154 190.14 80.6227 190.607 80.8374 191.008C81.0614 191.409 81.3507 191.717 81.7054 191.932C82.0694 192.137 82.452 192.24 82.8534 192.24C83.264 192.24 83.6467 192.137 84.0014 191.932C84.356 191.727 84.6407 191.428 84.8554 191.036C85.0794 190.635 85.1914 190.168 85.1914 189.636ZM90.4937 186.906C90.727 186.514 91.035 186.211 91.4177 185.996C91.8097 185.772 92.2717 185.66 92.8037 185.66V187.312H92.3977C91.7723 187.312 91.2963 187.471 90.9697 187.788C90.6523 188.105 90.4937 188.656 90.4937 189.44V193.5H88.8977V185.786H90.4937V186.906ZM97.0707 193.626C96.464 193.626 95.918 193.519 95.4327 193.304C94.9567 193.08 94.5787 192.781 94.2987 192.408C94.0187 192.025 93.8694 191.601 93.8507 191.134H95.5027C95.5307 191.461 95.6847 191.736 95.9647 191.96C96.254 192.175 96.6134 192.282 97.0427 192.282C97.4907 192.282 97.836 192.198 98.0787 192.03C98.3307 191.853 98.4567 191.629 98.4567 191.358C98.4567 191.069 98.3167 190.854 98.0367 190.714C97.766 190.574 97.332 190.42 96.7347 190.252C96.156 190.093 95.6847 189.939 95.3207 189.79C94.9567 189.641 94.6394 189.412 94.3687 189.104C94.1074 188.796 93.9767 188.39 93.9767 187.886C93.9767 187.475 94.098 187.102 94.3407 186.766C94.5834 186.421 94.9287 186.15 95.3767 185.954C95.834 185.758 96.3567 185.66 96.9447 185.66C97.822 185.66 98.5267 185.884 99.0587 186.332C99.6 186.771 99.8894 187.373 99.9267 188.138H98.3307C98.3027 187.793 98.1627 187.517 97.9107 187.312C97.6587 187.107 97.318 187.004 96.8887 187.004C96.4687 187.004 96.1467 187.083 95.9227 187.242C95.6987 187.401 95.5867 187.611 95.5867 187.872C95.5867 188.077 95.6614 188.25 95.8107 188.39C95.96 188.53 96.142 188.642 96.3567 188.726C96.5714 188.801 96.8887 188.899 97.3087 189.02C97.8687 189.169 98.326 189.323 98.6807 189.482C99.0447 189.631 99.3574 189.855 99.6187 190.154C99.88 190.453 100.015 190.849 100.025 191.344C100.025 191.783 99.9034 192.175 99.6607 192.52C99.418 192.865 99.0727 193.136 98.6247 193.332C98.186 193.528 97.668 193.626 97.0707 193.626Z" fill="#11002A"/>
<rect x="148" y="178" width="524" height="22" rx="4" fill="#F4F4F4"/>
<path d="M688.812 185.814C688.868 184.946 689.199 184.269 689.806 183.784C690.422 183.299 691.206 183.056 692.158 183.056C692.811 183.056 693.376 183.173 693.852 183.406C694.328 183.639 694.687 183.957 694.93 184.358C695.173 184.759 695.294 185.212 695.294 185.716C695.294 186.295 695.14 186.789 694.832 187.2C694.524 187.611 694.155 187.886 693.726 188.026V188.082C694.277 188.25 694.706 188.558 695.014 189.006C695.322 189.445 695.476 190.009 695.476 190.7C695.476 191.251 695.35 191.741 695.098 192.17C694.846 192.599 694.473 192.94 693.978 193.192C693.483 193.435 692.891 193.556 692.2 193.556C691.192 193.556 690.361 193.299 689.708 192.786C689.064 192.263 688.719 191.517 688.672 190.546H690.212C690.249 191.041 690.441 191.447 690.786 191.764C691.131 192.072 691.598 192.226 692.186 192.226C692.755 192.226 693.194 192.072 693.502 191.764C693.81 191.447 693.964 191.041 693.964 190.546C693.964 189.893 693.754 189.431 693.334 189.16C692.923 188.88 692.289 188.74 691.43 188.74H691.066V187.424H691.444C692.2 187.415 692.774 187.289 693.166 187.046C693.567 186.803 693.768 186.421 693.768 185.898C693.768 185.45 693.623 185.095 693.334 184.834C693.045 184.563 692.634 184.428 692.102 184.428C691.579 184.428 691.173 184.563 690.884 184.834C690.595 185.095 690.422 185.422 690.366 185.814H688.812ZM697.153 188.264C697.153 186.649 697.423 185.389 697.965 184.484C698.515 183.569 699.458 183.112 700.793 183.112C702.127 183.112 703.065 183.569 703.607 184.484C704.157 185.389 704.433 186.649 704.433 188.264C704.433 189.897 704.157 191.176 703.607 192.1C703.065 193.015 702.127 193.472 700.793 193.472C699.458 193.472 698.515 193.015 697.965 192.1C697.423 191.176 697.153 189.897 697.153 188.264ZM702.865 188.264C702.865 187.508 702.813 186.869 702.711 186.346C702.617 185.823 702.421 185.399 702.123 185.072C701.824 184.736 701.381 184.568 700.793 184.568C700.205 184.568 699.761 184.736 699.463 185.072C699.164 185.399 698.963 185.823 698.861 186.346C698.767 186.869 698.721 187.508 698.721 188.264C698.721 189.048 698.767 189.706 698.861 190.238C698.954 190.77 699.15 191.199 699.449 191.526C699.757 191.853 700.205 192.016 700.793 192.016C701.381 192.016 701.824 191.853 702.123 191.526C702.431 191.199 702.631 190.77 702.725 190.238C702.818 189.706 702.865 189.048 702.865 188.264ZM705.869 185.758C705.869 185.077 706.065 184.545 706.457 184.162C706.859 183.77 707.372 183.574 707.997 183.574C708.623 183.574 709.131 183.77 709.523 184.162C709.925 184.545 710.125 185.077 710.125 185.758C710.125 186.439 709.925 186.976 709.523 187.368C709.131 187.76 708.623 187.956 707.997 187.956C707.372 187.956 706.859 187.76 706.457 187.368C706.065 186.976 705.869 186.439 705.869 185.758ZM714.409 183.756L708.823 193.5H707.255L712.841 183.756H714.409ZM707.997 184.54C707.409 184.54 707.115 184.946 707.115 185.758C707.115 186.579 707.409 186.99 707.997 186.99C708.277 186.99 708.492 186.892 708.641 186.696C708.8 186.491 708.879 186.178 708.879 185.758C708.879 184.946 708.585 184.54 707.997 184.54ZM711.567 191.484C711.567 190.803 711.763 190.271 712.155 189.888C712.557 189.496 713.07 189.3 713.695 189.3C714.311 189.3 714.815 189.496 715.207 189.888C715.609 190.271 715.809 190.803 715.809 191.484C715.809 192.165 715.609 192.702 715.207 193.094C714.815 193.486 714.311 193.682 713.695 193.682C713.07 193.682 712.557 193.486 712.155 193.094C711.763 192.702 711.567 192.165 711.567 191.484ZM713.681 190.266C713.093 190.266 712.799 190.672 712.799 191.484C712.799 192.296 713.093 192.702 713.681 192.702C714.269 192.702 714.563 192.296 714.563 191.484C714.563 190.672 714.269 190.266 713.681 190.266ZM727.005 187.76V189.104H721.251V187.76H727.005ZM732.489 184.75V183.294H735.401V193.5H733.791V184.75H732.489ZM737.398 191.372V190.168L742.102 183.42H744.034V189.986H745.336V191.372H744.034V193.5H742.466V191.372H737.398ZM742.536 185.044L739.232 189.986H742.536V185.044ZM746.462 191.372V190.168L751.166 183.42H753.098V189.986H754.4V191.372H753.098V193.5H751.53V191.372H746.462ZM751.6 185.044L748.296 189.986H751.6V185.044ZM761.166 186.906C761.399 186.514 761.707 186.211 762.09 185.996C762.482 185.772 762.944 185.66 763.476 185.66V187.312H763.07C762.444 187.312 761.968 187.471 761.642 187.788C761.324 188.105 761.166 188.656 761.166 189.44V193.5H759.57V185.786H761.166V186.906ZM772.013 189.454C772.013 189.743 771.994 190.005 771.957 190.238H766.063C766.109 190.854 766.338 191.349 766.749 191.722C767.159 192.095 767.663 192.282 768.261 192.282C769.119 192.282 769.726 191.923 770.081 191.204H771.803C771.569 191.913 771.145 192.497 770.529 192.954C769.922 193.402 769.166 193.626 768.261 193.626C767.523 193.626 766.861 193.463 766.273 193.136C765.694 192.8 765.237 192.333 764.901 191.736C764.574 191.129 764.411 190.429 764.411 189.636C764.411 188.843 764.569 188.147 764.887 187.55C765.213 186.943 765.666 186.477 766.245 186.15C766.833 185.823 767.505 185.66 768.261 185.66C768.989 185.66 769.637 185.819 770.207 186.136C770.776 186.453 771.219 186.901 771.537 187.48C771.854 188.049 772.013 188.707 772.013 189.454ZM770.347 188.95C770.337 188.362 770.127 187.891 769.717 187.536C769.306 187.181 768.797 187.004 768.191 187.004C767.64 187.004 767.169 187.181 766.777 187.536C766.385 187.881 766.151 188.353 766.077 188.95H770.347ZM776.383 193.626C775.777 193.626 775.231 193.519 774.745 193.304C774.269 193.08 773.891 192.781 773.611 192.408C773.331 192.025 773.182 191.601 773.163 191.134H774.815C774.843 191.461 774.997 191.736 775.277 191.96C775.567 192.175 775.926 192.282 776.355 192.282C776.803 192.282 777.149 192.198 777.391 192.03C777.643 191.853 777.769 191.629 777.769 191.358C777.769 191.069 777.629 190.854 777.349 190.714C777.079 190.574 776.645 190.42 776.047 190.252C775.469 190.093 774.997 189.939 774.633 189.79C774.269 189.641 773.952 189.412 773.681 189.104C773.42 188.796 773.289 188.39 773.289 187.886C773.289 187.475 773.411 187.102 773.653 186.766C773.896 186.421 774.241 186.15 774.689 185.954C775.147 185.758 775.669 185.66 776.257 185.66C777.135 185.66 777.839 185.884 778.371 186.332C778.913 186.771 779.202 187.373 779.239 188.138H777.643C777.615 187.793 777.475 187.517 777.223 187.312C776.971 187.107 776.631 187.004 776.201 187.004C775.781 187.004 775.459 187.083 775.235 187.242C775.011 187.401 774.899 187.611 774.899 187.872C774.899 188.077 774.974 188.25 775.123 188.39C775.273 188.53 775.455 188.642 775.669 188.726C775.884 188.801 776.201 188.899 776.621 189.02C777.181 189.169 777.639 189.323 777.993 189.482C778.357 189.631 778.67 189.855 778.931 190.154C779.193 190.453 779.328 190.849 779.337 191.344C779.337 191.783 779.216 192.175 778.973 192.52C778.731 192.865 778.385 193.136 777.937 193.332C777.499 193.528 776.981 193.626 776.383 193.626ZM782.658 186.92C782.928 186.565 783.297 186.267 783.764 186.024C784.23 185.781 784.758 185.66 785.346 185.66C786.018 185.66 786.629 185.828 787.18 186.164C787.74 186.491 788.178 186.953 788.496 187.55C788.813 188.147 788.972 188.833 788.972 189.608C788.972 190.383 788.813 191.078 788.496 191.694C788.178 192.301 787.74 192.777 787.18 193.122C786.629 193.458 786.018 193.626 785.346 193.626C784.758 193.626 784.235 193.509 783.778 193.276C783.32 193.033 782.947 192.735 782.658 192.38V197.168H781.062V185.786H782.658V186.92ZM787.348 189.608C787.348 189.076 787.236 188.619 787.012 188.236C786.797 187.844 786.508 187.55 786.144 187.354C785.789 187.149 785.406 187.046 784.996 187.046C784.594 187.046 784.212 187.149 783.848 187.354C783.493 187.559 783.204 187.858 782.98 188.25C782.765 188.642 782.658 189.104 782.658 189.636C782.658 190.168 782.765 190.635 782.98 191.036C783.204 191.428 783.493 191.727 783.848 191.932C784.212 192.137 784.594 192.24 784.996 192.24C785.406 192.24 785.789 192.137 786.144 191.932C786.508 191.717 786.797 191.409 787.012 191.008C787.236 190.607 787.348 190.14 787.348 189.608ZM793.896 193.626C793.168 193.626 792.51 193.463 791.922 193.136C791.334 192.8 790.872 192.333 790.536 191.736C790.2 191.129 790.032 190.429 790.032 189.636C790.032 188.852 790.205 188.157 790.55 187.55C790.895 186.943 791.367 186.477 791.964 186.15C792.561 185.823 793.229 185.66 793.966 185.66C794.703 185.66 795.371 185.823 795.968 186.15C796.565 186.477 797.037 186.943 797.382 187.55C797.727 188.157 797.9 188.852 797.9 189.636C797.9 190.42 797.723 191.115 797.368 191.722C797.013 192.329 796.528 192.8 795.912 193.136C795.305 193.463 794.633 193.626 793.896 193.626ZM793.896 192.24C794.307 192.24 794.689 192.142 795.044 191.946C795.408 191.75 795.702 191.456 795.926 191.064C796.15 190.672 796.262 190.196 796.262 189.636C796.262 189.076 796.155 188.605 795.94 188.222C795.725 187.83 795.441 187.536 795.086 187.34C794.731 187.144 794.349 187.046 793.938 187.046C793.527 187.046 793.145 187.144 792.79 187.34C792.445 187.536 792.169 187.83 791.964 188.222C791.759 188.605 791.656 189.076 791.656 189.636C791.656 190.467 791.866 191.111 792.286 191.568C792.715 192.016 793.252 192.24 793.896 192.24ZM803.37 185.66C803.976 185.66 804.518 185.786 804.994 186.038C805.479 186.29 805.857 186.663 806.128 187.158C806.398 187.653 806.534 188.25 806.534 188.95V193.5H804.952V189.188C804.952 188.497 804.779 187.97 804.434 187.606C804.088 187.233 803.617 187.046 803.02 187.046C802.422 187.046 801.946 187.233 801.592 187.606C801.246 187.97 801.074 188.497 801.074 189.188V193.5H799.478V185.786H801.074V186.668C801.335 186.351 801.666 186.103 802.068 185.926C802.478 185.749 802.912 185.66 803.37 185.66ZM811.37 193.626C810.763 193.626 810.217 193.519 809.732 193.304C809.256 193.08 808.878 192.781 808.598 192.408C808.318 192.025 808.168 191.601 808.15 191.134H809.802C809.83 191.461 809.984 191.736 810.264 191.96C810.553 192.175 810.912 192.282 811.342 192.282C811.79 192.282 812.135 192.198 812.378 192.03C812.63 191.853 812.756 191.629 812.756 191.358C812.756 191.069 812.616 190.854 812.336 190.714C812.065 190.574 811.631 190.42 811.034 190.252C810.455 190.093 809.984 189.939 809.62 189.79C809.256 189.641 808.938 189.412 808.668 189.104C808.406 188.796 808.276 188.39 808.276 187.886C808.276 187.475 808.397 187.102 808.64 186.766C808.882 186.421 809.228 186.15 809.676 185.954C810.133 185.758 810.656 185.66 811.244 185.66C812.121 185.66 812.826 185.884 813.358 186.332C813.899 186.771 814.188 187.373 814.226 188.138H812.63C812.602 187.793 812.462 187.517 812.21 187.312C811.958 187.107 811.617 187.004 811.188 187.004C810.768 187.004 810.446 187.083 810.222 187.242C809.998 187.401 809.886 187.611 809.886 187.872C809.886 188.077 809.96 188.25 810.11 188.39C810.259 188.53 810.441 188.642 810.656 188.726C810.87 188.801 811.188 188.899 811.608 189.02C812.168 189.169 812.625 189.323 812.98 189.482C813.344 189.631 813.656 189.855 813.918 190.154C814.179 190.453 814.314 190.849 814.324 191.344C814.324 191.783 814.202 192.175 813.96 192.52C813.717 192.865 813.372 193.136 812.924 193.332C812.485 193.528 811.967 193.626 811.37 193.626ZM823.118 189.454C823.118 189.743 823.099 190.005 823.062 190.238H817.168C817.215 190.854 817.443 191.349 817.854 191.722C818.265 192.095 818.769 192.282 819.366 192.282C820.225 192.282 820.831 191.923 821.186 191.204H822.908C822.675 191.913 822.25 192.497 821.634 192.954C821.027 193.402 820.271 193.626 819.366 193.626C818.629 193.626 817.966 193.463 817.378 193.136C816.799 192.8 816.342 192.333 816.006 191.736C815.679 191.129 815.516 190.429 815.516 189.636C815.516 188.843 815.675 188.147 815.992 187.55C816.319 186.943 816.771 186.477 817.35 186.15C817.938 185.823 818.61 185.66 819.366 185.66C820.094 185.66 820.743 185.819 821.312 186.136C821.881 186.453 822.325 186.901 822.642 187.48C822.959 188.049 823.118 188.707 823.118 189.454ZM821.452 188.95C821.443 188.362 821.233 187.891 820.822 187.536C820.411 187.181 819.903 187.004 819.296 187.004C818.745 187.004 818.274 187.181 817.882 187.536C817.49 187.881 817.257 188.353 817.182 188.95H821.452ZM827.489 193.626C826.882 193.626 826.336 193.519 825.851 193.304C825.375 193.08 824.997 192.781 824.717 192.408C824.437 192.025 824.287 191.601 824.269 191.134H825.921C825.949 191.461 826.103 191.736 826.383 191.96C826.672 192.175 827.031 192.282 827.461 192.282C827.909 192.282 828.254 192.198 828.497 192.03C828.749 191.853 828.875 191.629 828.875 191.358C828.875 191.069 828.735 190.854 828.455 190.714C828.184 190.574 827.75 190.42 827.153 190.252C826.574 190.093 826.103 189.939 825.739 189.79C825.375 189.641 825.057 189.412 824.787 189.104C824.525 188.796 824.395 188.39 824.395 187.886C824.395 187.475 824.516 187.102 824.759 186.766C825.001 186.421 825.347 186.15 825.795 185.954C826.252 185.758 826.775 185.66 827.363 185.66C828.24 185.66 828.945 185.884 829.477 186.332C830.018 186.771 830.307 187.373 830.345 188.138H828.749C828.721 187.793 828.581 187.517 828.329 187.312C828.077 187.107 827.736 187.004 827.307 187.004C826.887 187.004 826.565 187.083 826.341 187.242C826.117 187.401 826.005 187.611 826.005 187.872C826.005 188.077 826.079 188.25 826.229 188.39C826.378 188.53 826.56 188.642 826.775 188.726C826.989 188.801 827.307 188.899 827.727 189.02C828.287 189.169 828.744 189.323 829.099 189.482C829.463 189.631 829.775 189.855 830.037 190.154C830.298 190.453 830.433 190.849 830.443 191.344C830.443 191.783 830.321 192.175 830.079 192.52C829.836 192.865 829.491 193.136 829.043 193.332C828.604 193.528 828.086 193.626 827.489 193.626Z" fill="#11002A"/>
<path d="M59.42 230.666H54.73V233.452C54.926 233.191 55.2153 232.971 55.598 232.794C55.99 232.617 56.4053 232.528 56.844 232.528C57.628 232.528 58.2627 232.696 58.748 233.032C59.2427 233.368 59.5927 233.793 59.798 234.306C60.0127 234.819 60.12 235.361 60.12 235.93C60.12 236.621 59.9847 237.237 59.714 237.778C59.4527 238.31 59.056 238.73 58.524 239.038C58.0013 239.346 57.3573 239.5 56.592 239.5C55.5747 239.5 54.758 239.248 54.142 238.744C53.526 238.24 53.1573 237.573 53.036 236.742H54.59C54.6927 237.181 54.9213 237.531 55.276 237.792C55.6307 238.044 56.074 238.17 56.606 238.17C57.2687 238.17 57.7633 237.969 58.09 237.568C58.426 237.167 58.594 236.635 58.594 235.972C58.594 235.3 58.426 234.787 58.09 234.432C57.754 234.068 57.2593 233.886 56.606 233.886C56.1487 233.886 55.7613 234.003 55.444 234.236C55.136 234.46 54.912 234.768 54.772 235.16H53.26V229.266H59.42V230.666ZM68.8341 239.598C68.1808 239.598 67.5928 239.486 67.0701 239.262C66.5475 239.029 66.1368 238.702 65.8381 238.282C65.5395 237.862 65.3901 237.372 65.3901 236.812H67.0981C67.1355 237.232 67.2988 237.577 67.5881 237.848C67.8868 238.119 68.3021 238.254 68.8341 238.254C69.3848 238.254 69.8141 238.123 70.1221 237.862C70.4301 237.591 70.5841 237.246 70.5841 236.826C70.5841 236.499 70.4861 236.233 70.2901 236.028C70.1035 235.823 69.8655 235.664 69.5761 235.552C69.2961 235.44 68.9041 235.319 68.4001 235.188C67.7655 235.02 67.2475 234.852 66.8461 234.684C66.4541 234.507 66.1181 234.236 65.8381 233.872C65.5581 233.508 65.4181 233.023 65.4181 232.416C65.4181 231.856 65.5581 231.366 65.8381 230.946C66.1181 230.526 66.5101 230.204 67.0141 229.98C67.5181 229.756 68.1015 229.644 68.7641 229.644C69.7068 229.644 70.4768 229.882 71.0741 230.358C71.6808 230.825 72.0168 231.469 72.0821 232.29H70.3181C70.2901 231.935 70.1221 231.632 69.8141 231.38C69.5061 231.128 69.1001 231.002 68.5961 231.002C68.1388 231.002 67.7655 231.119 67.4761 231.352C67.1868 231.585 67.0421 231.921 67.0421 232.36C67.0421 232.659 67.1308 232.906 67.3081 233.102C67.4948 233.289 67.7281 233.438 68.0081 233.55C68.2881 233.662 68.6708 233.783 69.1561 233.914C69.8001 234.091 70.3228 234.269 70.7241 234.446C71.1348 234.623 71.4801 234.899 71.7601 235.272C72.0495 235.636 72.1941 236.126 72.1941 236.742C72.1941 237.237 72.0588 237.703 71.7881 238.142C71.5268 238.581 71.1395 238.935 70.6261 239.206C70.1221 239.467 69.5248 239.598 68.8341 239.598ZM75.9393 233.088V237.358C75.9393 237.647 76.0047 237.857 76.1353 237.988C76.2753 238.109 76.5087 238.17 76.8353 238.17H77.8153V239.5H76.5553C75.8367 239.5 75.286 239.332 74.9033 238.996C74.5207 238.66 74.3293 238.114 74.3293 237.358V233.088H73.4193V231.786H74.3293V229.868H75.9393V231.786H77.8153V233.088H75.9393ZM78.7543 235.608C78.7543 234.833 78.913 234.147 79.2303 233.55C79.557 232.953 79.9957 232.491 80.5463 232.164C81.1063 231.828 81.7223 231.66 82.3943 231.66C83.001 231.66 83.5283 231.781 83.9763 232.024C84.4337 232.257 84.7977 232.551 85.0683 232.906V231.786H86.6783V239.5H85.0683V238.352C84.7977 238.716 84.429 239.019 83.9623 239.262C83.4957 239.505 82.9637 239.626 82.3663 239.626C81.7037 239.626 81.097 239.458 80.5463 239.122C79.9957 238.777 79.557 238.301 79.2303 237.694C78.913 237.078 78.7543 236.383 78.7543 235.608ZM85.0683 235.636C85.0683 235.104 84.9563 234.642 84.7323 234.25C84.5177 233.858 84.233 233.559 83.8783 233.354C83.5237 233.149 83.141 233.046 82.7303 233.046C82.3197 233.046 81.937 233.149 81.5823 233.354C81.2277 233.55 80.9383 233.844 80.7143 234.236C80.4997 234.619 80.3923 235.076 80.3923 235.608C80.3923 236.14 80.4997 236.607 80.7143 237.008C80.9383 237.409 81.2277 237.717 81.5823 237.932C81.9463 238.137 82.329 238.24 82.7303 238.24C83.141 238.24 83.5237 238.137 83.8783 237.932C84.233 237.727 84.5177 237.428 84.7323 237.036C84.9563 236.635 85.0683 236.168 85.0683 235.636ZM90.3706 232.906C90.6039 232.514 90.9119 232.211 91.2946 231.996C91.6866 231.772 92.1486 231.66 92.6806 231.66V233.312H92.2746C91.6493 233.312 91.1733 233.471 90.8466 233.788C90.5293 234.105 90.3706 234.656 90.3706 235.44V239.5H88.7746V231.786H90.3706V232.906ZM96.9477 239.626C96.341 239.626 95.795 239.519 95.3097 239.304C94.8337 239.08 94.4557 238.781 94.1757 238.408C93.8957 238.025 93.7463 237.601 93.7277 237.134H95.3797C95.4077 237.461 95.5617 237.736 95.8417 237.96C96.131 238.175 96.4903 238.282 96.9197 238.282C97.3677 238.282 97.713 238.198 97.9557 238.03C98.2077 237.853 98.3337 237.629 98.3337 237.358C98.3337 237.069 98.1937 236.854 97.9137 236.714C97.643 236.574 97.209 236.42 96.6117 236.252C96.033 236.093 95.5617 235.939 95.1977 235.79C94.8337 235.641 94.5163 235.412 94.2457 235.104C93.9843 234.796 93.8537 234.39 93.8537 233.886C93.8537 233.475 93.975 233.102 94.2177 232.766C94.4603 232.421 94.8057 232.15 95.2537 231.954C95.711 231.758 96.2337 231.66 96.8217 231.66C97.699 231.66 98.4037 231.884 98.9357 232.332C99.477 232.771 99.7663 233.373 99.8037 234.138H98.2077C98.1797 233.793 98.0397 233.517 97.7877 233.312C97.5357 233.107 97.195 233.004 96.7657 233.004C96.3457 233.004 96.0237 233.083 95.7997 233.242C95.5757 233.401 95.4637 233.611 95.4637 233.872C95.4637 234.077 95.5383 234.25 95.6877 234.39C95.837 234.53 96.019 234.642 96.2337 234.726C96.4483 234.801 96.7657 234.899 97.1857 235.02C97.7457 235.169 98.203 235.323 98.5577 235.482C98.9217 235.631 99.2343 235.855 99.4957 236.154C99.757 236.453 99.8923 236.849 99.9017 237.344C99.9017 237.783 99.7803 238.175 99.5377 238.52C99.295 238.865 98.9497 239.136 98.5017 239.332C98.063 239.528 97.545 239.626 96.9477 239.626Z" fill="#11002A"/>
<rect x="148" y="224" width="524" height="22" rx="4" fill="#F4F4F4"/>
<path d="M688.812 231.814C688.868 230.946 689.199 230.269 689.806 229.784C690.422 229.299 691.206 229.056 692.158 229.056C692.811 229.056 693.376 229.173 693.852 229.406C694.328 229.639 694.687 229.957 694.93 230.358C695.173 230.759 695.294 231.212 695.294 231.716C695.294 232.295 695.14 232.789 694.832 233.2C694.524 233.611 694.155 233.886 693.726 234.026V234.082C694.277 234.25 694.706 234.558 695.014 235.006C695.322 235.445 695.476 236.009 695.476 236.7C695.476 237.251 695.35 237.741 695.098 238.17C694.846 238.599 694.473 238.94 693.978 239.192C693.483 239.435 692.891 239.556 692.2 239.556C691.192 239.556 690.361 239.299 689.708 238.786C689.064 238.263 688.719 237.517 688.672 236.546H690.212C690.249 237.041 690.441 237.447 690.786 237.764C691.131 238.072 691.598 238.226 692.186 238.226C692.755 238.226 693.194 238.072 693.502 237.764C693.81 237.447 693.964 237.041 693.964 236.546C693.964 235.893 693.754 235.431 693.334 235.16C692.923 234.88 692.289 234.74 691.43 234.74H691.066V233.424H691.444C692.2 233.415 692.774 233.289 693.166 233.046C693.567 232.803 693.768 232.421 693.768 231.898C693.768 231.45 693.623 231.095 693.334 230.834C693.045 230.563 692.634 230.428 692.102 230.428C691.579 230.428 691.173 230.563 690.884 230.834C690.595 231.095 690.422 231.422 690.366 231.814H688.812ZM697.153 234.264C697.153 232.649 697.423 231.389 697.965 230.484C698.515 229.569 699.458 229.112 700.793 229.112C702.127 229.112 703.065 229.569 703.607 230.484C704.157 231.389 704.433 232.649 704.433 234.264C704.433 235.897 704.157 237.176 703.607 238.1C703.065 239.015 702.127 239.472 700.793 239.472C699.458 239.472 698.515 239.015 697.965 238.1C697.423 237.176 697.153 235.897 697.153 234.264ZM702.865 234.264C702.865 233.508 702.813 232.869 702.711 232.346C702.617 231.823 702.421 231.399 702.123 231.072C701.824 230.736 701.381 230.568 700.793 230.568C700.205 230.568 699.761 230.736 699.463 231.072C699.164 231.399 698.963 231.823 698.861 232.346C698.767 232.869 698.721 233.508 698.721 234.264C698.721 235.048 698.767 235.706 698.861 236.238C698.954 236.77 699.15 237.199 699.449 237.526C699.757 237.853 700.205 238.016 700.793 238.016C701.381 238.016 701.824 237.853 702.123 237.526C702.431 237.199 702.631 236.77 702.725 236.238C702.818 235.706 702.865 235.048 702.865 234.264ZM705.869 231.758C705.869 231.077 706.065 230.545 706.457 230.162C706.859 229.77 707.372 229.574 707.997 229.574C708.623 229.574 709.131 229.77 709.523 230.162C709.925 230.545 710.125 231.077 710.125 231.758C710.125 232.439 709.925 232.976 709.523 233.368C709.131 233.76 708.623 233.956 707.997 233.956C707.372 233.956 706.859 233.76 706.457 233.368C706.065 232.976 705.869 232.439 705.869 231.758ZM714.409 229.756L708.823 239.5H707.255L712.841 229.756H714.409ZM707.997 230.54C707.409 230.54 707.115 230.946 707.115 231.758C707.115 232.579 707.409 232.99 707.997 232.99C708.277 232.99 708.492 232.892 708.641 232.696C708.8 232.491 708.879 232.178 708.879 231.758C708.879 230.946 708.585 230.54 707.997 230.54ZM711.567 237.484C711.567 236.803 711.763 236.271 712.155 235.888C712.557 235.496 713.07 235.3 713.695 235.3C714.311 235.3 714.815 235.496 715.207 235.888C715.609 236.271 715.809 236.803 715.809 237.484C715.809 238.165 715.609 238.702 715.207 239.094C714.815 239.486 714.311 239.682 713.695 239.682C713.07 239.682 712.557 239.486 712.155 239.094C711.763 238.702 711.567 238.165 711.567 237.484ZM713.681 236.266C713.093 236.266 712.799 236.672 712.799 237.484C712.799 238.296 713.093 238.702 713.681 238.702C714.269 238.702 714.563 238.296 714.563 237.484C714.563 236.672 714.269 236.266 713.681 236.266ZM727.005 233.76V235.104H721.251V233.76H727.005ZM732.489 230.75V229.294H735.401V239.5H733.791V230.75H732.489ZM737.398 237.372V236.168L742.102 229.42H744.034V235.986H745.336V237.372H744.034V239.5H742.466V237.372H737.398ZM742.536 231.044L739.232 235.986H742.536V231.044ZM746.462 237.372V236.168L751.166 229.42H753.098V235.986H754.4V237.372H753.098V239.5H751.53V237.372H746.462ZM751.6 231.044L748.296 235.986H751.6V231.044ZM761.166 232.906C761.399 232.514 761.707 232.211 762.09 231.996C762.482 231.772 762.944 231.66 763.476 231.66V233.312H763.07C762.444 233.312 761.968 233.471 761.642 233.788C761.324 234.105 761.166 234.656 761.166 235.44V239.5H759.57V231.786H761.166V232.906ZM772.013 235.454C772.013 235.743 771.994 236.005 771.957 236.238H766.063C766.109 236.854 766.338 237.349 766.749 237.722C767.159 238.095 767.663 238.282 768.261 238.282C769.119 238.282 769.726 237.923 770.081 237.204H771.803C771.569 237.913 771.145 238.497 770.529 238.954C769.922 239.402 769.166 239.626 768.261 239.626C767.523 239.626 766.861 239.463 766.273 239.136C765.694 238.8 765.237 238.333 764.901 237.736C764.574 237.129 764.411 236.429 764.411 235.636C764.411 234.843 764.569 234.147 764.887 233.55C765.213 232.943 765.666 232.477 766.245 232.15C766.833 231.823 767.505 231.66 768.261 231.66C768.989 231.66 769.637 231.819 770.207 232.136C770.776 232.453 771.219 232.901 771.537 233.48C771.854 234.049 772.013 234.707 772.013 235.454ZM770.347 234.95C770.337 234.362 770.127 233.891 769.717 233.536C769.306 233.181 768.797 233.004 768.191 233.004C767.64 233.004 767.169 233.181 766.777 233.536C766.385 233.881 766.151 234.353 766.077 234.95H770.347ZM776.383 239.626C775.777 239.626 775.231 239.519 774.745 239.304C774.269 239.08 773.891 238.781 773.611 238.408C773.331 238.025 773.182 237.601 773.163 237.134H774.815C774.843 237.461 774.997 237.736 775.277 237.96C775.567 238.175 775.926 238.282 776.355 238.282C776.803 238.282 777.149 238.198 777.391 238.03C777.643 237.853 777.769 237.629 777.769 237.358C777.769 237.069 777.629 236.854 777.349 236.714C777.079 236.574 776.645 236.42 776.047 236.252C775.469 236.093 774.997 235.939 774.633 235.79C774.269 235.641 773.952 235.412 773.681 235.104C773.42 234.796 773.289 234.39 773.289 233.886C773.289 233.475 773.411 233.102 773.653 232.766C773.896 232.421 774.241 232.15 774.689 231.954C775.147 231.758 775.669 231.66 776.257 231.66C777.135 231.66 777.839 231.884 778.371 232.332C778.913 232.771 779.202 233.373 779.239 234.138H777.643C777.615 233.793 777.475 233.517 777.223 233.312C776.971 233.107 776.631 233.004 776.201 233.004C775.781 233.004 775.459 233.083 775.235 233.242C775.011 233.401 774.899 233.611 774.899 233.872C774.899 234.077 774.974 234.25 775.123 234.39C775.273 234.53 775.455 234.642 775.669 234.726C775.884 234.801 776.201 234.899 776.621 235.02C777.181 235.169 777.639 235.323 777.993 235.482C778.357 235.631 778.67 235.855 778.931 236.154C779.193 236.453 779.328 236.849 779.337 237.344C779.337 237.783 779.216 238.175 778.973 238.52C778.731 238.865 778.385 239.136 777.937 239.332C777.499 239.528 776.981 239.626 776.383 239.626ZM782.658 232.92C782.928 232.565 783.297 232.267 783.764 232.024C784.23 231.781 784.758 231.66 785.346 231.66C786.018 231.66 786.629 231.828 787.18 232.164C787.74 232.491 788.178 232.953 788.496 233.55C788.813 234.147 788.972 234.833 788.972 235.608C788.972 236.383 788.813 237.078 788.496 237.694C788.178 238.301 787.74 238.777 787.18 239.122C786.629 239.458 786.018 239.626 785.346 239.626C784.758 239.626 784.235 239.509 783.778 239.276C783.32 239.033 782.947 238.735 782.658 238.38V243.168H781.062V231.786H782.658V232.92ZM787.348 235.608C787.348 235.076 787.236 234.619 787.012 234.236C786.797 233.844 786.508 233.55 786.144 233.354C785.789 233.149 785.406 233.046 784.996 233.046C784.594 233.046 784.212 233.149 783.848 233.354C783.493 233.559 783.204 233.858 782.98 234.25C782.765 234.642 782.658 235.104 782.658 235.636C782.658 236.168 782.765 236.635 782.98 237.036C783.204 237.428 783.493 237.727 783.848 237.932C784.212 238.137 784.594 238.24 784.996 238.24C785.406 238.24 785.789 238.137 786.144 237.932C786.508 237.717 786.797 237.409 787.012 237.008C787.236 236.607 787.348 236.14 787.348 235.608ZM793.896 239.626C793.168 239.626 792.51 239.463 791.922 239.136C791.334 238.8 790.872 238.333 790.536 237.736C790.2 237.129 790.032 236.429 790.032 235.636C790.032 234.852 790.205 234.157 790.55 233.55C790.895 232.943 791.367 232.477 791.964 232.15C792.561 231.823 793.229 231.66 793.966 231.66C794.703 231.66 795.371 231.823 795.968 232.15C796.565 232.477 797.037 232.943 797.382 233.55C797.727 234.157 797.9 234.852 797.9 235.636C797.9 236.42 797.723 237.115 797.368 237.722C797.013 238.329 796.528 238.8 795.912 239.136C795.305 239.463 794.633 239.626 793.896 239.626ZM793.896 238.24C794.307 238.24 794.689 238.142 795.044 237.946C795.408 237.75 795.702 237.456 795.926 237.064C796.15 236.672 796.262 236.196 796.262 235.636C796.262 235.076 796.155 234.605 795.94 234.222C795.725 233.83 795.441 233.536 795.086 233.34C794.731 233.144 794.349 233.046 793.938 233.046C793.527 233.046 793.145 233.144 792.79 233.34C792.445 233.536 792.169 233.83 791.964 234.222C791.759 234.605 791.656 235.076 791.656 235.636C791.656 236.467 791.866 237.111 792.286 237.568C792.715 238.016 793.252 238.24 793.896 238.24ZM803.37 231.66C803.976 231.66 804.518 231.786 804.994 232.038C805.479 232.29 805.857 232.663 806.128 233.158C806.398 233.653 806.534 234.25 806.534 234.95V239.5H804.952V235.188C804.952 234.497 804.779 233.97 804.434 233.606C804.088 233.233 803.617 233.046 803.02 233.046C802.422 233.046 801.946 233.233 801.592 233.606C801.246 233.97 801.074 234.497 801.074 235.188V239.5H799.478V231.786H801.074V232.668C801.335 232.351 801.666 232.103 802.068 231.926C802.478 231.749 802.912 231.66 803.37 231.66ZM811.37 239.626C810.763 239.626 810.217 239.519 809.732 239.304C809.256 239.08 808.878 238.781 808.598 238.408C808.318 238.025 808.168 237.601 808.15 237.134H809.802C809.83 237.461 809.984 237.736 810.264 237.96C810.553 238.175 810.912 238.282 811.342 238.282C811.79 238.282 812.135 238.198 812.378 238.03C812.63 237.853 812.756 237.629 812.756 237.358C812.756 237.069 812.616 236.854 812.336 236.714C812.065 236.574 811.631 236.42 811.034 236.252C810.455 236.093 809.984 235.939 809.62 235.79C809.256 235.641 808.938 235.412 808.668 235.104C808.406 234.796 808.276 234.39 808.276 233.886C808.276 233.475 808.397 233.102 808.64 232.766C808.882 232.421 809.228 232.15 809.676 231.954C810.133 231.758 810.656 231.66 811.244 231.66C812.121 231.66 812.826 231.884 813.358 232.332C813.899 232.771 814.188 233.373 814.226 234.138H812.63C812.602 233.793 812.462 233.517 812.21 233.312C811.958 233.107 811.617 233.004 811.188 233.004C810.768 233.004 810.446 233.083 810.222 233.242C809.998 233.401 809.886 233.611 809.886 233.872C809.886 234.077 809.96 234.25 810.11 234.39C810.259 234.53 810.441 234.642 810.656 234.726C810.87 234.801 811.188 234.899 811.608 235.02C812.168 235.169 812.625 235.323 812.98 235.482C813.344 235.631 813.656 235.855 813.918 236.154C814.179 236.453 814.314 236.849 814.324 237.344C814.324 237.783 814.202 238.175 813.96 238.52C813.717 238.865 813.372 239.136 812.924 239.332C812.485 239.528 811.967 239.626 811.37 239.626ZM823.118 235.454C823.118 235.743 823.099 236.005 823.062 236.238H817.168C817.215 236.854 817.443 237.349 817.854 237.722C818.265 238.095 818.769 238.282 819.366 238.282C820.225 238.282 820.831 237.923 821.186 237.204H822.908C822.675 237.913 822.25 238.497 821.634 238.954C821.027 239.402 820.271 239.626 819.366 239.626C818.629 239.626 817.966 239.463 817.378 239.136C816.799 238.8 816.342 238.333 816.006 237.736C815.679 237.129 815.516 236.429 815.516 235.636C815.516 234.843 815.675 234.147 815.992 233.55C816.319 232.943 816.771 232.477 817.35 232.15C817.938 231.823 818.61 231.66 819.366 231.66C820.094 231.66 820.743 231.819 821.312 232.136C821.881 232.453 822.325 232.901 822.642 233.48C822.959 234.049 823.118 234.707 823.118 235.454ZM821.452 234.95C821.443 234.362 821.233 233.891 820.822 233.536C820.411 233.181 819.903 233.004 819.296 233.004C818.745 233.004 818.274 233.181 817.882 233.536C817.49 233.881 817.257 234.353 817.182 234.95H821.452ZM827.489 239.626C826.882 239.626 826.336 239.519 825.851 239.304C825.375 239.08 824.997 238.781 824.717 238.408C824.437 238.025 824.287 237.601 824.269 237.134H825.921C825.949 237.461 826.103 237.736 826.383 237.96C826.672 238.175 827.031 238.282 827.461 238.282C827.909 238.282 828.254 238.198 828.497 238.03C828.749 237.853 828.875 237.629 828.875 237.358C828.875 237.069 828.735 236.854 828.455 236.714C828.184 236.574 827.75 236.42 827.153 236.252C826.574 236.093 826.103 235.939 825.739 235.79C825.375 235.641 825.057 235.412 824.787 235.104C824.525 234.796 824.395 234.39 824.395 233.886C824.395 233.475 824.516 233.102 824.759 232.766C825.001 232.421 825.347 232.15 825.795 231.954C826.252 231.758 826.775 231.66 827.363 231.66C828.24 231.66 828.945 231.884 829.477 232.332C830.018 232.771 830.307 233.373 830.345 234.138H828.749C828.721 233.793 828.581 233.517 828.329 233.312C828.077 233.107 827.736 233.004 827.307 233.004C826.887 233.004 826.565 233.083 826.341 233.242C826.117 233.401 826.005 233.611 826.005 233.872C826.005 234.077 826.079 234.25 826.229 234.39C826.378 234.53 826.56 234.642 826.775 234.726C826.989 234.801 827.307 234.899 827.727 235.02C828.287 235.169 828.744 235.323 829.099 235.482C829.463 235.631 829.775 235.855 830.037 236.154C830.298 236.453 830.433 236.849 830.443 237.344C830.443 237.783 830.321 238.175 830.079 238.52C829.836 238.865 829.491 239.136 829.043 239.332C828.604 239.528 828.086 239.626 827.489 239.626Z" fill="#11002A"/>
</svg>
