<svg width="26" height="27" viewBox="0 0 26 27" fill="none" xmlns="http://www.w3.org/2000/svg">
<path d="M19.0947 24.2459C18.5535 24.2598 17.8546 24.104 16.9735 23.6158L13.8737 21.8869C13.5524 21.7112 12.9397 21.727 12.6381 21.9187L9.62107 23.8049C7.84118 24.9236 6.76813 24.5221 6.27925 24.1872C5.80059 23.8521 5.04249 22.9826 5.4699 20.9279L6.11429 17.7743C6.18758 17.4454 6.00974 16.888 5.75836 16.6492L3.16072 14.1819C1.8619 12.9482 1.93617 11.8631 2.09611 11.3276C2.25605 10.7922 2.78331 9.83851 4.5321 9.49719L7.7757 8.87217C8.08074 8.81323 8.51144 8.47516 8.63709 8.19603L10.3518 4.54482C11.1265 2.87972 12.1924 2.60706 12.754 2.59261C13.3157 2.57816 14.3942 2.79566 15.2534 4.41873L17.1432 7.96701C17.2932 8.23904 17.7407 8.55452 18.0484 8.5977L21.3198 9.05512C23.0941 9.30582 23.6697 10.2311 23.8467 10.7579C24.0238 11.2847 24.1537 12.3645 22.9303 13.6631L20.4632 16.2709C20.2244 16.5223 20.0854 17.0777 20.1656 17.4128L20.9712 20.5292C21.4935 22.5594 20.7913 23.4665 20.3305 23.8258C20.08 24.0161 19.6767 24.2309 19.0947 24.2459ZM13.2077 20.2282C13.7081 20.2153 14.2116 20.325 14.6159 20.5496L17.7157 22.2785C18.6178 22.7867 19.1794 22.7722 19.3899 22.6135C19.6004 22.4548 19.7397 21.9097 19.4893 20.9147L18.6836 17.7984C18.4678 16.9558 18.7562 15.855 19.3529 15.2163L21.8202 12.6187C22.3077 12.1055 22.5198 11.6095 22.409 11.2752C22.288 10.9411 21.8112 10.6774 21.1139 10.583L17.8424 10.1255C17.0527 10.013 16.1787 9.40196 15.8029 8.69634L13.9131 5.14806C13.5696 4.50292 13.1511 4.12538 12.7937 4.13457C12.4363 4.14377 12.0378 4.54232 11.7381 5.20401L10.0231 8.84502C9.68404 9.56903 8.84254 10.2242 8.05966 10.3772L4.82627 11.0019C4.13476 11.1321 3.67212 11.4199 3.56846 11.7598C3.4648 12.0997 3.71254 12.594 4.22552 13.0713L6.82316 15.5387C7.45162 16.1356 7.79656 17.2303 7.62434 18.0829L6.97995 21.2365C6.77109 22.2535 6.94814 22.7803 7.16652 22.928C7.38491 23.0756 7.93607 23.0512 8.82131 22.5073L11.8281 20.6213C12.2101 20.3765 12.7073 20.241 13.2077 20.2282Z" fill="#8094AE"/>
</svg>
