<svg width="28" height="28" viewBox="0 0 28 28" fill="none" xmlns="http://www.w3.org/2000/svg">
<rect x="0.740558" y="1.56725" width="25.6459" height="25.6459" rx="4.93191" transform="rotate(-1.31645 0.740558 1.56725)" fill="white"/>
<rect x="0.740558" y="1.56725" width="25.6459" height="25.6459" rx="4.93191" transform="rotate(-1.31645 0.740558 1.56725)" stroke="#F2F4F7" stroke-width="0.657588"/>
<path d="M9.2943 16.0059C8.29503 16.0288 7.46783 15.2388 7.44487 14.2395C7.4219 13.2403 8.21194 12.4131 9.21121 12.3901C10.2105 12.3671 11.0377 13.1572 11.0606 14.1564C11.0836 15.1557 10.2936 15.9829 9.2943 16.0059ZM9.23387 13.3762C8.78026 13.3866 8.42056 13.7633 8.43099 14.2169C8.44141 14.6705 8.81802 15.0302 9.27164 15.0198C9.72526 15.0093 10.0849 14.6327 10.0745 14.1791C10.0641 13.7255 9.68749 13.3658 9.23387 13.3762Z" fill="#11002A"/>
<path d="M18.4974 15.7949C17.4982 15.8179 16.671 15.0279 16.648 14.0286C16.625 13.0293 17.4151 12.2021 18.4143 12.1792C19.4136 12.1562 20.2408 12.9462 20.2638 13.9455C20.2867 14.9448 19.4967 15.772 18.4974 15.7949ZM18.437 13.1653C17.9834 13.1757 17.6237 13.5523 17.6341 14.0059C17.6445 14.4595 18.0211 14.8192 18.4748 14.8088C18.9284 14.7984 19.2881 14.4218 19.2776 13.9682C19.2672 13.5145 18.8906 13.1549 18.437 13.1653Z" fill="#11002A"/>
<path d="M13.8959 15.9004C12.8966 15.9234 12.0694 15.1333 12.0464 14.1341C12.0235 13.1348 12.8135 12.3076 13.8128 12.2846C14.812 12.2617 15.6392 13.0517 15.6622 14.051C15.6852 15.0502 14.8951 15.8774 13.8959 15.9004ZM13.8354 13.2707C13.3818 13.2812 13.0221 13.6578 13.0326 14.1114C13.043 14.565 13.4196 14.9247 13.8732 14.9143C14.3268 14.9039 14.6865 14.5272 14.6761 14.0736C14.6657 13.62 14.2891 13.2603 13.8354 13.2707Z" fill="#11002A"/>
</svg>
