<svg width="234" height="192" viewBox="0 0 234 192" fill="none" xmlns="http://www.w3.org/2000/svg">
<g clip-path="url(#clip0_1_10408)">
<path d="M176.15 131.506L166.603 112.412L157.056 131.506H176.15Z" fill="#00DDD0"/>
<path d="M213.442 57.2055H203.73V36.656C203.73 34.7172 202.909 32.8695 201.47 31.5697C200.032 30.2699 198.109 29.6405 196.182 29.8357C195.091 29.9463 170.64 32.7113 158.467 57.2055H148.506V72.2368C148.506 91.1327 133.133 106.505 114.237 106.505H99.2061V171.442C99.2061 182.778 108.428 192 119.764 192H213.442C224.778 192 234 182.778 234 171.442V77.7636C234 66.4279 224.778 57.2055 213.442 57.2055ZM132.952 149.056L160.471 94.018C161.632 91.6953 164.006 90.2283 166.603 90.2283C169.199 90.2283 171.573 91.6953 172.735 94.018L200.254 149.056C201.947 152.443 200.574 156.56 197.188 158.254C193.802 159.947 189.684 158.575 187.99 155.188L183.005 145.218H150.201L145.216 155.188C144.015 157.59 141.593 158.979 139.079 158.979C138.049 158.979 137.003 158.746 136.019 158.254C132.631 156.56 131.259 152.443 132.952 149.056Z" fill="#00DDD0"/>
<path d="M73.8934 15.7422H60.9014C61.7496 22.5341 63.9237 28.2447 67.3976 32.8461C70.871 28.2447 73.0451 22.5341 73.8934 15.7422Z" fill="#6200EE"/>
<path d="M114.237 92.7945C125.573 92.7945 134.795 83.5721 134.795 72.2368V-21.4418C134.795 -32.7776 125.572 -42 114.237 -42H20.5582C9.22243 -42 0 -32.7776 0 -21.4418V72.2368C0 83.5725 9.22243 92.7945 20.5577 92.7945H30.2706V113.344C30.2706 115.283 31.0914 117.131 32.5297 118.43C33.7956 119.574 35.4355 120.199 37.1256 120.199C37.3554 120.199 37.5872 120.188 37.818 120.164C38.9094 120.054 63.3596 117.289 75.5326 92.7945H114.237ZM71.051 53.4615C69.8517 52.8216 68.6269 52.0991 67.3975 51.2952C66.1676 52.0991 64.9432 52.8221 63.744 53.4615C52.0467 59.7 40.37 59.7717 39.8787 59.7717C36.0927 59.7717 33.0232 56.7023 33.0232 52.9162C33.0232 49.1302 36.0927 46.0608 39.8787 46.0608C39.939 46.0603 48.3973 45.9374 56.8136 41.613C51.9983 35.4467 48.2031 27.0798 47.1067 15.7413H39.8783C36.0922 15.7413 33.0228 12.6719 33.0228 8.88586C33.0228 5.09981 36.0922 2.03039 39.8783 2.03039H60.542V-2.12174C60.542 -5.90779 63.6114 -8.97721 67.3975 -8.97721C71.1835 -8.97721 74.253 -5.90779 74.253 -2.12174V2.03039H94.9162C98.7023 2.03039 101.772 5.09981 101.772 8.88586C101.772 12.6719 98.7023 15.7413 94.9162 15.7413H87.6888C86.5919 27.0798 82.7971 35.4467 77.9819 41.613C86.3976 45.9374 94.8573 46.0599 94.9446 46.0608C98.7306 46.0608 101.786 49.1302 101.786 52.9162C101.786 56.7023 98.7023 59.7717 94.9162 59.7717C94.4249 59.7717 82.7483 59.7004 71.051 53.4615Z" fill="#6200EE"/>
<path d="M167.122 -2.77798C168.46 -1.43933 170.215 -0.769787 171.969 -0.769787C173.723 -0.769787 175.478 -1.43888 176.816 -2.77798C179.494 -5.45527 179.494 -9.79569 176.816 -12.473L174.848 -14.441C200.081 -12.946 220.152 8.05184 220.152 33.6529C220.152 37.4389 223.221 40.5084 227.007 40.5084C230.793 40.5084 233.863 37.4389 233.863 33.6529C233.863 0.439068 207.564 -26.7442 174.696 -28.177L176.816 -30.2972C179.494 -32.9745 179.494 -37.3149 176.816 -39.9922C174.14 -42.669 169.799 -42.6695 167.121 -39.9922L153.362 -26.2324C150.685 -23.5551 150.685 -19.2146 153.362 -16.5374L167.122 -2.77798Z" fill="#6200EE"/>
<path d="M66.7412 152.642C64.0644 149.965 59.7235 149.965 57.0462 152.642C54.3689 155.319 54.3689 159.66 57.0462 162.337L59.0142 164.305C33.7819 162.81 13.7109 141.812 13.7109 116.211C13.7109 112.425 10.6415 109.355 6.85547 109.355C3.06942 109.355 0 112.425 0 116.211C0 149.425 26.2989 176.608 59.1663 178.041L57.0462 180.161C54.3689 182.838 54.3689 187.179 57.0462 189.856C58.3848 191.195 60.1394 191.864 61.8935 191.864C63.6475 191.864 65.4025 191.195 66.7407 189.856L80.5001 176.096C83.1774 173.419 83.1774 169.078 80.5001 166.401L66.7412 152.642Z" fill="#00DDD0"/>
</g>
<defs>
<clipPath id="clip0_1_10408">
<rect width="234" height="234" fill="white" transform="translate(0 -42)"/>
</clipPath>
</defs>
</svg>
