<svg width="98" height="25" viewBox="0 0 98 25" fill="none" xmlns="http://www.w3.org/2000/svg">
<path d="M31.8522 15.8396L31.8523 15.838C32.0939 11.9902 32.4041 8.07658 32.7348 4.22279C30.963 6.34068 28.2695 9.54297 26.7534 11.3209C25.68 12.5915 24.6008 13.8595 23.5131 15.1163C23.4145 15.2374 22.5106 16.2868 21.6279 17.3109C21.5206 17.4354 21.4135 17.5596 21.3082 17.6818C20.9778 18.0651 20.6644 18.4287 20.4136 18.72C20.2482 18.912 20.1101 19.0727 20.0121 19.1868L19.8971 19.3212C19.8816 19.3395 19.8712 19.3517 19.8651 19.359C19.8595 19.3656 19.8573 19.3682 19.8578 19.3674L19.8578 19.3675C18.354 21.4422 15.1762 20.5525 14.9982 18.0025C14.9876 17.8897 14.972 17.7296 14.9557 17.561C14.933 17.3274 14.9087 17.0778 14.894 16.9162C14.894 16.9161 14.894 16.916 14.894 16.9158L15.0128 16.905L31.8522 15.8396ZM31.8522 15.8396C31.843 16.0252 31.9772 16.1391 32.1154 16.1581C32.2534 16.1771 32.4133 16.1042 32.4566 15.9241L32.4566 15.9241L32.4572 15.9212C33.1564 12.6595 33.7934 9.38959 34.4247 6.12075L34.4249 6.1208L34.4259 6.11324C34.4374 6.02313 34.5084 5.6634 34.5954 5.22352C34.6312 5.04225 34.6697 4.84737 34.7078 4.65214C34.7727 4.32024 34.8359 3.98976 34.8815 3.73002C34.9043 3.60027 34.9229 3.48716 34.9352 3.39991C34.9413 3.35638 34.9459 3.31816 34.9487 3.28697C34.9508 3.26339 34.9525 3.23689 34.9512 3.21375C35.0174 1.88131 33.537 0.898003 32.3196 1.44834C31.9731 1.58382 31.7011 1.86253 31.4774 2.09175L31.4644 2.10515L31.4633 2.10624L27.9306 5.63325L27.9303 5.63357C25.1065 8.47435 21.7619 11.8715 18.8191 14.8917M31.8522 15.8396L18.8191 14.8917M18.8191 14.8917C18.5631 10.9135 18.1334 6.90611 17.6932 2.95913C17.6528 2.419 17.5251 1.87673 17.1524 1.41963C16.1141 0.0603456 13.931 0.232955 13.1307 1.70829C8.86732 8.98401 4.60064 16.4352 0.612694 23.8643C0.53539 24.0023 0.574107 24.1767 0.701509 24.2733L18.8191 14.8917ZM14.0572 6.34946C14.1088 6.2759 14.161 6.20145 14.2136 6.12646L1.1509 24.2104C5.16179 18.8776 9.05979 13.4745 12.8843 8.02372L12.8851 8.02264C12.9526 7.92408 13.4638 7.19544 14.0572 6.34946Z" fill="white" stroke="white" stroke-width="0.238678"/>
<path d="M38.863 12.9164V6.23346H40.3142L42.9873 10.1191L41.9944 10.1096L44.6963 6.23346H46.1092V12.9164H44.534V10.797C44.534 10.2433 44.5467 9.73725 44.5722 9.27899C44.604 8.81437 44.6549 8.34974 44.7249 7.88512L44.8968 8.40066L42.7869 11.2934H42.1567L40.0659 8.40066L40.2473 7.88512C40.3173 8.33701 40.3651 8.79209 40.3905 9.25035C40.4224 9.70225 40.4383 10.2178 40.4383 10.797V12.9164H38.863ZM48.8009 13.0024C48.298 13.0024 47.8589 12.891 47.4834 12.6682C47.1078 12.4455 46.8119 12.1368 46.5955 11.7421C46.3854 11.3412 46.2804 10.8861 46.2804 10.3769C46.2804 9.86137 46.3886 9.40629 46.605 9.01167C46.8214 8.61706 47.1206 8.30837 47.5025 8.0856C47.8907 7.85647 48.3362 7.74191 48.8391 7.74191C49.1255 7.74191 49.3896 7.7801 49.6315 7.85647C49.8733 7.92649 50.0834 8.02514 50.2616 8.15243C50.4461 8.27973 50.5957 8.41975 50.7103 8.57251C50.8312 8.72526 50.9108 8.88438 50.949 9.04986H50.6148V7.84693H52.1233V12.9164H50.5862V11.618L50.9108 11.6658C50.8726 11.8313 50.793 11.9936 50.6721 12.1527C50.5512 12.3118 50.3952 12.455 50.2043 12.5823C50.0133 12.7096 49.7969 12.8114 49.5551 12.8878C49.3196 12.9642 49.0682 13.0024 48.8009 13.0024ZM49.2114 11.7135C49.4978 11.7135 49.746 11.6594 49.9561 11.5512C50.1725 11.443 50.3379 11.2903 50.4525 11.0929C50.5734 10.8893 50.6339 10.6506 50.6339 10.3769C50.6339 10.1096 50.5734 9.87728 50.4525 9.67997C50.3379 9.4763 50.1725 9.31718 49.9561 9.20262C49.746 9.08805 49.4978 9.03077 49.2114 9.03077C48.925 9.03077 48.6767 9.08805 48.4667 9.20262C48.2567 9.31718 48.0912 9.4763 47.9703 9.67997C47.8557 9.87728 47.7984 10.1096 47.7984 10.3769C47.7984 10.6506 47.8557 10.8893 47.9703 11.0929C48.0912 11.2903 48.2567 11.443 48.4667 11.5512C48.6767 11.6594 48.925 11.7135 49.2114 11.7135ZM54.7853 13.0119C54.2252 13.0119 53.7223 12.9324 53.2768 12.7732C52.8376 12.6141 52.4844 12.3882 52.2171 12.0954L53.1432 11.2743C53.3596 11.478 53.6173 11.6339 53.9165 11.7421C54.2156 11.8503 54.5307 11.9044 54.8616 11.9044C54.9635 11.9044 55.0621 11.8949 55.1576 11.8758C55.2594 11.8567 55.3454 11.8313 55.4154 11.7994C55.4917 11.7612 55.5522 11.7167 55.5968 11.6658C55.6413 11.6149 55.6636 11.5512 55.6636 11.4748C55.6636 11.3539 55.5872 11.2584 55.4345 11.1884C55.3263 11.1502 55.1894 11.112 55.0239 11.0739C54.8585 11.0357 54.6707 10.9943 54.4607 10.9497C54.1106 10.8861 53.8019 10.8097 53.5346 10.7206C53.2736 10.6251 53.054 10.5074 52.8758 10.3674C52.7231 10.2337 52.6053 10.081 52.5226 9.9091C52.4399 9.73725 52.3985 9.53677 52.3985 9.30763C52.3985 9.07214 52.4589 8.85892 52.5799 8.66798C52.7008 8.47067 52.8695 8.30519 53.0859 8.17153C53.3023 8.0315 53.5505 7.92649 53.8305 7.85647C54.1106 7.7801 54.4034 7.74191 54.7089 7.74191C55.0144 7.74191 55.3135 7.77373 55.6063 7.83738C55.8991 7.89466 56.176 7.98059 56.4369 8.09515C56.6979 8.20335 56.927 8.34338 57.1243 8.51522L56.3414 9.43175C56.2014 9.32355 56.0391 9.22489 55.8545 9.13579C55.67 9.04668 55.4727 8.97667 55.2626 8.92575C55.0589 8.86847 54.8585 8.83983 54.6611 8.83983C54.5529 8.83983 54.4479 8.84619 54.3461 8.85892C54.2506 8.87165 54.1679 8.89711 54.0979 8.9353C54.0279 8.96712 53.9706 9.00849 53.926 9.05941C53.8878 9.10396 53.8687 9.16125 53.8687 9.23126C53.8687 9.28854 53.8846 9.34264 53.9165 9.39356C53.9483 9.44448 53.996 9.48585 54.0597 9.51767C54.1488 9.57495 54.2793 9.62587 54.4511 9.67042C54.6293 9.71498 54.8521 9.76271 55.1194 9.81363C55.5077 9.89637 55.8386 9.99184 56.1123 10.1C56.386 10.2019 56.6056 10.326 56.7711 10.4724C56.9047 10.5742 57.0034 10.7015 57.067 10.8543C57.1307 11.0007 57.1625 11.163 57.1625 11.3412C57.1625 11.6658 57.0575 11.9554 56.8474 12.21C56.6438 12.4582 56.3637 12.6555 56.0073 12.8019C55.6572 12.9419 55.2499 13.0119 54.7853 13.0119ZM57.2846 12.9164V5.85158H58.7835V9.03077L58.4207 9.15488C58.4843 8.90029 58.618 8.66798 58.8217 8.45794C59.0317 8.24154 59.2863 8.06969 59.5854 7.9424C59.8846 7.80874 60.2028 7.74191 60.5402 7.74191C60.973 7.74191 61.3357 7.83101 61.6285 8.00923C61.9277 8.18108 62.1504 8.42612 62.2968 8.74436C62.4496 9.05623 62.526 9.4222 62.526 9.84227V12.9164H60.9889V10.081C60.9889 9.85182 60.9475 9.66088 60.8648 9.50812C60.7884 9.34901 60.6706 9.22808 60.5115 9.14533C60.3588 9.06259 60.1805 9.0244 59.9769 9.03077C59.8114 9.03077 59.6555 9.05941 59.5091 9.11669C59.369 9.16761 59.2449 9.24399 59.1367 9.34582C59.0349 9.44129 58.9553 9.55268 58.8981 9.67997C58.8408 9.80727 58.8121 9.94411 58.8121 10.0905V12.9164H58.0579C57.8479 12.9164 57.6792 12.9164 57.5519 12.9164C57.4246 12.9164 57.3355 12.9164 57.2846 12.9164ZM65.781 13.0119C65.1891 13.0119 64.664 12.8973 64.2057 12.6682C63.7475 12.4391 63.3879 12.1272 63.1269 11.7326C62.8659 11.338 62.7355 10.8861 62.7355 10.3769C62.7355 9.86773 62.8659 9.41584 63.1269 9.02122C63.3879 8.62661 63.7475 8.31473 64.2057 8.0856C64.664 7.85647 65.1891 7.74191 65.781 7.74191C66.3666 7.74191 66.8853 7.85647 67.3372 8.0856C67.7954 8.31473 68.155 8.62661 68.416 9.02122C68.677 9.41584 68.8074 9.86773 68.8074 10.3769C68.8074 10.8861 68.677 11.338 68.416 11.7326C68.155 12.1272 67.7954 12.4391 67.3372 12.6682C66.8853 12.8973 66.3666 13.0119 65.781 13.0119ZM65.781 11.6944C66.0547 11.6944 66.3029 11.6371 66.5257 11.5226C66.7548 11.408 66.933 11.2521 67.0603 11.0548C67.194 10.8574 67.2576 10.6315 67.2513 10.3769C67.2576 10.1223 67.194 9.89319 67.0603 9.68952C66.933 9.48585 66.7548 9.32991 66.5257 9.22171C66.3029 9.10715 66.0547 9.04986 65.781 9.04986C65.5009 9.04986 65.2432 9.10715 65.0077 9.22171C64.7785 9.33628 64.6003 9.49221 64.473 9.68952C64.3457 9.88683 64.2821 10.116 64.2821 10.3769C64.2821 10.6315 64.3457 10.8574 64.473 11.0548C64.6003 11.2521 64.7785 11.408 65.0077 11.5226C65.2432 11.6371 65.5009 11.6944 65.781 11.6944ZM70.9675 13.0215C70.5601 13.0215 70.2069 12.9324 69.9077 12.7541C69.615 12.5759 69.389 12.3182 69.2299 11.9808C69.0708 11.6371 68.9912 11.2266 68.9912 10.7492V7.84693H70.5188V10.501C70.5188 10.762 70.5538 10.9816 70.6238 11.1598C70.7001 11.338 70.8179 11.4748 70.977 11.5703C71.1361 11.6594 71.3303 11.704 71.5594 11.704C71.7249 11.704 71.8776 11.6785 72.0176 11.6276C72.1577 11.5703 72.2818 11.4939 72.39 11.3985C72.4982 11.2966 72.5809 11.1821 72.6382 11.0548C72.7019 10.9211 72.7337 10.7715 72.7337 10.606V7.84693H74.2612V12.9164H72.8292L72.7623 11.8758L73.0392 11.7612C72.9692 11.984 72.8355 12.1909 72.6382 12.3818C72.4409 12.5727 72.199 12.7287 71.9126 12.8496C71.6326 12.9642 71.3175 13.0215 70.9675 13.0215ZM75.0154 12.9164V7.84693H76.4665L76.5334 9.59405L76.1706 9.41265C76.2533 9.10078 76.3965 8.82073 76.6002 8.57251C76.8102 8.31792 77.0489 8.11743 77.3162 7.97104C77.5899 7.81828 77.8795 7.74191 78.185 7.74191C78.3505 7.74191 78.5064 7.75782 78.6528 7.78964C78.8056 7.82147 78.936 7.86284 79.0442 7.91376L78.6242 9.5845C78.5287 9.51449 78.3982 9.46039 78.2327 9.4222C78.0736 9.38401 77.9113 9.36492 77.7458 9.36492C77.5613 9.36492 77.3926 9.39674 77.2398 9.46039C77.0935 9.51767 76.9693 9.60041 76.8675 9.70861C76.7657 9.81045 76.6861 9.9282 76.6288 10.0619C76.5779 10.1955 76.5525 10.3387 76.5525 10.4915V12.9164H75.0154ZM80.8687 13.0024C80.3659 13.0024 79.9267 12.891 79.5512 12.6682C79.1757 12.4455 78.8797 12.1368 78.6633 11.7421C78.4533 11.3412 78.3483 10.8861 78.3483 10.3769C78.3483 9.86137 78.4565 9.40629 78.6729 9.01167C78.8893 8.61706 79.1884 8.30837 79.5703 8.0856C79.9586 7.85647 80.4041 7.74191 80.9069 7.74191C81.1933 7.74191 81.4575 7.7801 81.6993 7.85647C81.9412 7.92649 82.1512 8.02514 82.3294 8.15243C82.514 8.27973 82.6636 8.41975 82.7781 8.57251C82.8991 8.72526 82.9786 8.88438 83.0168 9.04986H82.6827V7.84693H84.1911V12.9164H82.654V11.618L82.9786 11.6658C82.9404 11.8313 82.8609 11.9936 82.7399 12.1527C82.619 12.3118 82.4631 12.455 82.2721 12.5823C82.0812 12.7096 81.8648 12.8114 81.6229 12.8878C81.3874 12.9642 81.136 13.0024 80.8687 13.0024ZM81.2792 11.7135C81.5657 11.7135 81.8139 11.6594 82.0239 11.5512C82.2403 11.443 82.4058 11.2903 82.5204 11.0929C82.6413 10.8893 82.7018 10.6506 82.7018 10.3769C82.7018 10.1096 82.6413 9.87728 82.5204 9.67997C82.4058 9.4763 82.2403 9.31718 82.0239 9.20262C81.8139 9.08805 81.5657 9.03077 81.2792 9.03077C80.9928 9.03077 80.7446 9.08805 80.5346 9.20262C80.3245 9.31718 80.159 9.4763 80.0381 9.67997C79.9235 9.87728 79.8663 10.1096 79.8663 10.3769C79.8663 10.6506 79.9235 10.8893 80.0381 11.0929C80.159 11.2903 80.3245 11.443 80.5346 11.5512C80.7446 11.6594 80.9928 11.7135 81.2792 11.7135Z" fill="white"/>
<path d="M40.4525 20.9164C40.1661 20.9164 39.9075 20.8548 39.6768 20.7315C39.4461 20.6042 39.2651 20.4311 39.1338 20.2123C39.0026 19.9936 38.9369 19.7509 38.9369 19.4844C38.9369 19.2059 39.0085 18.9414 39.1517 18.6908C39.2989 18.4402 39.4899 18.2393 39.7246 18.0881C39.9593 17.9369 40.2019 17.8614 40.4525 17.8614C40.7031 17.8614 40.9458 17.9369 41.1805 18.0881C41.4152 18.2393 41.6041 18.4402 41.7474 18.6908C41.8945 18.9414 41.9681 19.2059 41.9681 19.4844C41.9681 19.7509 41.9025 19.9936 41.7712 20.2123C41.6399 20.4311 41.4589 20.6042 41.2282 20.7315C40.9975 20.8548 40.7389 20.9164 40.4525 20.9164ZM40.4525 20.4749C40.6514 20.4749 40.8304 20.4331 40.9895 20.3496C41.1487 20.2621 41.274 20.1427 41.3655 19.9916C41.457 19.8404 41.5027 19.6713 41.5027 19.4844C41.5027 19.2895 41.451 19.1005 41.3476 18.9175C41.2481 18.7345 41.1168 18.5873 40.9537 18.476C40.7907 18.3606 40.6236 18.3029 40.4525 18.3029C40.2854 18.3029 40.1204 18.3606 39.9573 18.476C39.7942 18.5873 39.6609 18.7345 39.5575 18.9175C39.4541 19.1005 39.4023 19.2895 39.4023 19.4844C39.4023 19.6713 39.4481 19.8404 39.5396 19.9916C39.6311 20.1427 39.7564 20.2621 39.9155 20.3496C40.0746 20.4331 40.2536 20.4749 40.4525 20.4749ZM40.8404 17.4437C40.7568 17.4437 40.6872 17.4138 40.6315 17.3542C40.5758 17.2945 40.548 17.2229 40.548 17.1394C40.548 17.0519 40.5758 16.9802 40.6315 16.9246C40.6872 16.8689 40.7568 16.841 40.8404 16.841C40.9199 16.841 40.9876 16.8689 41.0433 16.9246C41.0989 16.9802 41.1268 17.0519 41.1268 17.1394C41.1268 17.2229 41.0989 17.2945 41.0433 17.3542C40.9876 17.4138 40.9199 17.4437 40.8404 17.4437ZM40.0826 17.4437C39.999 17.4437 39.9294 17.4138 39.8737 17.3542C39.818 17.2945 39.7902 17.2229 39.7902 17.1394C39.7902 17.0519 39.818 16.9802 39.8737 16.9246C39.9294 16.8689 39.999 16.841 40.0826 16.841C40.1621 16.841 40.2298 16.8689 40.2854 16.9246C40.3411 16.9802 40.369 17.0519 40.369 17.1394C40.369 17.2229 40.3411 17.2945 40.2854 17.3542C40.2298 17.4138 40.1621 17.4437 40.0826 17.4437ZM42.2086 21.7996C42.4751 21.8115 42.6701 21.7518 42.7934 21.6205C42.9207 21.4893 42.9843 21.2784 42.9843 20.988V18.1179H43.4497V20.988C43.4497 21.3858 43.3463 21.6941 43.1395 21.9129C42.9366 22.1317 42.6522 22.2431 42.2862 22.2471L42.2086 21.7996ZM47.5374 20.4749C47.5851 20.4749 47.6169 20.4928 47.6329 20.5286C47.6488 20.5644 47.6567 20.6201 47.6567 20.6957C47.6567 20.7712 47.6488 20.8269 47.6329 20.8627C47.6169 20.8985 47.5851 20.9164 47.5374 20.9164H46.9049V20.988C46.9049 21.3858 46.8015 21.6941 46.5946 21.9129C46.3917 22.1317 46.1073 22.2431 45.7413 22.2471L45.6638 21.7996C45.9303 21.8115 46.1252 21.7518 46.2485 21.6205C46.3758 21.4893 46.4395 21.2784 46.4395 20.988V20.9164H45.6876C45.3933 20.9164 45.1228 20.8488 44.8761 20.7136C44.6295 20.5783 44.4326 20.3953 44.2854 20.1646C44.1422 19.9299 44.0706 19.6733 44.0706 19.3949C44.0706 19.1164 44.1422 18.8618 44.2854 18.6311C44.4326 18.4004 44.6295 18.2174 44.8761 18.0821C45.1228 17.9469 45.3933 17.8793 45.6876 17.8793C45.8746 17.8793 46.0715 17.9091 46.2784 17.9688C46.4852 18.0284 46.6821 18.11 46.8691 18.2134L46.9049 18.2253V20.4749H47.5374ZM46.4395 20.4749V18.4998C46.157 18.3805 45.9104 18.3208 45.6996 18.3208C45.4768 18.3208 45.2759 18.3705 45.0969 18.47C44.9219 18.5655 44.7846 18.6947 44.6852 18.8578C44.5857 19.0209 44.536 19.2 44.536 19.3949C44.536 19.5898 44.5857 19.7708 44.6852 19.9379C44.7846 20.101 44.9219 20.2322 45.0969 20.3317C45.2759 20.4272 45.4768 20.4749 45.6996 20.4749H46.4395ZM48.4449 20.4749C48.4927 20.4749 48.5245 20.4928 48.5404 20.5286C48.5563 20.5644 48.5643 20.6201 48.5643 20.6957C48.5643 20.7712 48.5563 20.8269 48.5404 20.8627C48.5245 20.8985 48.4927 20.9164 48.4449 20.9164H47.5379C47.4902 20.9164 47.4584 20.8985 47.4425 20.8627C47.4266 20.8269 47.4186 20.7712 47.4186 20.6957C47.4186 20.6201 47.4266 20.5644 47.4425 20.5286C47.4584 20.4928 47.4902 20.4749 47.5379 20.4749H48.4449ZM49.3539 20.4749C49.4017 20.4749 49.4335 20.4928 49.4494 20.5286C49.4653 20.5644 49.4733 20.6201 49.4733 20.6957C49.4733 20.7712 49.4653 20.8269 49.4494 20.8627C49.4335 20.8985 49.4017 20.9164 49.3539 20.9164H48.447C48.3992 20.9164 48.3674 20.8985 48.3515 20.8627C48.3356 20.8269 48.3276 20.7712 48.3276 20.6957C48.3276 20.6201 48.3356 20.5644 48.3515 20.5286C48.3674 20.4928 48.3992 20.4749 48.447 20.4749H49.3539ZM50.263 20.4749C50.3107 20.4749 50.3425 20.4928 50.3584 20.5286C50.3744 20.5644 50.3823 20.6201 50.3823 20.6957C50.3823 20.7712 50.3744 20.8269 50.3584 20.8627C50.3425 20.8985 50.3107 20.9164 50.263 20.9164H49.356C49.3083 20.9164 49.2764 20.8985 49.2605 20.8627C49.2446 20.8269 49.2367 20.7712 49.2367 20.6957C49.2367 20.6201 49.2446 20.5644 49.2605 20.5286C49.2764 20.4928 49.3083 20.4749 49.356 20.4749H50.263ZM51.172 20.4749C51.2197 20.4749 51.2516 20.4928 51.2675 20.5286C51.2834 20.5644 51.2913 20.6201 51.2913 20.6957C51.2913 20.7712 51.2834 20.8269 51.2675 20.8627C51.2516 20.8985 51.2197 20.9164 51.172 20.9164H50.265C50.2173 20.9164 50.1855 20.8985 50.1696 20.8627C50.1536 20.8269 50.1457 20.7712 50.1457 20.6957C50.1457 20.6201 50.1536 20.5644 50.1696 20.5286C50.1855 20.4928 50.2173 20.4749 50.265 20.4749H51.172ZM52.081 20.4749C52.1288 20.4749 52.1606 20.4928 52.1765 20.5286C52.1924 20.5644 52.2004 20.6201 52.2004 20.6957C52.2004 20.7712 52.1924 20.8269 52.1765 20.8627C52.1606 20.8985 52.1288 20.9164 52.081 20.9164H51.1741C51.1263 20.9164 51.0945 20.8985 51.0786 20.8627C51.0627 20.8269 51.0547 20.7712 51.0547 20.6957C51.0547 20.6201 51.0627 20.5644 51.0786 20.5286C51.0945 20.4928 51.1263 20.4749 51.1741 20.4749H52.081ZM52.9901 20.4749C53.0378 20.4749 53.0696 20.4928 53.0855 20.5286C53.1014 20.5644 53.1094 20.6201 53.1094 20.6957C53.1094 20.7712 53.1014 20.8269 53.0855 20.8627C53.0696 20.8985 53.0378 20.9164 52.9901 20.9164H52.0831C52.0353 20.9164 52.0035 20.8985 51.9876 20.8627C51.9717 20.8269 51.9637 20.7712 51.9637 20.6957C51.9637 20.6201 51.9717 20.5644 51.9876 20.5286C52.0035 20.4928 52.0353 20.4749 52.0831 20.4749H52.9901ZM53.8991 20.4749C53.9468 20.4749 53.9786 20.4928 53.9946 20.5286C54.0105 20.5644 54.0184 20.6201 54.0184 20.6957C54.0184 20.7712 54.0105 20.8269 53.9946 20.8627C53.9786 20.8985 53.9468 20.9164 53.8991 20.9164H52.9921C52.9444 20.9164 52.9125 20.8985 52.8966 20.8627C52.8807 20.8269 52.8728 20.7712 52.8728 20.6957C52.8728 20.6201 52.8807 20.5644 52.8966 20.5286C52.9125 20.4928 52.9444 20.4749 52.9921 20.4749H53.8991ZM54.8081 20.4749C54.8558 20.4749 54.8877 20.4928 54.9036 20.5286C54.9195 20.5644 54.9275 20.6201 54.9275 20.6957C54.9275 20.7712 54.9195 20.8269 54.9036 20.8627C54.8877 20.8985 54.8558 20.9164 54.8081 20.9164H53.9011C53.8534 20.9164 53.8216 20.8985 53.8057 20.8627C53.7898 20.8269 53.7818 20.7712 53.7818 20.6957C53.7818 20.6201 53.7898 20.5644 53.8057 20.5286C53.8216 20.4928 53.8534 20.4749 53.9011 20.4749H54.8081ZM55.7171 20.4749C55.7649 20.4749 55.7967 20.4928 55.8126 20.5286C55.8285 20.5644 55.8365 20.6201 55.8365 20.6957C55.8365 20.7712 55.8285 20.8269 55.8126 20.8627C55.7967 20.8985 55.7649 20.9164 55.7171 20.9164H54.8102C54.7624 20.9164 54.7306 20.8985 54.7147 20.8627C54.6988 20.8269 54.6908 20.7712 54.6908 20.6957C54.6908 20.6201 54.6988 20.5644 54.7147 20.5286C54.7306 20.4928 54.7624 20.4749 54.8102 20.4749H55.7171ZM56.6262 20.4749C56.6739 20.4749 56.7057 20.4928 56.7216 20.5286C56.7375 20.5644 56.7455 20.6201 56.7455 20.6957C56.7455 20.7712 56.7375 20.8269 56.7216 20.8627C56.7057 20.8985 56.6739 20.9164 56.6262 20.9164H55.7192C55.6715 20.9164 55.6396 20.8985 55.6237 20.8627C55.6078 20.8269 55.5998 20.7712 55.5998 20.6957C55.5998 20.6201 55.6078 20.5644 55.6237 20.5286C55.6396 20.4928 55.6715 20.4749 55.7192 20.4749H56.6262ZM57.5352 20.4749C57.5829 20.4749 57.6148 20.4928 57.6307 20.5286C57.6466 20.5644 57.6545 20.6201 57.6545 20.6957C57.6545 20.7712 57.6466 20.8269 57.6307 20.8627C57.6148 20.8985 57.5829 20.9164 57.5352 20.9164H56.6282C56.5805 20.9164 56.5487 20.8985 56.5327 20.8627C56.5168 20.8269 56.5089 20.7712 56.5089 20.6957C56.5089 20.6201 56.5168 20.5644 56.5327 20.5286C56.5487 20.4928 56.5805 20.4749 56.6282 20.4749H57.5352ZM58.4442 20.4749C58.492 20.4749 58.5238 20.4928 58.5397 20.5286C58.5556 20.5644 58.5636 20.6201 58.5636 20.6957C58.5636 20.7712 58.5556 20.8269 58.5397 20.8627C58.5238 20.8985 58.492 20.9164 58.4442 20.9164H57.5372C57.4895 20.9164 57.4577 20.8985 57.4418 20.8627C57.4259 20.8269 57.4179 20.7712 57.4179 20.6957C57.4179 20.6201 57.4259 20.5644 57.4418 20.5286C57.4577 20.4928 57.4895 20.4749 57.5372 20.4749H58.4442ZM59.3532 20.4749C59.401 20.4749 59.4328 20.4928 59.4487 20.5286C59.4646 20.5644 59.4726 20.6201 59.4726 20.6957C59.4726 20.7712 59.4646 20.8269 59.4487 20.8627C59.4328 20.8985 59.401 20.9164 59.3532 20.9164H58.4463C58.3985 20.9164 58.3667 20.8985 58.3508 20.8627C58.3349 20.8269 58.3269 20.7712 58.3269 20.6957C58.3269 20.6201 58.3349 20.5644 58.3508 20.5286C58.3667 20.4928 58.3985 20.4749 58.4463 20.4749H59.3532ZM60.2623 20.4749C60.31 20.4749 60.3418 20.4928 60.3577 20.5286C60.3737 20.5644 60.3816 20.6201 60.3816 20.6957C60.3816 20.7712 60.3737 20.8269 60.3577 20.8627C60.3418 20.8985 60.31 20.9164 60.2623 20.9164H59.3553C59.3076 20.9164 59.2757 20.8985 59.2598 20.8627C59.2439 20.8269 59.236 20.7712 59.236 20.6957C59.236 20.6201 59.2439 20.5644 59.2598 20.5286C59.2757 20.4928 59.3076 20.4749 59.3553 20.4749H60.2623ZM61.1713 20.4749C61.219 20.4749 61.2509 20.4928 61.2668 20.5286C61.2827 20.5644 61.2906 20.6201 61.2906 20.6957C61.2906 20.7712 61.2827 20.8269 61.2668 20.8627C61.2509 20.8985 61.219 20.9164 61.1713 20.9164H60.2643C60.2166 20.9164 60.1848 20.8985 60.1689 20.8627C60.1529 20.8269 60.145 20.7712 60.145 20.6957C60.145 20.6201 60.1529 20.5644 60.1689 20.5286C60.1848 20.4928 60.2166 20.4749 60.2643 20.4749H61.1713ZM66.6391 20.4749C66.6868 20.4749 66.7186 20.4928 66.7345 20.5286C66.7505 20.5644 66.7584 20.6201 66.7584 20.6957C66.7584 20.7712 66.7505 20.8269 66.7345 20.8627C66.7186 20.8985 66.6868 20.9164 66.6391 20.9164H66.4183C66.0643 20.9164 65.7818 20.8269 65.571 20.6479C65.392 20.8269 65.1195 20.9164 64.7535 20.9164C64.3955 20.9164 64.1131 20.8289 63.9062 20.6539C63.7352 20.8289 63.4647 20.9164 63.0947 20.9164C62.7367 20.9164 62.4543 20.8289 62.2474 20.6539C62.0724 20.8289 61.7879 20.9164 61.3941 20.9164H61.1734C61.1256 20.9164 61.0938 20.8985 61.0779 20.8627C61.062 20.8269 61.054 20.7712 61.054 20.6957C61.054 20.6201 61.062 20.5644 61.0779 20.5286C61.0938 20.4928 61.1256 20.4749 61.1734 20.4749H61.3583C61.6129 20.4749 61.7899 20.4272 61.8894 20.3317C61.9928 20.2362 62.0445 20.0731 62.0445 19.8424V18.7325H62.5099V19.8484C62.5099 20.0433 62.4881 20.2004 62.4443 20.3197C62.5756 20.4232 62.7705 20.4749 63.0291 20.4749C63.2797 20.4749 63.4547 20.4272 63.5542 20.3317C63.6536 20.2362 63.7033 20.0731 63.7033 19.8424V18.4342H64.1688V19.8484C64.1688 20.0234 64.1469 20.1805 64.1031 20.3197C64.2304 20.4232 64.4253 20.4749 64.6879 20.4749C64.9385 20.4749 65.1135 20.4272 65.213 20.3317C65.3124 20.2362 65.3621 20.0731 65.3621 19.8424V18.1358H65.8276V19.8484C65.8276 20.0353 65.8077 20.1905 65.7679 20.3138C65.9071 20.4212 66.0861 20.4749 66.3049 20.4749H66.6391ZM63.9301 16.4949C64.0057 16.4949 64.0673 16.5208 64.1151 16.5725C64.1668 16.6242 64.1926 16.6899 64.1926 16.7694C64.1926 16.849 64.1668 16.9146 64.1151 16.9663C64.0673 17.018 64.0057 17.0439 63.9301 17.0439C63.8545 17.0439 63.7909 17.018 63.7391 16.9663C63.6914 16.9146 63.6675 16.849 63.6675 16.7694C63.6675 16.6899 63.6914 16.6242 63.7391 16.5725C63.7909 16.5208 63.8545 16.4949 63.9301 16.4949ZM63.5601 17.0916C63.6397 17.0916 63.7073 17.1215 63.763 17.1811C63.8187 17.2408 63.8465 17.3124 63.8465 17.3959C63.8465 17.4835 63.8187 17.5551 63.763 17.6108C63.7073 17.6664 63.6397 17.6943 63.5601 17.6943C63.4766 17.6943 63.407 17.6664 63.3513 17.6108C63.2956 17.5551 63.2677 17.4835 63.2677 17.3959C63.2677 17.3124 63.2956 17.2408 63.3513 17.1811C63.407 17.1215 63.4766 17.0916 63.5601 17.0916ZM64.3179 17.0916C64.3975 17.0916 64.4651 17.1215 64.5208 17.1811C64.5765 17.2408 64.6043 17.3124 64.6043 17.3959C64.6043 17.4835 64.5765 17.5551 64.5208 17.6108C64.4651 17.6664 64.3975 17.6943 64.3179 17.6943C64.2344 17.6943 64.1648 17.6664 64.1091 17.6108C64.0534 17.5551 64.0256 17.4835 64.0256 17.3959C64.0256 17.3124 64.0534 17.2408 64.1091 17.1811C64.1648 17.1215 64.2344 17.0916 64.3179 17.0916ZM67.5461 20.4749C67.5939 20.4749 67.6257 20.4928 67.6416 20.5286C67.6575 20.5644 67.6655 20.6201 67.6655 20.6957C67.6655 20.7712 67.6575 20.8269 67.6416 20.8627C67.6257 20.8985 67.5939 20.9164 67.5461 20.9164H66.6392C66.5914 20.9164 66.5596 20.8985 66.5437 20.8627C66.5278 20.8269 66.5198 20.7712 66.5198 20.6957C66.5198 20.6201 66.5278 20.5644 66.5437 20.5286C66.5596 20.4928 66.5914 20.4749 66.6392 20.4749H67.5461ZM68.4552 20.4749C68.5029 20.4749 68.5347 20.4928 68.5506 20.5286C68.5666 20.5644 68.5745 20.6201 68.5745 20.6957C68.5745 20.7712 68.5666 20.8269 68.5506 20.8627C68.5347 20.8985 68.5029 20.9164 68.4552 20.9164H67.5482C67.5005 20.9164 67.4686 20.8985 67.4527 20.8627C67.4368 20.8269 67.4289 20.7712 67.4289 20.6957C67.4289 20.6201 67.4368 20.5644 67.4527 20.5286C67.4686 20.4928 67.5005 20.4749 67.5482 20.4749H68.4552ZM69.3642 20.4749C69.4119 20.4749 69.4438 20.4928 69.4597 20.5286C69.4756 20.5644 69.4835 20.6201 69.4835 20.6957C69.4835 20.7712 69.4756 20.8269 69.4597 20.8627C69.4438 20.8985 69.4119 20.9164 69.3642 20.9164H68.4572C68.4095 20.9164 68.3777 20.8985 68.3617 20.8627C68.3458 20.8269 68.3379 20.7712 68.3379 20.6957C68.3379 20.6201 68.3458 20.5644 68.3617 20.5286C68.3777 20.4928 68.4095 20.4749 68.4572 20.4749H69.3642ZM70.2732 20.4749C70.321 20.4749 70.3528 20.4928 70.3687 20.5286C70.3846 20.5644 70.3926 20.6201 70.3926 20.6957C70.3926 20.7712 70.3846 20.8269 70.3687 20.8627C70.3528 20.8985 70.321 20.9164 70.2732 20.9164H69.3662C69.3185 20.9164 69.2867 20.8985 69.2708 20.8627C69.2549 20.8269 69.2469 20.7712 69.2469 20.6957C69.2469 20.6201 69.2549 20.5644 69.2708 20.5286C69.2867 20.4928 69.3185 20.4749 69.3662 20.4749H70.2732ZM71.1823 20.4749C71.23 20.4749 71.2618 20.4928 71.2777 20.5286C71.2936 20.5644 71.3016 20.6201 71.3016 20.6957C71.3016 20.7712 71.2936 20.8269 71.2777 20.8627C71.2618 20.8985 71.23 20.9164 71.1823 20.9164H70.2753C70.2275 20.9164 70.1957 20.8985 70.1798 20.8627C70.1639 20.8269 70.1559 20.7712 70.1559 20.6957C70.1559 20.6201 70.1639 20.5644 70.1798 20.5286C70.1957 20.4928 70.2275 20.4749 70.2753 20.4749H71.1823ZM72.0913 20.4749C72.139 20.4749 72.1708 20.4928 72.1867 20.5286C72.2027 20.5644 72.2106 20.6201 72.2106 20.6957C72.2106 20.7712 72.2027 20.8269 72.1867 20.8627C72.1708 20.8985 72.139 20.9164 72.0913 20.9164H71.1843C71.1366 20.9164 71.1047 20.8985 71.0888 20.8627C71.0729 20.8269 71.065 20.7712 71.065 20.6957C71.065 20.6201 71.0729 20.5644 71.0888 20.5286C71.1047 20.4928 71.1366 20.4749 71.1843 20.4749H72.0913ZM73.0003 20.4749C73.048 20.4749 73.0799 20.4928 73.0958 20.5286C73.1117 20.5644 73.1196 20.6201 73.1196 20.6957C73.1196 20.7712 73.1117 20.8269 73.0958 20.8627C73.0799 20.8985 73.048 20.9164 73.0003 20.9164H72.0933C72.0456 20.9164 72.0138 20.8985 71.9979 20.8627C71.9819 20.8269 71.974 20.7712 71.974 20.6957C71.974 20.6201 71.9819 20.5644 71.9979 20.5286C72.0138 20.4928 72.0456 20.4749 72.0933 20.4749H73.0003ZM73.9093 20.4749C73.9571 20.4749 73.9889 20.4928 74.0048 20.5286C74.0207 20.5644 74.0287 20.6201 74.0287 20.6957C74.0287 20.7712 74.0207 20.8269 74.0048 20.8627C73.9889 20.8985 73.9571 20.9164 73.9093 20.9164H73.0024C72.9546 20.9164 72.9228 20.8985 72.9069 20.8627C72.891 20.8269 72.883 20.7712 72.883 20.6957C72.883 20.6201 72.891 20.5644 72.9069 20.5286C72.9228 20.4928 72.9546 20.4749 73.0024 20.4749H73.9093ZM74.8184 20.4749C74.8661 20.4749 74.8979 20.4928 74.9138 20.5286C74.9297 20.5644 74.9377 20.6201 74.9377 20.6957C74.9377 20.7712 74.9297 20.8269 74.9138 20.8627C74.8979 20.8985 74.8661 20.9164 74.8184 20.9164H73.9114C73.8636 20.9164 73.8318 20.8985 73.8159 20.8627C73.8 20.8269 73.792 20.7712 73.792 20.6957C73.792 20.6201 73.8 20.5644 73.8159 20.5286C73.8318 20.4928 73.8636 20.4749 73.9114 20.4749H74.8184ZM75.7274 20.4749C75.7751 20.4749 75.8069 20.4928 75.8229 20.5286C75.8388 20.5644 75.8467 20.6201 75.8467 20.6957C75.8467 20.7712 75.8388 20.8269 75.8229 20.8627C75.8069 20.8985 75.7751 20.9164 75.7274 20.9164H74.8204C74.7727 20.9164 74.7408 20.8985 74.7249 20.8627C74.709 20.8269 74.7011 20.7712 74.7011 20.6957C74.7011 20.6201 74.709 20.5644 74.7249 20.5286C74.7408 20.4928 74.7727 20.4749 74.8204 20.4749H75.7274ZM76.6364 20.4749C76.6841 20.4749 76.716 20.4928 76.7319 20.5286C76.7478 20.5644 76.7557 20.6201 76.7557 20.6957C76.7557 20.7712 76.7478 20.8269 76.7319 20.8627C76.716 20.8985 76.6841 20.9164 76.6364 20.9164H75.7294C75.6817 20.9164 75.6499 20.8985 75.634 20.8627C75.6181 20.8269 75.6101 20.7712 75.6101 20.6957C75.6101 20.6201 75.6181 20.5644 75.634 20.5286C75.6499 20.4928 75.6817 20.4749 75.7294 20.4749H76.6364ZM77.5454 20.4749C77.5932 20.4749 77.625 20.4928 77.6409 20.5286C77.6568 20.5644 77.6648 20.6201 77.6648 20.6957C77.6648 20.7712 77.6568 20.8269 77.6409 20.8627C77.625 20.8985 77.5932 20.9164 77.5454 20.9164H76.6385C76.5907 20.9164 76.5589 20.8985 76.543 20.8627C76.5271 20.8269 76.5191 20.7712 76.5191 20.6957C76.5191 20.6201 76.5271 20.5644 76.543 20.5286C76.5589 20.4928 76.5907 20.4749 76.6385 20.4749H77.5454ZM78.4545 20.4749C78.5022 20.4749 78.534 20.4928 78.5499 20.5286C78.5658 20.5644 78.5738 20.6201 78.5738 20.6957C78.5738 20.7712 78.5658 20.8269 78.5499 20.8627C78.534 20.8985 78.5022 20.9164 78.4545 20.9164H77.5475C77.4998 20.9164 77.4679 20.8985 77.452 20.8627C77.4361 20.8269 77.4282 20.7712 77.4282 20.6957C77.4282 20.6201 77.4361 20.5644 77.452 20.5286C77.4679 20.4928 77.4998 20.4749 77.5475 20.4749H78.4545ZM79.3635 20.4749C79.4112 20.4749 79.4431 20.4928 79.459 20.5286C79.4749 20.5644 79.4828 20.6201 79.4828 20.6957C79.4828 20.7712 79.4749 20.8269 79.459 20.8627C79.4431 20.8985 79.4112 20.9164 79.3635 20.9164H78.4565C78.4088 20.9164 78.377 20.8985 78.361 20.8627C78.3451 20.8269 78.3372 20.7712 78.3372 20.6957C78.3372 20.6201 78.3451 20.5644 78.361 20.5286C78.377 20.4928 78.4088 20.4749 78.4565 20.4749H79.3635ZM80.2725 20.4749C80.3203 20.4749 80.3521 20.4928 80.368 20.5286C80.3839 20.5644 80.3919 20.6201 80.3919 20.6957C80.3919 20.7712 80.3839 20.8269 80.368 20.8627C80.3521 20.8985 80.3203 20.9164 80.2725 20.9164H79.3655C79.3178 20.9164 79.286 20.8985 79.2701 20.8627C79.2542 20.8269 79.2462 20.7712 79.2462 20.6957C79.2462 20.6201 79.2542 20.5644 79.2701 20.5286C79.286 20.4928 79.3178 20.4749 79.3655 20.4749H80.2725ZM81.5296 16.2408H82.9438V16.4795H81.5296V16.2408ZM82.2496 17.8315C82.5639 17.8315 82.8642 17.9489 83.1506 18.1836C83.441 18.4183 83.6718 18.7425 83.8428 19.1562C84.0178 19.5699 84.0994 20.0294 84.0874 20.5346C83.813 20.6579 83.5186 20.7533 83.2043 20.821C82.8901 20.8846 82.6057 20.9164 82.3511 20.9164C81.9413 20.9164 81.5396 20.819 81.1457 20.6241C80.9588 20.819 80.6982 20.9164 80.3641 20.9164H80.2746C80.2268 20.9164 80.195 20.8985 80.1791 20.8627C80.1632 20.8269 80.1552 20.7712 80.1552 20.6957C80.1552 20.6201 80.1632 20.5644 80.1791 20.5286C80.195 20.4928 80.2268 20.4749 80.2746 20.4749H80.3641C80.5391 20.4749 80.6783 20.4331 80.7818 20.3496C80.8852 20.2621 80.9488 20.1348 80.9727 19.9677L80.9906 19.8126C81.0224 19.5023 81.0722 19.2099 81.1398 18.9354C81.2074 18.6609 81.3307 18.4083 81.5097 18.1776C81.6887 17.9469 81.9354 17.8315 82.2496 17.8315ZM81.3844 20.2481C81.7027 20.3993 82.0269 20.4749 82.357 20.4749C82.548 20.4749 82.7548 20.455 82.9776 20.4152C83.2004 20.3754 83.4132 20.3178 83.6161 20.2422C83.5922 19.8961 83.5126 19.5719 83.3774 19.2696C83.2461 18.9672 83.081 18.7266 82.8821 18.5476C82.6872 18.3646 82.4843 18.2731 82.2735 18.2731C82.0746 18.2731 81.9175 18.3586 81.8021 18.5297C81.6907 18.6967 81.6132 18.8877 81.5694 19.1025C81.5256 19.3133 81.4898 19.554 81.462 19.8245C81.462 19.8126 81.454 19.8822 81.4381 20.0333C81.4262 20.1089 81.4083 20.1805 81.3844 20.2481Z" fill="white"/>
</svg>
