<svg width="53" height="53" viewBox="0 0 53 53" fill="none" xmlns="http://www.w3.org/2000/svg">
<rect x="0.582031" y="0.734375" width="51.8367" height="51.8367" rx="10.3673" fill="#FFC107"/>
<path d="M26.4537 17.4561L26.4537 17.4561L26.4564 17.452C26.5978 17.2382 26.8778 17.0163 27.2388 16.8887C27.5943 16.7631 27.9695 16.7495 28.2918 16.8699L28.3018 16.8736L28.3118 16.877C29.075 17.134 29.5726 18.0109 29.4185 18.7298L29.4149 18.7467L29.4122 18.7638L28.8506 22.2952L28.8494 22.3033L28.8483 22.3113C28.7821 22.8076 28.9154 23.2785 29.2137 23.647L29.2238 23.6594L29.2345 23.6714C29.5355 24.0078 29.9785 24.2221 30.4625 24.2221H34.901C35.5795 24.2221 36.1006 24.4928 36.3919 24.8992C36.6613 25.2834 36.7373 25.813 36.5253 26.4151L36.5252 26.415L36.5209 26.4281L33.8642 34.5168L33.8569 34.5391L33.8512 34.5618C33.5937 35.5917 32.4118 36.5009 31.24 36.5009H27.0283C26.7322 36.5009 26.36 36.4488 26.015 36.3457C25.6567 36.2387 25.4055 36.1 25.2834 35.9779L25.2543 35.9488L25.2217 35.9235L23.8394 34.8544L23.8394 34.8544L23.8334 34.8498C23.4694 34.575 23.2485 34.1308 23.2485 33.6607L23.2485 22.6885C23.2485 22.3864 23.3392 22.0904 23.5062 21.8394C23.5065 21.8391 23.5067 21.8388 23.5069 21.8384L26.4537 17.4561Z" fill="#11002A" stroke="#11002A" stroke-width="1.29592"/>
<path d="M18.0554 21.23H19.1678C19.9448 21.23 20.3263 21.3848 20.5254 21.5747C20.7169 21.7573 20.874 22.1023 20.874 22.8283V33.6924C20.874 34.4184 20.7169 34.7634 20.5254 34.946C20.3263 35.1359 19.9448 35.2907 19.1678 35.2907H18.0554C17.2784 35.2907 16.8969 35.1359 16.6978 34.946C16.5063 34.7634 16.3491 34.4184 16.3491 33.6924V22.8283C16.3491 22.1023 16.5063 21.7573 16.6978 21.5747C16.8969 21.3848 17.2784 21.23 18.0554 21.23Z" fill="#11002A" stroke="#11002A" stroke-width="1.29592"/>
</svg>
